G04 (created by PCBNEW (2013-may-18)-stable) date Mon 20 Apr 2015 02:12:07 PM EDT*
%MOIN*%
G04 Gerber Fmt 3.4, Leading zero omitted, Abs format*
%FSLAX34Y34*%
G01*
G70*
G90*
G04 APERTURE LIST*
%ADD10C,0.00590551*%
%ADD11C,0.219*%
%ADD12R,0.05X0.016*%
%ADD13R,0.144X0.08*%
%ADD14R,0.04X0.08*%
%ADD15R,0.025X0.05*%
%ADD16R,0.0394X0.0394*%
%ADD17R,0.0866X0.06*%
%ADD18O,0.0866X0.06*%
%ADD19C,0.0984252*%
%ADD20R,0.0708661X0.0590551*%
%ADD21R,0.0217X0.0512*%
%ADD22R,0.0512X0.0217*%
%ADD23R,0.0723291X0.0998882*%
%ADD24R,0.063X0.1024*%
%ADD25R,0.0394X0.0354*%
%ADD26R,0.0354X0.0394*%
%ADD27R,0.0314X0.0314*%
%ADD28R,0.0747X0.0747*%
%ADD29R,0.0157X0.0531*%
%ADD30R,0.0157X0.053*%
%ADD31R,0.0827X0.0669*%
%ADD32R,0.0590551X0.0787402*%
%ADD33O,0.0590551X0.0787402*%
%ADD34R,0.0865X0.059*%
%ADD35O,0.0865X0.059*%
%ADD36C,0.01*%
G04 APERTURE END LIST*
G54D10*
G54D11*
X19000Y-20000D03*
X60000Y-20000D03*
X60000Y-56000D03*
G54D12*
X25600Y-49850D03*
X25600Y-50100D03*
X25600Y-50360D03*
X25600Y-50620D03*
X25600Y-50870D03*
X25600Y-51130D03*
X25600Y-51390D03*
X25600Y-51640D03*
X25600Y-51900D03*
X25600Y-52150D03*
X25600Y-52410D03*
X25600Y-52670D03*
X25600Y-52920D03*
X25600Y-53180D03*
X28400Y-53180D03*
X28400Y-52920D03*
X28400Y-52680D03*
X28400Y-52410D03*
X28400Y-52150D03*
X28400Y-51900D03*
X28400Y-51640D03*
X28400Y-51390D03*
X28400Y-51130D03*
X28400Y-50870D03*
X28400Y-50620D03*
X28400Y-50360D03*
X28400Y-50100D03*
X28400Y-49850D03*
G54D13*
X27500Y-43950D03*
G54D14*
X27500Y-46550D03*
X28400Y-46550D03*
X26600Y-46550D03*
G54D15*
X35750Y-49400D03*
X35250Y-49400D03*
X34750Y-49400D03*
X34250Y-49400D03*
X34250Y-51600D03*
X34750Y-51600D03*
X35250Y-51600D03*
X35750Y-51600D03*
G54D16*
X34917Y-43250D03*
X32083Y-43250D03*
G54D17*
X23000Y-53000D03*
G54D18*
X23000Y-54000D03*
X23000Y-55000D03*
G54D19*
X59000Y-31110D03*
X59000Y-33078D03*
X59000Y-35047D03*
X59000Y-37015D03*
X59000Y-38984D03*
X59000Y-40952D03*
X59000Y-44889D03*
X59000Y-42921D03*
X23110Y-21000D03*
X25078Y-21000D03*
X27047Y-21000D03*
X29015Y-21000D03*
X30984Y-21000D03*
X32952Y-21000D03*
X36889Y-21000D03*
X34921Y-21000D03*
X20000Y-44889D03*
X20000Y-42921D03*
X20000Y-40952D03*
X20000Y-38984D03*
X20000Y-37015D03*
X20000Y-35047D03*
X20000Y-31110D03*
X20000Y-33078D03*
X42984Y-21000D03*
X41015Y-21000D03*
X20000Y-49015D03*
X20000Y-50984D03*
X48984Y-21000D03*
X47015Y-21000D03*
X54984Y-21000D03*
X53015Y-21000D03*
X34015Y-55000D03*
X35984Y-55000D03*
G54D20*
X53000Y-29274D03*
X54000Y-29274D03*
X55000Y-29274D03*
X55000Y-25726D03*
X54000Y-25726D03*
X53000Y-25728D03*
X47000Y-29274D03*
X48000Y-29274D03*
X49000Y-29274D03*
X49000Y-25726D03*
X48000Y-25726D03*
X47000Y-25728D03*
X41000Y-29274D03*
X42000Y-29274D03*
X43000Y-29274D03*
X43000Y-25726D03*
X42000Y-25726D03*
X41000Y-25728D03*
G54D21*
X39343Y-39614D03*
X39657Y-39614D03*
X39972Y-39614D03*
X40287Y-39614D03*
X40602Y-39614D03*
X38398Y-39614D03*
X38713Y-39614D03*
X39028Y-39614D03*
G54D22*
X41114Y-39102D03*
X41114Y-38787D03*
X41114Y-38472D03*
X41114Y-38157D03*
X41114Y-37843D03*
X41114Y-37528D03*
X41114Y-37213D03*
X41114Y-36898D03*
G54D21*
X40602Y-36386D03*
X40287Y-36386D03*
X39972Y-36386D03*
X39657Y-36386D03*
X39343Y-36386D03*
X39028Y-36386D03*
X38713Y-36386D03*
X38398Y-36386D03*
G54D22*
X37886Y-36898D03*
X37886Y-37213D03*
X37886Y-37528D03*
X37886Y-37843D03*
X37886Y-38157D03*
X37886Y-38472D03*
X37886Y-38787D03*
X37886Y-39102D03*
G54D23*
X43728Y-40000D03*
X42271Y-40000D03*
G54D24*
X25000Y-45041D03*
X25000Y-46459D03*
X30000Y-46459D03*
X30000Y-45041D03*
G54D11*
X19000Y-56000D03*
G54D25*
X42250Y-41204D03*
X42250Y-41796D03*
X43750Y-41204D03*
X43750Y-41796D03*
G54D26*
X27296Y-47750D03*
X26704Y-47750D03*
G54D25*
X29500Y-51954D03*
X29500Y-52546D03*
X36500Y-50796D03*
X36500Y-50204D03*
G54D27*
X38550Y-54155D03*
X38550Y-54745D03*
X39250Y-54155D03*
X39250Y-54745D03*
X31500Y-52045D03*
X31500Y-51455D03*
X30750Y-52045D03*
X30750Y-51455D03*
X31045Y-48750D03*
X30455Y-48750D03*
G54D25*
X38550Y-52954D03*
X38550Y-53546D03*
X39250Y-52954D03*
X39250Y-53546D03*
X31500Y-52704D03*
X31500Y-53296D03*
X30750Y-52704D03*
X30750Y-53296D03*
G54D26*
X32296Y-48750D03*
X31704Y-48750D03*
G54D25*
X35000Y-44954D03*
X35000Y-45546D03*
X39350Y-40404D03*
X39350Y-40996D03*
X39500Y-35546D03*
X39500Y-34954D03*
X47000Y-30796D03*
X47000Y-30204D03*
X41000Y-30796D03*
X41000Y-30204D03*
X53000Y-30796D03*
X53000Y-30204D03*
G54D28*
X26528Y-57000D03*
X27472Y-57000D03*
X28555Y-57000D03*
X25445Y-57000D03*
G54D29*
X26488Y-55947D03*
G54D30*
X26745Y-55947D03*
X27000Y-55947D03*
X27255Y-55947D03*
X27512Y-55947D03*
G54D31*
X42681Y-24250D03*
X41319Y-24250D03*
X48681Y-24250D03*
X47319Y-24250D03*
X54681Y-24250D03*
X53319Y-24250D03*
G54D26*
X49546Y-31250D03*
X48954Y-31250D03*
X43546Y-31250D03*
X42954Y-31250D03*
X55546Y-31250D03*
X54954Y-31250D03*
G54D32*
X40500Y-44401D03*
G54D33*
X40500Y-45598D03*
X39500Y-44401D03*
X39500Y-45598D03*
X38500Y-44401D03*
X38500Y-45598D03*
G54D27*
X43545Y-30500D03*
X42955Y-30500D03*
X49545Y-30500D03*
X48955Y-30500D03*
X55545Y-30500D03*
X54955Y-30500D03*
G54D26*
X35296Y-52250D03*
X34704Y-52250D03*
G54D34*
X38000Y-48250D03*
G54D35*
X41000Y-48250D03*
X38000Y-49250D03*
X41000Y-49250D03*
G54D25*
X33500Y-45546D03*
X33500Y-44954D03*
X34250Y-45546D03*
X34250Y-44954D03*
G54D10*
G36*
X23450Y-27950D02*
X18300Y-27950D01*
X18300Y-25050D01*
X23450Y-25050D01*
X23450Y-27950D01*
X23450Y-27950D01*
G37*
G54D36*
X23450Y-27950D02*
X18300Y-27950D01*
X18300Y-25050D01*
X23450Y-25050D01*
X23450Y-27950D01*
M02*
