G04 (created by PCBNEW (2013-may-18)-stable) date Mon 20 Apr 2015 02:12:07 PM EDT*
%MOIN*%
G04 Gerber Fmt 3.4, Leading zero omitted, Abs format*
%FSLAX34Y34*%
G01*
G70*
G90*
G04 APERTURE LIST*
%ADD10C,0.00590551*%
%ADD11C,0.219*%
%ADD12R,0.05X0.016*%
%ADD13R,0.144X0.08*%
%ADD14R,0.04X0.08*%
%ADD15R,0.025X0.05*%
%ADD16R,0.0394X0.0394*%
%ADD17R,0.0866X0.06*%
%ADD18O,0.0866X0.06*%
%ADD19C,0.0984252*%
%ADD20R,0.0708661X0.0590551*%
%ADD21R,0.0217X0.0512*%
%ADD22R,0.0512X0.0217*%
%ADD23R,0.0669291X0.0944882*%
%ADD24R,0.063X0.1024*%
%ADD25R,0.0394X0.0354*%
%ADD26R,0.0354X0.0394*%
%ADD27R,0.0314X0.0314*%
%ADD28R,0.0747X0.0747*%
%ADD29R,0.0157X0.0531*%
%ADD30R,0.0157X0.053*%
%ADD31R,0.0827X0.0669*%
%ADD32R,0.0590551X0.0787402*%
%ADD33O,0.0590551X0.0787402*%
%ADD34R,0.0865X0.059*%
%ADD35O,0.0865X0.059*%
%ADD36C,0.035*%
%ADD37C,0.045*%
%ADD38C,0.01*%
%ADD39C,0.035*%
%ADD40C,0.025*%
G04 APERTURE END LIST*
G54D10*
G54D11*
X19000Y-20000D03*
X60000Y-20000D03*
X60000Y-56000D03*
G54D12*
X25600Y-49850D03*
X25600Y-50100D03*
X25600Y-50360D03*
X25600Y-50620D03*
X25600Y-50870D03*
X25600Y-51130D03*
X25600Y-51390D03*
X25600Y-51640D03*
X25600Y-51900D03*
X25600Y-52150D03*
X25600Y-52410D03*
X25600Y-52670D03*
X25600Y-52920D03*
X25600Y-53180D03*
X28400Y-53180D03*
X28400Y-52920D03*
X28400Y-52680D03*
X28400Y-52410D03*
X28400Y-52150D03*
X28400Y-51900D03*
X28400Y-51640D03*
X28400Y-51390D03*
X28400Y-51130D03*
X28400Y-50870D03*
X28400Y-50620D03*
X28400Y-50360D03*
X28400Y-50100D03*
X28400Y-49850D03*
G54D13*
X27500Y-43950D03*
G54D14*
X27500Y-46550D03*
X28400Y-46550D03*
X26600Y-46550D03*
G54D15*
X35750Y-49400D03*
X35250Y-49400D03*
X34750Y-49400D03*
X34250Y-49400D03*
X34250Y-51600D03*
X34750Y-51600D03*
X35250Y-51600D03*
X35750Y-51600D03*
G54D16*
X34917Y-43250D03*
X32083Y-43250D03*
G54D17*
X23000Y-53000D03*
G54D18*
X23000Y-54000D03*
X23000Y-55000D03*
G54D19*
X59000Y-31110D03*
X59000Y-33078D03*
X59000Y-35047D03*
X59000Y-37015D03*
X59000Y-38984D03*
X59000Y-40952D03*
X59000Y-44889D03*
X59000Y-42921D03*
X23110Y-21000D03*
X25078Y-21000D03*
X27047Y-21000D03*
X29015Y-21000D03*
X30984Y-21000D03*
X32952Y-21000D03*
X36889Y-21000D03*
X34921Y-21000D03*
X20000Y-44889D03*
X20000Y-42921D03*
X20000Y-40952D03*
X20000Y-38984D03*
X20000Y-37015D03*
X20000Y-35047D03*
X20000Y-31110D03*
X20000Y-33078D03*
X42984Y-21000D03*
X41015Y-21000D03*
X20000Y-49015D03*
X20000Y-50984D03*
X48984Y-21000D03*
X47015Y-21000D03*
X54984Y-21000D03*
X53015Y-21000D03*
X34015Y-55000D03*
X35984Y-55000D03*
G54D20*
X53000Y-29274D03*
X54000Y-29274D03*
X55000Y-29274D03*
X55000Y-25726D03*
X54000Y-25726D03*
X53000Y-25728D03*
X47000Y-29274D03*
X48000Y-29274D03*
X49000Y-29274D03*
X49000Y-25726D03*
X48000Y-25726D03*
X47000Y-25728D03*
X41000Y-29274D03*
X42000Y-29274D03*
X43000Y-29274D03*
X43000Y-25726D03*
X42000Y-25726D03*
X41000Y-25728D03*
G54D21*
X39343Y-39614D03*
X39657Y-39614D03*
X39972Y-39614D03*
X40287Y-39614D03*
X40602Y-39614D03*
X38398Y-39614D03*
X38713Y-39614D03*
X39028Y-39614D03*
G54D22*
X41114Y-39102D03*
X41114Y-38787D03*
X41114Y-38472D03*
X41114Y-38157D03*
X41114Y-37843D03*
X41114Y-37528D03*
X41114Y-37213D03*
X41114Y-36898D03*
G54D21*
X40602Y-36386D03*
X40287Y-36386D03*
X39972Y-36386D03*
X39657Y-36386D03*
X39343Y-36386D03*
X39028Y-36386D03*
X38713Y-36386D03*
X38398Y-36386D03*
G54D22*
X37886Y-36898D03*
X37886Y-37213D03*
X37886Y-37528D03*
X37886Y-37843D03*
X37886Y-38157D03*
X37886Y-38472D03*
X37886Y-38787D03*
X37886Y-39102D03*
G54D23*
X43728Y-40000D03*
X42271Y-40000D03*
G54D24*
X25000Y-45041D03*
X25000Y-46459D03*
X30000Y-46459D03*
X30000Y-45041D03*
G54D11*
X19000Y-56000D03*
G54D25*
X42250Y-41204D03*
X42250Y-41796D03*
X43750Y-41204D03*
X43750Y-41796D03*
G54D26*
X27296Y-47750D03*
X26704Y-47750D03*
G54D25*
X29500Y-51954D03*
X29500Y-52546D03*
X36500Y-50796D03*
X36500Y-50204D03*
G54D27*
X38550Y-54155D03*
X38550Y-54745D03*
X39250Y-54155D03*
X39250Y-54745D03*
X31500Y-52045D03*
X31500Y-51455D03*
X30750Y-52045D03*
X30750Y-51455D03*
X31045Y-48750D03*
X30455Y-48750D03*
G54D25*
X38550Y-52954D03*
X38550Y-53546D03*
X39250Y-52954D03*
X39250Y-53546D03*
X31500Y-52704D03*
X31500Y-53296D03*
X30750Y-52704D03*
X30750Y-53296D03*
G54D26*
X32296Y-48750D03*
X31704Y-48750D03*
G54D25*
X35000Y-44954D03*
X35000Y-45546D03*
X39350Y-40404D03*
X39350Y-40996D03*
X39500Y-35546D03*
X39500Y-34954D03*
X47000Y-30796D03*
X47000Y-30204D03*
X41000Y-30796D03*
X41000Y-30204D03*
X53000Y-30796D03*
X53000Y-30204D03*
G54D28*
X26528Y-57000D03*
X27472Y-57000D03*
X28555Y-57000D03*
X25445Y-57000D03*
G54D29*
X26488Y-55947D03*
G54D30*
X26745Y-55947D03*
X27000Y-55947D03*
X27255Y-55947D03*
X27512Y-55947D03*
G54D31*
X42681Y-24250D03*
X41319Y-24250D03*
X48681Y-24250D03*
X47319Y-24250D03*
X54681Y-24250D03*
X53319Y-24250D03*
G54D26*
X49546Y-31250D03*
X48954Y-31250D03*
X43546Y-31250D03*
X42954Y-31250D03*
X55546Y-31250D03*
X54954Y-31250D03*
G54D32*
X40500Y-44401D03*
G54D33*
X40500Y-45598D03*
X39500Y-44401D03*
X39500Y-45598D03*
X38500Y-44401D03*
X38500Y-45598D03*
G54D27*
X43545Y-30500D03*
X42955Y-30500D03*
X49545Y-30500D03*
X48955Y-30500D03*
X55545Y-30500D03*
X54955Y-30500D03*
G54D26*
X35296Y-52250D03*
X34704Y-52250D03*
G54D34*
X38000Y-48250D03*
G54D35*
X41000Y-48250D03*
X38000Y-49250D03*
X41000Y-49250D03*
G54D25*
X33500Y-45546D03*
X33500Y-44954D03*
X34250Y-45546D03*
X34250Y-44954D03*
G54D36*
X41700Y-33550D03*
X40300Y-32350D03*
X39850Y-32800D03*
X41150Y-34100D03*
X33100Y-33950D03*
X36100Y-36950D03*
X35400Y-37250D03*
X32100Y-33950D03*
X40250Y-35500D03*
X37500Y-36000D03*
X40900Y-35150D03*
X36850Y-35550D03*
X39150Y-37000D03*
X35950Y-31800D03*
X38550Y-52400D03*
X39250Y-51700D03*
X31750Y-50500D03*
X24700Y-49800D03*
X34250Y-46450D03*
X24700Y-51050D03*
X26300Y-49850D03*
X44650Y-35047D03*
X42250Y-36100D03*
X43200Y-36600D03*
X40500Y-37050D03*
X43200Y-37450D03*
X38500Y-38600D03*
X38050Y-43550D03*
X36400Y-40600D03*
X37700Y-40600D03*
X36400Y-40050D03*
X39000Y-39000D03*
X24700Y-50350D03*
X33500Y-46450D03*
X39500Y-42500D03*
X42350Y-38550D03*
X43700Y-37050D03*
X39650Y-37950D03*
X38500Y-38150D03*
X43950Y-33250D03*
X39100Y-38200D03*
X44600Y-33850D03*
X38900Y-55250D03*
G54D37*
X25000Y-47450D03*
G54D36*
X42000Y-30000D03*
X27650Y-50350D03*
X48000Y-30000D03*
X54000Y-30000D03*
X39750Y-39000D03*
X27700Y-51500D03*
X24700Y-51750D03*
X39850Y-34300D03*
X32700Y-43250D03*
X39350Y-41600D03*
X43000Y-41796D03*
X27500Y-52400D03*
G54D37*
X30000Y-43900D03*
G54D36*
X35604Y-50204D03*
X42100Y-46150D03*
G54D38*
X40300Y-32350D02*
X34850Y-32350D01*
X41457Y-37843D02*
X42950Y-36350D01*
X42950Y-36350D02*
X42950Y-34650D01*
X42950Y-34650D02*
X41850Y-33550D01*
X41850Y-33550D02*
X41700Y-33550D01*
X41114Y-37843D02*
X41457Y-37843D01*
X32952Y-30452D02*
X32952Y-21000D01*
X34850Y-32350D02*
X32952Y-30452D01*
X32952Y-25002D02*
X32952Y-21000D01*
X39850Y-32800D02*
X33200Y-32800D01*
X41114Y-37528D02*
X41422Y-37528D01*
X30984Y-30584D02*
X30984Y-21000D01*
X33200Y-32800D02*
X30984Y-30584D01*
X30984Y-21000D02*
X30984Y-23934D01*
X42650Y-36300D02*
X41422Y-37528D01*
X42650Y-35600D02*
X42650Y-36300D01*
X41150Y-34100D02*
X42650Y-35600D01*
X29015Y-21000D02*
X29015Y-29865D01*
X36363Y-37213D02*
X37886Y-37213D01*
X36363Y-37213D02*
X36100Y-36950D01*
X29015Y-29865D02*
X33100Y-33950D01*
X32100Y-33950D02*
X27050Y-28900D01*
X37886Y-37528D02*
X35678Y-37528D01*
X35678Y-37528D02*
X35400Y-37250D01*
X27050Y-21002D02*
X27047Y-21000D01*
X27050Y-28900D02*
X27050Y-21002D01*
X28700Y-35050D02*
X26728Y-33078D01*
X37500Y-35050D02*
X28700Y-35050D01*
X38398Y-35948D02*
X37500Y-35050D01*
X26728Y-33078D02*
X20000Y-33078D01*
X38398Y-35950D02*
X38398Y-35948D01*
X38398Y-35948D02*
X38398Y-35950D01*
X38398Y-35950D02*
X38398Y-36386D01*
X20000Y-31110D02*
X26710Y-31110D01*
X26710Y-31110D02*
X29950Y-34350D01*
X29950Y-34350D02*
X37250Y-34350D01*
X37250Y-34350D02*
X38713Y-35813D01*
X38713Y-35813D02*
X38713Y-35850D01*
X37250Y-34350D02*
X37200Y-34350D01*
X38713Y-35850D02*
X38713Y-35813D01*
X38713Y-35813D02*
X38713Y-35850D01*
X38713Y-35850D02*
X38713Y-36386D01*
X20000Y-37015D02*
X30884Y-37015D01*
X40287Y-35537D02*
X40250Y-35500D01*
X40287Y-35537D02*
X40287Y-36386D01*
X31900Y-36000D02*
X37500Y-36000D01*
X30884Y-37015D02*
X31900Y-36000D01*
X20000Y-35047D02*
X20447Y-35047D01*
X40602Y-35448D02*
X40900Y-35150D01*
X40602Y-35448D02*
X40602Y-36386D01*
X20950Y-35550D02*
X36850Y-35550D01*
X20447Y-35047D02*
X20950Y-35550D01*
X39343Y-36807D02*
X39150Y-37000D01*
X39343Y-36386D02*
X39343Y-36807D01*
X36889Y-30860D02*
X36889Y-21000D01*
X35950Y-31800D02*
X36889Y-30860D01*
X39343Y-36057D02*
X39343Y-36386D01*
X39500Y-35900D02*
X39343Y-36057D01*
X39500Y-35546D02*
X39500Y-35900D01*
X39250Y-52954D02*
X39250Y-52450D01*
X40287Y-40037D02*
X40287Y-39614D01*
X41550Y-42650D02*
X41550Y-46200D01*
X40650Y-41750D02*
X41550Y-42650D01*
X40650Y-40400D02*
X40650Y-41750D01*
X40287Y-40037D02*
X40650Y-40400D01*
X41550Y-46450D02*
X41550Y-46200D01*
X34250Y-49400D02*
X34250Y-49050D01*
X34250Y-49050D02*
X34400Y-48900D01*
X34400Y-48900D02*
X36300Y-48900D01*
X36300Y-48900D02*
X37350Y-49950D01*
X37350Y-49950D02*
X37350Y-50550D01*
X37350Y-50550D02*
X39250Y-52450D01*
X39250Y-52450D02*
X39850Y-52450D01*
X42250Y-47150D02*
X41550Y-46450D01*
X42250Y-50050D02*
X42250Y-47150D01*
X39850Y-52450D02*
X42250Y-50050D01*
X38550Y-52954D02*
X38550Y-52400D01*
X40350Y-41900D02*
X40350Y-40450D01*
X40350Y-40450D02*
X39972Y-40072D01*
X39972Y-39614D02*
X39972Y-40072D01*
X41200Y-43900D02*
X41200Y-42750D01*
X41200Y-42750D02*
X40350Y-41900D01*
X41200Y-46200D02*
X41200Y-46650D01*
X41200Y-43900D02*
X41200Y-46200D01*
X35750Y-49400D02*
X36450Y-49400D01*
X36450Y-49400D02*
X37000Y-49950D01*
X37000Y-49950D02*
X37000Y-50850D01*
X37000Y-50850D02*
X38550Y-52400D01*
X40050Y-51700D02*
X39250Y-51700D01*
X41900Y-49850D02*
X40050Y-51700D01*
X41900Y-47350D02*
X41900Y-49850D01*
X41200Y-46650D02*
X41900Y-47350D01*
X35984Y-55000D02*
X35984Y-53984D01*
X35250Y-53250D02*
X35984Y-53984D01*
X35250Y-51600D02*
X35250Y-52304D01*
X35250Y-52304D02*
X35296Y-52350D01*
X35250Y-53250D02*
X35250Y-52396D01*
X35250Y-52396D02*
X35296Y-52350D01*
X34015Y-55000D02*
X34015Y-53984D01*
X34750Y-53250D02*
X34015Y-53984D01*
X34750Y-53250D02*
X34750Y-52396D01*
X34750Y-52396D02*
X34704Y-52350D01*
X34750Y-51600D02*
X34750Y-52304D01*
X34750Y-52304D02*
X34704Y-52350D01*
X31500Y-51455D02*
X31500Y-50750D01*
X31500Y-50750D02*
X31750Y-50500D01*
X28400Y-51130D02*
X29370Y-51130D01*
X31500Y-51250D02*
X31500Y-51455D01*
X31250Y-51000D02*
X31500Y-51250D01*
X29500Y-51000D02*
X31250Y-51000D01*
X29370Y-51130D02*
X29500Y-51000D01*
X28400Y-51390D02*
X30685Y-51390D01*
X30685Y-51390D02*
X30750Y-51455D01*
X31350Y-38950D02*
X20034Y-38950D01*
X31350Y-38950D02*
X33800Y-36500D01*
X36798Y-36898D02*
X36400Y-36500D01*
X36400Y-36500D02*
X33800Y-36500D01*
X37886Y-36898D02*
X36798Y-36898D01*
X20034Y-38950D02*
X20000Y-38984D01*
X25000Y-50100D02*
X24700Y-49800D01*
X25600Y-50100D02*
X25000Y-50100D01*
X34250Y-46450D02*
X34250Y-45546D01*
X25600Y-50870D02*
X24880Y-50870D01*
X24880Y-50870D02*
X24700Y-51050D01*
X25600Y-49850D02*
X26300Y-49850D01*
X44650Y-35047D02*
X59000Y-35047D01*
X41114Y-36898D02*
X41452Y-36898D01*
X41452Y-36898D02*
X42250Y-36100D01*
X43200Y-36600D02*
X58584Y-36600D01*
X41114Y-37213D02*
X40663Y-37213D01*
X40663Y-37213D02*
X40500Y-37050D01*
X58584Y-36600D02*
X59000Y-37015D01*
X59000Y-38984D02*
X44734Y-38984D01*
X44734Y-38984D02*
X43200Y-37450D01*
X38372Y-38472D02*
X38500Y-38600D01*
X38372Y-38472D02*
X37886Y-38472D01*
X40602Y-39614D02*
X40602Y-40002D01*
X44289Y-44889D02*
X59000Y-44889D01*
X40950Y-41550D02*
X44289Y-44889D01*
X40950Y-40350D02*
X40950Y-41550D01*
X40602Y-40002D02*
X40950Y-40350D01*
X38398Y-39614D02*
X38398Y-43198D01*
X38398Y-43198D02*
X38050Y-43550D01*
X38250Y-40050D02*
X37700Y-40600D01*
X21071Y-41850D02*
X20000Y-42921D01*
X35150Y-41850D02*
X21071Y-41850D01*
X36400Y-40600D02*
X35150Y-41850D01*
X38398Y-39902D02*
X38250Y-40050D01*
X38398Y-39614D02*
X38398Y-39902D01*
X41114Y-39102D02*
X41114Y-39914D01*
X42671Y-42921D02*
X59000Y-42921D01*
X41450Y-41700D02*
X42671Y-42921D01*
X41450Y-40250D02*
X41450Y-41700D01*
X41114Y-39914D02*
X41450Y-40250D01*
X38713Y-39614D02*
X38713Y-43663D01*
X39000Y-45000D02*
X39500Y-45500D01*
X39000Y-43950D02*
X39000Y-45000D01*
X38713Y-43663D02*
X39000Y-43950D01*
X39028Y-39614D02*
X39028Y-39028D01*
X35497Y-40952D02*
X20000Y-40952D01*
X36400Y-40050D02*
X35497Y-40952D01*
X39028Y-39028D02*
X39000Y-39000D01*
X24710Y-50360D02*
X24700Y-50350D01*
X25600Y-50360D02*
X24710Y-50360D01*
X33500Y-46450D02*
X33500Y-45546D01*
X41114Y-38157D02*
X41957Y-38157D01*
X39500Y-42500D02*
X39500Y-44500D01*
X41957Y-38157D02*
X42350Y-38550D01*
X37886Y-37843D02*
X38207Y-37843D01*
X59497Y-40952D02*
X59000Y-40952D01*
X60000Y-40450D02*
X59497Y-40952D01*
X60000Y-38400D02*
X60000Y-40450D01*
X59600Y-38000D02*
X60000Y-38400D01*
X44650Y-38000D02*
X59600Y-38000D01*
X43700Y-37050D02*
X44650Y-38000D01*
X39250Y-37550D02*
X39650Y-37950D01*
X38500Y-37550D02*
X39250Y-37550D01*
X38207Y-37843D02*
X38500Y-37550D01*
X39028Y-34572D02*
X39028Y-36386D01*
X39028Y-34572D02*
X41000Y-32600D01*
X42000Y-31250D02*
X42954Y-31250D01*
X41546Y-30796D02*
X42000Y-31250D01*
X41000Y-30796D02*
X41000Y-32600D01*
X41000Y-30796D02*
X41546Y-30796D01*
X38500Y-38150D02*
X38493Y-38157D01*
X38493Y-38157D02*
X37886Y-38157D01*
X45100Y-33250D02*
X43950Y-33250D01*
X47000Y-31350D02*
X45100Y-33250D01*
X48954Y-31250D02*
X48000Y-31250D01*
X47546Y-30796D02*
X48000Y-31250D01*
X47000Y-30796D02*
X47000Y-31350D01*
X47546Y-30796D02*
X47000Y-30796D01*
X54000Y-31250D02*
X54954Y-31250D01*
X53546Y-30796D02*
X54000Y-31250D01*
X39100Y-38200D02*
X39100Y-38450D01*
X39100Y-38450D02*
X38448Y-39102D01*
X38448Y-39102D02*
X37886Y-39102D01*
X53000Y-30796D02*
X53000Y-31800D01*
X50950Y-33850D02*
X44600Y-33850D01*
X53000Y-31800D02*
X50950Y-33850D01*
X53000Y-30796D02*
X53546Y-30796D01*
G54D39*
X43000Y-21015D02*
X42984Y-21000D01*
X42984Y-21000D02*
X42984Y-23946D01*
X42984Y-23946D02*
X42681Y-24250D01*
X43000Y-25726D02*
X43000Y-24569D01*
X43000Y-24569D02*
X42681Y-24250D01*
X41000Y-25728D02*
X41000Y-24569D01*
X41015Y-21000D02*
X41015Y-23946D01*
X41000Y-21015D02*
X41015Y-21000D01*
X41015Y-23946D02*
X41319Y-24250D01*
X41000Y-24569D02*
X41319Y-24250D01*
X49000Y-21015D02*
X48984Y-21000D01*
X48984Y-21000D02*
X48984Y-23946D01*
X48984Y-23946D02*
X48681Y-24250D01*
X49000Y-25726D02*
X49000Y-24569D01*
X49000Y-24569D02*
X48681Y-24250D01*
X47000Y-25728D02*
X47000Y-24569D01*
X47015Y-21000D02*
X47015Y-23946D01*
X47000Y-21015D02*
X47015Y-21000D01*
X47015Y-23946D02*
X47319Y-24250D01*
X47000Y-24569D02*
X47319Y-24250D01*
X55000Y-21015D02*
X54984Y-21000D01*
X54984Y-21000D02*
X54984Y-23946D01*
X54984Y-23946D02*
X54681Y-24250D01*
X55000Y-25726D02*
X55000Y-24569D01*
X55000Y-24569D02*
X54681Y-24250D01*
X53000Y-25728D02*
X53000Y-24569D01*
X53015Y-21000D02*
X53015Y-23946D01*
X53000Y-21015D02*
X53015Y-21000D01*
X53015Y-23946D02*
X53319Y-24250D01*
X53000Y-24569D02*
X53319Y-24250D01*
G54D38*
X27000Y-54400D02*
X27000Y-55947D01*
X28400Y-53180D02*
X28070Y-53180D01*
X27000Y-54250D02*
X27000Y-54400D01*
X27000Y-54400D02*
X27000Y-54447D01*
X28070Y-53180D02*
X27000Y-54250D01*
X26745Y-55947D02*
X26745Y-54447D01*
X26745Y-54205D02*
X28030Y-52920D01*
X28030Y-52920D02*
X28400Y-52920D01*
X26745Y-54447D02*
X26745Y-54205D01*
X26488Y-55947D02*
X26488Y-55388D01*
X26100Y-55000D02*
X23000Y-55000D01*
X26488Y-55388D02*
X26100Y-55000D01*
G54D40*
X23000Y-54000D02*
X23550Y-54000D01*
X23800Y-52200D02*
X23800Y-49550D01*
X23800Y-49550D02*
X24950Y-48400D01*
X24950Y-48400D02*
X27500Y-48400D01*
X27500Y-48400D02*
X28400Y-47500D01*
X28400Y-47500D02*
X28400Y-46550D01*
X23800Y-53750D02*
X23800Y-52200D01*
X23550Y-54000D02*
X23800Y-53750D01*
X28400Y-46550D02*
X29909Y-46550D01*
X29909Y-46550D02*
X30000Y-46459D01*
G54D38*
X37886Y-38787D02*
X37463Y-38787D01*
X37100Y-39150D02*
X37100Y-43600D01*
X37463Y-38787D02*
X37100Y-39150D01*
X35000Y-44954D02*
X35000Y-44700D01*
X35000Y-44700D02*
X35200Y-44500D01*
X34250Y-44954D02*
X34250Y-44700D01*
X34250Y-44700D02*
X34450Y-44500D01*
X33800Y-44500D02*
X33700Y-44500D01*
X33500Y-44700D02*
X33500Y-44954D01*
X33700Y-44500D02*
X33500Y-44700D01*
X33796Y-44500D02*
X33800Y-44500D01*
X33800Y-44500D02*
X34450Y-44500D01*
X34450Y-44500D02*
X35000Y-44500D01*
X35000Y-44500D02*
X35200Y-44500D01*
X35200Y-44500D02*
X36450Y-44500D01*
X35200Y-43250D02*
X36450Y-44500D01*
X36450Y-44500D02*
X38000Y-44500D01*
X37096Y-43596D02*
X37100Y-43600D01*
X37100Y-43600D02*
X38000Y-44500D01*
X37873Y-38800D02*
X37886Y-38787D01*
X34917Y-43250D02*
X35200Y-43250D01*
X38000Y-44500D02*
X38500Y-44500D01*
X39250Y-54745D02*
X39005Y-54745D01*
X39005Y-54745D02*
X38900Y-54850D01*
X38550Y-54745D02*
X38795Y-54745D01*
X38900Y-54850D02*
X38900Y-55250D01*
X38795Y-54745D02*
X38900Y-54850D01*
G54D40*
X25000Y-46459D02*
X25000Y-47450D01*
G54D38*
X42000Y-30000D02*
X42000Y-29274D01*
X42000Y-29274D02*
X42000Y-28500D01*
X42000Y-28500D02*
X42500Y-28000D01*
X42500Y-30500D02*
X42000Y-30000D01*
X42500Y-28000D02*
X47500Y-28000D01*
X48000Y-28500D02*
X47500Y-28000D01*
X47500Y-28000D02*
X53500Y-28000D01*
X53500Y-28000D02*
X54000Y-28500D01*
X27650Y-50350D02*
X27650Y-49850D01*
X27800Y-49700D02*
X28750Y-48750D01*
X28750Y-48750D02*
X30455Y-48750D01*
X27650Y-49850D02*
X27800Y-49700D01*
X28400Y-50620D02*
X27920Y-50620D01*
X27660Y-50360D02*
X27650Y-50350D01*
X27660Y-50360D02*
X28400Y-50360D01*
X27920Y-50620D02*
X27650Y-50350D01*
X54955Y-30500D02*
X54500Y-30500D01*
X54000Y-30000D02*
X54000Y-29274D01*
X54500Y-30500D02*
X54000Y-30000D01*
X48955Y-30500D02*
X48500Y-30500D01*
X48000Y-30000D02*
X48000Y-29274D01*
X48500Y-30500D02*
X48000Y-30000D01*
X42955Y-30500D02*
X42500Y-30500D01*
G54D40*
X25000Y-46459D02*
X24541Y-46459D01*
X22000Y-46900D02*
X20000Y-46900D01*
X24100Y-46900D02*
X22000Y-46900D01*
X24541Y-46459D02*
X24100Y-46900D01*
G54D38*
X29500Y-52546D02*
X29500Y-53200D01*
X27512Y-55188D02*
X27512Y-55947D01*
X29500Y-53200D02*
X27512Y-55188D01*
X39657Y-39614D02*
X39657Y-39093D01*
X39657Y-39093D02*
X39750Y-39000D01*
X28400Y-52410D02*
X28960Y-52410D01*
X29096Y-52546D02*
X29500Y-52546D01*
X28960Y-52410D02*
X29096Y-52546D01*
X28400Y-51640D02*
X27840Y-51640D01*
X27840Y-51640D02*
X27700Y-51500D01*
X25600Y-51390D02*
X25060Y-51390D01*
X25060Y-51390D02*
X24700Y-51750D01*
X39500Y-34954D02*
X39500Y-34650D01*
X39500Y-34650D02*
X39850Y-34300D01*
X32083Y-43250D02*
X32700Y-43250D01*
X39350Y-40996D02*
X39350Y-41600D01*
X42250Y-41796D02*
X43000Y-41796D01*
X43000Y-41796D02*
X43750Y-41796D01*
X39657Y-36386D02*
X39657Y-36043D01*
X39654Y-34954D02*
X39500Y-34954D01*
X39900Y-35200D02*
X39654Y-34954D01*
X39900Y-35800D02*
X39900Y-35200D01*
X39657Y-36043D02*
X39900Y-35800D01*
X25600Y-51390D02*
X26490Y-51390D01*
X27510Y-52410D02*
X27500Y-52400D01*
X27510Y-52410D02*
X28400Y-52410D01*
X26490Y-51390D02*
X27500Y-52400D01*
G54D40*
X30000Y-45041D02*
X30000Y-43900D01*
X20000Y-44889D02*
X20000Y-46900D01*
X19384Y-50984D02*
X20000Y-50984D01*
X18700Y-50300D02*
X19384Y-50984D01*
X18700Y-48200D02*
X18700Y-50300D01*
X20000Y-46900D02*
X18700Y-48200D01*
G54D38*
X27256Y-55953D02*
X27512Y-55953D01*
X35250Y-49400D02*
X35250Y-49850D01*
G54D40*
X26600Y-46550D02*
X25091Y-46550D01*
X25091Y-46550D02*
X25000Y-46459D01*
X26600Y-46550D02*
X26600Y-47646D01*
X26600Y-47646D02*
X26704Y-47750D01*
G54D38*
X48000Y-29274D02*
X48000Y-28500D01*
X54000Y-28500D02*
X54000Y-29274D01*
X35250Y-49850D02*
X35604Y-50204D01*
X35604Y-50204D02*
X36500Y-50204D01*
X36500Y-51100D02*
X36500Y-50796D01*
X36000Y-51600D02*
X36500Y-51100D01*
X35750Y-51600D02*
X36000Y-51600D01*
X49546Y-31250D02*
X49546Y-30501D01*
X49546Y-30501D02*
X49545Y-30500D01*
X30750Y-52045D02*
X30750Y-52704D01*
X53000Y-29274D02*
X53000Y-30204D01*
X41000Y-29274D02*
X41000Y-30204D01*
X47000Y-29274D02*
X47000Y-30204D01*
X43546Y-31250D02*
X43546Y-30501D01*
X43546Y-30501D02*
X43545Y-30500D01*
X55546Y-31250D02*
X55546Y-30501D01*
X55546Y-30501D02*
X55545Y-30500D01*
X31045Y-48750D02*
X31704Y-48750D01*
X31500Y-52045D02*
X31500Y-52704D01*
X38550Y-53546D02*
X38550Y-54155D01*
X39250Y-53546D02*
X39250Y-54155D01*
X41114Y-38472D02*
X41772Y-38472D01*
X41772Y-38472D02*
X42550Y-39250D01*
X42550Y-39250D02*
X42978Y-39250D01*
X42978Y-39250D02*
X43728Y-40000D01*
X43728Y-40000D02*
X43728Y-41182D01*
X43728Y-41182D02*
X43750Y-41204D01*
X42271Y-40000D02*
X42271Y-41182D01*
X42271Y-41182D02*
X42250Y-41204D01*
X41114Y-38787D02*
X41637Y-38787D01*
X41637Y-38787D02*
X42271Y-39421D01*
X42271Y-39421D02*
X42271Y-40000D01*
X32296Y-48300D02*
X33450Y-48300D01*
X33450Y-48300D02*
X35450Y-46300D01*
X30800Y-43300D02*
X31250Y-43750D01*
X27500Y-43750D02*
X27950Y-43300D01*
X27500Y-43950D02*
X27500Y-43750D01*
X27950Y-43300D02*
X30800Y-43300D01*
X32296Y-48296D02*
X32296Y-48300D01*
X32296Y-48300D02*
X32296Y-48750D01*
X31250Y-47250D02*
X32296Y-48296D01*
X31250Y-43750D02*
X31250Y-47250D01*
X35600Y-46300D02*
X35450Y-46300D01*
X35600Y-46300D02*
X40250Y-46300D01*
X40500Y-45500D02*
X40500Y-46050D01*
X40250Y-46300D02*
X40500Y-46050D01*
X35000Y-45850D02*
X35000Y-45546D01*
X35450Y-46300D02*
X35000Y-45850D01*
X39343Y-40397D02*
X39350Y-40404D01*
X39804Y-40404D02*
X40000Y-40600D01*
X40000Y-40600D02*
X40000Y-45000D01*
X39350Y-40404D02*
X39804Y-40404D01*
X39343Y-39614D02*
X39343Y-40397D01*
X31500Y-53296D02*
X31704Y-53296D01*
X31704Y-53296D02*
X32296Y-52704D01*
X32296Y-52704D02*
X32296Y-48750D01*
X33246Y-49900D02*
X32296Y-48950D01*
X34600Y-49900D02*
X33246Y-49900D01*
X34750Y-49750D02*
X34600Y-49900D01*
X34750Y-49400D02*
X34750Y-49750D01*
X32296Y-48950D02*
X32296Y-48750D01*
X23500Y-45041D02*
X21741Y-45041D01*
X23150Y-29850D02*
X25078Y-27921D01*
X19700Y-29850D02*
X23150Y-29850D01*
X18700Y-30850D02*
X19700Y-29850D01*
X18700Y-43350D02*
X18700Y-30850D01*
X19250Y-43900D02*
X18700Y-43350D01*
X20600Y-43900D02*
X19250Y-43900D01*
X25078Y-27921D02*
X25078Y-21000D01*
X21741Y-45041D02*
X20600Y-43900D01*
X25000Y-45041D02*
X23500Y-45041D01*
X23500Y-45041D02*
X23491Y-45041D01*
X45000Y-46150D02*
X42100Y-46150D01*
X59000Y-33078D02*
X59000Y-33100D01*
X60350Y-34450D02*
X59000Y-33100D01*
X60350Y-45350D02*
X60350Y-34450D01*
X59550Y-46150D02*
X60350Y-45350D01*
X45000Y-46150D02*
X59550Y-46150D01*
X40000Y-45000D02*
X40500Y-45500D01*
X39972Y-36386D02*
X39972Y-38178D01*
X39343Y-38807D02*
X39343Y-39614D01*
X39972Y-38178D02*
X39343Y-38807D01*
X30750Y-53296D02*
X31500Y-53296D01*
G54D40*
X27500Y-43950D02*
X27500Y-44082D01*
X27500Y-44082D02*
X26541Y-45041D01*
G54D38*
X29500Y-51954D02*
X29854Y-51954D01*
X30496Y-53296D02*
X30750Y-53296D01*
X30100Y-52900D02*
X30496Y-53296D01*
X30100Y-52200D02*
X30100Y-52900D01*
X29854Y-51954D02*
X30100Y-52200D01*
X25600Y-50620D02*
X26020Y-50620D01*
X27300Y-51900D02*
X28400Y-51900D01*
X26020Y-50620D02*
X27300Y-51900D01*
X28400Y-51900D02*
X29446Y-51900D01*
X28400Y-51900D02*
X28400Y-52150D01*
G54D40*
X25000Y-45041D02*
X26541Y-45041D01*
X27500Y-46000D02*
X27500Y-46550D01*
X26541Y-45041D02*
X27500Y-46000D01*
X27500Y-46550D02*
X27500Y-47546D01*
X27500Y-47546D02*
X27296Y-47750D01*
M02*
