M48
;DRILL file {Pcbnew (2013-may-18)-stable} date Mon 20 Apr 2015 02:12:17 PM EDT
;FORMAT={-:-/ absolute / inch / decimal}
FMAT,2
INCH,TZ
T1C0.020
T2C0.032
T3C0.039
T4C0.039
T5C0.051
T6C0.125
%
G90
G05
M72
T1
X2.47Y-4.98
X2.47Y-5.035
X2.47Y-5.105
X2.47Y-5.175
X2.5Y-4.745
X2.63Y-4.985
X2.75Y-5.24
X2.765Y-5.035
X2.77Y-5.15
X3.Y-4.39
X3.175Y-5.05
X3.21Y-3.395
X3.27Y-4.325
X3.31Y-3.395
X3.35Y-4.645
X3.425Y-4.645
X3.54Y-3.725
X3.5604Y-5.0204
X3.595Y-3.18
X3.61Y-3.695
X3.64Y-4.005
X3.64Y-4.06
X3.685Y-3.555
X3.75Y-3.6
X3.77Y-4.06
X3.805Y-4.355
X3.85Y-3.815
X3.85Y-3.86
X3.855Y-5.24
X3.89Y-5.525
X3.9Y-3.9
X3.91Y-3.82
X3.915Y-3.7
X3.925Y-5.17
X3.935Y-4.16
X3.95Y-4.25
X3.965Y-3.795
X3.975Y-3.9
X3.985Y-3.28
X3.985Y-3.43
X4.025Y-3.55
X4.03Y-3.235
X4.05Y-3.705
X4.09Y-3.515
X4.115Y-3.41
X4.17Y-3.355
X4.2Y-3.
X4.21Y-4.615
X4.225Y-3.61
X4.235Y-3.855
X4.3Y-4.1796
X4.32Y-3.66
X4.32Y-3.745
X4.37Y-3.705
X4.395Y-3.325
X4.46Y-3.385
X4.465Y-3.5047
X4.8Y-3.
X5.4Y-3.
T2
X3.8Y-4.825
X3.8Y-4.925
X4.1Y-4.825
X4.1Y-4.925
T3
X3.85Y-4.45
X3.85Y-4.55
X3.95Y-4.45
X3.95Y-4.55
X4.05Y-4.45
X4.05Y-4.55
T4
X2.3Y-5.3
X2.3Y-5.4
X2.3Y-5.5
T5
X2.Y-3.111
X2.Y-3.3079
X2.Y-3.5047
X2.Y-3.7016
X2.Y-3.8984
X2.Y-4.0953
X2.Y-4.2921
X2.Y-4.489
X2.Y-4.9016
X2.Y-5.0984
X2.311Y-2.1
X2.5079Y-2.1
X2.7047Y-2.1
X2.9016Y-2.1
X3.0984Y-2.1
X3.2953Y-2.1
X3.4016Y-5.5
X3.4921Y-2.1
X3.5984Y-5.5
X3.689Y-2.1
X4.1016Y-2.1
X4.2984Y-2.1
X4.7016Y-2.1
X4.8984Y-2.1
X5.3016Y-2.1
X5.4984Y-2.1
X5.9Y-3.111
X5.9Y-3.3079
X5.9Y-3.5047
X5.9Y-3.7016
X5.9Y-3.8984
X5.9Y-4.0953
X5.9Y-4.2921
X5.9Y-4.489
T6
X1.9Y-2.
X1.9Y-5.6
X6.Y-2.
X6.Y-5.6
T0
M30
