G04 (created by PCBNEW (2013-may-18)-stable) date Mon 20 Apr 2015 02:12:07 PM EDT*
%MOIN*%
G04 Gerber Fmt 3.4, Leading zero omitted, Abs format*
%FSLAX34Y34*%
G01*
G70*
G90*
G04 APERTURE LIST*
%ADD10C,0.00590551*%
%ADD11C,0.011811*%
%ADD12C,0.219*%
%ADD13R,0.0866X0.06*%
%ADD14O,0.0866X0.06*%
%ADD15C,0.0984252*%
%ADD16R,0.0590551X0.0787402*%
%ADD17O,0.0590551X0.0787402*%
%ADD18R,0.0865X0.059*%
%ADD19O,0.0865X0.059*%
%ADD20C,0.035*%
%ADD21C,0.045*%
%ADD22C,0.01*%
%ADD23C,0.025*%
G04 APERTURE END LIST*
G54D10*
G54D11*
X57187Y-55648D02*
X56990Y-56239D01*
X56793Y-55648D01*
X56596Y-55929D02*
X56399Y-55929D01*
X56315Y-56239D02*
X56596Y-56239D01*
X56596Y-55648D01*
X56315Y-55648D01*
X55724Y-56239D02*
X55921Y-55957D01*
X56062Y-56239D02*
X56062Y-55648D01*
X55837Y-55648D01*
X55781Y-55676D01*
X55753Y-55704D01*
X55724Y-55760D01*
X55724Y-55845D01*
X55753Y-55901D01*
X55781Y-55929D01*
X55837Y-55957D01*
X56062Y-55957D01*
X54909Y-55648D02*
X54853Y-55648D01*
X54796Y-55676D01*
X54768Y-55704D01*
X54740Y-55760D01*
X54712Y-55873D01*
X54712Y-56014D01*
X54740Y-56126D01*
X54768Y-56182D01*
X54796Y-56210D01*
X54853Y-56239D01*
X54909Y-56239D01*
X54965Y-56210D01*
X54993Y-56182D01*
X55021Y-56126D01*
X55050Y-56014D01*
X55050Y-55873D01*
X55021Y-55760D01*
X54993Y-55704D01*
X54965Y-55676D01*
X54909Y-55648D01*
X54459Y-56182D02*
X54431Y-56210D01*
X54459Y-56239D01*
X54487Y-56210D01*
X54459Y-56182D01*
X54459Y-56239D01*
X54206Y-55704D02*
X54178Y-55676D01*
X54122Y-55648D01*
X53981Y-55648D01*
X53925Y-55676D01*
X53897Y-55704D01*
X53868Y-55760D01*
X53868Y-55817D01*
X53897Y-55901D01*
X54234Y-56239D01*
X53868Y-56239D01*
G54D12*
X19000Y-20000D03*
X60000Y-20000D03*
X60000Y-56000D03*
G54D13*
X23000Y-53000D03*
G54D14*
X23000Y-54000D03*
X23000Y-55000D03*
G54D15*
X59000Y-31110D03*
X59000Y-33078D03*
X59000Y-35047D03*
X59000Y-37015D03*
X59000Y-38984D03*
X59000Y-40952D03*
X59000Y-44889D03*
X59000Y-42921D03*
X23110Y-21000D03*
X25078Y-21000D03*
X27047Y-21000D03*
X29015Y-21000D03*
X30984Y-21000D03*
X32952Y-21000D03*
X36889Y-21000D03*
X34921Y-21000D03*
X20000Y-44889D03*
X20000Y-42921D03*
X20000Y-40952D03*
X20000Y-38984D03*
X20000Y-37015D03*
X20000Y-35047D03*
X20000Y-31110D03*
X20000Y-33078D03*
X42984Y-21000D03*
X41015Y-21000D03*
X20000Y-49015D03*
X20000Y-50984D03*
X48984Y-21000D03*
X47015Y-21000D03*
X54984Y-21000D03*
X53015Y-21000D03*
X34015Y-55000D03*
X35984Y-55000D03*
G54D12*
X19000Y-56000D03*
G54D16*
X40500Y-44401D03*
G54D17*
X40500Y-45598D03*
X39500Y-44401D03*
X39500Y-45598D03*
X38500Y-44401D03*
X38500Y-45598D03*
G54D18*
X38000Y-48250D03*
G54D19*
X41000Y-48250D03*
X38000Y-49250D03*
X41000Y-49250D03*
G54D20*
X41700Y-33550D03*
X40300Y-32350D03*
X39850Y-32800D03*
X41150Y-34100D03*
X33100Y-33950D03*
X36100Y-36950D03*
X35400Y-37250D03*
X32100Y-33950D03*
X40250Y-35500D03*
X37500Y-36000D03*
X40900Y-35150D03*
X36850Y-35550D03*
X39150Y-37000D03*
X35950Y-31800D03*
X38550Y-52400D03*
X39250Y-51700D03*
X31750Y-50500D03*
X24700Y-49800D03*
X34250Y-46450D03*
X24700Y-51050D03*
X26300Y-49850D03*
X44650Y-35047D03*
X42250Y-36100D03*
X43200Y-36600D03*
X40500Y-37050D03*
X43200Y-37450D03*
X38500Y-38600D03*
X38050Y-43550D03*
X36400Y-40600D03*
X37700Y-40600D03*
X36400Y-40050D03*
X39000Y-39000D03*
X24700Y-50350D03*
X33500Y-46450D03*
X39500Y-42500D03*
X42350Y-38550D03*
X43700Y-37050D03*
X39650Y-37950D03*
X38500Y-38150D03*
X43950Y-33250D03*
X39100Y-38200D03*
X44600Y-33850D03*
X38900Y-55250D03*
G54D21*
X25000Y-47450D03*
G54D20*
X42000Y-30000D03*
X27650Y-50350D03*
X48000Y-30000D03*
X54000Y-30000D03*
X39750Y-39000D03*
X27700Y-51500D03*
X24700Y-51750D03*
X39850Y-34300D03*
X32700Y-43250D03*
X39350Y-41600D03*
X43000Y-41796D03*
X27500Y-52400D03*
G54D21*
X30000Y-43900D03*
G54D20*
X35604Y-50204D03*
X42100Y-46150D03*
G54D22*
X41700Y-33550D02*
X40500Y-32350D01*
X40500Y-32350D02*
X40300Y-32350D01*
X39850Y-32800D02*
X41150Y-34100D01*
X36100Y-36950D02*
X33150Y-34000D01*
X33100Y-33950D02*
X33150Y-34000D01*
X32100Y-33950D02*
X35400Y-37250D01*
X38000Y-35500D02*
X40250Y-35500D01*
X37500Y-36000D02*
X38000Y-35500D01*
X37250Y-35150D02*
X40900Y-35150D01*
X36850Y-35550D02*
X37250Y-35150D01*
X39150Y-37000D02*
X37350Y-37000D01*
X35950Y-35600D02*
X35950Y-31800D01*
X37350Y-37000D02*
X35950Y-35600D01*
X39250Y-51700D02*
X38550Y-52400D01*
X24700Y-49800D02*
X25600Y-49800D01*
X32150Y-48550D02*
X33250Y-47450D01*
X26850Y-48550D02*
X32150Y-48550D01*
X25600Y-49800D02*
X26850Y-48550D01*
X33250Y-47450D02*
X34250Y-46450D01*
X27950Y-49250D02*
X27650Y-49550D01*
X27650Y-49550D02*
X26350Y-50850D01*
X27950Y-49250D02*
X38000Y-49250D01*
X24900Y-50850D02*
X26350Y-50850D01*
X24700Y-51050D02*
X24900Y-50850D01*
X37850Y-48250D02*
X38000Y-48250D01*
X37200Y-48900D02*
X37850Y-48250D01*
X27250Y-48900D02*
X37200Y-48900D01*
X26300Y-49850D02*
X27250Y-48900D01*
X43302Y-35047D02*
X44650Y-35047D01*
X42250Y-36100D02*
X43302Y-35047D01*
X40950Y-36600D02*
X43200Y-36600D01*
X40500Y-37050D02*
X40550Y-37000D01*
X40550Y-37000D02*
X40950Y-36600D01*
X41100Y-37450D02*
X39950Y-38600D01*
X41100Y-37450D02*
X43200Y-37450D01*
X39950Y-38600D02*
X38500Y-38600D01*
X39750Y-43550D02*
X40500Y-44300D01*
X38050Y-43550D02*
X39750Y-43550D01*
X40500Y-44300D02*
X40500Y-44500D01*
X37700Y-40600D02*
X36400Y-40600D01*
X41000Y-49250D02*
X40750Y-49250D01*
X39500Y-48000D02*
X39500Y-45500D01*
X40750Y-49250D02*
X39500Y-48000D01*
X37950Y-40050D02*
X36400Y-40050D01*
X39000Y-39000D02*
X37950Y-40050D01*
X24700Y-50350D02*
X24550Y-50350D01*
X31750Y-48200D02*
X33500Y-46450D01*
X25750Y-48200D02*
X31750Y-48200D01*
X24300Y-49650D02*
X25750Y-48200D01*
X24300Y-50100D02*
X24300Y-49650D01*
X24550Y-50350D02*
X24300Y-50100D01*
X41000Y-48250D02*
X40750Y-48250D01*
X40000Y-45000D02*
X39500Y-44500D01*
X40000Y-47500D02*
X40000Y-45000D01*
X40750Y-48250D02*
X40000Y-47500D01*
X42350Y-39650D02*
X42350Y-38550D01*
X39500Y-42500D02*
X41950Y-40050D01*
X41950Y-40050D02*
X42350Y-39650D01*
X41000Y-37050D02*
X43700Y-37050D01*
X40100Y-37950D02*
X41000Y-37050D01*
X39650Y-37950D02*
X40100Y-37950D01*
X43950Y-33250D02*
X43400Y-33250D01*
X43400Y-33250D02*
X38500Y-38150D01*
X39100Y-38000D02*
X39100Y-38200D01*
X43250Y-33850D02*
X39350Y-37750D01*
X44600Y-33850D02*
X43250Y-33850D01*
X39350Y-37750D02*
X39100Y-38000D01*
G54D23*
X20000Y-49015D02*
X20715Y-49015D01*
X23000Y-51300D02*
X23000Y-53000D01*
X20715Y-49015D02*
X23000Y-51300D01*
G54D22*
X43000Y-41796D02*
X43000Y-41800D01*
X35604Y-50204D02*
X35600Y-50200D01*
X41150Y-46150D02*
X40500Y-45500D01*
X42100Y-46150D02*
X41150Y-46150D01*
G54D10*
G36*
X61730Y-57730D02*
X61345Y-57730D01*
X61345Y-55733D01*
X61345Y-19733D01*
X61140Y-19239D01*
X60762Y-18860D01*
X60268Y-18655D01*
X59733Y-18654D01*
X59239Y-18859D01*
X58860Y-19237D01*
X58655Y-19731D01*
X58654Y-20266D01*
X58859Y-20760D01*
X59237Y-21139D01*
X59731Y-21344D01*
X60266Y-21345D01*
X60760Y-21140D01*
X61139Y-20762D01*
X61344Y-20268D01*
X61345Y-19733D01*
X61345Y-55733D01*
X61140Y-55239D01*
X60762Y-54860D01*
X60268Y-54655D01*
X59745Y-54654D01*
X59745Y-31237D01*
X59737Y-30942D01*
X59640Y-30706D01*
X59524Y-30656D01*
X59454Y-30726D01*
X59454Y-30585D01*
X59403Y-30470D01*
X59127Y-30364D01*
X58832Y-30372D01*
X58596Y-30470D01*
X58545Y-30585D01*
X59000Y-31039D01*
X59454Y-30585D01*
X59454Y-30726D01*
X59070Y-31110D01*
X59524Y-31564D01*
X59640Y-31513D01*
X59745Y-31237D01*
X59745Y-54654D01*
X59742Y-54654D01*
X59742Y-44742D01*
X59742Y-42774D01*
X59742Y-40805D01*
X59742Y-38837D01*
X59742Y-36868D01*
X59742Y-34900D01*
X59742Y-32931D01*
X59629Y-32658D01*
X59454Y-32483D01*
X59454Y-31635D01*
X59000Y-31180D01*
X58929Y-31251D01*
X58929Y-31110D01*
X58475Y-30656D01*
X58359Y-30706D01*
X58254Y-30982D01*
X58262Y-31277D01*
X58359Y-31513D01*
X58475Y-31564D01*
X58929Y-31110D01*
X58929Y-31251D01*
X58545Y-31635D01*
X58596Y-31750D01*
X58872Y-31856D01*
X59167Y-31848D01*
X59403Y-31750D01*
X59454Y-31635D01*
X59454Y-32483D01*
X59420Y-32449D01*
X59148Y-32336D01*
X58853Y-32336D01*
X58580Y-32449D01*
X58371Y-32657D01*
X58258Y-32930D01*
X58257Y-33225D01*
X58370Y-33498D01*
X58579Y-33707D01*
X58851Y-33820D01*
X59146Y-33820D01*
X59419Y-33708D01*
X59628Y-33499D01*
X59741Y-33227D01*
X59742Y-32931D01*
X59742Y-34900D01*
X59629Y-34627D01*
X59420Y-34418D01*
X59148Y-34305D01*
X58853Y-34304D01*
X58580Y-34417D01*
X58371Y-34626D01*
X58258Y-34898D01*
X58257Y-35194D01*
X58370Y-35467D01*
X58579Y-35676D01*
X58851Y-35789D01*
X59146Y-35789D01*
X59419Y-35676D01*
X59628Y-35468D01*
X59741Y-35195D01*
X59742Y-34900D01*
X59742Y-36868D01*
X59629Y-36595D01*
X59420Y-36386D01*
X59148Y-36273D01*
X58853Y-36273D01*
X58580Y-36386D01*
X58371Y-36594D01*
X58258Y-36867D01*
X58257Y-37162D01*
X58370Y-37435D01*
X58579Y-37644D01*
X58851Y-37757D01*
X59146Y-37758D01*
X59419Y-37645D01*
X59628Y-37436D01*
X59741Y-37164D01*
X59742Y-36868D01*
X59742Y-38837D01*
X59629Y-38564D01*
X59420Y-38355D01*
X59148Y-38242D01*
X58853Y-38241D01*
X58580Y-38354D01*
X58371Y-38563D01*
X58258Y-38835D01*
X58257Y-39131D01*
X58370Y-39404D01*
X58579Y-39613D01*
X58851Y-39726D01*
X59146Y-39726D01*
X59419Y-39613D01*
X59628Y-39405D01*
X59741Y-39132D01*
X59742Y-38837D01*
X59742Y-40805D01*
X59629Y-40532D01*
X59420Y-40323D01*
X59148Y-40210D01*
X58853Y-40210D01*
X58580Y-40323D01*
X58371Y-40531D01*
X58258Y-40804D01*
X58257Y-41099D01*
X58370Y-41372D01*
X58579Y-41581D01*
X58851Y-41694D01*
X59146Y-41695D01*
X59419Y-41582D01*
X59628Y-41373D01*
X59741Y-41101D01*
X59742Y-40805D01*
X59742Y-42774D01*
X59629Y-42501D01*
X59420Y-42292D01*
X59148Y-42179D01*
X58853Y-42179D01*
X58580Y-42291D01*
X58371Y-42500D01*
X58258Y-42772D01*
X58257Y-43068D01*
X58370Y-43341D01*
X58579Y-43550D01*
X58851Y-43663D01*
X59146Y-43663D01*
X59419Y-43550D01*
X59628Y-43342D01*
X59741Y-43069D01*
X59742Y-42774D01*
X59742Y-44742D01*
X59629Y-44469D01*
X59420Y-44260D01*
X59148Y-44147D01*
X58853Y-44147D01*
X58580Y-44260D01*
X58371Y-44468D01*
X58258Y-44741D01*
X58257Y-45036D01*
X58370Y-45309D01*
X58579Y-45518D01*
X58851Y-45631D01*
X59146Y-45632D01*
X59419Y-45519D01*
X59628Y-45310D01*
X59741Y-45038D01*
X59742Y-44742D01*
X59742Y-54654D01*
X59733Y-54654D01*
X59239Y-54859D01*
X58860Y-55237D01*
X58655Y-55731D01*
X58654Y-56266D01*
X58859Y-56760D01*
X59237Y-57139D01*
X59731Y-57344D01*
X60266Y-57345D01*
X60760Y-57140D01*
X61139Y-56762D01*
X61344Y-56268D01*
X61345Y-55733D01*
X61345Y-57730D01*
X58050Y-57730D01*
X58050Y-57050D01*
X58050Y-54950D01*
X55726Y-54950D01*
X55726Y-20853D01*
X55613Y-20580D01*
X55405Y-20371D01*
X55132Y-20258D01*
X54837Y-20257D01*
X54564Y-20370D01*
X54355Y-20579D01*
X54242Y-20851D01*
X54241Y-21146D01*
X54354Y-21419D01*
X54563Y-21628D01*
X54835Y-21741D01*
X55131Y-21742D01*
X55404Y-21629D01*
X55613Y-21420D01*
X55726Y-21148D01*
X55726Y-20853D01*
X55726Y-54950D01*
X53758Y-54950D01*
X53758Y-20853D01*
X53645Y-20580D01*
X53436Y-20371D01*
X53164Y-20258D01*
X52868Y-20257D01*
X52595Y-20370D01*
X52386Y-20579D01*
X52273Y-20851D01*
X52273Y-21146D01*
X52386Y-21419D01*
X52594Y-21628D01*
X52867Y-21741D01*
X53162Y-21742D01*
X53435Y-21629D01*
X53644Y-21420D01*
X53757Y-21148D01*
X53758Y-20853D01*
X53758Y-54950D01*
X52950Y-54950D01*
X52950Y-57050D01*
X58050Y-57050D01*
X58050Y-57730D01*
X49726Y-57730D01*
X49726Y-20853D01*
X49613Y-20580D01*
X49405Y-20371D01*
X49132Y-20258D01*
X48837Y-20257D01*
X48564Y-20370D01*
X48355Y-20579D01*
X48242Y-20851D01*
X48241Y-21146D01*
X48354Y-21419D01*
X48563Y-21628D01*
X48835Y-21741D01*
X49131Y-21742D01*
X49404Y-21629D01*
X49613Y-21420D01*
X49726Y-21148D01*
X49726Y-20853D01*
X49726Y-57730D01*
X47758Y-57730D01*
X47758Y-20853D01*
X47645Y-20580D01*
X47436Y-20371D01*
X47164Y-20258D01*
X46868Y-20257D01*
X46595Y-20370D01*
X46386Y-20579D01*
X46273Y-20851D01*
X46273Y-21146D01*
X46386Y-21419D01*
X46594Y-21628D01*
X46867Y-21741D01*
X47162Y-21742D01*
X47435Y-21629D01*
X47644Y-21420D01*
X47757Y-21148D01*
X47758Y-20853D01*
X47758Y-57730D01*
X45075Y-57730D01*
X45075Y-34963D01*
X45010Y-34806D01*
X44891Y-34687D01*
X44734Y-34622D01*
X44565Y-34622D01*
X44409Y-34686D01*
X44348Y-34747D01*
X43302Y-34747D01*
X43187Y-34770D01*
X43090Y-34835D01*
X42250Y-35675D01*
X42165Y-35674D01*
X42009Y-35739D01*
X41889Y-35858D01*
X41825Y-36015D01*
X41824Y-36184D01*
X41872Y-36300D01*
X41224Y-36300D01*
X43374Y-34150D01*
X44298Y-34150D01*
X44358Y-34210D01*
X44515Y-34274D01*
X44684Y-34275D01*
X44840Y-34210D01*
X44960Y-34091D01*
X45024Y-33934D01*
X45025Y-33765D01*
X44960Y-33609D01*
X44841Y-33489D01*
X44684Y-33425D01*
X44515Y-33424D01*
X44359Y-33489D01*
X44298Y-33550D01*
X44251Y-33550D01*
X44310Y-33491D01*
X44374Y-33334D01*
X44375Y-33165D01*
X44310Y-33009D01*
X44191Y-32889D01*
X44034Y-32825D01*
X43865Y-32824D01*
X43726Y-32882D01*
X43726Y-20853D01*
X43613Y-20580D01*
X43405Y-20371D01*
X43132Y-20258D01*
X42837Y-20257D01*
X42564Y-20370D01*
X42355Y-20579D01*
X42242Y-20851D01*
X42241Y-21146D01*
X42354Y-21419D01*
X42563Y-21628D01*
X42835Y-21741D01*
X43131Y-21742D01*
X43404Y-21629D01*
X43613Y-21420D01*
X43726Y-21148D01*
X43726Y-20853D01*
X43726Y-32882D01*
X43709Y-32889D01*
X43648Y-32950D01*
X43400Y-32950D01*
X43285Y-32972D01*
X43187Y-33037D01*
X42125Y-34100D01*
X42125Y-33465D01*
X42060Y-33309D01*
X41941Y-33189D01*
X41784Y-33125D01*
X41758Y-33125D01*
X41758Y-20853D01*
X41645Y-20580D01*
X41436Y-20371D01*
X41164Y-20258D01*
X40868Y-20257D01*
X40595Y-20370D01*
X40386Y-20579D01*
X40273Y-20851D01*
X40273Y-21146D01*
X40386Y-21419D01*
X40594Y-21628D01*
X40867Y-21741D01*
X41162Y-21742D01*
X41435Y-21629D01*
X41644Y-21420D01*
X41757Y-21148D01*
X41758Y-20853D01*
X41758Y-33125D01*
X41699Y-33124D01*
X40712Y-32137D01*
X40641Y-32090D01*
X40541Y-31989D01*
X40384Y-31925D01*
X40215Y-31924D01*
X40059Y-31989D01*
X39939Y-32108D01*
X39875Y-32265D01*
X39874Y-32375D01*
X39765Y-32374D01*
X39609Y-32439D01*
X39489Y-32558D01*
X39425Y-32715D01*
X39424Y-32884D01*
X39489Y-33040D01*
X39608Y-33160D01*
X39765Y-33224D01*
X39850Y-33225D01*
X40725Y-34099D01*
X40724Y-34184D01*
X40789Y-34340D01*
X40908Y-34460D01*
X41065Y-34524D01*
X41234Y-34525D01*
X41390Y-34460D01*
X41510Y-34341D01*
X41574Y-34184D01*
X41575Y-34015D01*
X41546Y-33946D01*
X41615Y-33974D01*
X41784Y-33975D01*
X41940Y-33910D01*
X42060Y-33791D01*
X42124Y-33634D01*
X42125Y-33465D01*
X42125Y-34100D01*
X41276Y-34948D01*
X41260Y-34909D01*
X41141Y-34789D01*
X40984Y-34725D01*
X40815Y-34724D01*
X40659Y-34789D01*
X40598Y-34850D01*
X37632Y-34850D01*
X37632Y-20853D01*
X37519Y-20580D01*
X37310Y-20371D01*
X37038Y-20258D01*
X36742Y-20257D01*
X36469Y-20370D01*
X36260Y-20579D01*
X36147Y-20851D01*
X36147Y-21146D01*
X36260Y-21419D01*
X36468Y-21628D01*
X36741Y-21741D01*
X37036Y-21742D01*
X37309Y-21629D01*
X37518Y-21420D01*
X37631Y-21148D01*
X37632Y-20853D01*
X37632Y-34850D01*
X37250Y-34850D01*
X37135Y-34872D01*
X37037Y-34937D01*
X36850Y-35125D01*
X36765Y-35124D01*
X36609Y-35189D01*
X36489Y-35308D01*
X36425Y-35465D01*
X36424Y-35634D01*
X36436Y-35662D01*
X36250Y-35475D01*
X36250Y-32101D01*
X36310Y-32041D01*
X36374Y-31884D01*
X36375Y-31715D01*
X36310Y-31559D01*
X36191Y-31439D01*
X36034Y-31375D01*
X35865Y-31374D01*
X35709Y-31439D01*
X35667Y-31481D01*
X35667Y-21127D01*
X35659Y-20832D01*
X35561Y-20596D01*
X35446Y-20545D01*
X35375Y-20616D01*
X35375Y-20475D01*
X35324Y-20359D01*
X35048Y-20254D01*
X34753Y-20262D01*
X34517Y-20359D01*
X34467Y-20475D01*
X34921Y-20929D01*
X35375Y-20475D01*
X35375Y-20616D01*
X34991Y-21000D01*
X35446Y-21454D01*
X35561Y-21403D01*
X35667Y-21127D01*
X35667Y-31481D01*
X35589Y-31558D01*
X35525Y-31715D01*
X35524Y-31884D01*
X35589Y-32040D01*
X35650Y-32101D01*
X35650Y-35600D01*
X35672Y-35714D01*
X35737Y-35812D01*
X37137Y-37212D01*
X37137Y-37212D01*
X37235Y-37277D01*
X37350Y-37300D01*
X38848Y-37300D01*
X38887Y-37338D01*
X38500Y-37725D01*
X38415Y-37724D01*
X38259Y-37789D01*
X38139Y-37908D01*
X38075Y-38065D01*
X38074Y-38234D01*
X38133Y-38375D01*
X38075Y-38515D01*
X38074Y-38684D01*
X38139Y-38840D01*
X38258Y-38960D01*
X38415Y-39024D01*
X38550Y-39025D01*
X37825Y-39750D01*
X36701Y-39750D01*
X36641Y-39689D01*
X36525Y-39641D01*
X36525Y-36865D01*
X36460Y-36709D01*
X36341Y-36589D01*
X36184Y-36525D01*
X36099Y-36524D01*
X35375Y-35801D01*
X35375Y-21524D01*
X34921Y-21070D01*
X34850Y-21141D01*
X34850Y-21000D01*
X34396Y-20545D01*
X34281Y-20596D01*
X34175Y-20872D01*
X34183Y-21167D01*
X34281Y-21403D01*
X34396Y-21454D01*
X34850Y-21000D01*
X34850Y-21141D01*
X34467Y-21524D01*
X34517Y-21640D01*
X34793Y-21745D01*
X35088Y-21737D01*
X35324Y-21640D01*
X35375Y-21524D01*
X35375Y-35801D01*
X33695Y-34120D01*
X33695Y-20853D01*
X33582Y-20580D01*
X33373Y-20371D01*
X33101Y-20258D01*
X32805Y-20257D01*
X32532Y-20370D01*
X32323Y-20579D01*
X32210Y-20851D01*
X32210Y-21146D01*
X32323Y-21419D01*
X32531Y-21628D01*
X32804Y-21741D01*
X33099Y-21742D01*
X33372Y-21629D01*
X33581Y-21420D01*
X33694Y-21148D01*
X33695Y-20853D01*
X33695Y-34120D01*
X33524Y-33950D01*
X33525Y-33865D01*
X33460Y-33709D01*
X33341Y-33589D01*
X33184Y-33525D01*
X33015Y-33524D01*
X32859Y-33589D01*
X32739Y-33708D01*
X32675Y-33865D01*
X32674Y-34034D01*
X32721Y-34147D01*
X32524Y-33950D01*
X32525Y-33865D01*
X32460Y-33709D01*
X32341Y-33589D01*
X32184Y-33525D01*
X32015Y-33524D01*
X31859Y-33589D01*
X31739Y-33708D01*
X31726Y-33741D01*
X31726Y-20853D01*
X31613Y-20580D01*
X31405Y-20371D01*
X31132Y-20258D01*
X30837Y-20257D01*
X30564Y-20370D01*
X30355Y-20579D01*
X30242Y-20851D01*
X30241Y-21146D01*
X30354Y-21419D01*
X30563Y-21628D01*
X30835Y-21741D01*
X31131Y-21742D01*
X31404Y-21629D01*
X31613Y-21420D01*
X31726Y-21148D01*
X31726Y-20853D01*
X31726Y-33741D01*
X31675Y-33865D01*
X31674Y-34034D01*
X31739Y-34190D01*
X31858Y-34310D01*
X32015Y-34374D01*
X32100Y-34375D01*
X34975Y-37249D01*
X34974Y-37334D01*
X35039Y-37490D01*
X35158Y-37610D01*
X35315Y-37674D01*
X35484Y-37675D01*
X35640Y-37610D01*
X35760Y-37491D01*
X35824Y-37334D01*
X35824Y-37276D01*
X35858Y-37310D01*
X36015Y-37374D01*
X36184Y-37375D01*
X36340Y-37310D01*
X36460Y-37191D01*
X36524Y-37034D01*
X36525Y-36865D01*
X36525Y-39641D01*
X36484Y-39625D01*
X36315Y-39624D01*
X36159Y-39689D01*
X36039Y-39808D01*
X35975Y-39965D01*
X35974Y-40134D01*
X36039Y-40290D01*
X36073Y-40324D01*
X36039Y-40358D01*
X35975Y-40515D01*
X35974Y-40684D01*
X36039Y-40840D01*
X36158Y-40960D01*
X36315Y-41024D01*
X36484Y-41025D01*
X36640Y-40960D01*
X36701Y-40900D01*
X37398Y-40900D01*
X37458Y-40960D01*
X37615Y-41024D01*
X37784Y-41025D01*
X37940Y-40960D01*
X38060Y-40841D01*
X38124Y-40684D01*
X38125Y-40515D01*
X38060Y-40359D01*
X38034Y-40333D01*
X38064Y-40327D01*
X38064Y-40327D01*
X38162Y-40262D01*
X38999Y-39424D01*
X39084Y-39425D01*
X39240Y-39360D01*
X39360Y-39241D01*
X39424Y-39084D01*
X39425Y-38915D01*
X39418Y-38900D01*
X39950Y-38900D01*
X39950Y-38899D01*
X40064Y-38877D01*
X40064Y-38877D01*
X40162Y-38812D01*
X41224Y-37750D01*
X42898Y-37750D01*
X42958Y-37810D01*
X43115Y-37874D01*
X43284Y-37875D01*
X43440Y-37810D01*
X43560Y-37691D01*
X43624Y-37534D01*
X43624Y-37474D01*
X43784Y-37475D01*
X43940Y-37410D01*
X44060Y-37291D01*
X44124Y-37134D01*
X44125Y-36965D01*
X44060Y-36809D01*
X43941Y-36689D01*
X43784Y-36625D01*
X43624Y-36624D01*
X43625Y-36515D01*
X43560Y-36359D01*
X43441Y-36239D01*
X43284Y-36175D01*
X43115Y-36174D01*
X42959Y-36239D01*
X42898Y-36300D01*
X42627Y-36300D01*
X42674Y-36184D01*
X42675Y-36099D01*
X43427Y-35347D01*
X44348Y-35347D01*
X44408Y-35407D01*
X44565Y-35472D01*
X44734Y-35472D01*
X44890Y-35407D01*
X45010Y-35288D01*
X45074Y-35132D01*
X45075Y-34963D01*
X45075Y-57730D01*
X42775Y-57730D01*
X42775Y-38465D01*
X42710Y-38309D01*
X42591Y-38189D01*
X42434Y-38125D01*
X42265Y-38124D01*
X42109Y-38189D01*
X41989Y-38308D01*
X41925Y-38465D01*
X41924Y-38634D01*
X41989Y-38790D01*
X42050Y-38851D01*
X42050Y-39525D01*
X41737Y-39837D01*
X41737Y-39837D01*
X39500Y-42075D01*
X39415Y-42074D01*
X39259Y-42139D01*
X39139Y-42258D01*
X39075Y-42415D01*
X39074Y-42584D01*
X39139Y-42740D01*
X39258Y-42860D01*
X39415Y-42924D01*
X39584Y-42925D01*
X39740Y-42860D01*
X39860Y-42741D01*
X39924Y-42584D01*
X39925Y-42499D01*
X42162Y-40262D01*
X42162Y-40262D01*
X42162Y-40262D01*
X42562Y-39862D01*
X42562Y-39862D01*
X42627Y-39764D01*
X42649Y-39650D01*
X42650Y-39650D01*
X42650Y-38851D01*
X42710Y-38791D01*
X42774Y-38634D01*
X42775Y-38465D01*
X42775Y-57730D01*
X42525Y-57730D01*
X42525Y-46065D01*
X42460Y-45909D01*
X42341Y-45789D01*
X42184Y-45725D01*
X42015Y-45724D01*
X41859Y-45789D01*
X41798Y-45850D01*
X41274Y-45850D01*
X41045Y-45621D01*
X41045Y-45487D01*
X41003Y-45278D01*
X40885Y-45101D01*
X40801Y-45045D01*
X40844Y-45045D01*
X40936Y-45007D01*
X41007Y-44937D01*
X41045Y-44845D01*
X41045Y-44745D01*
X41045Y-43958D01*
X41007Y-43866D01*
X40937Y-43796D01*
X40845Y-43757D01*
X40745Y-43757D01*
X40382Y-43757D01*
X39962Y-43337D01*
X39864Y-43272D01*
X39750Y-43250D01*
X38351Y-43250D01*
X38291Y-43189D01*
X38134Y-43125D01*
X37965Y-43124D01*
X37809Y-43189D01*
X37689Y-43308D01*
X37625Y-43465D01*
X37624Y-43634D01*
X37689Y-43790D01*
X37808Y-43910D01*
X37965Y-43974D01*
X38067Y-43975D01*
X37996Y-44081D01*
X37954Y-44290D01*
X37954Y-44512D01*
X37996Y-44721D01*
X38114Y-44898D01*
X38276Y-45006D01*
X38139Y-45085D01*
X38007Y-45255D01*
X37951Y-45462D01*
X38015Y-45548D01*
X38450Y-45548D01*
X38450Y-45540D01*
X38550Y-45540D01*
X38550Y-45548D01*
X38557Y-45548D01*
X38557Y-45648D01*
X38550Y-45648D01*
X38550Y-46177D01*
X38634Y-46225D01*
X38674Y-46217D01*
X38860Y-46111D01*
X38992Y-45941D01*
X38997Y-45920D01*
X39114Y-46095D01*
X39200Y-46152D01*
X39200Y-48000D01*
X39222Y-48114D01*
X39287Y-48212D01*
X40307Y-49231D01*
X40304Y-49250D01*
X40345Y-49458D01*
X40463Y-49635D01*
X40640Y-49753D01*
X40849Y-49795D01*
X41150Y-49795D01*
X41359Y-49753D01*
X41536Y-49635D01*
X41654Y-49458D01*
X41695Y-49250D01*
X41654Y-49041D01*
X41536Y-48864D01*
X41364Y-48750D01*
X41536Y-48635D01*
X41654Y-48458D01*
X41695Y-48250D01*
X41654Y-48041D01*
X41536Y-47864D01*
X41359Y-47746D01*
X41150Y-47705D01*
X40849Y-47705D01*
X40665Y-47741D01*
X40300Y-47375D01*
X40300Y-46214D01*
X40500Y-46254D01*
X40708Y-46213D01*
X40756Y-46181D01*
X40937Y-46362D01*
X40937Y-46362D01*
X41035Y-46427D01*
X41150Y-46450D01*
X41798Y-46450D01*
X41858Y-46510D01*
X42015Y-46574D01*
X42184Y-46575D01*
X42340Y-46510D01*
X42460Y-46391D01*
X42524Y-46234D01*
X42525Y-46065D01*
X42525Y-57730D01*
X39675Y-57730D01*
X39675Y-51615D01*
X39610Y-51459D01*
X39491Y-51339D01*
X39334Y-51275D01*
X39165Y-51274D01*
X39009Y-51339D01*
X38889Y-51458D01*
X38825Y-51615D01*
X38824Y-51700D01*
X38695Y-51829D01*
X38695Y-49250D01*
X38654Y-49041D01*
X38536Y-48864D01*
X38432Y-48795D01*
X38482Y-48795D01*
X38573Y-48757D01*
X38644Y-48686D01*
X38682Y-48594D01*
X38682Y-48495D01*
X38682Y-47905D01*
X38644Y-47813D01*
X38574Y-47743D01*
X38482Y-47705D01*
X38450Y-47705D01*
X38450Y-46177D01*
X38450Y-45648D01*
X38015Y-45648D01*
X37951Y-45734D01*
X38007Y-45941D01*
X38139Y-46111D01*
X38325Y-46217D01*
X38365Y-46225D01*
X38450Y-46177D01*
X38450Y-47705D01*
X38382Y-47704D01*
X37517Y-47704D01*
X37426Y-47742D01*
X37355Y-47813D01*
X37317Y-47905D01*
X37317Y-48004D01*
X37317Y-48358D01*
X37075Y-48600D01*
X32524Y-48600D01*
X33462Y-47662D01*
X33462Y-47662D01*
X33462Y-47662D01*
X34249Y-46874D01*
X34334Y-46875D01*
X34490Y-46810D01*
X34610Y-46691D01*
X34674Y-46534D01*
X34675Y-46365D01*
X34610Y-46209D01*
X34491Y-46089D01*
X34334Y-46025D01*
X34165Y-46024D01*
X34009Y-46089D01*
X33889Y-46208D01*
X33875Y-46244D01*
X33860Y-46209D01*
X33741Y-46089D01*
X33584Y-46025D01*
X33415Y-46024D01*
X33259Y-46089D01*
X33139Y-46208D01*
X33075Y-46365D01*
X33074Y-46450D01*
X31625Y-47900D01*
X29758Y-47900D01*
X29758Y-20853D01*
X29645Y-20580D01*
X29436Y-20371D01*
X29164Y-20258D01*
X28868Y-20257D01*
X28595Y-20370D01*
X28386Y-20579D01*
X28273Y-20851D01*
X28273Y-21146D01*
X28386Y-21419D01*
X28594Y-21628D01*
X28867Y-21741D01*
X29162Y-21742D01*
X29435Y-21629D01*
X29644Y-21420D01*
X29757Y-21148D01*
X29758Y-20853D01*
X29758Y-47900D01*
X27789Y-47900D01*
X27789Y-20853D01*
X27676Y-20580D01*
X27468Y-20371D01*
X27195Y-20258D01*
X26900Y-20257D01*
X26627Y-20370D01*
X26418Y-20579D01*
X26305Y-20851D01*
X26304Y-21146D01*
X26417Y-21419D01*
X26626Y-21628D01*
X26898Y-21741D01*
X27194Y-21742D01*
X27467Y-21629D01*
X27676Y-21420D01*
X27789Y-21148D01*
X27789Y-20853D01*
X27789Y-47900D01*
X25820Y-47900D01*
X25820Y-20853D01*
X25708Y-20580D01*
X25499Y-20371D01*
X25227Y-20258D01*
X24931Y-20257D01*
X24658Y-20370D01*
X24449Y-20579D01*
X24336Y-20851D01*
X24336Y-21146D01*
X24449Y-21419D01*
X24657Y-21628D01*
X24930Y-21741D01*
X25225Y-21742D01*
X25498Y-21629D01*
X25707Y-21420D01*
X25820Y-21148D01*
X25820Y-20853D01*
X25820Y-47900D01*
X25750Y-47900D01*
X25635Y-47922D01*
X25537Y-47987D01*
X24087Y-49437D01*
X24022Y-49535D01*
X24000Y-49650D01*
X24000Y-50100D01*
X24022Y-50214D01*
X24087Y-50312D01*
X24320Y-50544D01*
X24339Y-50590D01*
X24448Y-50700D01*
X24339Y-50808D01*
X24275Y-50965D01*
X24274Y-51134D01*
X24339Y-51290D01*
X24458Y-51410D01*
X24615Y-51474D01*
X24784Y-51475D01*
X24940Y-51410D01*
X25060Y-51291D01*
X25118Y-51150D01*
X26350Y-51150D01*
X26350Y-51149D01*
X26464Y-51127D01*
X26464Y-51127D01*
X26562Y-51062D01*
X27862Y-49762D01*
X28074Y-49550D01*
X37406Y-49550D01*
X37463Y-49635D01*
X37640Y-49753D01*
X37849Y-49795D01*
X38150Y-49795D01*
X38359Y-49753D01*
X38536Y-49635D01*
X38654Y-49458D01*
X38695Y-49250D01*
X38695Y-51829D01*
X38550Y-51975D01*
X38465Y-51974D01*
X38309Y-52039D01*
X38189Y-52158D01*
X38125Y-52315D01*
X38124Y-52484D01*
X38189Y-52640D01*
X38308Y-52760D01*
X38465Y-52824D01*
X38634Y-52825D01*
X38790Y-52760D01*
X38910Y-52641D01*
X38974Y-52484D01*
X38975Y-52399D01*
X39249Y-52124D01*
X39334Y-52125D01*
X39490Y-52060D01*
X39610Y-51941D01*
X39674Y-51784D01*
X39675Y-51615D01*
X39675Y-57730D01*
X36726Y-57730D01*
X36726Y-54853D01*
X36613Y-54580D01*
X36405Y-54371D01*
X36132Y-54258D01*
X35837Y-54257D01*
X35564Y-54370D01*
X35355Y-54579D01*
X35242Y-54851D01*
X35241Y-55146D01*
X35354Y-55419D01*
X35563Y-55628D01*
X35835Y-55741D01*
X36131Y-55742D01*
X36404Y-55629D01*
X36613Y-55420D01*
X36726Y-55148D01*
X36726Y-54853D01*
X36726Y-57730D01*
X34758Y-57730D01*
X34758Y-54853D01*
X34645Y-54580D01*
X34436Y-54371D01*
X34164Y-54258D01*
X33868Y-54257D01*
X33595Y-54370D01*
X33386Y-54579D01*
X33273Y-54851D01*
X33273Y-55146D01*
X33386Y-55419D01*
X33594Y-55628D01*
X33867Y-55741D01*
X34162Y-55742D01*
X34435Y-55629D01*
X34644Y-55420D01*
X34757Y-55148D01*
X34758Y-54853D01*
X34758Y-57730D01*
X32175Y-57730D01*
X32175Y-50415D01*
X32110Y-50259D01*
X31991Y-50139D01*
X31834Y-50075D01*
X31665Y-50074D01*
X31509Y-50139D01*
X31389Y-50258D01*
X31325Y-50415D01*
X31324Y-50584D01*
X31389Y-50740D01*
X31508Y-50860D01*
X31665Y-50924D01*
X31834Y-50925D01*
X31990Y-50860D01*
X32110Y-50741D01*
X32174Y-50584D01*
X32175Y-50415D01*
X32175Y-57730D01*
X23856Y-57730D01*
X23856Y-21127D01*
X23848Y-20832D01*
X23750Y-20596D01*
X23635Y-20545D01*
X23564Y-20616D01*
X23564Y-20475D01*
X23513Y-20359D01*
X23237Y-20254D01*
X22942Y-20262D01*
X22706Y-20359D01*
X22656Y-20475D01*
X23110Y-20929D01*
X23564Y-20475D01*
X23564Y-20616D01*
X23180Y-21000D01*
X23635Y-21454D01*
X23750Y-21403D01*
X23856Y-21127D01*
X23856Y-57730D01*
X23696Y-57730D01*
X23696Y-55000D01*
X23654Y-54789D01*
X23535Y-54611D01*
X23369Y-54500D01*
X23535Y-54388D01*
X23654Y-54210D01*
X23696Y-54000D01*
X23654Y-53789D01*
X23535Y-53611D01*
X23443Y-53550D01*
X23482Y-53550D01*
X23574Y-53512D01*
X23644Y-53441D01*
X23682Y-53349D01*
X23683Y-53250D01*
X23683Y-52650D01*
X23645Y-52558D01*
X23574Y-52488D01*
X23564Y-52483D01*
X23564Y-21524D01*
X23110Y-21070D01*
X23039Y-21141D01*
X23039Y-21000D01*
X22585Y-20545D01*
X22470Y-20596D01*
X22364Y-20872D01*
X22372Y-21167D01*
X22470Y-21403D01*
X22585Y-21454D01*
X23039Y-21000D01*
X23039Y-21141D01*
X22656Y-21524D01*
X22706Y-21640D01*
X22982Y-21745D01*
X23277Y-21737D01*
X23513Y-21640D01*
X23564Y-21524D01*
X23564Y-52483D01*
X23482Y-52450D01*
X23383Y-52449D01*
X23375Y-52449D01*
X23375Y-51300D01*
X23346Y-51156D01*
X23265Y-51034D01*
X20980Y-48750D01*
X20859Y-48669D01*
X20745Y-48646D01*
X20745Y-45017D01*
X20742Y-44884D01*
X20742Y-42774D01*
X20742Y-40805D01*
X20742Y-38837D01*
X20742Y-36868D01*
X20742Y-34900D01*
X20742Y-32931D01*
X20742Y-30963D01*
X20629Y-30690D01*
X20420Y-30481D01*
X20345Y-30450D01*
X20345Y-19733D01*
X20140Y-19239D01*
X19762Y-18860D01*
X19268Y-18655D01*
X18733Y-18654D01*
X18239Y-18859D01*
X17860Y-19237D01*
X17655Y-19731D01*
X17654Y-20266D01*
X17859Y-20760D01*
X18237Y-21139D01*
X18731Y-21344D01*
X19266Y-21345D01*
X19760Y-21140D01*
X20139Y-20762D01*
X20344Y-20268D01*
X20345Y-19733D01*
X20345Y-30450D01*
X20148Y-30368D01*
X19853Y-30367D01*
X19580Y-30480D01*
X19371Y-30689D01*
X19258Y-30961D01*
X19257Y-31257D01*
X19370Y-31530D01*
X19579Y-31739D01*
X19851Y-31852D01*
X20146Y-31852D01*
X20419Y-31739D01*
X20628Y-31531D01*
X20741Y-31258D01*
X20742Y-30963D01*
X20742Y-32931D01*
X20629Y-32658D01*
X20420Y-32449D01*
X20148Y-32336D01*
X19853Y-32336D01*
X19580Y-32449D01*
X19371Y-32657D01*
X19258Y-32930D01*
X19257Y-33225D01*
X19370Y-33498D01*
X19579Y-33707D01*
X19851Y-33820D01*
X20146Y-33820D01*
X20419Y-33708D01*
X20628Y-33499D01*
X20741Y-33227D01*
X20742Y-32931D01*
X20742Y-34900D01*
X20629Y-34627D01*
X20420Y-34418D01*
X20148Y-34305D01*
X19853Y-34304D01*
X19580Y-34417D01*
X19371Y-34626D01*
X19258Y-34898D01*
X19257Y-35194D01*
X19370Y-35467D01*
X19579Y-35676D01*
X19851Y-35789D01*
X20146Y-35789D01*
X20419Y-35676D01*
X20628Y-35468D01*
X20741Y-35195D01*
X20742Y-34900D01*
X20742Y-36868D01*
X20629Y-36595D01*
X20420Y-36386D01*
X20148Y-36273D01*
X19853Y-36273D01*
X19580Y-36386D01*
X19371Y-36594D01*
X19258Y-36867D01*
X19257Y-37162D01*
X19370Y-37435D01*
X19579Y-37644D01*
X19851Y-37757D01*
X20146Y-37758D01*
X20419Y-37645D01*
X20628Y-37436D01*
X20741Y-37164D01*
X20742Y-36868D01*
X20742Y-38837D01*
X20629Y-38564D01*
X20420Y-38355D01*
X20148Y-38242D01*
X19853Y-38241D01*
X19580Y-38354D01*
X19371Y-38563D01*
X19258Y-38835D01*
X19257Y-39131D01*
X19370Y-39404D01*
X19579Y-39613D01*
X19851Y-39726D01*
X20146Y-39726D01*
X20419Y-39613D01*
X20628Y-39405D01*
X20741Y-39132D01*
X20742Y-38837D01*
X20742Y-40805D01*
X20629Y-40532D01*
X20420Y-40323D01*
X20148Y-40210D01*
X19853Y-40210D01*
X19580Y-40323D01*
X19371Y-40531D01*
X19258Y-40804D01*
X19257Y-41099D01*
X19370Y-41372D01*
X19579Y-41581D01*
X19851Y-41694D01*
X20146Y-41695D01*
X20419Y-41582D01*
X20628Y-41373D01*
X20741Y-41101D01*
X20742Y-40805D01*
X20742Y-42774D01*
X20629Y-42501D01*
X20420Y-42292D01*
X20148Y-42179D01*
X19853Y-42179D01*
X19580Y-42291D01*
X19371Y-42500D01*
X19258Y-42772D01*
X19257Y-43068D01*
X19370Y-43341D01*
X19579Y-43550D01*
X19851Y-43663D01*
X20146Y-43663D01*
X20419Y-43550D01*
X20628Y-43342D01*
X20741Y-43069D01*
X20742Y-42774D01*
X20742Y-44884D01*
X20737Y-44722D01*
X20640Y-44486D01*
X20524Y-44435D01*
X20454Y-44506D01*
X20454Y-44364D01*
X20403Y-44249D01*
X20127Y-44143D01*
X19832Y-44151D01*
X19596Y-44249D01*
X19545Y-44364D01*
X20000Y-44819D01*
X20454Y-44364D01*
X20454Y-44506D01*
X20070Y-44889D01*
X20524Y-45343D01*
X20640Y-45293D01*
X20745Y-45017D01*
X20745Y-48646D01*
X20715Y-48640D01*
X20648Y-48640D01*
X20629Y-48595D01*
X20454Y-48420D01*
X20454Y-45414D01*
X20000Y-44960D01*
X19929Y-45031D01*
X19929Y-44889D01*
X19475Y-44435D01*
X19359Y-44486D01*
X19254Y-44762D01*
X19262Y-45057D01*
X19359Y-45293D01*
X19475Y-45343D01*
X19929Y-44889D01*
X19929Y-45031D01*
X19545Y-45414D01*
X19596Y-45529D01*
X19872Y-45635D01*
X20167Y-45627D01*
X20403Y-45529D01*
X20454Y-45414D01*
X20454Y-48420D01*
X20420Y-48386D01*
X20148Y-48273D01*
X19853Y-48273D01*
X19580Y-48386D01*
X19371Y-48594D01*
X19258Y-48867D01*
X19257Y-49162D01*
X19370Y-49435D01*
X19579Y-49644D01*
X19851Y-49757D01*
X20146Y-49758D01*
X20419Y-49645D01*
X20617Y-49447D01*
X22625Y-51455D01*
X22625Y-52449D01*
X22517Y-52449D01*
X22425Y-52487D01*
X22355Y-52558D01*
X22317Y-52650D01*
X22316Y-52749D01*
X22316Y-53349D01*
X22354Y-53441D01*
X22425Y-53511D01*
X22517Y-53549D01*
X22556Y-53549D01*
X22464Y-53611D01*
X22345Y-53789D01*
X22303Y-54000D01*
X22345Y-54210D01*
X22464Y-54388D01*
X22630Y-54500D01*
X22464Y-54611D01*
X22345Y-54789D01*
X22303Y-55000D01*
X22345Y-55210D01*
X22464Y-55388D01*
X22643Y-55508D01*
X22853Y-55550D01*
X23146Y-55550D01*
X23356Y-55508D01*
X23535Y-55388D01*
X23654Y-55210D01*
X23696Y-55000D01*
X23696Y-57730D01*
X20745Y-57730D01*
X20745Y-51111D01*
X20737Y-50816D01*
X20640Y-50580D01*
X20524Y-50530D01*
X20454Y-50600D01*
X20454Y-50459D01*
X20403Y-50344D01*
X20127Y-50238D01*
X19832Y-50246D01*
X19596Y-50344D01*
X19545Y-50459D01*
X20000Y-50913D01*
X20454Y-50459D01*
X20454Y-50600D01*
X20070Y-50984D01*
X20524Y-51438D01*
X20640Y-51387D01*
X20745Y-51111D01*
X20745Y-57730D01*
X20454Y-57730D01*
X20454Y-51509D01*
X20000Y-51054D01*
X19929Y-51125D01*
X19929Y-50984D01*
X19475Y-50530D01*
X19359Y-50580D01*
X19254Y-50856D01*
X19262Y-51151D01*
X19359Y-51387D01*
X19475Y-51438D01*
X19929Y-50984D01*
X19929Y-51125D01*
X19545Y-51509D01*
X19596Y-51624D01*
X19872Y-51730D01*
X20167Y-51722D01*
X20403Y-51624D01*
X20454Y-51509D01*
X20454Y-57730D01*
X20345Y-57730D01*
X20345Y-55733D01*
X20140Y-55239D01*
X19762Y-54860D01*
X19268Y-54655D01*
X18733Y-54654D01*
X18239Y-54859D01*
X17860Y-55237D01*
X17655Y-55731D01*
X17654Y-56266D01*
X17859Y-56760D01*
X18237Y-57139D01*
X18731Y-57344D01*
X19266Y-57345D01*
X19760Y-57140D01*
X20139Y-56762D01*
X20344Y-56268D01*
X20345Y-55733D01*
X20345Y-57730D01*
X17269Y-57730D01*
X17269Y-18269D01*
X61730Y-18269D01*
X61730Y-57730D01*
X61730Y-57730D01*
G37*
G54D22*
X61730Y-57730D02*
X61345Y-57730D01*
X61345Y-55733D01*
X61345Y-19733D01*
X61140Y-19239D01*
X60762Y-18860D01*
X60268Y-18655D01*
X59733Y-18654D01*
X59239Y-18859D01*
X58860Y-19237D01*
X58655Y-19731D01*
X58654Y-20266D01*
X58859Y-20760D01*
X59237Y-21139D01*
X59731Y-21344D01*
X60266Y-21345D01*
X60760Y-21140D01*
X61139Y-20762D01*
X61344Y-20268D01*
X61345Y-19733D01*
X61345Y-55733D01*
X61140Y-55239D01*
X60762Y-54860D01*
X60268Y-54655D01*
X59745Y-54654D01*
X59745Y-31237D01*
X59737Y-30942D01*
X59640Y-30706D01*
X59524Y-30656D01*
X59454Y-30726D01*
X59454Y-30585D01*
X59403Y-30470D01*
X59127Y-30364D01*
X58832Y-30372D01*
X58596Y-30470D01*
X58545Y-30585D01*
X59000Y-31039D01*
X59454Y-30585D01*
X59454Y-30726D01*
X59070Y-31110D01*
X59524Y-31564D01*
X59640Y-31513D01*
X59745Y-31237D01*
X59745Y-54654D01*
X59742Y-54654D01*
X59742Y-44742D01*
X59742Y-42774D01*
X59742Y-40805D01*
X59742Y-38837D01*
X59742Y-36868D01*
X59742Y-34900D01*
X59742Y-32931D01*
X59629Y-32658D01*
X59454Y-32483D01*
X59454Y-31635D01*
X59000Y-31180D01*
X58929Y-31251D01*
X58929Y-31110D01*
X58475Y-30656D01*
X58359Y-30706D01*
X58254Y-30982D01*
X58262Y-31277D01*
X58359Y-31513D01*
X58475Y-31564D01*
X58929Y-31110D01*
X58929Y-31251D01*
X58545Y-31635D01*
X58596Y-31750D01*
X58872Y-31856D01*
X59167Y-31848D01*
X59403Y-31750D01*
X59454Y-31635D01*
X59454Y-32483D01*
X59420Y-32449D01*
X59148Y-32336D01*
X58853Y-32336D01*
X58580Y-32449D01*
X58371Y-32657D01*
X58258Y-32930D01*
X58257Y-33225D01*
X58370Y-33498D01*
X58579Y-33707D01*
X58851Y-33820D01*
X59146Y-33820D01*
X59419Y-33708D01*
X59628Y-33499D01*
X59741Y-33227D01*
X59742Y-32931D01*
X59742Y-34900D01*
X59629Y-34627D01*
X59420Y-34418D01*
X59148Y-34305D01*
X58853Y-34304D01*
X58580Y-34417D01*
X58371Y-34626D01*
X58258Y-34898D01*
X58257Y-35194D01*
X58370Y-35467D01*
X58579Y-35676D01*
X58851Y-35789D01*
X59146Y-35789D01*
X59419Y-35676D01*
X59628Y-35468D01*
X59741Y-35195D01*
X59742Y-34900D01*
X59742Y-36868D01*
X59629Y-36595D01*
X59420Y-36386D01*
X59148Y-36273D01*
X58853Y-36273D01*
X58580Y-36386D01*
X58371Y-36594D01*
X58258Y-36867D01*
X58257Y-37162D01*
X58370Y-37435D01*
X58579Y-37644D01*
X58851Y-37757D01*
X59146Y-37758D01*
X59419Y-37645D01*
X59628Y-37436D01*
X59741Y-37164D01*
X59742Y-36868D01*
X59742Y-38837D01*
X59629Y-38564D01*
X59420Y-38355D01*
X59148Y-38242D01*
X58853Y-38241D01*
X58580Y-38354D01*
X58371Y-38563D01*
X58258Y-38835D01*
X58257Y-39131D01*
X58370Y-39404D01*
X58579Y-39613D01*
X58851Y-39726D01*
X59146Y-39726D01*
X59419Y-39613D01*
X59628Y-39405D01*
X59741Y-39132D01*
X59742Y-38837D01*
X59742Y-40805D01*
X59629Y-40532D01*
X59420Y-40323D01*
X59148Y-40210D01*
X58853Y-40210D01*
X58580Y-40323D01*
X58371Y-40531D01*
X58258Y-40804D01*
X58257Y-41099D01*
X58370Y-41372D01*
X58579Y-41581D01*
X58851Y-41694D01*
X59146Y-41695D01*
X59419Y-41582D01*
X59628Y-41373D01*
X59741Y-41101D01*
X59742Y-40805D01*
X59742Y-42774D01*
X59629Y-42501D01*
X59420Y-42292D01*
X59148Y-42179D01*
X58853Y-42179D01*
X58580Y-42291D01*
X58371Y-42500D01*
X58258Y-42772D01*
X58257Y-43068D01*
X58370Y-43341D01*
X58579Y-43550D01*
X58851Y-43663D01*
X59146Y-43663D01*
X59419Y-43550D01*
X59628Y-43342D01*
X59741Y-43069D01*
X59742Y-42774D01*
X59742Y-44742D01*
X59629Y-44469D01*
X59420Y-44260D01*
X59148Y-44147D01*
X58853Y-44147D01*
X58580Y-44260D01*
X58371Y-44468D01*
X58258Y-44741D01*
X58257Y-45036D01*
X58370Y-45309D01*
X58579Y-45518D01*
X58851Y-45631D01*
X59146Y-45632D01*
X59419Y-45519D01*
X59628Y-45310D01*
X59741Y-45038D01*
X59742Y-44742D01*
X59742Y-54654D01*
X59733Y-54654D01*
X59239Y-54859D01*
X58860Y-55237D01*
X58655Y-55731D01*
X58654Y-56266D01*
X58859Y-56760D01*
X59237Y-57139D01*
X59731Y-57344D01*
X60266Y-57345D01*
X60760Y-57140D01*
X61139Y-56762D01*
X61344Y-56268D01*
X61345Y-55733D01*
X61345Y-57730D01*
X58050Y-57730D01*
X58050Y-57050D01*
X58050Y-54950D01*
X55726Y-54950D01*
X55726Y-20853D01*
X55613Y-20580D01*
X55405Y-20371D01*
X55132Y-20258D01*
X54837Y-20257D01*
X54564Y-20370D01*
X54355Y-20579D01*
X54242Y-20851D01*
X54241Y-21146D01*
X54354Y-21419D01*
X54563Y-21628D01*
X54835Y-21741D01*
X55131Y-21742D01*
X55404Y-21629D01*
X55613Y-21420D01*
X55726Y-21148D01*
X55726Y-20853D01*
X55726Y-54950D01*
X53758Y-54950D01*
X53758Y-20853D01*
X53645Y-20580D01*
X53436Y-20371D01*
X53164Y-20258D01*
X52868Y-20257D01*
X52595Y-20370D01*
X52386Y-20579D01*
X52273Y-20851D01*
X52273Y-21146D01*
X52386Y-21419D01*
X52594Y-21628D01*
X52867Y-21741D01*
X53162Y-21742D01*
X53435Y-21629D01*
X53644Y-21420D01*
X53757Y-21148D01*
X53758Y-20853D01*
X53758Y-54950D01*
X52950Y-54950D01*
X52950Y-57050D01*
X58050Y-57050D01*
X58050Y-57730D01*
X49726Y-57730D01*
X49726Y-20853D01*
X49613Y-20580D01*
X49405Y-20371D01*
X49132Y-20258D01*
X48837Y-20257D01*
X48564Y-20370D01*
X48355Y-20579D01*
X48242Y-20851D01*
X48241Y-21146D01*
X48354Y-21419D01*
X48563Y-21628D01*
X48835Y-21741D01*
X49131Y-21742D01*
X49404Y-21629D01*
X49613Y-21420D01*
X49726Y-21148D01*
X49726Y-20853D01*
X49726Y-57730D01*
X47758Y-57730D01*
X47758Y-20853D01*
X47645Y-20580D01*
X47436Y-20371D01*
X47164Y-20258D01*
X46868Y-20257D01*
X46595Y-20370D01*
X46386Y-20579D01*
X46273Y-20851D01*
X46273Y-21146D01*
X46386Y-21419D01*
X46594Y-21628D01*
X46867Y-21741D01*
X47162Y-21742D01*
X47435Y-21629D01*
X47644Y-21420D01*
X47757Y-21148D01*
X47758Y-20853D01*
X47758Y-57730D01*
X45075Y-57730D01*
X45075Y-34963D01*
X45010Y-34806D01*
X44891Y-34687D01*
X44734Y-34622D01*
X44565Y-34622D01*
X44409Y-34686D01*
X44348Y-34747D01*
X43302Y-34747D01*
X43187Y-34770D01*
X43090Y-34835D01*
X42250Y-35675D01*
X42165Y-35674D01*
X42009Y-35739D01*
X41889Y-35858D01*
X41825Y-36015D01*
X41824Y-36184D01*
X41872Y-36300D01*
X41224Y-36300D01*
X43374Y-34150D01*
X44298Y-34150D01*
X44358Y-34210D01*
X44515Y-34274D01*
X44684Y-34275D01*
X44840Y-34210D01*
X44960Y-34091D01*
X45024Y-33934D01*
X45025Y-33765D01*
X44960Y-33609D01*
X44841Y-33489D01*
X44684Y-33425D01*
X44515Y-33424D01*
X44359Y-33489D01*
X44298Y-33550D01*
X44251Y-33550D01*
X44310Y-33491D01*
X44374Y-33334D01*
X44375Y-33165D01*
X44310Y-33009D01*
X44191Y-32889D01*
X44034Y-32825D01*
X43865Y-32824D01*
X43726Y-32882D01*
X43726Y-20853D01*
X43613Y-20580D01*
X43405Y-20371D01*
X43132Y-20258D01*
X42837Y-20257D01*
X42564Y-20370D01*
X42355Y-20579D01*
X42242Y-20851D01*
X42241Y-21146D01*
X42354Y-21419D01*
X42563Y-21628D01*
X42835Y-21741D01*
X43131Y-21742D01*
X43404Y-21629D01*
X43613Y-21420D01*
X43726Y-21148D01*
X43726Y-20853D01*
X43726Y-32882D01*
X43709Y-32889D01*
X43648Y-32950D01*
X43400Y-32950D01*
X43285Y-32972D01*
X43187Y-33037D01*
X42125Y-34100D01*
X42125Y-33465D01*
X42060Y-33309D01*
X41941Y-33189D01*
X41784Y-33125D01*
X41758Y-33125D01*
X41758Y-20853D01*
X41645Y-20580D01*
X41436Y-20371D01*
X41164Y-20258D01*
X40868Y-20257D01*
X40595Y-20370D01*
X40386Y-20579D01*
X40273Y-20851D01*
X40273Y-21146D01*
X40386Y-21419D01*
X40594Y-21628D01*
X40867Y-21741D01*
X41162Y-21742D01*
X41435Y-21629D01*
X41644Y-21420D01*
X41757Y-21148D01*
X41758Y-20853D01*
X41758Y-33125D01*
X41699Y-33124D01*
X40712Y-32137D01*
X40641Y-32090D01*
X40541Y-31989D01*
X40384Y-31925D01*
X40215Y-31924D01*
X40059Y-31989D01*
X39939Y-32108D01*
X39875Y-32265D01*
X39874Y-32375D01*
X39765Y-32374D01*
X39609Y-32439D01*
X39489Y-32558D01*
X39425Y-32715D01*
X39424Y-32884D01*
X39489Y-33040D01*
X39608Y-33160D01*
X39765Y-33224D01*
X39850Y-33225D01*
X40725Y-34099D01*
X40724Y-34184D01*
X40789Y-34340D01*
X40908Y-34460D01*
X41065Y-34524D01*
X41234Y-34525D01*
X41390Y-34460D01*
X41510Y-34341D01*
X41574Y-34184D01*
X41575Y-34015D01*
X41546Y-33946D01*
X41615Y-33974D01*
X41784Y-33975D01*
X41940Y-33910D01*
X42060Y-33791D01*
X42124Y-33634D01*
X42125Y-33465D01*
X42125Y-34100D01*
X41276Y-34948D01*
X41260Y-34909D01*
X41141Y-34789D01*
X40984Y-34725D01*
X40815Y-34724D01*
X40659Y-34789D01*
X40598Y-34850D01*
X37632Y-34850D01*
X37632Y-20853D01*
X37519Y-20580D01*
X37310Y-20371D01*
X37038Y-20258D01*
X36742Y-20257D01*
X36469Y-20370D01*
X36260Y-20579D01*
X36147Y-20851D01*
X36147Y-21146D01*
X36260Y-21419D01*
X36468Y-21628D01*
X36741Y-21741D01*
X37036Y-21742D01*
X37309Y-21629D01*
X37518Y-21420D01*
X37631Y-21148D01*
X37632Y-20853D01*
X37632Y-34850D01*
X37250Y-34850D01*
X37135Y-34872D01*
X37037Y-34937D01*
X36850Y-35125D01*
X36765Y-35124D01*
X36609Y-35189D01*
X36489Y-35308D01*
X36425Y-35465D01*
X36424Y-35634D01*
X36436Y-35662D01*
X36250Y-35475D01*
X36250Y-32101D01*
X36310Y-32041D01*
X36374Y-31884D01*
X36375Y-31715D01*
X36310Y-31559D01*
X36191Y-31439D01*
X36034Y-31375D01*
X35865Y-31374D01*
X35709Y-31439D01*
X35667Y-31481D01*
X35667Y-21127D01*
X35659Y-20832D01*
X35561Y-20596D01*
X35446Y-20545D01*
X35375Y-20616D01*
X35375Y-20475D01*
X35324Y-20359D01*
X35048Y-20254D01*
X34753Y-20262D01*
X34517Y-20359D01*
X34467Y-20475D01*
X34921Y-20929D01*
X35375Y-20475D01*
X35375Y-20616D01*
X34991Y-21000D01*
X35446Y-21454D01*
X35561Y-21403D01*
X35667Y-21127D01*
X35667Y-31481D01*
X35589Y-31558D01*
X35525Y-31715D01*
X35524Y-31884D01*
X35589Y-32040D01*
X35650Y-32101D01*
X35650Y-35600D01*
X35672Y-35714D01*
X35737Y-35812D01*
X37137Y-37212D01*
X37137Y-37212D01*
X37235Y-37277D01*
X37350Y-37300D01*
X38848Y-37300D01*
X38887Y-37338D01*
X38500Y-37725D01*
X38415Y-37724D01*
X38259Y-37789D01*
X38139Y-37908D01*
X38075Y-38065D01*
X38074Y-38234D01*
X38133Y-38375D01*
X38075Y-38515D01*
X38074Y-38684D01*
X38139Y-38840D01*
X38258Y-38960D01*
X38415Y-39024D01*
X38550Y-39025D01*
X37825Y-39750D01*
X36701Y-39750D01*
X36641Y-39689D01*
X36525Y-39641D01*
X36525Y-36865D01*
X36460Y-36709D01*
X36341Y-36589D01*
X36184Y-36525D01*
X36099Y-36524D01*
X35375Y-35801D01*
X35375Y-21524D01*
X34921Y-21070D01*
X34850Y-21141D01*
X34850Y-21000D01*
X34396Y-20545D01*
X34281Y-20596D01*
X34175Y-20872D01*
X34183Y-21167D01*
X34281Y-21403D01*
X34396Y-21454D01*
X34850Y-21000D01*
X34850Y-21141D01*
X34467Y-21524D01*
X34517Y-21640D01*
X34793Y-21745D01*
X35088Y-21737D01*
X35324Y-21640D01*
X35375Y-21524D01*
X35375Y-35801D01*
X33695Y-34120D01*
X33695Y-20853D01*
X33582Y-20580D01*
X33373Y-20371D01*
X33101Y-20258D01*
X32805Y-20257D01*
X32532Y-20370D01*
X32323Y-20579D01*
X32210Y-20851D01*
X32210Y-21146D01*
X32323Y-21419D01*
X32531Y-21628D01*
X32804Y-21741D01*
X33099Y-21742D01*
X33372Y-21629D01*
X33581Y-21420D01*
X33694Y-21148D01*
X33695Y-20853D01*
X33695Y-34120D01*
X33524Y-33950D01*
X33525Y-33865D01*
X33460Y-33709D01*
X33341Y-33589D01*
X33184Y-33525D01*
X33015Y-33524D01*
X32859Y-33589D01*
X32739Y-33708D01*
X32675Y-33865D01*
X32674Y-34034D01*
X32721Y-34147D01*
X32524Y-33950D01*
X32525Y-33865D01*
X32460Y-33709D01*
X32341Y-33589D01*
X32184Y-33525D01*
X32015Y-33524D01*
X31859Y-33589D01*
X31739Y-33708D01*
X31726Y-33741D01*
X31726Y-20853D01*
X31613Y-20580D01*
X31405Y-20371D01*
X31132Y-20258D01*
X30837Y-20257D01*
X30564Y-20370D01*
X30355Y-20579D01*
X30242Y-20851D01*
X30241Y-21146D01*
X30354Y-21419D01*
X30563Y-21628D01*
X30835Y-21741D01*
X31131Y-21742D01*
X31404Y-21629D01*
X31613Y-21420D01*
X31726Y-21148D01*
X31726Y-20853D01*
X31726Y-33741D01*
X31675Y-33865D01*
X31674Y-34034D01*
X31739Y-34190D01*
X31858Y-34310D01*
X32015Y-34374D01*
X32100Y-34375D01*
X34975Y-37249D01*
X34974Y-37334D01*
X35039Y-37490D01*
X35158Y-37610D01*
X35315Y-37674D01*
X35484Y-37675D01*
X35640Y-37610D01*
X35760Y-37491D01*
X35824Y-37334D01*
X35824Y-37276D01*
X35858Y-37310D01*
X36015Y-37374D01*
X36184Y-37375D01*
X36340Y-37310D01*
X36460Y-37191D01*
X36524Y-37034D01*
X36525Y-36865D01*
X36525Y-39641D01*
X36484Y-39625D01*
X36315Y-39624D01*
X36159Y-39689D01*
X36039Y-39808D01*
X35975Y-39965D01*
X35974Y-40134D01*
X36039Y-40290D01*
X36073Y-40324D01*
X36039Y-40358D01*
X35975Y-40515D01*
X35974Y-40684D01*
X36039Y-40840D01*
X36158Y-40960D01*
X36315Y-41024D01*
X36484Y-41025D01*
X36640Y-40960D01*
X36701Y-40900D01*
X37398Y-40900D01*
X37458Y-40960D01*
X37615Y-41024D01*
X37784Y-41025D01*
X37940Y-40960D01*
X38060Y-40841D01*
X38124Y-40684D01*
X38125Y-40515D01*
X38060Y-40359D01*
X38034Y-40333D01*
X38064Y-40327D01*
X38064Y-40327D01*
X38162Y-40262D01*
X38999Y-39424D01*
X39084Y-39425D01*
X39240Y-39360D01*
X39360Y-39241D01*
X39424Y-39084D01*
X39425Y-38915D01*
X39418Y-38900D01*
X39950Y-38900D01*
X39950Y-38899D01*
X40064Y-38877D01*
X40064Y-38877D01*
X40162Y-38812D01*
X41224Y-37750D01*
X42898Y-37750D01*
X42958Y-37810D01*
X43115Y-37874D01*
X43284Y-37875D01*
X43440Y-37810D01*
X43560Y-37691D01*
X43624Y-37534D01*
X43624Y-37474D01*
X43784Y-37475D01*
X43940Y-37410D01*
X44060Y-37291D01*
X44124Y-37134D01*
X44125Y-36965D01*
X44060Y-36809D01*
X43941Y-36689D01*
X43784Y-36625D01*
X43624Y-36624D01*
X43625Y-36515D01*
X43560Y-36359D01*
X43441Y-36239D01*
X43284Y-36175D01*
X43115Y-36174D01*
X42959Y-36239D01*
X42898Y-36300D01*
X42627Y-36300D01*
X42674Y-36184D01*
X42675Y-36099D01*
X43427Y-35347D01*
X44348Y-35347D01*
X44408Y-35407D01*
X44565Y-35472D01*
X44734Y-35472D01*
X44890Y-35407D01*
X45010Y-35288D01*
X45074Y-35132D01*
X45075Y-34963D01*
X45075Y-57730D01*
X42775Y-57730D01*
X42775Y-38465D01*
X42710Y-38309D01*
X42591Y-38189D01*
X42434Y-38125D01*
X42265Y-38124D01*
X42109Y-38189D01*
X41989Y-38308D01*
X41925Y-38465D01*
X41924Y-38634D01*
X41989Y-38790D01*
X42050Y-38851D01*
X42050Y-39525D01*
X41737Y-39837D01*
X41737Y-39837D01*
X39500Y-42075D01*
X39415Y-42074D01*
X39259Y-42139D01*
X39139Y-42258D01*
X39075Y-42415D01*
X39074Y-42584D01*
X39139Y-42740D01*
X39258Y-42860D01*
X39415Y-42924D01*
X39584Y-42925D01*
X39740Y-42860D01*
X39860Y-42741D01*
X39924Y-42584D01*
X39925Y-42499D01*
X42162Y-40262D01*
X42162Y-40262D01*
X42162Y-40262D01*
X42562Y-39862D01*
X42562Y-39862D01*
X42627Y-39764D01*
X42649Y-39650D01*
X42650Y-39650D01*
X42650Y-38851D01*
X42710Y-38791D01*
X42774Y-38634D01*
X42775Y-38465D01*
X42775Y-57730D01*
X42525Y-57730D01*
X42525Y-46065D01*
X42460Y-45909D01*
X42341Y-45789D01*
X42184Y-45725D01*
X42015Y-45724D01*
X41859Y-45789D01*
X41798Y-45850D01*
X41274Y-45850D01*
X41045Y-45621D01*
X41045Y-45487D01*
X41003Y-45278D01*
X40885Y-45101D01*
X40801Y-45045D01*
X40844Y-45045D01*
X40936Y-45007D01*
X41007Y-44937D01*
X41045Y-44845D01*
X41045Y-44745D01*
X41045Y-43958D01*
X41007Y-43866D01*
X40937Y-43796D01*
X40845Y-43757D01*
X40745Y-43757D01*
X40382Y-43757D01*
X39962Y-43337D01*
X39864Y-43272D01*
X39750Y-43250D01*
X38351Y-43250D01*
X38291Y-43189D01*
X38134Y-43125D01*
X37965Y-43124D01*
X37809Y-43189D01*
X37689Y-43308D01*
X37625Y-43465D01*
X37624Y-43634D01*
X37689Y-43790D01*
X37808Y-43910D01*
X37965Y-43974D01*
X38067Y-43975D01*
X37996Y-44081D01*
X37954Y-44290D01*
X37954Y-44512D01*
X37996Y-44721D01*
X38114Y-44898D01*
X38276Y-45006D01*
X38139Y-45085D01*
X38007Y-45255D01*
X37951Y-45462D01*
X38015Y-45548D01*
X38450Y-45548D01*
X38450Y-45540D01*
X38550Y-45540D01*
X38550Y-45548D01*
X38557Y-45548D01*
X38557Y-45648D01*
X38550Y-45648D01*
X38550Y-46177D01*
X38634Y-46225D01*
X38674Y-46217D01*
X38860Y-46111D01*
X38992Y-45941D01*
X38997Y-45920D01*
X39114Y-46095D01*
X39200Y-46152D01*
X39200Y-48000D01*
X39222Y-48114D01*
X39287Y-48212D01*
X40307Y-49231D01*
X40304Y-49250D01*
X40345Y-49458D01*
X40463Y-49635D01*
X40640Y-49753D01*
X40849Y-49795D01*
X41150Y-49795D01*
X41359Y-49753D01*
X41536Y-49635D01*
X41654Y-49458D01*
X41695Y-49250D01*
X41654Y-49041D01*
X41536Y-48864D01*
X41364Y-48750D01*
X41536Y-48635D01*
X41654Y-48458D01*
X41695Y-48250D01*
X41654Y-48041D01*
X41536Y-47864D01*
X41359Y-47746D01*
X41150Y-47705D01*
X40849Y-47705D01*
X40665Y-47741D01*
X40300Y-47375D01*
X40300Y-46214D01*
X40500Y-46254D01*
X40708Y-46213D01*
X40756Y-46181D01*
X40937Y-46362D01*
X40937Y-46362D01*
X41035Y-46427D01*
X41150Y-46450D01*
X41798Y-46450D01*
X41858Y-46510D01*
X42015Y-46574D01*
X42184Y-46575D01*
X42340Y-46510D01*
X42460Y-46391D01*
X42524Y-46234D01*
X42525Y-46065D01*
X42525Y-57730D01*
X39675Y-57730D01*
X39675Y-51615D01*
X39610Y-51459D01*
X39491Y-51339D01*
X39334Y-51275D01*
X39165Y-51274D01*
X39009Y-51339D01*
X38889Y-51458D01*
X38825Y-51615D01*
X38824Y-51700D01*
X38695Y-51829D01*
X38695Y-49250D01*
X38654Y-49041D01*
X38536Y-48864D01*
X38432Y-48795D01*
X38482Y-48795D01*
X38573Y-48757D01*
X38644Y-48686D01*
X38682Y-48594D01*
X38682Y-48495D01*
X38682Y-47905D01*
X38644Y-47813D01*
X38574Y-47743D01*
X38482Y-47705D01*
X38450Y-47705D01*
X38450Y-46177D01*
X38450Y-45648D01*
X38015Y-45648D01*
X37951Y-45734D01*
X38007Y-45941D01*
X38139Y-46111D01*
X38325Y-46217D01*
X38365Y-46225D01*
X38450Y-46177D01*
X38450Y-47705D01*
X38382Y-47704D01*
X37517Y-47704D01*
X37426Y-47742D01*
X37355Y-47813D01*
X37317Y-47905D01*
X37317Y-48004D01*
X37317Y-48358D01*
X37075Y-48600D01*
X32524Y-48600D01*
X33462Y-47662D01*
X33462Y-47662D01*
X33462Y-47662D01*
X34249Y-46874D01*
X34334Y-46875D01*
X34490Y-46810D01*
X34610Y-46691D01*
X34674Y-46534D01*
X34675Y-46365D01*
X34610Y-46209D01*
X34491Y-46089D01*
X34334Y-46025D01*
X34165Y-46024D01*
X34009Y-46089D01*
X33889Y-46208D01*
X33875Y-46244D01*
X33860Y-46209D01*
X33741Y-46089D01*
X33584Y-46025D01*
X33415Y-46024D01*
X33259Y-46089D01*
X33139Y-46208D01*
X33075Y-46365D01*
X33074Y-46450D01*
X31625Y-47900D01*
X29758Y-47900D01*
X29758Y-20853D01*
X29645Y-20580D01*
X29436Y-20371D01*
X29164Y-20258D01*
X28868Y-20257D01*
X28595Y-20370D01*
X28386Y-20579D01*
X28273Y-20851D01*
X28273Y-21146D01*
X28386Y-21419D01*
X28594Y-21628D01*
X28867Y-21741D01*
X29162Y-21742D01*
X29435Y-21629D01*
X29644Y-21420D01*
X29757Y-21148D01*
X29758Y-20853D01*
X29758Y-47900D01*
X27789Y-47900D01*
X27789Y-20853D01*
X27676Y-20580D01*
X27468Y-20371D01*
X27195Y-20258D01*
X26900Y-20257D01*
X26627Y-20370D01*
X26418Y-20579D01*
X26305Y-20851D01*
X26304Y-21146D01*
X26417Y-21419D01*
X26626Y-21628D01*
X26898Y-21741D01*
X27194Y-21742D01*
X27467Y-21629D01*
X27676Y-21420D01*
X27789Y-21148D01*
X27789Y-20853D01*
X27789Y-47900D01*
X25820Y-47900D01*
X25820Y-20853D01*
X25708Y-20580D01*
X25499Y-20371D01*
X25227Y-20258D01*
X24931Y-20257D01*
X24658Y-20370D01*
X24449Y-20579D01*
X24336Y-20851D01*
X24336Y-21146D01*
X24449Y-21419D01*
X24657Y-21628D01*
X24930Y-21741D01*
X25225Y-21742D01*
X25498Y-21629D01*
X25707Y-21420D01*
X25820Y-21148D01*
X25820Y-20853D01*
X25820Y-47900D01*
X25750Y-47900D01*
X25635Y-47922D01*
X25537Y-47987D01*
X24087Y-49437D01*
X24022Y-49535D01*
X24000Y-49650D01*
X24000Y-50100D01*
X24022Y-50214D01*
X24087Y-50312D01*
X24320Y-50544D01*
X24339Y-50590D01*
X24448Y-50700D01*
X24339Y-50808D01*
X24275Y-50965D01*
X24274Y-51134D01*
X24339Y-51290D01*
X24458Y-51410D01*
X24615Y-51474D01*
X24784Y-51475D01*
X24940Y-51410D01*
X25060Y-51291D01*
X25118Y-51150D01*
X26350Y-51150D01*
X26350Y-51149D01*
X26464Y-51127D01*
X26464Y-51127D01*
X26562Y-51062D01*
X27862Y-49762D01*
X28074Y-49550D01*
X37406Y-49550D01*
X37463Y-49635D01*
X37640Y-49753D01*
X37849Y-49795D01*
X38150Y-49795D01*
X38359Y-49753D01*
X38536Y-49635D01*
X38654Y-49458D01*
X38695Y-49250D01*
X38695Y-51829D01*
X38550Y-51975D01*
X38465Y-51974D01*
X38309Y-52039D01*
X38189Y-52158D01*
X38125Y-52315D01*
X38124Y-52484D01*
X38189Y-52640D01*
X38308Y-52760D01*
X38465Y-52824D01*
X38634Y-52825D01*
X38790Y-52760D01*
X38910Y-52641D01*
X38974Y-52484D01*
X38975Y-52399D01*
X39249Y-52124D01*
X39334Y-52125D01*
X39490Y-52060D01*
X39610Y-51941D01*
X39674Y-51784D01*
X39675Y-51615D01*
X39675Y-57730D01*
X36726Y-57730D01*
X36726Y-54853D01*
X36613Y-54580D01*
X36405Y-54371D01*
X36132Y-54258D01*
X35837Y-54257D01*
X35564Y-54370D01*
X35355Y-54579D01*
X35242Y-54851D01*
X35241Y-55146D01*
X35354Y-55419D01*
X35563Y-55628D01*
X35835Y-55741D01*
X36131Y-55742D01*
X36404Y-55629D01*
X36613Y-55420D01*
X36726Y-55148D01*
X36726Y-54853D01*
X36726Y-57730D01*
X34758Y-57730D01*
X34758Y-54853D01*
X34645Y-54580D01*
X34436Y-54371D01*
X34164Y-54258D01*
X33868Y-54257D01*
X33595Y-54370D01*
X33386Y-54579D01*
X33273Y-54851D01*
X33273Y-55146D01*
X33386Y-55419D01*
X33594Y-55628D01*
X33867Y-55741D01*
X34162Y-55742D01*
X34435Y-55629D01*
X34644Y-55420D01*
X34757Y-55148D01*
X34758Y-54853D01*
X34758Y-57730D01*
X32175Y-57730D01*
X32175Y-50415D01*
X32110Y-50259D01*
X31991Y-50139D01*
X31834Y-50075D01*
X31665Y-50074D01*
X31509Y-50139D01*
X31389Y-50258D01*
X31325Y-50415D01*
X31324Y-50584D01*
X31389Y-50740D01*
X31508Y-50860D01*
X31665Y-50924D01*
X31834Y-50925D01*
X31990Y-50860D01*
X32110Y-50741D01*
X32174Y-50584D01*
X32175Y-50415D01*
X32175Y-57730D01*
X23856Y-57730D01*
X23856Y-21127D01*
X23848Y-20832D01*
X23750Y-20596D01*
X23635Y-20545D01*
X23564Y-20616D01*
X23564Y-20475D01*
X23513Y-20359D01*
X23237Y-20254D01*
X22942Y-20262D01*
X22706Y-20359D01*
X22656Y-20475D01*
X23110Y-20929D01*
X23564Y-20475D01*
X23564Y-20616D01*
X23180Y-21000D01*
X23635Y-21454D01*
X23750Y-21403D01*
X23856Y-21127D01*
X23856Y-57730D01*
X23696Y-57730D01*
X23696Y-55000D01*
X23654Y-54789D01*
X23535Y-54611D01*
X23369Y-54500D01*
X23535Y-54388D01*
X23654Y-54210D01*
X23696Y-54000D01*
X23654Y-53789D01*
X23535Y-53611D01*
X23443Y-53550D01*
X23482Y-53550D01*
X23574Y-53512D01*
X23644Y-53441D01*
X23682Y-53349D01*
X23683Y-53250D01*
X23683Y-52650D01*
X23645Y-52558D01*
X23574Y-52488D01*
X23564Y-52483D01*
X23564Y-21524D01*
X23110Y-21070D01*
X23039Y-21141D01*
X23039Y-21000D01*
X22585Y-20545D01*
X22470Y-20596D01*
X22364Y-20872D01*
X22372Y-21167D01*
X22470Y-21403D01*
X22585Y-21454D01*
X23039Y-21000D01*
X23039Y-21141D01*
X22656Y-21524D01*
X22706Y-21640D01*
X22982Y-21745D01*
X23277Y-21737D01*
X23513Y-21640D01*
X23564Y-21524D01*
X23564Y-52483D01*
X23482Y-52450D01*
X23383Y-52449D01*
X23375Y-52449D01*
X23375Y-51300D01*
X23346Y-51156D01*
X23265Y-51034D01*
X20980Y-48750D01*
X20859Y-48669D01*
X20745Y-48646D01*
X20745Y-45017D01*
X20742Y-44884D01*
X20742Y-42774D01*
X20742Y-40805D01*
X20742Y-38837D01*
X20742Y-36868D01*
X20742Y-34900D01*
X20742Y-32931D01*
X20742Y-30963D01*
X20629Y-30690D01*
X20420Y-30481D01*
X20345Y-30450D01*
X20345Y-19733D01*
X20140Y-19239D01*
X19762Y-18860D01*
X19268Y-18655D01*
X18733Y-18654D01*
X18239Y-18859D01*
X17860Y-19237D01*
X17655Y-19731D01*
X17654Y-20266D01*
X17859Y-20760D01*
X18237Y-21139D01*
X18731Y-21344D01*
X19266Y-21345D01*
X19760Y-21140D01*
X20139Y-20762D01*
X20344Y-20268D01*
X20345Y-19733D01*
X20345Y-30450D01*
X20148Y-30368D01*
X19853Y-30367D01*
X19580Y-30480D01*
X19371Y-30689D01*
X19258Y-30961D01*
X19257Y-31257D01*
X19370Y-31530D01*
X19579Y-31739D01*
X19851Y-31852D01*
X20146Y-31852D01*
X20419Y-31739D01*
X20628Y-31531D01*
X20741Y-31258D01*
X20742Y-30963D01*
X20742Y-32931D01*
X20629Y-32658D01*
X20420Y-32449D01*
X20148Y-32336D01*
X19853Y-32336D01*
X19580Y-32449D01*
X19371Y-32657D01*
X19258Y-32930D01*
X19257Y-33225D01*
X19370Y-33498D01*
X19579Y-33707D01*
X19851Y-33820D01*
X20146Y-33820D01*
X20419Y-33708D01*
X20628Y-33499D01*
X20741Y-33227D01*
X20742Y-32931D01*
X20742Y-34900D01*
X20629Y-34627D01*
X20420Y-34418D01*
X20148Y-34305D01*
X19853Y-34304D01*
X19580Y-34417D01*
X19371Y-34626D01*
X19258Y-34898D01*
X19257Y-35194D01*
X19370Y-35467D01*
X19579Y-35676D01*
X19851Y-35789D01*
X20146Y-35789D01*
X20419Y-35676D01*
X20628Y-35468D01*
X20741Y-35195D01*
X20742Y-34900D01*
X20742Y-36868D01*
X20629Y-36595D01*
X20420Y-36386D01*
X20148Y-36273D01*
X19853Y-36273D01*
X19580Y-36386D01*
X19371Y-36594D01*
X19258Y-36867D01*
X19257Y-37162D01*
X19370Y-37435D01*
X19579Y-37644D01*
X19851Y-37757D01*
X20146Y-37758D01*
X20419Y-37645D01*
X20628Y-37436D01*
X20741Y-37164D01*
X20742Y-36868D01*
X20742Y-38837D01*
X20629Y-38564D01*
X20420Y-38355D01*
X20148Y-38242D01*
X19853Y-38241D01*
X19580Y-38354D01*
X19371Y-38563D01*
X19258Y-38835D01*
X19257Y-39131D01*
X19370Y-39404D01*
X19579Y-39613D01*
X19851Y-39726D01*
X20146Y-39726D01*
X20419Y-39613D01*
X20628Y-39405D01*
X20741Y-39132D01*
X20742Y-38837D01*
X20742Y-40805D01*
X20629Y-40532D01*
X20420Y-40323D01*
X20148Y-40210D01*
X19853Y-40210D01*
X19580Y-40323D01*
X19371Y-40531D01*
X19258Y-40804D01*
X19257Y-41099D01*
X19370Y-41372D01*
X19579Y-41581D01*
X19851Y-41694D01*
X20146Y-41695D01*
X20419Y-41582D01*
X20628Y-41373D01*
X20741Y-41101D01*
X20742Y-40805D01*
X20742Y-42774D01*
X20629Y-42501D01*
X20420Y-42292D01*
X20148Y-42179D01*
X19853Y-42179D01*
X19580Y-42291D01*
X19371Y-42500D01*
X19258Y-42772D01*
X19257Y-43068D01*
X19370Y-43341D01*
X19579Y-43550D01*
X19851Y-43663D01*
X20146Y-43663D01*
X20419Y-43550D01*
X20628Y-43342D01*
X20741Y-43069D01*
X20742Y-42774D01*
X20742Y-44884D01*
X20737Y-44722D01*
X20640Y-44486D01*
X20524Y-44435D01*
X20454Y-44506D01*
X20454Y-44364D01*
X20403Y-44249D01*
X20127Y-44143D01*
X19832Y-44151D01*
X19596Y-44249D01*
X19545Y-44364D01*
X20000Y-44819D01*
X20454Y-44364D01*
X20454Y-44506D01*
X20070Y-44889D01*
X20524Y-45343D01*
X20640Y-45293D01*
X20745Y-45017D01*
X20745Y-48646D01*
X20715Y-48640D01*
X20648Y-48640D01*
X20629Y-48595D01*
X20454Y-48420D01*
X20454Y-45414D01*
X20000Y-44960D01*
X19929Y-45031D01*
X19929Y-44889D01*
X19475Y-44435D01*
X19359Y-44486D01*
X19254Y-44762D01*
X19262Y-45057D01*
X19359Y-45293D01*
X19475Y-45343D01*
X19929Y-44889D01*
X19929Y-45031D01*
X19545Y-45414D01*
X19596Y-45529D01*
X19872Y-45635D01*
X20167Y-45627D01*
X20403Y-45529D01*
X20454Y-45414D01*
X20454Y-48420D01*
X20420Y-48386D01*
X20148Y-48273D01*
X19853Y-48273D01*
X19580Y-48386D01*
X19371Y-48594D01*
X19258Y-48867D01*
X19257Y-49162D01*
X19370Y-49435D01*
X19579Y-49644D01*
X19851Y-49757D01*
X20146Y-49758D01*
X20419Y-49645D01*
X20617Y-49447D01*
X22625Y-51455D01*
X22625Y-52449D01*
X22517Y-52449D01*
X22425Y-52487D01*
X22355Y-52558D01*
X22317Y-52650D01*
X22316Y-52749D01*
X22316Y-53349D01*
X22354Y-53441D01*
X22425Y-53511D01*
X22517Y-53549D01*
X22556Y-53549D01*
X22464Y-53611D01*
X22345Y-53789D01*
X22303Y-54000D01*
X22345Y-54210D01*
X22464Y-54388D01*
X22630Y-54500D01*
X22464Y-54611D01*
X22345Y-54789D01*
X22303Y-55000D01*
X22345Y-55210D01*
X22464Y-55388D01*
X22643Y-55508D01*
X22853Y-55550D01*
X23146Y-55550D01*
X23356Y-55508D01*
X23535Y-55388D01*
X23654Y-55210D01*
X23696Y-55000D01*
X23696Y-57730D01*
X20745Y-57730D01*
X20745Y-51111D01*
X20737Y-50816D01*
X20640Y-50580D01*
X20524Y-50530D01*
X20454Y-50600D01*
X20454Y-50459D01*
X20403Y-50344D01*
X20127Y-50238D01*
X19832Y-50246D01*
X19596Y-50344D01*
X19545Y-50459D01*
X20000Y-50913D01*
X20454Y-50459D01*
X20454Y-50600D01*
X20070Y-50984D01*
X20524Y-51438D01*
X20640Y-51387D01*
X20745Y-51111D01*
X20745Y-57730D01*
X20454Y-57730D01*
X20454Y-51509D01*
X20000Y-51054D01*
X19929Y-51125D01*
X19929Y-50984D01*
X19475Y-50530D01*
X19359Y-50580D01*
X19254Y-50856D01*
X19262Y-51151D01*
X19359Y-51387D01*
X19475Y-51438D01*
X19929Y-50984D01*
X19929Y-51125D01*
X19545Y-51509D01*
X19596Y-51624D01*
X19872Y-51730D01*
X20167Y-51722D01*
X20403Y-51624D01*
X20454Y-51509D01*
X20454Y-57730D01*
X20345Y-57730D01*
X20345Y-55733D01*
X20140Y-55239D01*
X19762Y-54860D01*
X19268Y-54655D01*
X18733Y-54654D01*
X18239Y-54859D01*
X17860Y-55237D01*
X17655Y-55731D01*
X17654Y-56266D01*
X17859Y-56760D01*
X18237Y-57139D01*
X18731Y-57344D01*
X19266Y-57345D01*
X19760Y-57140D01*
X20139Y-56762D01*
X20344Y-56268D01*
X20345Y-55733D01*
X20345Y-57730D01*
X17269Y-57730D01*
X17269Y-18269D01*
X61730Y-18269D01*
X61730Y-57730D01*
M02*
