G04 (created by PCBNEW (2013-may-18)-stable) date Wed 01 Apr 2015 06:05:41 PM EDT*
%MOIN*%
G04 Gerber Fmt 3.4, Leading zero omitted, Abs format*
%FSLAX34Y34*%
G01*
G70*
G90*
G04 APERTURE LIST*
%ADD10C,0.00590551*%
%ADD11C,0.011811*%
%ADD12C,0.219*%
%ADD13R,0.06X0.0787*%
%ADD14O,0.06X0.0787*%
%ADD15R,0.0866X0.06*%
%ADD16O,0.0866X0.06*%
%ADD17C,0.0984252*%
%ADD18C,0.035*%
%ADD19C,0.045*%
%ADD20C,0.01*%
%ADD21C,0.025*%
G04 APERTURE END LIST*
G54D10*
G54D11*
X146187Y-55648D02*
X145990Y-56239D01*
X145793Y-55648D01*
X145596Y-55929D02*
X145399Y-55929D01*
X145315Y-56239D02*
X145596Y-56239D01*
X145596Y-55648D01*
X145315Y-55648D01*
X144724Y-56239D02*
X144921Y-55957D01*
X145062Y-56239D02*
X145062Y-55648D01*
X144837Y-55648D01*
X144781Y-55676D01*
X144753Y-55704D01*
X144724Y-55760D01*
X144724Y-55845D01*
X144753Y-55901D01*
X144781Y-55929D01*
X144837Y-55957D01*
X145062Y-55957D01*
X143909Y-55648D02*
X143853Y-55648D01*
X143796Y-55676D01*
X143768Y-55704D01*
X143740Y-55760D01*
X143712Y-55873D01*
X143712Y-56014D01*
X143740Y-56126D01*
X143768Y-56182D01*
X143796Y-56210D01*
X143853Y-56239D01*
X143909Y-56239D01*
X143965Y-56210D01*
X143993Y-56182D01*
X144021Y-56126D01*
X144050Y-56014D01*
X144050Y-55873D01*
X144021Y-55760D01*
X143993Y-55704D01*
X143965Y-55676D01*
X143909Y-55648D01*
X143459Y-56182D02*
X143431Y-56210D01*
X143459Y-56239D01*
X143487Y-56210D01*
X143459Y-56182D01*
X143459Y-56239D01*
X142868Y-56239D02*
X143206Y-56239D01*
X143037Y-56239D02*
X143037Y-55648D01*
X143093Y-55732D01*
X143150Y-55789D01*
X143206Y-55817D01*
X99187Y-55648D02*
X98990Y-56239D01*
X98793Y-55648D01*
X98596Y-55929D02*
X98399Y-55929D01*
X98315Y-56239D02*
X98596Y-56239D01*
X98596Y-55648D01*
X98315Y-55648D01*
X97724Y-56239D02*
X97921Y-55957D01*
X98062Y-56239D02*
X98062Y-55648D01*
X97837Y-55648D01*
X97781Y-55676D01*
X97753Y-55704D01*
X97724Y-55760D01*
X97724Y-55845D01*
X97753Y-55901D01*
X97781Y-55929D01*
X97837Y-55957D01*
X98062Y-55957D01*
X96909Y-55648D02*
X96853Y-55648D01*
X96796Y-55676D01*
X96768Y-55704D01*
X96740Y-55760D01*
X96712Y-55873D01*
X96712Y-56014D01*
X96740Y-56126D01*
X96768Y-56182D01*
X96796Y-56210D01*
X96853Y-56239D01*
X96909Y-56239D01*
X96965Y-56210D01*
X96993Y-56182D01*
X97021Y-56126D01*
X97050Y-56014D01*
X97050Y-55873D01*
X97021Y-55760D01*
X96993Y-55704D01*
X96965Y-55676D01*
X96909Y-55648D01*
X96459Y-56182D02*
X96431Y-56210D01*
X96459Y-56239D01*
X96487Y-56210D01*
X96459Y-56182D01*
X96459Y-56239D01*
X95868Y-56239D02*
X96206Y-56239D01*
X96037Y-56239D02*
X96037Y-55648D01*
X96093Y-55732D01*
X96150Y-55789D01*
X96206Y-55817D01*
X52187Y-55648D02*
X51990Y-56239D01*
X51793Y-55648D01*
X51596Y-55929D02*
X51399Y-55929D01*
X51315Y-56239D02*
X51596Y-56239D01*
X51596Y-55648D01*
X51315Y-55648D01*
X50724Y-56239D02*
X50921Y-55957D01*
X51062Y-56239D02*
X51062Y-55648D01*
X50837Y-55648D01*
X50781Y-55676D01*
X50753Y-55704D01*
X50724Y-55760D01*
X50724Y-55845D01*
X50753Y-55901D01*
X50781Y-55929D01*
X50837Y-55957D01*
X51062Y-55957D01*
X49909Y-55648D02*
X49853Y-55648D01*
X49796Y-55676D01*
X49768Y-55704D01*
X49740Y-55760D01*
X49712Y-55873D01*
X49712Y-56014D01*
X49740Y-56126D01*
X49768Y-56182D01*
X49796Y-56210D01*
X49853Y-56239D01*
X49909Y-56239D01*
X49965Y-56210D01*
X49993Y-56182D01*
X50021Y-56126D01*
X50050Y-56014D01*
X50050Y-55873D01*
X50021Y-55760D01*
X49993Y-55704D01*
X49965Y-55676D01*
X49909Y-55648D01*
X49459Y-56182D02*
X49431Y-56210D01*
X49459Y-56239D01*
X49487Y-56210D01*
X49459Y-56182D01*
X49459Y-56239D01*
X48868Y-56239D02*
X49206Y-56239D01*
X49037Y-56239D02*
X49037Y-55648D01*
X49093Y-55732D01*
X49150Y-55789D01*
X49206Y-55817D01*
G54D12*
X108000Y-20000D03*
X149000Y-20000D03*
X149000Y-56000D03*
G54D13*
X129500Y-44402D03*
G54D14*
X129500Y-45598D03*
X128500Y-44402D03*
X128500Y-45598D03*
X127500Y-44402D03*
X127500Y-45598D03*
G54D15*
X112000Y-53000D03*
G54D16*
X112000Y-54000D03*
X112000Y-55000D03*
G54D17*
X148000Y-31110D03*
X148000Y-33078D03*
X148000Y-35047D03*
X148000Y-37015D03*
X148000Y-38984D03*
X148000Y-40952D03*
X148000Y-44889D03*
X148000Y-42921D03*
X112110Y-21000D03*
X114078Y-21000D03*
X116047Y-21000D03*
X118015Y-21000D03*
X119984Y-21000D03*
X121952Y-21000D03*
X125889Y-21000D03*
X123921Y-21000D03*
X109000Y-44889D03*
X109000Y-42921D03*
X109000Y-40952D03*
X109000Y-38984D03*
X109000Y-37015D03*
X109000Y-35047D03*
X109000Y-31110D03*
X109000Y-33078D03*
X131984Y-21000D03*
X130015Y-21000D03*
X109000Y-49015D03*
X109000Y-50984D03*
X137984Y-21000D03*
X136015Y-21000D03*
X143984Y-21000D03*
X142015Y-21000D03*
X123015Y-55000D03*
X124984Y-55000D03*
G54D12*
X108000Y-56000D03*
X61000Y-56000D03*
G54D17*
X76015Y-55000D03*
X77984Y-55000D03*
X96984Y-21000D03*
X95015Y-21000D03*
X90984Y-21000D03*
X89015Y-21000D03*
X62000Y-49015D03*
X62000Y-50984D03*
X84984Y-21000D03*
X83015Y-21000D03*
X62000Y-44889D03*
X62000Y-42921D03*
X62000Y-40952D03*
X62000Y-38984D03*
X62000Y-37015D03*
X62000Y-35047D03*
X62000Y-31110D03*
X62000Y-33078D03*
X65110Y-21000D03*
X67078Y-21000D03*
X69047Y-21000D03*
X71015Y-21000D03*
X72984Y-21000D03*
X74952Y-21000D03*
X78889Y-21000D03*
X76921Y-21000D03*
X101000Y-31110D03*
X101000Y-33078D03*
X101000Y-35047D03*
X101000Y-37015D03*
X101000Y-38984D03*
X101000Y-40952D03*
X101000Y-44889D03*
X101000Y-42921D03*
G54D15*
X65000Y-53000D03*
G54D16*
X65000Y-54000D03*
X65000Y-55000D03*
G54D13*
X82500Y-44402D03*
G54D14*
X82500Y-45598D03*
X81500Y-44402D03*
X81500Y-45598D03*
X80500Y-44402D03*
X80500Y-45598D03*
G54D12*
X102000Y-56000D03*
X102000Y-20000D03*
X61000Y-20000D03*
X14000Y-20000D03*
X55000Y-20000D03*
X55000Y-56000D03*
G54D13*
X35500Y-44402D03*
G54D14*
X35500Y-45598D03*
X34500Y-44402D03*
X34500Y-45598D03*
X33500Y-44402D03*
X33500Y-45598D03*
G54D15*
X18000Y-53000D03*
G54D16*
X18000Y-54000D03*
X18000Y-55000D03*
G54D17*
X54000Y-31110D03*
X54000Y-33078D03*
X54000Y-35047D03*
X54000Y-37015D03*
X54000Y-38984D03*
X54000Y-40952D03*
X54000Y-44889D03*
X54000Y-42921D03*
X18110Y-21000D03*
X20078Y-21000D03*
X22047Y-21000D03*
X24015Y-21000D03*
X25984Y-21000D03*
X27952Y-21000D03*
X31889Y-21000D03*
X29921Y-21000D03*
X15000Y-44889D03*
X15000Y-42921D03*
X15000Y-40952D03*
X15000Y-38984D03*
X15000Y-37015D03*
X15000Y-35047D03*
X15000Y-31110D03*
X15000Y-33078D03*
X37984Y-21000D03*
X36015Y-21000D03*
X15000Y-49015D03*
X15000Y-50984D03*
X43984Y-21000D03*
X42015Y-21000D03*
X49984Y-21000D03*
X48015Y-21000D03*
X29015Y-55000D03*
X30984Y-55000D03*
G54D12*
X14000Y-56000D03*
G54D18*
X130700Y-33550D03*
X129300Y-32350D03*
X82300Y-32350D03*
X83700Y-33550D03*
X36700Y-33550D03*
X35300Y-32350D03*
X128850Y-32800D03*
X130150Y-34100D03*
X83150Y-34100D03*
X81850Y-32800D03*
X34850Y-32800D03*
X36150Y-34100D03*
X122100Y-33950D03*
X125100Y-36950D03*
X78100Y-36950D03*
X75100Y-33950D03*
X28100Y-33950D03*
X31100Y-36950D03*
X124400Y-37250D03*
X121100Y-33950D03*
X74100Y-33950D03*
X77400Y-37250D03*
X30400Y-37250D03*
X27100Y-33950D03*
X129250Y-35500D03*
X126500Y-36000D03*
X79500Y-36000D03*
X82250Y-35500D03*
X35250Y-35500D03*
X32500Y-36000D03*
X129900Y-35150D03*
X125850Y-35550D03*
X78850Y-35550D03*
X82900Y-35150D03*
X35900Y-35150D03*
X31850Y-35550D03*
X128150Y-37000D03*
X124950Y-31800D03*
X77950Y-31800D03*
X81150Y-37000D03*
X34150Y-37000D03*
X30950Y-31800D03*
X128250Y-50550D03*
X127550Y-51150D03*
X80550Y-51150D03*
X81250Y-50550D03*
X34250Y-50550D03*
X33550Y-51150D03*
X120750Y-50500D03*
X73750Y-50500D03*
X26750Y-50500D03*
X132200Y-38000D03*
X114000Y-50850D03*
X67000Y-50850D03*
X85200Y-38000D03*
X38200Y-38000D03*
X20000Y-50850D03*
X127700Y-41600D03*
X114000Y-49850D03*
X67000Y-49850D03*
X80700Y-41600D03*
X33700Y-41600D03*
X20000Y-49850D03*
X133650Y-35047D03*
X131250Y-36100D03*
X84250Y-36100D03*
X86650Y-35047D03*
X39650Y-35047D03*
X37250Y-36100D03*
X132200Y-36600D03*
X129500Y-37050D03*
X82500Y-37050D03*
X85200Y-36600D03*
X38200Y-36600D03*
X35500Y-37050D03*
X132200Y-37450D03*
X127500Y-38600D03*
X80500Y-38600D03*
X85200Y-37450D03*
X38200Y-37450D03*
X33500Y-38600D03*
X125400Y-40600D03*
X126700Y-40600D03*
X127750Y-43550D03*
X80750Y-43550D03*
X79700Y-40600D03*
X78400Y-40600D03*
X31400Y-40600D03*
X32700Y-40600D03*
X33750Y-43550D03*
X125400Y-40050D03*
X128000Y-39000D03*
X81000Y-39000D03*
X78400Y-40050D03*
X31400Y-40050D03*
X34000Y-39000D03*
X121625Y-40425D03*
X115704Y-49896D03*
X68704Y-49896D03*
X74625Y-40425D03*
X27625Y-40425D03*
X21704Y-49896D03*
X131350Y-38550D03*
X128500Y-42500D03*
X81500Y-42500D03*
X84350Y-38550D03*
X37350Y-38550D03*
X34500Y-42500D03*
X132700Y-37050D03*
X128650Y-37950D03*
X81650Y-37950D03*
X85700Y-37050D03*
X38700Y-37050D03*
X34650Y-37950D03*
X127500Y-38150D03*
X132950Y-33250D03*
X85950Y-33250D03*
X80500Y-38150D03*
X33500Y-38150D03*
X38950Y-33250D03*
X128100Y-38200D03*
X133600Y-33850D03*
X86600Y-33850D03*
X81100Y-38200D03*
X34100Y-38200D03*
X39600Y-33850D03*
X137000Y-30000D03*
X143000Y-30000D03*
X131000Y-30000D03*
X128750Y-39000D03*
X116700Y-51500D03*
X113700Y-51750D03*
X116900Y-49000D03*
X124604Y-50204D03*
X128850Y-34300D03*
X121700Y-43250D03*
X128500Y-41600D03*
X132000Y-41796D03*
X116500Y-52400D03*
G54D19*
X114900Y-47750D03*
X119000Y-43900D03*
X72000Y-43900D03*
X67900Y-47750D03*
G54D18*
X69500Y-52400D03*
X85000Y-41796D03*
X81500Y-41600D03*
X74700Y-43250D03*
X81850Y-34300D03*
X77604Y-50204D03*
X69900Y-49000D03*
X66700Y-51750D03*
X69700Y-51500D03*
X81750Y-39000D03*
X84000Y-30000D03*
X96000Y-30000D03*
X90000Y-30000D03*
X43000Y-30000D03*
X49000Y-30000D03*
X37000Y-30000D03*
X34750Y-39000D03*
X22700Y-51500D03*
X19700Y-51750D03*
X22900Y-49000D03*
X30604Y-50204D03*
X34850Y-34300D03*
X27700Y-43250D03*
X34500Y-41600D03*
X38000Y-41796D03*
X22500Y-52400D03*
G54D19*
X20900Y-47750D03*
X25000Y-43900D03*
G54D18*
X131100Y-46150D03*
X84100Y-46150D03*
X37100Y-46150D03*
G54D20*
X130700Y-33550D02*
X129500Y-32350D01*
X129500Y-32350D02*
X129300Y-32350D01*
X82500Y-32350D02*
X82300Y-32350D01*
X83700Y-33550D02*
X82500Y-32350D01*
X36700Y-33550D02*
X35500Y-32350D01*
X35500Y-32350D02*
X35300Y-32350D01*
X128850Y-32800D02*
X130150Y-34100D01*
X81850Y-32800D02*
X83150Y-34100D01*
X34850Y-32800D02*
X36150Y-34100D01*
X125100Y-36950D02*
X122150Y-34000D01*
X122100Y-33950D02*
X122150Y-34000D01*
X75100Y-33950D02*
X75150Y-34000D01*
X78100Y-36950D02*
X75150Y-34000D01*
X31100Y-36950D02*
X28150Y-34000D01*
X28100Y-33950D02*
X28150Y-34000D01*
X121100Y-33950D02*
X124400Y-37250D01*
X74100Y-33950D02*
X77400Y-37250D01*
X27100Y-33950D02*
X30400Y-37250D01*
X127000Y-35500D02*
X129250Y-35500D01*
X126500Y-36000D02*
X127000Y-35500D01*
X79500Y-36000D02*
X80000Y-35500D01*
X80000Y-35500D02*
X82250Y-35500D01*
X33000Y-35500D02*
X35250Y-35500D01*
X32500Y-36000D02*
X33000Y-35500D01*
X126250Y-35150D02*
X129900Y-35150D01*
X125850Y-35550D02*
X126250Y-35150D01*
X78850Y-35550D02*
X79250Y-35150D01*
X79250Y-35150D02*
X82900Y-35150D01*
X32250Y-35150D02*
X35900Y-35150D01*
X31850Y-35550D02*
X32250Y-35150D01*
X128150Y-37000D02*
X126350Y-37000D01*
X124950Y-35600D02*
X124950Y-31800D01*
X126350Y-37000D02*
X124950Y-35600D01*
X79350Y-37000D02*
X77950Y-35600D01*
X77950Y-35600D02*
X77950Y-31800D01*
X81150Y-37000D02*
X79350Y-37000D01*
X34150Y-37000D02*
X32350Y-37000D01*
X30950Y-35600D02*
X30950Y-31800D01*
X32350Y-37000D02*
X30950Y-35600D01*
X128250Y-50550D02*
X127650Y-51150D01*
X127550Y-51150D02*
X127650Y-51150D01*
X80550Y-51150D02*
X80650Y-51150D01*
X81250Y-50550D02*
X80650Y-51150D01*
X34250Y-50550D02*
X33650Y-51150D01*
X33550Y-51150D02*
X33650Y-51150D01*
X117450Y-50850D02*
X119000Y-50850D01*
X130200Y-42950D02*
X132200Y-40950D01*
X132200Y-40950D02*
X132200Y-39250D01*
X114000Y-50850D02*
X117450Y-50850D01*
X132200Y-39250D02*
X132200Y-38000D01*
X128500Y-42950D02*
X130200Y-42950D01*
X126900Y-42950D02*
X128500Y-42950D01*
X119000Y-50850D02*
X126900Y-42950D01*
X72000Y-50850D02*
X79900Y-42950D01*
X79900Y-42950D02*
X81500Y-42950D01*
X81500Y-42950D02*
X83200Y-42950D01*
X85200Y-39250D02*
X85200Y-38000D01*
X67000Y-50850D02*
X70450Y-50850D01*
X85200Y-40950D02*
X85200Y-39250D01*
X83200Y-42950D02*
X85200Y-40950D01*
X70450Y-50850D02*
X72000Y-50850D01*
X23450Y-50850D02*
X25000Y-50850D01*
X36200Y-42950D02*
X38200Y-40950D01*
X38200Y-40950D02*
X38200Y-39250D01*
X20000Y-50850D02*
X23450Y-50850D01*
X38200Y-39250D02*
X38200Y-38000D01*
X34500Y-42950D02*
X36200Y-42950D01*
X32900Y-42950D02*
X34500Y-42950D01*
X25000Y-50850D02*
X32900Y-42950D01*
X117400Y-50350D02*
X118950Y-50350D01*
X118950Y-50350D02*
X127700Y-41600D01*
X114500Y-50350D02*
X114000Y-49850D01*
X117450Y-50350D02*
X117400Y-50350D01*
X117400Y-50350D02*
X114500Y-50350D01*
X70400Y-50350D02*
X67500Y-50350D01*
X70450Y-50350D02*
X70400Y-50350D01*
X67500Y-50350D02*
X67000Y-49850D01*
X71950Y-50350D02*
X80700Y-41600D01*
X70400Y-50350D02*
X71950Y-50350D01*
X23400Y-50350D02*
X24950Y-50350D01*
X24950Y-50350D02*
X33700Y-41600D01*
X20500Y-50350D02*
X20000Y-49850D01*
X23450Y-50350D02*
X23400Y-50350D01*
X23400Y-50350D02*
X20500Y-50350D01*
X132302Y-35047D02*
X133650Y-35047D01*
X131250Y-36100D02*
X132302Y-35047D01*
X84250Y-36100D02*
X85302Y-35047D01*
X85302Y-35047D02*
X86650Y-35047D01*
X38302Y-35047D02*
X39650Y-35047D01*
X37250Y-36100D02*
X38302Y-35047D01*
X129950Y-36600D02*
X132200Y-36600D01*
X129500Y-37050D02*
X129550Y-37000D01*
X129550Y-37000D02*
X129950Y-36600D01*
X82550Y-37000D02*
X82950Y-36600D01*
X82500Y-37050D02*
X82550Y-37000D01*
X82950Y-36600D02*
X85200Y-36600D01*
X35950Y-36600D02*
X38200Y-36600D01*
X35500Y-37050D02*
X35550Y-37000D01*
X35550Y-37000D02*
X35950Y-36600D01*
X130100Y-37450D02*
X128950Y-38600D01*
X130100Y-37450D02*
X132200Y-37450D01*
X128950Y-38600D02*
X127500Y-38600D01*
X81950Y-38600D02*
X80500Y-38600D01*
X83100Y-37450D02*
X85200Y-37450D01*
X83100Y-37450D02*
X81950Y-38600D01*
X36100Y-37450D02*
X34950Y-38600D01*
X36100Y-37450D02*
X38200Y-37450D01*
X34950Y-38600D02*
X33500Y-38600D01*
X126700Y-40600D02*
X125400Y-40600D01*
X129500Y-44300D02*
X129500Y-44500D01*
X128750Y-43550D02*
X129500Y-44300D01*
X127750Y-43550D02*
X128750Y-43550D01*
X80750Y-43550D02*
X81750Y-43550D01*
X81750Y-43550D02*
X82500Y-44300D01*
X82500Y-44300D02*
X82500Y-44500D01*
X79700Y-40600D02*
X78400Y-40600D01*
X32700Y-40600D02*
X31400Y-40600D01*
X35500Y-44300D02*
X35500Y-44500D01*
X34750Y-43550D02*
X35500Y-44300D01*
X33750Y-43550D02*
X34750Y-43550D01*
X126950Y-40050D02*
X125400Y-40050D01*
X128000Y-39000D02*
X126950Y-40050D01*
X81000Y-39000D02*
X79950Y-40050D01*
X79950Y-40050D02*
X78400Y-40050D01*
X32950Y-40050D02*
X31400Y-40050D01*
X34000Y-39000D02*
X32950Y-40050D01*
X121625Y-40425D02*
X115704Y-46346D01*
X115700Y-46300D02*
X115704Y-46300D01*
X115704Y-46304D02*
X115700Y-46300D01*
X115704Y-46346D02*
X115704Y-46304D01*
X115704Y-49896D02*
X115704Y-46300D01*
X115704Y-49896D02*
X115700Y-49900D01*
X68704Y-49896D02*
X68700Y-49900D01*
X68704Y-49896D02*
X68704Y-46300D01*
X68704Y-46346D02*
X68704Y-46304D01*
X68704Y-46304D02*
X68700Y-46300D01*
X68700Y-46300D02*
X68704Y-46300D01*
X74625Y-40425D02*
X68704Y-46346D01*
X27625Y-40425D02*
X21704Y-46346D01*
X21700Y-46300D02*
X21704Y-46300D01*
X21704Y-46304D02*
X21700Y-46300D01*
X21704Y-46346D02*
X21704Y-46304D01*
X21704Y-49896D02*
X21704Y-46300D01*
X21704Y-49896D02*
X21700Y-49900D01*
X130950Y-40050D02*
X131350Y-39650D01*
X128500Y-42500D02*
X130950Y-40050D01*
X131350Y-39650D02*
X131350Y-38550D01*
X84350Y-39650D02*
X84350Y-38550D01*
X81500Y-42500D02*
X83950Y-40050D01*
X83950Y-40050D02*
X84350Y-39650D01*
X36950Y-40050D02*
X37350Y-39650D01*
X34500Y-42500D02*
X36950Y-40050D01*
X37350Y-39650D02*
X37350Y-38550D01*
X130000Y-37050D02*
X132700Y-37050D01*
X129100Y-37950D02*
X130000Y-37050D01*
X128650Y-37950D02*
X129100Y-37950D01*
X81650Y-37950D02*
X82100Y-37950D01*
X82100Y-37950D02*
X83000Y-37050D01*
X83000Y-37050D02*
X85700Y-37050D01*
X36000Y-37050D02*
X38700Y-37050D01*
X35100Y-37950D02*
X36000Y-37050D01*
X34650Y-37950D02*
X35100Y-37950D01*
X132950Y-33250D02*
X132400Y-33250D01*
X132400Y-33250D02*
X127500Y-38150D01*
X85400Y-33250D02*
X80500Y-38150D01*
X85950Y-33250D02*
X85400Y-33250D01*
X38950Y-33250D02*
X38400Y-33250D01*
X38400Y-33250D02*
X33500Y-38150D01*
X128100Y-38000D02*
X128100Y-38200D01*
X132250Y-33850D02*
X128350Y-37750D01*
X133600Y-33850D02*
X132250Y-33850D01*
X128350Y-37750D02*
X128100Y-38000D01*
X81350Y-37750D02*
X81100Y-38000D01*
X86600Y-33850D02*
X85250Y-33850D01*
X85250Y-33850D02*
X81350Y-37750D01*
X81100Y-38000D02*
X81100Y-38200D01*
X34100Y-38000D02*
X34100Y-38200D01*
X38250Y-33850D02*
X34350Y-37750D01*
X39600Y-33850D02*
X38250Y-33850D01*
X34350Y-37750D02*
X34100Y-38000D01*
G54D21*
X109000Y-49015D02*
X109715Y-49015D01*
X112000Y-51300D02*
X112000Y-53000D01*
X109715Y-49015D02*
X112000Y-51300D01*
X62715Y-49015D02*
X65000Y-51300D01*
X65000Y-51300D02*
X65000Y-53000D01*
X62000Y-49015D02*
X62715Y-49015D01*
X15000Y-49015D02*
X15715Y-49015D01*
X18000Y-51300D02*
X18000Y-53000D01*
X15715Y-49015D02*
X18000Y-51300D01*
G54D20*
X124604Y-50204D02*
X124600Y-50200D01*
X132000Y-41796D02*
X132000Y-41800D01*
X85000Y-41796D02*
X85000Y-41800D01*
X77604Y-50204D02*
X77600Y-50200D01*
X30604Y-50204D02*
X30600Y-50200D01*
X38000Y-41796D02*
X38000Y-41800D01*
X130150Y-46150D02*
X129500Y-45500D01*
X131100Y-46150D02*
X130150Y-46150D01*
X84100Y-46150D02*
X83150Y-46150D01*
X83150Y-46150D02*
X82500Y-45500D01*
X36150Y-46150D02*
X35500Y-45500D01*
X37100Y-46150D02*
X36150Y-46150D01*
G54D10*
G36*
X56730Y-57730D02*
X56345Y-57730D01*
X56345Y-55733D01*
X56345Y-19733D01*
X56140Y-19239D01*
X55762Y-18860D01*
X55268Y-18655D01*
X54733Y-18654D01*
X54239Y-18859D01*
X53860Y-19237D01*
X53655Y-19731D01*
X53654Y-20266D01*
X53859Y-20760D01*
X54237Y-21139D01*
X54731Y-21344D01*
X55266Y-21345D01*
X55760Y-21140D01*
X56139Y-20762D01*
X56344Y-20268D01*
X56345Y-19733D01*
X56345Y-55733D01*
X56140Y-55239D01*
X55762Y-54860D01*
X55268Y-54655D01*
X54745Y-54654D01*
X54745Y-31237D01*
X54737Y-30942D01*
X54640Y-30706D01*
X54524Y-30656D01*
X54454Y-30726D01*
X54454Y-30585D01*
X54403Y-30470D01*
X54127Y-30364D01*
X53832Y-30372D01*
X53596Y-30470D01*
X53545Y-30585D01*
X54000Y-31039D01*
X54454Y-30585D01*
X54454Y-30726D01*
X54070Y-31110D01*
X54524Y-31564D01*
X54640Y-31513D01*
X54745Y-31237D01*
X54745Y-54654D01*
X54742Y-54654D01*
X54742Y-44742D01*
X54742Y-42774D01*
X54742Y-40805D01*
X54742Y-38837D01*
X54742Y-36868D01*
X54742Y-34900D01*
X54742Y-32931D01*
X54629Y-32658D01*
X54454Y-32483D01*
X54454Y-31635D01*
X54000Y-31180D01*
X53929Y-31251D01*
X53929Y-31110D01*
X53475Y-30656D01*
X53359Y-30706D01*
X53254Y-30982D01*
X53262Y-31277D01*
X53359Y-31513D01*
X53475Y-31564D01*
X53929Y-31110D01*
X53929Y-31251D01*
X53545Y-31635D01*
X53596Y-31750D01*
X53872Y-31856D01*
X54167Y-31848D01*
X54403Y-31750D01*
X54454Y-31635D01*
X54454Y-32483D01*
X54420Y-32449D01*
X54148Y-32336D01*
X53853Y-32336D01*
X53580Y-32449D01*
X53371Y-32657D01*
X53258Y-32930D01*
X53257Y-33225D01*
X53370Y-33498D01*
X53579Y-33707D01*
X53851Y-33820D01*
X54146Y-33820D01*
X54419Y-33708D01*
X54628Y-33499D01*
X54741Y-33227D01*
X54742Y-32931D01*
X54742Y-34900D01*
X54629Y-34627D01*
X54420Y-34418D01*
X54148Y-34305D01*
X53853Y-34304D01*
X53580Y-34417D01*
X53371Y-34626D01*
X53258Y-34898D01*
X53257Y-35194D01*
X53370Y-35467D01*
X53579Y-35676D01*
X53851Y-35789D01*
X54146Y-35789D01*
X54419Y-35676D01*
X54628Y-35468D01*
X54741Y-35195D01*
X54742Y-34900D01*
X54742Y-36868D01*
X54629Y-36595D01*
X54420Y-36386D01*
X54148Y-36273D01*
X53853Y-36273D01*
X53580Y-36386D01*
X53371Y-36594D01*
X53258Y-36867D01*
X53257Y-37162D01*
X53370Y-37435D01*
X53579Y-37644D01*
X53851Y-37757D01*
X54146Y-37758D01*
X54419Y-37645D01*
X54628Y-37436D01*
X54741Y-37164D01*
X54742Y-36868D01*
X54742Y-38837D01*
X54629Y-38564D01*
X54420Y-38355D01*
X54148Y-38242D01*
X53853Y-38241D01*
X53580Y-38354D01*
X53371Y-38563D01*
X53258Y-38835D01*
X53257Y-39131D01*
X53370Y-39404D01*
X53579Y-39613D01*
X53851Y-39726D01*
X54146Y-39726D01*
X54419Y-39613D01*
X54628Y-39405D01*
X54741Y-39132D01*
X54742Y-38837D01*
X54742Y-40805D01*
X54629Y-40532D01*
X54420Y-40323D01*
X54148Y-40210D01*
X53853Y-40210D01*
X53580Y-40323D01*
X53371Y-40531D01*
X53258Y-40804D01*
X53257Y-41099D01*
X53370Y-41372D01*
X53579Y-41581D01*
X53851Y-41694D01*
X54146Y-41695D01*
X54419Y-41582D01*
X54628Y-41373D01*
X54741Y-41101D01*
X54742Y-40805D01*
X54742Y-42774D01*
X54629Y-42501D01*
X54420Y-42292D01*
X54148Y-42179D01*
X53853Y-42179D01*
X53580Y-42291D01*
X53371Y-42500D01*
X53258Y-42772D01*
X53257Y-43068D01*
X53370Y-43341D01*
X53579Y-43550D01*
X53851Y-43663D01*
X54146Y-43663D01*
X54419Y-43550D01*
X54628Y-43342D01*
X54741Y-43069D01*
X54742Y-42774D01*
X54742Y-44742D01*
X54629Y-44469D01*
X54420Y-44260D01*
X54148Y-44147D01*
X53853Y-44147D01*
X53580Y-44260D01*
X53371Y-44468D01*
X53258Y-44741D01*
X53257Y-45036D01*
X53370Y-45309D01*
X53579Y-45518D01*
X53851Y-45631D01*
X54146Y-45632D01*
X54419Y-45519D01*
X54628Y-45310D01*
X54741Y-45038D01*
X54742Y-44742D01*
X54742Y-54654D01*
X54733Y-54654D01*
X54239Y-54859D01*
X53860Y-55237D01*
X53655Y-55731D01*
X53654Y-56266D01*
X53859Y-56760D01*
X54237Y-57139D01*
X54731Y-57344D01*
X55266Y-57345D01*
X55760Y-57140D01*
X56139Y-56762D01*
X56344Y-56268D01*
X56345Y-55733D01*
X56345Y-57730D01*
X53050Y-57730D01*
X53050Y-57050D01*
X53050Y-54950D01*
X50726Y-54950D01*
X50726Y-20853D01*
X50613Y-20580D01*
X50405Y-20371D01*
X50132Y-20258D01*
X49837Y-20257D01*
X49564Y-20370D01*
X49355Y-20579D01*
X49242Y-20851D01*
X49241Y-21146D01*
X49354Y-21419D01*
X49563Y-21628D01*
X49835Y-21741D01*
X50131Y-21742D01*
X50404Y-21629D01*
X50613Y-21420D01*
X50726Y-21148D01*
X50726Y-20853D01*
X50726Y-54950D01*
X48758Y-54950D01*
X48758Y-20853D01*
X48645Y-20580D01*
X48436Y-20371D01*
X48164Y-20258D01*
X47868Y-20257D01*
X47595Y-20370D01*
X47386Y-20579D01*
X47273Y-20851D01*
X47273Y-21146D01*
X47386Y-21419D01*
X47594Y-21628D01*
X47867Y-21741D01*
X48162Y-21742D01*
X48435Y-21629D01*
X48644Y-21420D01*
X48757Y-21148D01*
X48758Y-20853D01*
X48758Y-54950D01*
X47950Y-54950D01*
X47950Y-57050D01*
X53050Y-57050D01*
X53050Y-57730D01*
X44726Y-57730D01*
X44726Y-20853D01*
X44613Y-20580D01*
X44405Y-20371D01*
X44132Y-20258D01*
X43837Y-20257D01*
X43564Y-20370D01*
X43355Y-20579D01*
X43242Y-20851D01*
X43241Y-21146D01*
X43354Y-21419D01*
X43563Y-21628D01*
X43835Y-21741D01*
X44131Y-21742D01*
X44404Y-21629D01*
X44613Y-21420D01*
X44726Y-21148D01*
X44726Y-20853D01*
X44726Y-57730D01*
X42758Y-57730D01*
X42758Y-20853D01*
X42645Y-20580D01*
X42436Y-20371D01*
X42164Y-20258D01*
X41868Y-20257D01*
X41595Y-20370D01*
X41386Y-20579D01*
X41273Y-20851D01*
X41273Y-21146D01*
X41386Y-21419D01*
X41594Y-21628D01*
X41867Y-21741D01*
X42162Y-21742D01*
X42435Y-21629D01*
X42644Y-21420D01*
X42757Y-21148D01*
X42758Y-20853D01*
X42758Y-57730D01*
X40075Y-57730D01*
X40075Y-34963D01*
X40010Y-34806D01*
X39891Y-34687D01*
X39734Y-34622D01*
X39565Y-34622D01*
X39409Y-34686D01*
X39348Y-34747D01*
X38302Y-34747D01*
X38187Y-34770D01*
X38090Y-34835D01*
X37250Y-35675D01*
X37165Y-35674D01*
X37009Y-35739D01*
X36889Y-35858D01*
X36825Y-36015D01*
X36824Y-36184D01*
X36872Y-36300D01*
X36224Y-36300D01*
X38374Y-34150D01*
X39298Y-34150D01*
X39358Y-34210D01*
X39515Y-34274D01*
X39684Y-34275D01*
X39840Y-34210D01*
X39960Y-34091D01*
X40024Y-33934D01*
X40025Y-33765D01*
X39960Y-33609D01*
X39841Y-33489D01*
X39684Y-33425D01*
X39515Y-33424D01*
X39359Y-33489D01*
X39298Y-33550D01*
X39251Y-33550D01*
X39310Y-33491D01*
X39374Y-33334D01*
X39375Y-33165D01*
X39310Y-33009D01*
X39191Y-32889D01*
X39034Y-32825D01*
X38865Y-32824D01*
X38726Y-32882D01*
X38726Y-20853D01*
X38613Y-20580D01*
X38405Y-20371D01*
X38132Y-20258D01*
X37837Y-20257D01*
X37564Y-20370D01*
X37355Y-20579D01*
X37242Y-20851D01*
X37241Y-21146D01*
X37354Y-21419D01*
X37563Y-21628D01*
X37835Y-21741D01*
X38131Y-21742D01*
X38404Y-21629D01*
X38613Y-21420D01*
X38726Y-21148D01*
X38726Y-20853D01*
X38726Y-32882D01*
X38709Y-32889D01*
X38648Y-32950D01*
X38400Y-32950D01*
X38285Y-32972D01*
X38187Y-33037D01*
X37125Y-34100D01*
X37125Y-33465D01*
X37060Y-33309D01*
X36941Y-33189D01*
X36784Y-33125D01*
X36758Y-33125D01*
X36758Y-20853D01*
X36645Y-20580D01*
X36436Y-20371D01*
X36164Y-20258D01*
X35868Y-20257D01*
X35595Y-20370D01*
X35386Y-20579D01*
X35273Y-20851D01*
X35273Y-21146D01*
X35386Y-21419D01*
X35594Y-21628D01*
X35867Y-21741D01*
X36162Y-21742D01*
X36435Y-21629D01*
X36644Y-21420D01*
X36757Y-21148D01*
X36758Y-20853D01*
X36758Y-33125D01*
X36699Y-33124D01*
X35712Y-32137D01*
X35641Y-32090D01*
X35541Y-31989D01*
X35384Y-31925D01*
X35215Y-31924D01*
X35059Y-31989D01*
X34939Y-32108D01*
X34875Y-32265D01*
X34874Y-32375D01*
X34765Y-32374D01*
X34609Y-32439D01*
X34489Y-32558D01*
X34425Y-32715D01*
X34424Y-32884D01*
X34489Y-33040D01*
X34608Y-33160D01*
X34765Y-33224D01*
X34850Y-33225D01*
X35725Y-34099D01*
X35724Y-34184D01*
X35789Y-34340D01*
X35908Y-34460D01*
X36065Y-34524D01*
X36234Y-34525D01*
X36390Y-34460D01*
X36510Y-34341D01*
X36574Y-34184D01*
X36575Y-34015D01*
X36546Y-33946D01*
X36615Y-33974D01*
X36784Y-33975D01*
X36940Y-33910D01*
X37060Y-33791D01*
X37124Y-33634D01*
X37125Y-33465D01*
X37125Y-34100D01*
X36276Y-34948D01*
X36260Y-34909D01*
X36141Y-34789D01*
X35984Y-34725D01*
X35815Y-34724D01*
X35659Y-34789D01*
X35598Y-34850D01*
X32632Y-34850D01*
X32632Y-20853D01*
X32519Y-20580D01*
X32310Y-20371D01*
X32038Y-20258D01*
X31742Y-20257D01*
X31469Y-20370D01*
X31260Y-20579D01*
X31147Y-20851D01*
X31147Y-21146D01*
X31260Y-21419D01*
X31468Y-21628D01*
X31741Y-21741D01*
X32036Y-21742D01*
X32309Y-21629D01*
X32518Y-21420D01*
X32631Y-21148D01*
X32632Y-20853D01*
X32632Y-34850D01*
X32250Y-34850D01*
X32135Y-34872D01*
X32037Y-34937D01*
X31850Y-35125D01*
X31765Y-35124D01*
X31609Y-35189D01*
X31489Y-35308D01*
X31425Y-35465D01*
X31424Y-35634D01*
X31436Y-35662D01*
X31250Y-35475D01*
X31250Y-32101D01*
X31310Y-32041D01*
X31374Y-31884D01*
X31375Y-31715D01*
X31310Y-31559D01*
X31191Y-31439D01*
X31034Y-31375D01*
X30865Y-31374D01*
X30709Y-31439D01*
X30667Y-31481D01*
X30667Y-21127D01*
X30659Y-20832D01*
X30561Y-20596D01*
X30446Y-20545D01*
X30375Y-20616D01*
X30375Y-20475D01*
X30324Y-20359D01*
X30048Y-20254D01*
X29753Y-20262D01*
X29517Y-20359D01*
X29467Y-20475D01*
X29921Y-20929D01*
X30375Y-20475D01*
X30375Y-20616D01*
X29991Y-21000D01*
X30446Y-21454D01*
X30561Y-21403D01*
X30667Y-21127D01*
X30667Y-31481D01*
X30589Y-31558D01*
X30525Y-31715D01*
X30524Y-31884D01*
X30589Y-32040D01*
X30650Y-32101D01*
X30650Y-35600D01*
X30672Y-35714D01*
X30737Y-35812D01*
X32137Y-37212D01*
X32137Y-37212D01*
X32235Y-37277D01*
X32350Y-37300D01*
X33848Y-37300D01*
X33887Y-37338D01*
X33500Y-37725D01*
X33415Y-37724D01*
X33259Y-37789D01*
X33139Y-37908D01*
X33075Y-38065D01*
X33074Y-38234D01*
X33133Y-38375D01*
X33075Y-38515D01*
X33074Y-38684D01*
X33139Y-38840D01*
X33258Y-38960D01*
X33415Y-39024D01*
X33550Y-39025D01*
X32825Y-39750D01*
X31701Y-39750D01*
X31641Y-39689D01*
X31525Y-39641D01*
X31525Y-36865D01*
X31460Y-36709D01*
X31341Y-36589D01*
X31184Y-36525D01*
X31099Y-36524D01*
X30375Y-35801D01*
X30375Y-21524D01*
X29921Y-21070D01*
X29850Y-21141D01*
X29850Y-21000D01*
X29396Y-20545D01*
X29281Y-20596D01*
X29175Y-20872D01*
X29183Y-21167D01*
X29281Y-21403D01*
X29396Y-21454D01*
X29850Y-21000D01*
X29850Y-21141D01*
X29467Y-21524D01*
X29517Y-21640D01*
X29793Y-21745D01*
X30088Y-21737D01*
X30324Y-21640D01*
X30375Y-21524D01*
X30375Y-35801D01*
X28695Y-34120D01*
X28695Y-20853D01*
X28582Y-20580D01*
X28373Y-20371D01*
X28101Y-20258D01*
X27805Y-20257D01*
X27532Y-20370D01*
X27323Y-20579D01*
X27210Y-20851D01*
X27210Y-21146D01*
X27323Y-21419D01*
X27531Y-21628D01*
X27804Y-21741D01*
X28099Y-21742D01*
X28372Y-21629D01*
X28581Y-21420D01*
X28694Y-21148D01*
X28695Y-20853D01*
X28695Y-34120D01*
X28524Y-33950D01*
X28525Y-33865D01*
X28460Y-33709D01*
X28341Y-33589D01*
X28184Y-33525D01*
X28015Y-33524D01*
X27859Y-33589D01*
X27739Y-33708D01*
X27675Y-33865D01*
X27674Y-34034D01*
X27721Y-34147D01*
X27524Y-33950D01*
X27525Y-33865D01*
X27460Y-33709D01*
X27341Y-33589D01*
X27184Y-33525D01*
X27015Y-33524D01*
X26859Y-33589D01*
X26739Y-33708D01*
X26726Y-33741D01*
X26726Y-20853D01*
X26613Y-20580D01*
X26405Y-20371D01*
X26132Y-20258D01*
X25837Y-20257D01*
X25564Y-20370D01*
X25355Y-20579D01*
X25242Y-20851D01*
X25241Y-21146D01*
X25354Y-21419D01*
X25563Y-21628D01*
X25835Y-21741D01*
X26131Y-21742D01*
X26404Y-21629D01*
X26613Y-21420D01*
X26726Y-21148D01*
X26726Y-20853D01*
X26726Y-33741D01*
X26675Y-33865D01*
X26674Y-34034D01*
X26739Y-34190D01*
X26858Y-34310D01*
X27015Y-34374D01*
X27100Y-34375D01*
X29975Y-37249D01*
X29974Y-37334D01*
X30039Y-37490D01*
X30158Y-37610D01*
X30315Y-37674D01*
X30484Y-37675D01*
X30640Y-37610D01*
X30760Y-37491D01*
X30824Y-37334D01*
X30824Y-37276D01*
X30858Y-37310D01*
X31015Y-37374D01*
X31184Y-37375D01*
X31340Y-37310D01*
X31460Y-37191D01*
X31524Y-37034D01*
X31525Y-36865D01*
X31525Y-39641D01*
X31484Y-39625D01*
X31315Y-39624D01*
X31159Y-39689D01*
X31039Y-39808D01*
X30975Y-39965D01*
X30974Y-40134D01*
X31039Y-40290D01*
X31073Y-40324D01*
X31039Y-40358D01*
X30975Y-40515D01*
X30974Y-40684D01*
X31039Y-40840D01*
X31158Y-40960D01*
X31315Y-41024D01*
X31484Y-41025D01*
X31640Y-40960D01*
X31701Y-40900D01*
X32398Y-40900D01*
X32458Y-40960D01*
X32615Y-41024D01*
X32784Y-41025D01*
X32940Y-40960D01*
X33060Y-40841D01*
X33124Y-40684D01*
X33125Y-40515D01*
X33060Y-40359D01*
X33034Y-40333D01*
X33064Y-40327D01*
X33064Y-40327D01*
X33162Y-40262D01*
X33999Y-39424D01*
X34084Y-39425D01*
X34240Y-39360D01*
X34360Y-39241D01*
X34424Y-39084D01*
X34425Y-38915D01*
X34418Y-38900D01*
X34950Y-38900D01*
X34950Y-38899D01*
X35064Y-38877D01*
X35064Y-38877D01*
X35162Y-38812D01*
X36224Y-37750D01*
X37848Y-37750D01*
X37839Y-37758D01*
X37775Y-37915D01*
X37774Y-38084D01*
X37839Y-38240D01*
X37900Y-38301D01*
X37900Y-39250D01*
X37900Y-40825D01*
X36075Y-42650D01*
X34897Y-42650D01*
X34924Y-42584D01*
X34925Y-42499D01*
X37162Y-40262D01*
X37162Y-40262D01*
X37162Y-40262D01*
X37562Y-39862D01*
X37562Y-39862D01*
X37627Y-39764D01*
X37649Y-39650D01*
X37650Y-39650D01*
X37650Y-38851D01*
X37710Y-38791D01*
X37774Y-38634D01*
X37775Y-38465D01*
X37710Y-38309D01*
X37591Y-38189D01*
X37434Y-38125D01*
X37265Y-38124D01*
X37109Y-38189D01*
X36989Y-38308D01*
X36925Y-38465D01*
X36924Y-38634D01*
X36989Y-38790D01*
X37050Y-38851D01*
X37050Y-39525D01*
X36737Y-39837D01*
X36737Y-39837D01*
X34500Y-42075D01*
X34415Y-42074D01*
X34259Y-42139D01*
X34139Y-42258D01*
X34075Y-42415D01*
X34074Y-42584D01*
X34102Y-42650D01*
X33074Y-42650D01*
X33699Y-42024D01*
X33784Y-42025D01*
X33940Y-41960D01*
X34060Y-41841D01*
X34124Y-41684D01*
X34125Y-41515D01*
X34060Y-41359D01*
X33941Y-41239D01*
X33784Y-41175D01*
X33615Y-41174D01*
X33459Y-41239D01*
X33339Y-41358D01*
X33275Y-41515D01*
X33274Y-41600D01*
X24825Y-50050D01*
X23450Y-50050D01*
X23400Y-50050D01*
X22100Y-50050D01*
X22128Y-49980D01*
X22129Y-49811D01*
X22064Y-49655D01*
X22004Y-49594D01*
X22004Y-46470D01*
X27624Y-40849D01*
X27709Y-40850D01*
X27865Y-40785D01*
X27985Y-40666D01*
X28049Y-40509D01*
X28050Y-40340D01*
X27985Y-40184D01*
X27866Y-40064D01*
X27709Y-40000D01*
X27540Y-39999D01*
X27384Y-40064D01*
X27264Y-40183D01*
X27200Y-40340D01*
X27199Y-40425D01*
X24758Y-42867D01*
X24758Y-20853D01*
X24645Y-20580D01*
X24436Y-20371D01*
X24164Y-20258D01*
X23868Y-20257D01*
X23595Y-20370D01*
X23386Y-20579D01*
X23273Y-20851D01*
X23273Y-21146D01*
X23386Y-21419D01*
X23594Y-21628D01*
X23867Y-21741D01*
X24162Y-21742D01*
X24435Y-21629D01*
X24644Y-21420D01*
X24757Y-21148D01*
X24758Y-20853D01*
X24758Y-42867D01*
X22789Y-44836D01*
X22789Y-20853D01*
X22676Y-20580D01*
X22468Y-20371D01*
X22195Y-20258D01*
X21900Y-20257D01*
X21627Y-20370D01*
X21418Y-20579D01*
X21305Y-20851D01*
X21304Y-21146D01*
X21417Y-21419D01*
X21626Y-21628D01*
X21898Y-21741D01*
X22194Y-21742D01*
X22467Y-21629D01*
X22676Y-21420D01*
X22789Y-21148D01*
X22789Y-20853D01*
X22789Y-44836D01*
X21607Y-46018D01*
X21585Y-46022D01*
X21487Y-46087D01*
X21422Y-46185D01*
X21400Y-46300D01*
X21404Y-46320D01*
X21404Y-46346D01*
X21404Y-49594D01*
X21343Y-49654D01*
X21279Y-49811D01*
X21278Y-49980D01*
X21307Y-50050D01*
X20820Y-50050D01*
X20820Y-20853D01*
X20708Y-20580D01*
X20499Y-20371D01*
X20227Y-20258D01*
X19931Y-20257D01*
X19658Y-20370D01*
X19449Y-20579D01*
X19336Y-20851D01*
X19336Y-21146D01*
X19449Y-21419D01*
X19657Y-21628D01*
X19930Y-21741D01*
X20225Y-21742D01*
X20498Y-21629D01*
X20707Y-21420D01*
X20820Y-21148D01*
X20820Y-20853D01*
X20820Y-50050D01*
X20624Y-50050D01*
X20424Y-49850D01*
X20425Y-49765D01*
X20360Y-49609D01*
X20241Y-49489D01*
X20084Y-49425D01*
X19915Y-49424D01*
X19759Y-49489D01*
X19639Y-49608D01*
X19575Y-49765D01*
X19574Y-49934D01*
X19639Y-50090D01*
X19758Y-50210D01*
X19915Y-50274D01*
X20000Y-50275D01*
X20197Y-50471D01*
X20084Y-50425D01*
X19915Y-50424D01*
X19759Y-50489D01*
X19639Y-50608D01*
X19575Y-50765D01*
X19574Y-50934D01*
X19639Y-51090D01*
X19758Y-51210D01*
X19915Y-51274D01*
X20084Y-51275D01*
X20240Y-51210D01*
X20301Y-51150D01*
X23450Y-51150D01*
X25000Y-51150D01*
X25000Y-51149D01*
X25114Y-51127D01*
X25114Y-51127D01*
X25212Y-51062D01*
X33024Y-43250D01*
X33448Y-43250D01*
X33389Y-43308D01*
X33325Y-43465D01*
X33324Y-43634D01*
X33380Y-43769D01*
X33289Y-43787D01*
X33111Y-43906D01*
X32991Y-44085D01*
X32950Y-44295D01*
X32950Y-44508D01*
X32991Y-44718D01*
X33111Y-44897D01*
X33276Y-45007D01*
X33140Y-45083D01*
X33006Y-45253D01*
X32948Y-45461D01*
X33010Y-45548D01*
X33450Y-45548D01*
X33450Y-45540D01*
X33550Y-45540D01*
X33550Y-45548D01*
X33557Y-45548D01*
X33557Y-45648D01*
X33550Y-45648D01*
X33550Y-46176D01*
X33635Y-46224D01*
X33671Y-46218D01*
X33859Y-46112D01*
X33993Y-45942D01*
X33998Y-45924D01*
X34111Y-46093D01*
X34289Y-46212D01*
X34500Y-46254D01*
X34710Y-46212D01*
X34888Y-46093D01*
X35000Y-45926D01*
X35111Y-46093D01*
X35289Y-46212D01*
X35500Y-46254D01*
X35710Y-46212D01*
X35756Y-46181D01*
X35937Y-46362D01*
X35937Y-46362D01*
X36035Y-46427D01*
X36150Y-46450D01*
X36798Y-46450D01*
X36858Y-46510D01*
X37015Y-46574D01*
X37184Y-46575D01*
X37340Y-46510D01*
X37460Y-46391D01*
X37524Y-46234D01*
X37525Y-46065D01*
X37460Y-45909D01*
X37341Y-45789D01*
X37184Y-45725D01*
X37015Y-45724D01*
X36859Y-45789D01*
X36798Y-45850D01*
X36274Y-45850D01*
X36050Y-45625D01*
X36050Y-45491D01*
X36008Y-45281D01*
X35888Y-45102D01*
X35802Y-45045D01*
X35849Y-45045D01*
X35941Y-45007D01*
X36011Y-44937D01*
X36049Y-44845D01*
X36050Y-44745D01*
X36050Y-43958D01*
X36012Y-43867D01*
X35941Y-43796D01*
X35849Y-43758D01*
X35750Y-43758D01*
X35382Y-43758D01*
X34962Y-43337D01*
X34864Y-43272D01*
X34750Y-43250D01*
X36200Y-43250D01*
X36200Y-43249D01*
X36314Y-43227D01*
X36314Y-43227D01*
X36412Y-43162D01*
X38412Y-41162D01*
X38412Y-41162D01*
X38477Y-41064D01*
X38499Y-40950D01*
X38500Y-40950D01*
X38500Y-39250D01*
X38500Y-38301D01*
X38560Y-38241D01*
X38624Y-38084D01*
X38625Y-37915D01*
X38560Y-37759D01*
X38526Y-37725D01*
X38560Y-37691D01*
X38624Y-37534D01*
X38624Y-37474D01*
X38784Y-37475D01*
X38940Y-37410D01*
X39060Y-37291D01*
X39124Y-37134D01*
X39125Y-36965D01*
X39060Y-36809D01*
X38941Y-36689D01*
X38784Y-36625D01*
X38624Y-36624D01*
X38625Y-36515D01*
X38560Y-36359D01*
X38441Y-36239D01*
X38284Y-36175D01*
X38115Y-36174D01*
X37959Y-36239D01*
X37898Y-36300D01*
X37627Y-36300D01*
X37674Y-36184D01*
X37675Y-36099D01*
X38427Y-35347D01*
X39348Y-35347D01*
X39408Y-35407D01*
X39565Y-35472D01*
X39734Y-35472D01*
X39890Y-35407D01*
X40010Y-35288D01*
X40074Y-35132D01*
X40075Y-34963D01*
X40075Y-57730D01*
X34675Y-57730D01*
X34675Y-50465D01*
X34610Y-50309D01*
X34491Y-50189D01*
X34334Y-50125D01*
X34165Y-50124D01*
X34009Y-50189D01*
X33889Y-50308D01*
X33825Y-50465D01*
X33824Y-50550D01*
X33646Y-50729D01*
X33634Y-50725D01*
X33465Y-50724D01*
X33450Y-50731D01*
X33450Y-46176D01*
X33450Y-45648D01*
X33010Y-45648D01*
X32948Y-45734D01*
X33006Y-45942D01*
X33140Y-46112D01*
X33328Y-46218D01*
X33364Y-46224D01*
X33450Y-46176D01*
X33450Y-50731D01*
X33309Y-50789D01*
X33189Y-50908D01*
X33125Y-51065D01*
X33124Y-51234D01*
X33189Y-51390D01*
X33308Y-51510D01*
X33465Y-51574D01*
X33634Y-51575D01*
X33790Y-51510D01*
X33910Y-51391D01*
X33964Y-51259D01*
X34249Y-50974D01*
X34334Y-50975D01*
X34490Y-50910D01*
X34610Y-50791D01*
X34674Y-50634D01*
X34675Y-50465D01*
X34675Y-57730D01*
X31726Y-57730D01*
X31726Y-54853D01*
X31613Y-54580D01*
X31405Y-54371D01*
X31132Y-54258D01*
X30837Y-54257D01*
X30564Y-54370D01*
X30355Y-54579D01*
X30242Y-54851D01*
X30241Y-55146D01*
X30354Y-55419D01*
X30563Y-55628D01*
X30835Y-55741D01*
X31131Y-55742D01*
X31404Y-55629D01*
X31613Y-55420D01*
X31726Y-55148D01*
X31726Y-54853D01*
X31726Y-57730D01*
X29758Y-57730D01*
X29758Y-54853D01*
X29645Y-54580D01*
X29436Y-54371D01*
X29164Y-54258D01*
X28868Y-54257D01*
X28595Y-54370D01*
X28386Y-54579D01*
X28273Y-54851D01*
X28273Y-55146D01*
X28386Y-55419D01*
X28594Y-55628D01*
X28867Y-55741D01*
X29162Y-55742D01*
X29435Y-55629D01*
X29644Y-55420D01*
X29757Y-55148D01*
X29758Y-54853D01*
X29758Y-57730D01*
X27175Y-57730D01*
X27175Y-50415D01*
X27110Y-50259D01*
X26991Y-50139D01*
X26834Y-50075D01*
X26665Y-50074D01*
X26509Y-50139D01*
X26389Y-50258D01*
X26325Y-50415D01*
X26324Y-50584D01*
X26389Y-50740D01*
X26508Y-50860D01*
X26665Y-50924D01*
X26834Y-50925D01*
X26990Y-50860D01*
X27110Y-50741D01*
X27174Y-50584D01*
X27175Y-50415D01*
X27175Y-57730D01*
X18856Y-57730D01*
X18856Y-21127D01*
X18848Y-20832D01*
X18750Y-20596D01*
X18635Y-20545D01*
X18564Y-20616D01*
X18564Y-20475D01*
X18513Y-20359D01*
X18237Y-20254D01*
X17942Y-20262D01*
X17706Y-20359D01*
X17656Y-20475D01*
X18110Y-20929D01*
X18564Y-20475D01*
X18564Y-20616D01*
X18180Y-21000D01*
X18635Y-21454D01*
X18750Y-21403D01*
X18856Y-21127D01*
X18856Y-57730D01*
X18696Y-57730D01*
X18696Y-55000D01*
X18654Y-54789D01*
X18535Y-54611D01*
X18369Y-54500D01*
X18535Y-54388D01*
X18654Y-54210D01*
X18696Y-54000D01*
X18654Y-53789D01*
X18535Y-53611D01*
X18443Y-53550D01*
X18482Y-53550D01*
X18574Y-53512D01*
X18644Y-53441D01*
X18682Y-53349D01*
X18683Y-53250D01*
X18683Y-52650D01*
X18645Y-52558D01*
X18574Y-52488D01*
X18564Y-52483D01*
X18564Y-21524D01*
X18110Y-21070D01*
X18039Y-21141D01*
X18039Y-21000D01*
X17585Y-20545D01*
X17470Y-20596D01*
X17364Y-20872D01*
X17372Y-21167D01*
X17470Y-21403D01*
X17585Y-21454D01*
X18039Y-21000D01*
X18039Y-21141D01*
X17656Y-21524D01*
X17706Y-21640D01*
X17982Y-21745D01*
X18277Y-21737D01*
X18513Y-21640D01*
X18564Y-21524D01*
X18564Y-52483D01*
X18482Y-52450D01*
X18383Y-52449D01*
X18375Y-52449D01*
X18375Y-51300D01*
X18346Y-51156D01*
X18265Y-51034D01*
X15980Y-48750D01*
X15859Y-48669D01*
X15745Y-48646D01*
X15745Y-45017D01*
X15742Y-44884D01*
X15742Y-42774D01*
X15742Y-40805D01*
X15742Y-38837D01*
X15742Y-36868D01*
X15742Y-34900D01*
X15742Y-32931D01*
X15742Y-30963D01*
X15629Y-30690D01*
X15420Y-30481D01*
X15345Y-30450D01*
X15345Y-19733D01*
X15140Y-19239D01*
X14762Y-18860D01*
X14268Y-18655D01*
X13733Y-18654D01*
X13239Y-18859D01*
X12860Y-19237D01*
X12655Y-19731D01*
X12654Y-20266D01*
X12859Y-20760D01*
X13237Y-21139D01*
X13731Y-21344D01*
X14266Y-21345D01*
X14760Y-21140D01*
X15139Y-20762D01*
X15344Y-20268D01*
X15345Y-19733D01*
X15345Y-30450D01*
X15148Y-30368D01*
X14853Y-30367D01*
X14580Y-30480D01*
X14371Y-30689D01*
X14258Y-30961D01*
X14257Y-31257D01*
X14370Y-31530D01*
X14579Y-31739D01*
X14851Y-31852D01*
X15146Y-31852D01*
X15419Y-31739D01*
X15628Y-31531D01*
X15741Y-31258D01*
X15742Y-30963D01*
X15742Y-32931D01*
X15629Y-32658D01*
X15420Y-32449D01*
X15148Y-32336D01*
X14853Y-32336D01*
X14580Y-32449D01*
X14371Y-32657D01*
X14258Y-32930D01*
X14257Y-33225D01*
X14370Y-33498D01*
X14579Y-33707D01*
X14851Y-33820D01*
X15146Y-33820D01*
X15419Y-33708D01*
X15628Y-33499D01*
X15741Y-33227D01*
X15742Y-32931D01*
X15742Y-34900D01*
X15629Y-34627D01*
X15420Y-34418D01*
X15148Y-34305D01*
X14853Y-34304D01*
X14580Y-34417D01*
X14371Y-34626D01*
X14258Y-34898D01*
X14257Y-35194D01*
X14370Y-35467D01*
X14579Y-35676D01*
X14851Y-35789D01*
X15146Y-35789D01*
X15419Y-35676D01*
X15628Y-35468D01*
X15741Y-35195D01*
X15742Y-34900D01*
X15742Y-36868D01*
X15629Y-36595D01*
X15420Y-36386D01*
X15148Y-36273D01*
X14853Y-36273D01*
X14580Y-36386D01*
X14371Y-36594D01*
X14258Y-36867D01*
X14257Y-37162D01*
X14370Y-37435D01*
X14579Y-37644D01*
X14851Y-37757D01*
X15146Y-37758D01*
X15419Y-37645D01*
X15628Y-37436D01*
X15741Y-37164D01*
X15742Y-36868D01*
X15742Y-38837D01*
X15629Y-38564D01*
X15420Y-38355D01*
X15148Y-38242D01*
X14853Y-38241D01*
X14580Y-38354D01*
X14371Y-38563D01*
X14258Y-38835D01*
X14257Y-39131D01*
X14370Y-39404D01*
X14579Y-39613D01*
X14851Y-39726D01*
X15146Y-39726D01*
X15419Y-39613D01*
X15628Y-39405D01*
X15741Y-39132D01*
X15742Y-38837D01*
X15742Y-40805D01*
X15629Y-40532D01*
X15420Y-40323D01*
X15148Y-40210D01*
X14853Y-40210D01*
X14580Y-40323D01*
X14371Y-40531D01*
X14258Y-40804D01*
X14257Y-41099D01*
X14370Y-41372D01*
X14579Y-41581D01*
X14851Y-41694D01*
X15146Y-41695D01*
X15419Y-41582D01*
X15628Y-41373D01*
X15741Y-41101D01*
X15742Y-40805D01*
X15742Y-42774D01*
X15629Y-42501D01*
X15420Y-42292D01*
X15148Y-42179D01*
X14853Y-42179D01*
X14580Y-42291D01*
X14371Y-42500D01*
X14258Y-42772D01*
X14257Y-43068D01*
X14370Y-43341D01*
X14579Y-43550D01*
X14851Y-43663D01*
X15146Y-43663D01*
X15419Y-43550D01*
X15628Y-43342D01*
X15741Y-43069D01*
X15742Y-42774D01*
X15742Y-44884D01*
X15737Y-44722D01*
X15640Y-44486D01*
X15524Y-44435D01*
X15454Y-44506D01*
X15454Y-44364D01*
X15403Y-44249D01*
X15127Y-44143D01*
X14832Y-44151D01*
X14596Y-44249D01*
X14545Y-44364D01*
X15000Y-44819D01*
X15454Y-44364D01*
X15454Y-44506D01*
X15070Y-44889D01*
X15524Y-45343D01*
X15640Y-45293D01*
X15745Y-45017D01*
X15745Y-48646D01*
X15715Y-48640D01*
X15648Y-48640D01*
X15629Y-48595D01*
X15454Y-48420D01*
X15454Y-45414D01*
X15000Y-44960D01*
X14929Y-45031D01*
X14929Y-44889D01*
X14475Y-44435D01*
X14359Y-44486D01*
X14254Y-44762D01*
X14262Y-45057D01*
X14359Y-45293D01*
X14475Y-45343D01*
X14929Y-44889D01*
X14929Y-45031D01*
X14545Y-45414D01*
X14596Y-45529D01*
X14872Y-45635D01*
X15167Y-45627D01*
X15403Y-45529D01*
X15454Y-45414D01*
X15454Y-48420D01*
X15420Y-48386D01*
X15148Y-48273D01*
X14853Y-48273D01*
X14580Y-48386D01*
X14371Y-48594D01*
X14258Y-48867D01*
X14257Y-49162D01*
X14370Y-49435D01*
X14579Y-49644D01*
X14851Y-49757D01*
X15146Y-49758D01*
X15419Y-49645D01*
X15617Y-49447D01*
X17625Y-51455D01*
X17625Y-52449D01*
X17517Y-52449D01*
X17425Y-52487D01*
X17355Y-52558D01*
X17317Y-52650D01*
X17316Y-52749D01*
X17316Y-53349D01*
X17354Y-53441D01*
X17425Y-53511D01*
X17517Y-53549D01*
X17556Y-53549D01*
X17464Y-53611D01*
X17345Y-53789D01*
X17303Y-54000D01*
X17345Y-54210D01*
X17464Y-54388D01*
X17630Y-54500D01*
X17464Y-54611D01*
X17345Y-54789D01*
X17303Y-55000D01*
X17345Y-55210D01*
X17464Y-55388D01*
X17643Y-55508D01*
X17853Y-55550D01*
X18146Y-55550D01*
X18356Y-55508D01*
X18535Y-55388D01*
X18654Y-55210D01*
X18696Y-55000D01*
X18696Y-57730D01*
X15745Y-57730D01*
X15745Y-51111D01*
X15737Y-50816D01*
X15640Y-50580D01*
X15524Y-50530D01*
X15454Y-50600D01*
X15454Y-50459D01*
X15403Y-50344D01*
X15127Y-50238D01*
X14832Y-50246D01*
X14596Y-50344D01*
X14545Y-50459D01*
X15000Y-50913D01*
X15454Y-50459D01*
X15454Y-50600D01*
X15070Y-50984D01*
X15524Y-51438D01*
X15640Y-51387D01*
X15745Y-51111D01*
X15745Y-57730D01*
X15454Y-57730D01*
X15454Y-51509D01*
X15000Y-51054D01*
X14929Y-51125D01*
X14929Y-50984D01*
X14475Y-50530D01*
X14359Y-50580D01*
X14254Y-50856D01*
X14262Y-51151D01*
X14359Y-51387D01*
X14475Y-51438D01*
X14929Y-50984D01*
X14929Y-51125D01*
X14545Y-51509D01*
X14596Y-51624D01*
X14872Y-51730D01*
X15167Y-51722D01*
X15403Y-51624D01*
X15454Y-51509D01*
X15454Y-57730D01*
X15345Y-57730D01*
X15345Y-55733D01*
X15140Y-55239D01*
X14762Y-54860D01*
X14268Y-54655D01*
X13733Y-54654D01*
X13239Y-54859D01*
X12860Y-55237D01*
X12655Y-55731D01*
X12654Y-56266D01*
X12859Y-56760D01*
X13237Y-57139D01*
X13731Y-57344D01*
X14266Y-57345D01*
X14760Y-57140D01*
X15139Y-56762D01*
X15344Y-56268D01*
X15345Y-55733D01*
X15345Y-57730D01*
X12269Y-57730D01*
X12269Y-18269D01*
X56730Y-18269D01*
X56730Y-57730D01*
X56730Y-57730D01*
G37*
G54D20*
X56730Y-57730D02*
X56345Y-57730D01*
X56345Y-55733D01*
X56345Y-19733D01*
X56140Y-19239D01*
X55762Y-18860D01*
X55268Y-18655D01*
X54733Y-18654D01*
X54239Y-18859D01*
X53860Y-19237D01*
X53655Y-19731D01*
X53654Y-20266D01*
X53859Y-20760D01*
X54237Y-21139D01*
X54731Y-21344D01*
X55266Y-21345D01*
X55760Y-21140D01*
X56139Y-20762D01*
X56344Y-20268D01*
X56345Y-19733D01*
X56345Y-55733D01*
X56140Y-55239D01*
X55762Y-54860D01*
X55268Y-54655D01*
X54745Y-54654D01*
X54745Y-31237D01*
X54737Y-30942D01*
X54640Y-30706D01*
X54524Y-30656D01*
X54454Y-30726D01*
X54454Y-30585D01*
X54403Y-30470D01*
X54127Y-30364D01*
X53832Y-30372D01*
X53596Y-30470D01*
X53545Y-30585D01*
X54000Y-31039D01*
X54454Y-30585D01*
X54454Y-30726D01*
X54070Y-31110D01*
X54524Y-31564D01*
X54640Y-31513D01*
X54745Y-31237D01*
X54745Y-54654D01*
X54742Y-54654D01*
X54742Y-44742D01*
X54742Y-42774D01*
X54742Y-40805D01*
X54742Y-38837D01*
X54742Y-36868D01*
X54742Y-34900D01*
X54742Y-32931D01*
X54629Y-32658D01*
X54454Y-32483D01*
X54454Y-31635D01*
X54000Y-31180D01*
X53929Y-31251D01*
X53929Y-31110D01*
X53475Y-30656D01*
X53359Y-30706D01*
X53254Y-30982D01*
X53262Y-31277D01*
X53359Y-31513D01*
X53475Y-31564D01*
X53929Y-31110D01*
X53929Y-31251D01*
X53545Y-31635D01*
X53596Y-31750D01*
X53872Y-31856D01*
X54167Y-31848D01*
X54403Y-31750D01*
X54454Y-31635D01*
X54454Y-32483D01*
X54420Y-32449D01*
X54148Y-32336D01*
X53853Y-32336D01*
X53580Y-32449D01*
X53371Y-32657D01*
X53258Y-32930D01*
X53257Y-33225D01*
X53370Y-33498D01*
X53579Y-33707D01*
X53851Y-33820D01*
X54146Y-33820D01*
X54419Y-33708D01*
X54628Y-33499D01*
X54741Y-33227D01*
X54742Y-32931D01*
X54742Y-34900D01*
X54629Y-34627D01*
X54420Y-34418D01*
X54148Y-34305D01*
X53853Y-34304D01*
X53580Y-34417D01*
X53371Y-34626D01*
X53258Y-34898D01*
X53257Y-35194D01*
X53370Y-35467D01*
X53579Y-35676D01*
X53851Y-35789D01*
X54146Y-35789D01*
X54419Y-35676D01*
X54628Y-35468D01*
X54741Y-35195D01*
X54742Y-34900D01*
X54742Y-36868D01*
X54629Y-36595D01*
X54420Y-36386D01*
X54148Y-36273D01*
X53853Y-36273D01*
X53580Y-36386D01*
X53371Y-36594D01*
X53258Y-36867D01*
X53257Y-37162D01*
X53370Y-37435D01*
X53579Y-37644D01*
X53851Y-37757D01*
X54146Y-37758D01*
X54419Y-37645D01*
X54628Y-37436D01*
X54741Y-37164D01*
X54742Y-36868D01*
X54742Y-38837D01*
X54629Y-38564D01*
X54420Y-38355D01*
X54148Y-38242D01*
X53853Y-38241D01*
X53580Y-38354D01*
X53371Y-38563D01*
X53258Y-38835D01*
X53257Y-39131D01*
X53370Y-39404D01*
X53579Y-39613D01*
X53851Y-39726D01*
X54146Y-39726D01*
X54419Y-39613D01*
X54628Y-39405D01*
X54741Y-39132D01*
X54742Y-38837D01*
X54742Y-40805D01*
X54629Y-40532D01*
X54420Y-40323D01*
X54148Y-40210D01*
X53853Y-40210D01*
X53580Y-40323D01*
X53371Y-40531D01*
X53258Y-40804D01*
X53257Y-41099D01*
X53370Y-41372D01*
X53579Y-41581D01*
X53851Y-41694D01*
X54146Y-41695D01*
X54419Y-41582D01*
X54628Y-41373D01*
X54741Y-41101D01*
X54742Y-40805D01*
X54742Y-42774D01*
X54629Y-42501D01*
X54420Y-42292D01*
X54148Y-42179D01*
X53853Y-42179D01*
X53580Y-42291D01*
X53371Y-42500D01*
X53258Y-42772D01*
X53257Y-43068D01*
X53370Y-43341D01*
X53579Y-43550D01*
X53851Y-43663D01*
X54146Y-43663D01*
X54419Y-43550D01*
X54628Y-43342D01*
X54741Y-43069D01*
X54742Y-42774D01*
X54742Y-44742D01*
X54629Y-44469D01*
X54420Y-44260D01*
X54148Y-44147D01*
X53853Y-44147D01*
X53580Y-44260D01*
X53371Y-44468D01*
X53258Y-44741D01*
X53257Y-45036D01*
X53370Y-45309D01*
X53579Y-45518D01*
X53851Y-45631D01*
X54146Y-45632D01*
X54419Y-45519D01*
X54628Y-45310D01*
X54741Y-45038D01*
X54742Y-44742D01*
X54742Y-54654D01*
X54733Y-54654D01*
X54239Y-54859D01*
X53860Y-55237D01*
X53655Y-55731D01*
X53654Y-56266D01*
X53859Y-56760D01*
X54237Y-57139D01*
X54731Y-57344D01*
X55266Y-57345D01*
X55760Y-57140D01*
X56139Y-56762D01*
X56344Y-56268D01*
X56345Y-55733D01*
X56345Y-57730D01*
X53050Y-57730D01*
X53050Y-57050D01*
X53050Y-54950D01*
X50726Y-54950D01*
X50726Y-20853D01*
X50613Y-20580D01*
X50405Y-20371D01*
X50132Y-20258D01*
X49837Y-20257D01*
X49564Y-20370D01*
X49355Y-20579D01*
X49242Y-20851D01*
X49241Y-21146D01*
X49354Y-21419D01*
X49563Y-21628D01*
X49835Y-21741D01*
X50131Y-21742D01*
X50404Y-21629D01*
X50613Y-21420D01*
X50726Y-21148D01*
X50726Y-20853D01*
X50726Y-54950D01*
X48758Y-54950D01*
X48758Y-20853D01*
X48645Y-20580D01*
X48436Y-20371D01*
X48164Y-20258D01*
X47868Y-20257D01*
X47595Y-20370D01*
X47386Y-20579D01*
X47273Y-20851D01*
X47273Y-21146D01*
X47386Y-21419D01*
X47594Y-21628D01*
X47867Y-21741D01*
X48162Y-21742D01*
X48435Y-21629D01*
X48644Y-21420D01*
X48757Y-21148D01*
X48758Y-20853D01*
X48758Y-54950D01*
X47950Y-54950D01*
X47950Y-57050D01*
X53050Y-57050D01*
X53050Y-57730D01*
X44726Y-57730D01*
X44726Y-20853D01*
X44613Y-20580D01*
X44405Y-20371D01*
X44132Y-20258D01*
X43837Y-20257D01*
X43564Y-20370D01*
X43355Y-20579D01*
X43242Y-20851D01*
X43241Y-21146D01*
X43354Y-21419D01*
X43563Y-21628D01*
X43835Y-21741D01*
X44131Y-21742D01*
X44404Y-21629D01*
X44613Y-21420D01*
X44726Y-21148D01*
X44726Y-20853D01*
X44726Y-57730D01*
X42758Y-57730D01*
X42758Y-20853D01*
X42645Y-20580D01*
X42436Y-20371D01*
X42164Y-20258D01*
X41868Y-20257D01*
X41595Y-20370D01*
X41386Y-20579D01*
X41273Y-20851D01*
X41273Y-21146D01*
X41386Y-21419D01*
X41594Y-21628D01*
X41867Y-21741D01*
X42162Y-21742D01*
X42435Y-21629D01*
X42644Y-21420D01*
X42757Y-21148D01*
X42758Y-20853D01*
X42758Y-57730D01*
X40075Y-57730D01*
X40075Y-34963D01*
X40010Y-34806D01*
X39891Y-34687D01*
X39734Y-34622D01*
X39565Y-34622D01*
X39409Y-34686D01*
X39348Y-34747D01*
X38302Y-34747D01*
X38187Y-34770D01*
X38090Y-34835D01*
X37250Y-35675D01*
X37165Y-35674D01*
X37009Y-35739D01*
X36889Y-35858D01*
X36825Y-36015D01*
X36824Y-36184D01*
X36872Y-36300D01*
X36224Y-36300D01*
X38374Y-34150D01*
X39298Y-34150D01*
X39358Y-34210D01*
X39515Y-34274D01*
X39684Y-34275D01*
X39840Y-34210D01*
X39960Y-34091D01*
X40024Y-33934D01*
X40025Y-33765D01*
X39960Y-33609D01*
X39841Y-33489D01*
X39684Y-33425D01*
X39515Y-33424D01*
X39359Y-33489D01*
X39298Y-33550D01*
X39251Y-33550D01*
X39310Y-33491D01*
X39374Y-33334D01*
X39375Y-33165D01*
X39310Y-33009D01*
X39191Y-32889D01*
X39034Y-32825D01*
X38865Y-32824D01*
X38726Y-32882D01*
X38726Y-20853D01*
X38613Y-20580D01*
X38405Y-20371D01*
X38132Y-20258D01*
X37837Y-20257D01*
X37564Y-20370D01*
X37355Y-20579D01*
X37242Y-20851D01*
X37241Y-21146D01*
X37354Y-21419D01*
X37563Y-21628D01*
X37835Y-21741D01*
X38131Y-21742D01*
X38404Y-21629D01*
X38613Y-21420D01*
X38726Y-21148D01*
X38726Y-20853D01*
X38726Y-32882D01*
X38709Y-32889D01*
X38648Y-32950D01*
X38400Y-32950D01*
X38285Y-32972D01*
X38187Y-33037D01*
X37125Y-34100D01*
X37125Y-33465D01*
X37060Y-33309D01*
X36941Y-33189D01*
X36784Y-33125D01*
X36758Y-33125D01*
X36758Y-20853D01*
X36645Y-20580D01*
X36436Y-20371D01*
X36164Y-20258D01*
X35868Y-20257D01*
X35595Y-20370D01*
X35386Y-20579D01*
X35273Y-20851D01*
X35273Y-21146D01*
X35386Y-21419D01*
X35594Y-21628D01*
X35867Y-21741D01*
X36162Y-21742D01*
X36435Y-21629D01*
X36644Y-21420D01*
X36757Y-21148D01*
X36758Y-20853D01*
X36758Y-33125D01*
X36699Y-33124D01*
X35712Y-32137D01*
X35641Y-32090D01*
X35541Y-31989D01*
X35384Y-31925D01*
X35215Y-31924D01*
X35059Y-31989D01*
X34939Y-32108D01*
X34875Y-32265D01*
X34874Y-32375D01*
X34765Y-32374D01*
X34609Y-32439D01*
X34489Y-32558D01*
X34425Y-32715D01*
X34424Y-32884D01*
X34489Y-33040D01*
X34608Y-33160D01*
X34765Y-33224D01*
X34850Y-33225D01*
X35725Y-34099D01*
X35724Y-34184D01*
X35789Y-34340D01*
X35908Y-34460D01*
X36065Y-34524D01*
X36234Y-34525D01*
X36390Y-34460D01*
X36510Y-34341D01*
X36574Y-34184D01*
X36575Y-34015D01*
X36546Y-33946D01*
X36615Y-33974D01*
X36784Y-33975D01*
X36940Y-33910D01*
X37060Y-33791D01*
X37124Y-33634D01*
X37125Y-33465D01*
X37125Y-34100D01*
X36276Y-34948D01*
X36260Y-34909D01*
X36141Y-34789D01*
X35984Y-34725D01*
X35815Y-34724D01*
X35659Y-34789D01*
X35598Y-34850D01*
X32632Y-34850D01*
X32632Y-20853D01*
X32519Y-20580D01*
X32310Y-20371D01*
X32038Y-20258D01*
X31742Y-20257D01*
X31469Y-20370D01*
X31260Y-20579D01*
X31147Y-20851D01*
X31147Y-21146D01*
X31260Y-21419D01*
X31468Y-21628D01*
X31741Y-21741D01*
X32036Y-21742D01*
X32309Y-21629D01*
X32518Y-21420D01*
X32631Y-21148D01*
X32632Y-20853D01*
X32632Y-34850D01*
X32250Y-34850D01*
X32135Y-34872D01*
X32037Y-34937D01*
X31850Y-35125D01*
X31765Y-35124D01*
X31609Y-35189D01*
X31489Y-35308D01*
X31425Y-35465D01*
X31424Y-35634D01*
X31436Y-35662D01*
X31250Y-35475D01*
X31250Y-32101D01*
X31310Y-32041D01*
X31374Y-31884D01*
X31375Y-31715D01*
X31310Y-31559D01*
X31191Y-31439D01*
X31034Y-31375D01*
X30865Y-31374D01*
X30709Y-31439D01*
X30667Y-31481D01*
X30667Y-21127D01*
X30659Y-20832D01*
X30561Y-20596D01*
X30446Y-20545D01*
X30375Y-20616D01*
X30375Y-20475D01*
X30324Y-20359D01*
X30048Y-20254D01*
X29753Y-20262D01*
X29517Y-20359D01*
X29467Y-20475D01*
X29921Y-20929D01*
X30375Y-20475D01*
X30375Y-20616D01*
X29991Y-21000D01*
X30446Y-21454D01*
X30561Y-21403D01*
X30667Y-21127D01*
X30667Y-31481D01*
X30589Y-31558D01*
X30525Y-31715D01*
X30524Y-31884D01*
X30589Y-32040D01*
X30650Y-32101D01*
X30650Y-35600D01*
X30672Y-35714D01*
X30737Y-35812D01*
X32137Y-37212D01*
X32137Y-37212D01*
X32235Y-37277D01*
X32350Y-37300D01*
X33848Y-37300D01*
X33887Y-37338D01*
X33500Y-37725D01*
X33415Y-37724D01*
X33259Y-37789D01*
X33139Y-37908D01*
X33075Y-38065D01*
X33074Y-38234D01*
X33133Y-38375D01*
X33075Y-38515D01*
X33074Y-38684D01*
X33139Y-38840D01*
X33258Y-38960D01*
X33415Y-39024D01*
X33550Y-39025D01*
X32825Y-39750D01*
X31701Y-39750D01*
X31641Y-39689D01*
X31525Y-39641D01*
X31525Y-36865D01*
X31460Y-36709D01*
X31341Y-36589D01*
X31184Y-36525D01*
X31099Y-36524D01*
X30375Y-35801D01*
X30375Y-21524D01*
X29921Y-21070D01*
X29850Y-21141D01*
X29850Y-21000D01*
X29396Y-20545D01*
X29281Y-20596D01*
X29175Y-20872D01*
X29183Y-21167D01*
X29281Y-21403D01*
X29396Y-21454D01*
X29850Y-21000D01*
X29850Y-21141D01*
X29467Y-21524D01*
X29517Y-21640D01*
X29793Y-21745D01*
X30088Y-21737D01*
X30324Y-21640D01*
X30375Y-21524D01*
X30375Y-35801D01*
X28695Y-34120D01*
X28695Y-20853D01*
X28582Y-20580D01*
X28373Y-20371D01*
X28101Y-20258D01*
X27805Y-20257D01*
X27532Y-20370D01*
X27323Y-20579D01*
X27210Y-20851D01*
X27210Y-21146D01*
X27323Y-21419D01*
X27531Y-21628D01*
X27804Y-21741D01*
X28099Y-21742D01*
X28372Y-21629D01*
X28581Y-21420D01*
X28694Y-21148D01*
X28695Y-20853D01*
X28695Y-34120D01*
X28524Y-33950D01*
X28525Y-33865D01*
X28460Y-33709D01*
X28341Y-33589D01*
X28184Y-33525D01*
X28015Y-33524D01*
X27859Y-33589D01*
X27739Y-33708D01*
X27675Y-33865D01*
X27674Y-34034D01*
X27721Y-34147D01*
X27524Y-33950D01*
X27525Y-33865D01*
X27460Y-33709D01*
X27341Y-33589D01*
X27184Y-33525D01*
X27015Y-33524D01*
X26859Y-33589D01*
X26739Y-33708D01*
X26726Y-33741D01*
X26726Y-20853D01*
X26613Y-20580D01*
X26405Y-20371D01*
X26132Y-20258D01*
X25837Y-20257D01*
X25564Y-20370D01*
X25355Y-20579D01*
X25242Y-20851D01*
X25241Y-21146D01*
X25354Y-21419D01*
X25563Y-21628D01*
X25835Y-21741D01*
X26131Y-21742D01*
X26404Y-21629D01*
X26613Y-21420D01*
X26726Y-21148D01*
X26726Y-20853D01*
X26726Y-33741D01*
X26675Y-33865D01*
X26674Y-34034D01*
X26739Y-34190D01*
X26858Y-34310D01*
X27015Y-34374D01*
X27100Y-34375D01*
X29975Y-37249D01*
X29974Y-37334D01*
X30039Y-37490D01*
X30158Y-37610D01*
X30315Y-37674D01*
X30484Y-37675D01*
X30640Y-37610D01*
X30760Y-37491D01*
X30824Y-37334D01*
X30824Y-37276D01*
X30858Y-37310D01*
X31015Y-37374D01*
X31184Y-37375D01*
X31340Y-37310D01*
X31460Y-37191D01*
X31524Y-37034D01*
X31525Y-36865D01*
X31525Y-39641D01*
X31484Y-39625D01*
X31315Y-39624D01*
X31159Y-39689D01*
X31039Y-39808D01*
X30975Y-39965D01*
X30974Y-40134D01*
X31039Y-40290D01*
X31073Y-40324D01*
X31039Y-40358D01*
X30975Y-40515D01*
X30974Y-40684D01*
X31039Y-40840D01*
X31158Y-40960D01*
X31315Y-41024D01*
X31484Y-41025D01*
X31640Y-40960D01*
X31701Y-40900D01*
X32398Y-40900D01*
X32458Y-40960D01*
X32615Y-41024D01*
X32784Y-41025D01*
X32940Y-40960D01*
X33060Y-40841D01*
X33124Y-40684D01*
X33125Y-40515D01*
X33060Y-40359D01*
X33034Y-40333D01*
X33064Y-40327D01*
X33064Y-40327D01*
X33162Y-40262D01*
X33999Y-39424D01*
X34084Y-39425D01*
X34240Y-39360D01*
X34360Y-39241D01*
X34424Y-39084D01*
X34425Y-38915D01*
X34418Y-38900D01*
X34950Y-38900D01*
X34950Y-38899D01*
X35064Y-38877D01*
X35064Y-38877D01*
X35162Y-38812D01*
X36224Y-37750D01*
X37848Y-37750D01*
X37839Y-37758D01*
X37775Y-37915D01*
X37774Y-38084D01*
X37839Y-38240D01*
X37900Y-38301D01*
X37900Y-39250D01*
X37900Y-40825D01*
X36075Y-42650D01*
X34897Y-42650D01*
X34924Y-42584D01*
X34925Y-42499D01*
X37162Y-40262D01*
X37162Y-40262D01*
X37162Y-40262D01*
X37562Y-39862D01*
X37562Y-39862D01*
X37627Y-39764D01*
X37649Y-39650D01*
X37650Y-39650D01*
X37650Y-38851D01*
X37710Y-38791D01*
X37774Y-38634D01*
X37775Y-38465D01*
X37710Y-38309D01*
X37591Y-38189D01*
X37434Y-38125D01*
X37265Y-38124D01*
X37109Y-38189D01*
X36989Y-38308D01*
X36925Y-38465D01*
X36924Y-38634D01*
X36989Y-38790D01*
X37050Y-38851D01*
X37050Y-39525D01*
X36737Y-39837D01*
X36737Y-39837D01*
X34500Y-42075D01*
X34415Y-42074D01*
X34259Y-42139D01*
X34139Y-42258D01*
X34075Y-42415D01*
X34074Y-42584D01*
X34102Y-42650D01*
X33074Y-42650D01*
X33699Y-42024D01*
X33784Y-42025D01*
X33940Y-41960D01*
X34060Y-41841D01*
X34124Y-41684D01*
X34125Y-41515D01*
X34060Y-41359D01*
X33941Y-41239D01*
X33784Y-41175D01*
X33615Y-41174D01*
X33459Y-41239D01*
X33339Y-41358D01*
X33275Y-41515D01*
X33274Y-41600D01*
X24825Y-50050D01*
X23450Y-50050D01*
X23400Y-50050D01*
X22100Y-50050D01*
X22128Y-49980D01*
X22129Y-49811D01*
X22064Y-49655D01*
X22004Y-49594D01*
X22004Y-46470D01*
X27624Y-40849D01*
X27709Y-40850D01*
X27865Y-40785D01*
X27985Y-40666D01*
X28049Y-40509D01*
X28050Y-40340D01*
X27985Y-40184D01*
X27866Y-40064D01*
X27709Y-40000D01*
X27540Y-39999D01*
X27384Y-40064D01*
X27264Y-40183D01*
X27200Y-40340D01*
X27199Y-40425D01*
X24758Y-42867D01*
X24758Y-20853D01*
X24645Y-20580D01*
X24436Y-20371D01*
X24164Y-20258D01*
X23868Y-20257D01*
X23595Y-20370D01*
X23386Y-20579D01*
X23273Y-20851D01*
X23273Y-21146D01*
X23386Y-21419D01*
X23594Y-21628D01*
X23867Y-21741D01*
X24162Y-21742D01*
X24435Y-21629D01*
X24644Y-21420D01*
X24757Y-21148D01*
X24758Y-20853D01*
X24758Y-42867D01*
X22789Y-44836D01*
X22789Y-20853D01*
X22676Y-20580D01*
X22468Y-20371D01*
X22195Y-20258D01*
X21900Y-20257D01*
X21627Y-20370D01*
X21418Y-20579D01*
X21305Y-20851D01*
X21304Y-21146D01*
X21417Y-21419D01*
X21626Y-21628D01*
X21898Y-21741D01*
X22194Y-21742D01*
X22467Y-21629D01*
X22676Y-21420D01*
X22789Y-21148D01*
X22789Y-20853D01*
X22789Y-44836D01*
X21607Y-46018D01*
X21585Y-46022D01*
X21487Y-46087D01*
X21422Y-46185D01*
X21400Y-46300D01*
X21404Y-46320D01*
X21404Y-46346D01*
X21404Y-49594D01*
X21343Y-49654D01*
X21279Y-49811D01*
X21278Y-49980D01*
X21307Y-50050D01*
X20820Y-50050D01*
X20820Y-20853D01*
X20708Y-20580D01*
X20499Y-20371D01*
X20227Y-20258D01*
X19931Y-20257D01*
X19658Y-20370D01*
X19449Y-20579D01*
X19336Y-20851D01*
X19336Y-21146D01*
X19449Y-21419D01*
X19657Y-21628D01*
X19930Y-21741D01*
X20225Y-21742D01*
X20498Y-21629D01*
X20707Y-21420D01*
X20820Y-21148D01*
X20820Y-20853D01*
X20820Y-50050D01*
X20624Y-50050D01*
X20424Y-49850D01*
X20425Y-49765D01*
X20360Y-49609D01*
X20241Y-49489D01*
X20084Y-49425D01*
X19915Y-49424D01*
X19759Y-49489D01*
X19639Y-49608D01*
X19575Y-49765D01*
X19574Y-49934D01*
X19639Y-50090D01*
X19758Y-50210D01*
X19915Y-50274D01*
X20000Y-50275D01*
X20197Y-50471D01*
X20084Y-50425D01*
X19915Y-50424D01*
X19759Y-50489D01*
X19639Y-50608D01*
X19575Y-50765D01*
X19574Y-50934D01*
X19639Y-51090D01*
X19758Y-51210D01*
X19915Y-51274D01*
X20084Y-51275D01*
X20240Y-51210D01*
X20301Y-51150D01*
X23450Y-51150D01*
X25000Y-51150D01*
X25000Y-51149D01*
X25114Y-51127D01*
X25114Y-51127D01*
X25212Y-51062D01*
X33024Y-43250D01*
X33448Y-43250D01*
X33389Y-43308D01*
X33325Y-43465D01*
X33324Y-43634D01*
X33380Y-43769D01*
X33289Y-43787D01*
X33111Y-43906D01*
X32991Y-44085D01*
X32950Y-44295D01*
X32950Y-44508D01*
X32991Y-44718D01*
X33111Y-44897D01*
X33276Y-45007D01*
X33140Y-45083D01*
X33006Y-45253D01*
X32948Y-45461D01*
X33010Y-45548D01*
X33450Y-45548D01*
X33450Y-45540D01*
X33550Y-45540D01*
X33550Y-45548D01*
X33557Y-45548D01*
X33557Y-45648D01*
X33550Y-45648D01*
X33550Y-46176D01*
X33635Y-46224D01*
X33671Y-46218D01*
X33859Y-46112D01*
X33993Y-45942D01*
X33998Y-45924D01*
X34111Y-46093D01*
X34289Y-46212D01*
X34500Y-46254D01*
X34710Y-46212D01*
X34888Y-46093D01*
X35000Y-45926D01*
X35111Y-46093D01*
X35289Y-46212D01*
X35500Y-46254D01*
X35710Y-46212D01*
X35756Y-46181D01*
X35937Y-46362D01*
X35937Y-46362D01*
X36035Y-46427D01*
X36150Y-46450D01*
X36798Y-46450D01*
X36858Y-46510D01*
X37015Y-46574D01*
X37184Y-46575D01*
X37340Y-46510D01*
X37460Y-46391D01*
X37524Y-46234D01*
X37525Y-46065D01*
X37460Y-45909D01*
X37341Y-45789D01*
X37184Y-45725D01*
X37015Y-45724D01*
X36859Y-45789D01*
X36798Y-45850D01*
X36274Y-45850D01*
X36050Y-45625D01*
X36050Y-45491D01*
X36008Y-45281D01*
X35888Y-45102D01*
X35802Y-45045D01*
X35849Y-45045D01*
X35941Y-45007D01*
X36011Y-44937D01*
X36049Y-44845D01*
X36050Y-44745D01*
X36050Y-43958D01*
X36012Y-43867D01*
X35941Y-43796D01*
X35849Y-43758D01*
X35750Y-43758D01*
X35382Y-43758D01*
X34962Y-43337D01*
X34864Y-43272D01*
X34750Y-43250D01*
X36200Y-43250D01*
X36200Y-43249D01*
X36314Y-43227D01*
X36314Y-43227D01*
X36412Y-43162D01*
X38412Y-41162D01*
X38412Y-41162D01*
X38477Y-41064D01*
X38499Y-40950D01*
X38500Y-40950D01*
X38500Y-39250D01*
X38500Y-38301D01*
X38560Y-38241D01*
X38624Y-38084D01*
X38625Y-37915D01*
X38560Y-37759D01*
X38526Y-37725D01*
X38560Y-37691D01*
X38624Y-37534D01*
X38624Y-37474D01*
X38784Y-37475D01*
X38940Y-37410D01*
X39060Y-37291D01*
X39124Y-37134D01*
X39125Y-36965D01*
X39060Y-36809D01*
X38941Y-36689D01*
X38784Y-36625D01*
X38624Y-36624D01*
X38625Y-36515D01*
X38560Y-36359D01*
X38441Y-36239D01*
X38284Y-36175D01*
X38115Y-36174D01*
X37959Y-36239D01*
X37898Y-36300D01*
X37627Y-36300D01*
X37674Y-36184D01*
X37675Y-36099D01*
X38427Y-35347D01*
X39348Y-35347D01*
X39408Y-35407D01*
X39565Y-35472D01*
X39734Y-35472D01*
X39890Y-35407D01*
X40010Y-35288D01*
X40074Y-35132D01*
X40075Y-34963D01*
X40075Y-57730D01*
X34675Y-57730D01*
X34675Y-50465D01*
X34610Y-50309D01*
X34491Y-50189D01*
X34334Y-50125D01*
X34165Y-50124D01*
X34009Y-50189D01*
X33889Y-50308D01*
X33825Y-50465D01*
X33824Y-50550D01*
X33646Y-50729D01*
X33634Y-50725D01*
X33465Y-50724D01*
X33450Y-50731D01*
X33450Y-46176D01*
X33450Y-45648D01*
X33010Y-45648D01*
X32948Y-45734D01*
X33006Y-45942D01*
X33140Y-46112D01*
X33328Y-46218D01*
X33364Y-46224D01*
X33450Y-46176D01*
X33450Y-50731D01*
X33309Y-50789D01*
X33189Y-50908D01*
X33125Y-51065D01*
X33124Y-51234D01*
X33189Y-51390D01*
X33308Y-51510D01*
X33465Y-51574D01*
X33634Y-51575D01*
X33790Y-51510D01*
X33910Y-51391D01*
X33964Y-51259D01*
X34249Y-50974D01*
X34334Y-50975D01*
X34490Y-50910D01*
X34610Y-50791D01*
X34674Y-50634D01*
X34675Y-50465D01*
X34675Y-57730D01*
X31726Y-57730D01*
X31726Y-54853D01*
X31613Y-54580D01*
X31405Y-54371D01*
X31132Y-54258D01*
X30837Y-54257D01*
X30564Y-54370D01*
X30355Y-54579D01*
X30242Y-54851D01*
X30241Y-55146D01*
X30354Y-55419D01*
X30563Y-55628D01*
X30835Y-55741D01*
X31131Y-55742D01*
X31404Y-55629D01*
X31613Y-55420D01*
X31726Y-55148D01*
X31726Y-54853D01*
X31726Y-57730D01*
X29758Y-57730D01*
X29758Y-54853D01*
X29645Y-54580D01*
X29436Y-54371D01*
X29164Y-54258D01*
X28868Y-54257D01*
X28595Y-54370D01*
X28386Y-54579D01*
X28273Y-54851D01*
X28273Y-55146D01*
X28386Y-55419D01*
X28594Y-55628D01*
X28867Y-55741D01*
X29162Y-55742D01*
X29435Y-55629D01*
X29644Y-55420D01*
X29757Y-55148D01*
X29758Y-54853D01*
X29758Y-57730D01*
X27175Y-57730D01*
X27175Y-50415D01*
X27110Y-50259D01*
X26991Y-50139D01*
X26834Y-50075D01*
X26665Y-50074D01*
X26509Y-50139D01*
X26389Y-50258D01*
X26325Y-50415D01*
X26324Y-50584D01*
X26389Y-50740D01*
X26508Y-50860D01*
X26665Y-50924D01*
X26834Y-50925D01*
X26990Y-50860D01*
X27110Y-50741D01*
X27174Y-50584D01*
X27175Y-50415D01*
X27175Y-57730D01*
X18856Y-57730D01*
X18856Y-21127D01*
X18848Y-20832D01*
X18750Y-20596D01*
X18635Y-20545D01*
X18564Y-20616D01*
X18564Y-20475D01*
X18513Y-20359D01*
X18237Y-20254D01*
X17942Y-20262D01*
X17706Y-20359D01*
X17656Y-20475D01*
X18110Y-20929D01*
X18564Y-20475D01*
X18564Y-20616D01*
X18180Y-21000D01*
X18635Y-21454D01*
X18750Y-21403D01*
X18856Y-21127D01*
X18856Y-57730D01*
X18696Y-57730D01*
X18696Y-55000D01*
X18654Y-54789D01*
X18535Y-54611D01*
X18369Y-54500D01*
X18535Y-54388D01*
X18654Y-54210D01*
X18696Y-54000D01*
X18654Y-53789D01*
X18535Y-53611D01*
X18443Y-53550D01*
X18482Y-53550D01*
X18574Y-53512D01*
X18644Y-53441D01*
X18682Y-53349D01*
X18683Y-53250D01*
X18683Y-52650D01*
X18645Y-52558D01*
X18574Y-52488D01*
X18564Y-52483D01*
X18564Y-21524D01*
X18110Y-21070D01*
X18039Y-21141D01*
X18039Y-21000D01*
X17585Y-20545D01*
X17470Y-20596D01*
X17364Y-20872D01*
X17372Y-21167D01*
X17470Y-21403D01*
X17585Y-21454D01*
X18039Y-21000D01*
X18039Y-21141D01*
X17656Y-21524D01*
X17706Y-21640D01*
X17982Y-21745D01*
X18277Y-21737D01*
X18513Y-21640D01*
X18564Y-21524D01*
X18564Y-52483D01*
X18482Y-52450D01*
X18383Y-52449D01*
X18375Y-52449D01*
X18375Y-51300D01*
X18346Y-51156D01*
X18265Y-51034D01*
X15980Y-48750D01*
X15859Y-48669D01*
X15745Y-48646D01*
X15745Y-45017D01*
X15742Y-44884D01*
X15742Y-42774D01*
X15742Y-40805D01*
X15742Y-38837D01*
X15742Y-36868D01*
X15742Y-34900D01*
X15742Y-32931D01*
X15742Y-30963D01*
X15629Y-30690D01*
X15420Y-30481D01*
X15345Y-30450D01*
X15345Y-19733D01*
X15140Y-19239D01*
X14762Y-18860D01*
X14268Y-18655D01*
X13733Y-18654D01*
X13239Y-18859D01*
X12860Y-19237D01*
X12655Y-19731D01*
X12654Y-20266D01*
X12859Y-20760D01*
X13237Y-21139D01*
X13731Y-21344D01*
X14266Y-21345D01*
X14760Y-21140D01*
X15139Y-20762D01*
X15344Y-20268D01*
X15345Y-19733D01*
X15345Y-30450D01*
X15148Y-30368D01*
X14853Y-30367D01*
X14580Y-30480D01*
X14371Y-30689D01*
X14258Y-30961D01*
X14257Y-31257D01*
X14370Y-31530D01*
X14579Y-31739D01*
X14851Y-31852D01*
X15146Y-31852D01*
X15419Y-31739D01*
X15628Y-31531D01*
X15741Y-31258D01*
X15742Y-30963D01*
X15742Y-32931D01*
X15629Y-32658D01*
X15420Y-32449D01*
X15148Y-32336D01*
X14853Y-32336D01*
X14580Y-32449D01*
X14371Y-32657D01*
X14258Y-32930D01*
X14257Y-33225D01*
X14370Y-33498D01*
X14579Y-33707D01*
X14851Y-33820D01*
X15146Y-33820D01*
X15419Y-33708D01*
X15628Y-33499D01*
X15741Y-33227D01*
X15742Y-32931D01*
X15742Y-34900D01*
X15629Y-34627D01*
X15420Y-34418D01*
X15148Y-34305D01*
X14853Y-34304D01*
X14580Y-34417D01*
X14371Y-34626D01*
X14258Y-34898D01*
X14257Y-35194D01*
X14370Y-35467D01*
X14579Y-35676D01*
X14851Y-35789D01*
X15146Y-35789D01*
X15419Y-35676D01*
X15628Y-35468D01*
X15741Y-35195D01*
X15742Y-34900D01*
X15742Y-36868D01*
X15629Y-36595D01*
X15420Y-36386D01*
X15148Y-36273D01*
X14853Y-36273D01*
X14580Y-36386D01*
X14371Y-36594D01*
X14258Y-36867D01*
X14257Y-37162D01*
X14370Y-37435D01*
X14579Y-37644D01*
X14851Y-37757D01*
X15146Y-37758D01*
X15419Y-37645D01*
X15628Y-37436D01*
X15741Y-37164D01*
X15742Y-36868D01*
X15742Y-38837D01*
X15629Y-38564D01*
X15420Y-38355D01*
X15148Y-38242D01*
X14853Y-38241D01*
X14580Y-38354D01*
X14371Y-38563D01*
X14258Y-38835D01*
X14257Y-39131D01*
X14370Y-39404D01*
X14579Y-39613D01*
X14851Y-39726D01*
X15146Y-39726D01*
X15419Y-39613D01*
X15628Y-39405D01*
X15741Y-39132D01*
X15742Y-38837D01*
X15742Y-40805D01*
X15629Y-40532D01*
X15420Y-40323D01*
X15148Y-40210D01*
X14853Y-40210D01*
X14580Y-40323D01*
X14371Y-40531D01*
X14258Y-40804D01*
X14257Y-41099D01*
X14370Y-41372D01*
X14579Y-41581D01*
X14851Y-41694D01*
X15146Y-41695D01*
X15419Y-41582D01*
X15628Y-41373D01*
X15741Y-41101D01*
X15742Y-40805D01*
X15742Y-42774D01*
X15629Y-42501D01*
X15420Y-42292D01*
X15148Y-42179D01*
X14853Y-42179D01*
X14580Y-42291D01*
X14371Y-42500D01*
X14258Y-42772D01*
X14257Y-43068D01*
X14370Y-43341D01*
X14579Y-43550D01*
X14851Y-43663D01*
X15146Y-43663D01*
X15419Y-43550D01*
X15628Y-43342D01*
X15741Y-43069D01*
X15742Y-42774D01*
X15742Y-44884D01*
X15737Y-44722D01*
X15640Y-44486D01*
X15524Y-44435D01*
X15454Y-44506D01*
X15454Y-44364D01*
X15403Y-44249D01*
X15127Y-44143D01*
X14832Y-44151D01*
X14596Y-44249D01*
X14545Y-44364D01*
X15000Y-44819D01*
X15454Y-44364D01*
X15454Y-44506D01*
X15070Y-44889D01*
X15524Y-45343D01*
X15640Y-45293D01*
X15745Y-45017D01*
X15745Y-48646D01*
X15715Y-48640D01*
X15648Y-48640D01*
X15629Y-48595D01*
X15454Y-48420D01*
X15454Y-45414D01*
X15000Y-44960D01*
X14929Y-45031D01*
X14929Y-44889D01*
X14475Y-44435D01*
X14359Y-44486D01*
X14254Y-44762D01*
X14262Y-45057D01*
X14359Y-45293D01*
X14475Y-45343D01*
X14929Y-44889D01*
X14929Y-45031D01*
X14545Y-45414D01*
X14596Y-45529D01*
X14872Y-45635D01*
X15167Y-45627D01*
X15403Y-45529D01*
X15454Y-45414D01*
X15454Y-48420D01*
X15420Y-48386D01*
X15148Y-48273D01*
X14853Y-48273D01*
X14580Y-48386D01*
X14371Y-48594D01*
X14258Y-48867D01*
X14257Y-49162D01*
X14370Y-49435D01*
X14579Y-49644D01*
X14851Y-49757D01*
X15146Y-49758D01*
X15419Y-49645D01*
X15617Y-49447D01*
X17625Y-51455D01*
X17625Y-52449D01*
X17517Y-52449D01*
X17425Y-52487D01*
X17355Y-52558D01*
X17317Y-52650D01*
X17316Y-52749D01*
X17316Y-53349D01*
X17354Y-53441D01*
X17425Y-53511D01*
X17517Y-53549D01*
X17556Y-53549D01*
X17464Y-53611D01*
X17345Y-53789D01*
X17303Y-54000D01*
X17345Y-54210D01*
X17464Y-54388D01*
X17630Y-54500D01*
X17464Y-54611D01*
X17345Y-54789D01*
X17303Y-55000D01*
X17345Y-55210D01*
X17464Y-55388D01*
X17643Y-55508D01*
X17853Y-55550D01*
X18146Y-55550D01*
X18356Y-55508D01*
X18535Y-55388D01*
X18654Y-55210D01*
X18696Y-55000D01*
X18696Y-57730D01*
X15745Y-57730D01*
X15745Y-51111D01*
X15737Y-50816D01*
X15640Y-50580D01*
X15524Y-50530D01*
X15454Y-50600D01*
X15454Y-50459D01*
X15403Y-50344D01*
X15127Y-50238D01*
X14832Y-50246D01*
X14596Y-50344D01*
X14545Y-50459D01*
X15000Y-50913D01*
X15454Y-50459D01*
X15454Y-50600D01*
X15070Y-50984D01*
X15524Y-51438D01*
X15640Y-51387D01*
X15745Y-51111D01*
X15745Y-57730D01*
X15454Y-57730D01*
X15454Y-51509D01*
X15000Y-51054D01*
X14929Y-51125D01*
X14929Y-50984D01*
X14475Y-50530D01*
X14359Y-50580D01*
X14254Y-50856D01*
X14262Y-51151D01*
X14359Y-51387D01*
X14475Y-51438D01*
X14929Y-50984D01*
X14929Y-51125D01*
X14545Y-51509D01*
X14596Y-51624D01*
X14872Y-51730D01*
X15167Y-51722D01*
X15403Y-51624D01*
X15454Y-51509D01*
X15454Y-57730D01*
X15345Y-57730D01*
X15345Y-55733D01*
X15140Y-55239D01*
X14762Y-54860D01*
X14268Y-54655D01*
X13733Y-54654D01*
X13239Y-54859D01*
X12860Y-55237D01*
X12655Y-55731D01*
X12654Y-56266D01*
X12859Y-56760D01*
X13237Y-57139D01*
X13731Y-57344D01*
X14266Y-57345D01*
X14760Y-57140D01*
X15139Y-56762D01*
X15344Y-56268D01*
X15345Y-55733D01*
X15345Y-57730D01*
X12269Y-57730D01*
X12269Y-18269D01*
X56730Y-18269D01*
X56730Y-57730D01*
G54D10*
G36*
X103730Y-57730D02*
X103345Y-57730D01*
X103345Y-55733D01*
X103345Y-19733D01*
X103140Y-19239D01*
X102762Y-18860D01*
X102268Y-18655D01*
X101733Y-18654D01*
X101239Y-18859D01*
X100860Y-19237D01*
X100655Y-19731D01*
X100654Y-20266D01*
X100859Y-20760D01*
X101237Y-21139D01*
X101731Y-21344D01*
X102266Y-21345D01*
X102760Y-21140D01*
X103139Y-20762D01*
X103344Y-20268D01*
X103345Y-19733D01*
X103345Y-55733D01*
X103140Y-55239D01*
X102762Y-54860D01*
X102268Y-54655D01*
X101745Y-54654D01*
X101745Y-31237D01*
X101737Y-30942D01*
X101640Y-30706D01*
X101524Y-30656D01*
X101454Y-30726D01*
X101454Y-30585D01*
X101403Y-30470D01*
X101127Y-30364D01*
X100832Y-30372D01*
X100596Y-30470D01*
X100545Y-30585D01*
X101000Y-31039D01*
X101454Y-30585D01*
X101454Y-30726D01*
X101070Y-31110D01*
X101524Y-31564D01*
X101640Y-31513D01*
X101745Y-31237D01*
X101745Y-54654D01*
X101742Y-54654D01*
X101742Y-44742D01*
X101742Y-42774D01*
X101742Y-40805D01*
X101742Y-38837D01*
X101742Y-36868D01*
X101742Y-34900D01*
X101742Y-32931D01*
X101629Y-32658D01*
X101454Y-32483D01*
X101454Y-31635D01*
X101000Y-31180D01*
X100929Y-31251D01*
X100929Y-31110D01*
X100475Y-30656D01*
X100359Y-30706D01*
X100254Y-30982D01*
X100262Y-31277D01*
X100359Y-31513D01*
X100475Y-31564D01*
X100929Y-31110D01*
X100929Y-31251D01*
X100545Y-31635D01*
X100596Y-31750D01*
X100872Y-31856D01*
X101167Y-31848D01*
X101403Y-31750D01*
X101454Y-31635D01*
X101454Y-32483D01*
X101420Y-32449D01*
X101148Y-32336D01*
X100853Y-32336D01*
X100580Y-32449D01*
X100371Y-32657D01*
X100258Y-32930D01*
X100257Y-33225D01*
X100370Y-33498D01*
X100579Y-33707D01*
X100851Y-33820D01*
X101146Y-33820D01*
X101419Y-33708D01*
X101628Y-33499D01*
X101741Y-33227D01*
X101742Y-32931D01*
X101742Y-34900D01*
X101629Y-34627D01*
X101420Y-34418D01*
X101148Y-34305D01*
X100853Y-34304D01*
X100580Y-34417D01*
X100371Y-34626D01*
X100258Y-34898D01*
X100257Y-35194D01*
X100370Y-35467D01*
X100579Y-35676D01*
X100851Y-35789D01*
X101146Y-35789D01*
X101419Y-35676D01*
X101628Y-35468D01*
X101741Y-35195D01*
X101742Y-34900D01*
X101742Y-36868D01*
X101629Y-36595D01*
X101420Y-36386D01*
X101148Y-36273D01*
X100853Y-36273D01*
X100580Y-36386D01*
X100371Y-36594D01*
X100258Y-36867D01*
X100257Y-37162D01*
X100370Y-37435D01*
X100579Y-37644D01*
X100851Y-37757D01*
X101146Y-37758D01*
X101419Y-37645D01*
X101628Y-37436D01*
X101741Y-37164D01*
X101742Y-36868D01*
X101742Y-38837D01*
X101629Y-38564D01*
X101420Y-38355D01*
X101148Y-38242D01*
X100853Y-38241D01*
X100580Y-38354D01*
X100371Y-38563D01*
X100258Y-38835D01*
X100257Y-39131D01*
X100370Y-39404D01*
X100579Y-39613D01*
X100851Y-39726D01*
X101146Y-39726D01*
X101419Y-39613D01*
X101628Y-39405D01*
X101741Y-39132D01*
X101742Y-38837D01*
X101742Y-40805D01*
X101629Y-40532D01*
X101420Y-40323D01*
X101148Y-40210D01*
X100853Y-40210D01*
X100580Y-40323D01*
X100371Y-40531D01*
X100258Y-40804D01*
X100257Y-41099D01*
X100370Y-41372D01*
X100579Y-41581D01*
X100851Y-41694D01*
X101146Y-41695D01*
X101419Y-41582D01*
X101628Y-41373D01*
X101741Y-41101D01*
X101742Y-40805D01*
X101742Y-42774D01*
X101629Y-42501D01*
X101420Y-42292D01*
X101148Y-42179D01*
X100853Y-42179D01*
X100580Y-42291D01*
X100371Y-42500D01*
X100258Y-42772D01*
X100257Y-43068D01*
X100370Y-43341D01*
X100579Y-43550D01*
X100851Y-43663D01*
X101146Y-43663D01*
X101419Y-43550D01*
X101628Y-43342D01*
X101741Y-43069D01*
X101742Y-42774D01*
X101742Y-44742D01*
X101629Y-44469D01*
X101420Y-44260D01*
X101148Y-44147D01*
X100853Y-44147D01*
X100580Y-44260D01*
X100371Y-44468D01*
X100258Y-44741D01*
X100257Y-45036D01*
X100370Y-45309D01*
X100579Y-45518D01*
X100851Y-45631D01*
X101146Y-45632D01*
X101419Y-45519D01*
X101628Y-45310D01*
X101741Y-45038D01*
X101742Y-44742D01*
X101742Y-54654D01*
X101733Y-54654D01*
X101239Y-54859D01*
X100860Y-55237D01*
X100655Y-55731D01*
X100654Y-56266D01*
X100859Y-56760D01*
X101237Y-57139D01*
X101731Y-57344D01*
X102266Y-57345D01*
X102760Y-57140D01*
X103139Y-56762D01*
X103344Y-56268D01*
X103345Y-55733D01*
X103345Y-57730D01*
X100050Y-57730D01*
X100050Y-57050D01*
X100050Y-54950D01*
X97726Y-54950D01*
X97726Y-20853D01*
X97613Y-20580D01*
X97405Y-20371D01*
X97132Y-20258D01*
X96837Y-20257D01*
X96564Y-20370D01*
X96355Y-20579D01*
X96242Y-20851D01*
X96241Y-21146D01*
X96354Y-21419D01*
X96563Y-21628D01*
X96835Y-21741D01*
X97131Y-21742D01*
X97404Y-21629D01*
X97613Y-21420D01*
X97726Y-21148D01*
X97726Y-20853D01*
X97726Y-54950D01*
X95758Y-54950D01*
X95758Y-20853D01*
X95645Y-20580D01*
X95436Y-20371D01*
X95164Y-20258D01*
X94868Y-20257D01*
X94595Y-20370D01*
X94386Y-20579D01*
X94273Y-20851D01*
X94273Y-21146D01*
X94386Y-21419D01*
X94594Y-21628D01*
X94867Y-21741D01*
X95162Y-21742D01*
X95435Y-21629D01*
X95644Y-21420D01*
X95757Y-21148D01*
X95758Y-20853D01*
X95758Y-54950D01*
X94950Y-54950D01*
X94950Y-57050D01*
X100050Y-57050D01*
X100050Y-57730D01*
X91726Y-57730D01*
X91726Y-20853D01*
X91613Y-20580D01*
X91405Y-20371D01*
X91132Y-20258D01*
X90837Y-20257D01*
X90564Y-20370D01*
X90355Y-20579D01*
X90242Y-20851D01*
X90241Y-21146D01*
X90354Y-21419D01*
X90563Y-21628D01*
X90835Y-21741D01*
X91131Y-21742D01*
X91404Y-21629D01*
X91613Y-21420D01*
X91726Y-21148D01*
X91726Y-20853D01*
X91726Y-57730D01*
X89758Y-57730D01*
X89758Y-20853D01*
X89645Y-20580D01*
X89436Y-20371D01*
X89164Y-20258D01*
X88868Y-20257D01*
X88595Y-20370D01*
X88386Y-20579D01*
X88273Y-20851D01*
X88273Y-21146D01*
X88386Y-21419D01*
X88594Y-21628D01*
X88867Y-21741D01*
X89162Y-21742D01*
X89435Y-21629D01*
X89644Y-21420D01*
X89757Y-21148D01*
X89758Y-20853D01*
X89758Y-57730D01*
X87075Y-57730D01*
X87075Y-34963D01*
X87010Y-34806D01*
X86891Y-34687D01*
X86734Y-34622D01*
X86565Y-34622D01*
X86409Y-34686D01*
X86348Y-34747D01*
X85302Y-34747D01*
X85187Y-34770D01*
X85090Y-34835D01*
X84250Y-35675D01*
X84165Y-35674D01*
X84009Y-35739D01*
X83889Y-35858D01*
X83825Y-36015D01*
X83824Y-36184D01*
X83872Y-36300D01*
X83224Y-36300D01*
X85374Y-34150D01*
X86298Y-34150D01*
X86358Y-34210D01*
X86515Y-34274D01*
X86684Y-34275D01*
X86840Y-34210D01*
X86960Y-34091D01*
X87024Y-33934D01*
X87025Y-33765D01*
X86960Y-33609D01*
X86841Y-33489D01*
X86684Y-33425D01*
X86515Y-33424D01*
X86359Y-33489D01*
X86298Y-33550D01*
X86251Y-33550D01*
X86310Y-33491D01*
X86374Y-33334D01*
X86375Y-33165D01*
X86310Y-33009D01*
X86191Y-32889D01*
X86034Y-32825D01*
X85865Y-32824D01*
X85726Y-32882D01*
X85726Y-20853D01*
X85613Y-20580D01*
X85405Y-20371D01*
X85132Y-20258D01*
X84837Y-20257D01*
X84564Y-20370D01*
X84355Y-20579D01*
X84242Y-20851D01*
X84241Y-21146D01*
X84354Y-21419D01*
X84563Y-21628D01*
X84835Y-21741D01*
X85131Y-21742D01*
X85404Y-21629D01*
X85613Y-21420D01*
X85726Y-21148D01*
X85726Y-20853D01*
X85726Y-32882D01*
X85709Y-32889D01*
X85648Y-32950D01*
X85400Y-32950D01*
X85285Y-32972D01*
X85187Y-33037D01*
X84125Y-34100D01*
X84125Y-33465D01*
X84060Y-33309D01*
X83941Y-33189D01*
X83784Y-33125D01*
X83758Y-33125D01*
X83758Y-20853D01*
X83645Y-20580D01*
X83436Y-20371D01*
X83164Y-20258D01*
X82868Y-20257D01*
X82595Y-20370D01*
X82386Y-20579D01*
X82273Y-20851D01*
X82273Y-21146D01*
X82386Y-21419D01*
X82594Y-21628D01*
X82867Y-21741D01*
X83162Y-21742D01*
X83435Y-21629D01*
X83644Y-21420D01*
X83757Y-21148D01*
X83758Y-20853D01*
X83758Y-33125D01*
X83699Y-33124D01*
X82712Y-32137D01*
X82641Y-32090D01*
X82541Y-31989D01*
X82384Y-31925D01*
X82215Y-31924D01*
X82059Y-31989D01*
X81939Y-32108D01*
X81875Y-32265D01*
X81874Y-32375D01*
X81765Y-32374D01*
X81609Y-32439D01*
X81489Y-32558D01*
X81425Y-32715D01*
X81424Y-32884D01*
X81489Y-33040D01*
X81608Y-33160D01*
X81765Y-33224D01*
X81850Y-33225D01*
X82725Y-34099D01*
X82724Y-34184D01*
X82789Y-34340D01*
X82908Y-34460D01*
X83065Y-34524D01*
X83234Y-34525D01*
X83390Y-34460D01*
X83510Y-34341D01*
X83574Y-34184D01*
X83575Y-34015D01*
X83546Y-33946D01*
X83615Y-33974D01*
X83784Y-33975D01*
X83940Y-33910D01*
X84060Y-33791D01*
X84124Y-33634D01*
X84125Y-33465D01*
X84125Y-34100D01*
X83276Y-34948D01*
X83260Y-34909D01*
X83141Y-34789D01*
X82984Y-34725D01*
X82815Y-34724D01*
X82659Y-34789D01*
X82598Y-34850D01*
X79632Y-34850D01*
X79632Y-20853D01*
X79519Y-20580D01*
X79310Y-20371D01*
X79038Y-20258D01*
X78742Y-20257D01*
X78469Y-20370D01*
X78260Y-20579D01*
X78147Y-20851D01*
X78147Y-21146D01*
X78260Y-21419D01*
X78468Y-21628D01*
X78741Y-21741D01*
X79036Y-21742D01*
X79309Y-21629D01*
X79518Y-21420D01*
X79631Y-21148D01*
X79632Y-20853D01*
X79632Y-34850D01*
X79250Y-34850D01*
X79135Y-34872D01*
X79037Y-34937D01*
X78850Y-35125D01*
X78765Y-35124D01*
X78609Y-35189D01*
X78489Y-35308D01*
X78425Y-35465D01*
X78424Y-35634D01*
X78436Y-35662D01*
X78250Y-35475D01*
X78250Y-32101D01*
X78310Y-32041D01*
X78374Y-31884D01*
X78375Y-31715D01*
X78310Y-31559D01*
X78191Y-31439D01*
X78034Y-31375D01*
X77865Y-31374D01*
X77709Y-31439D01*
X77667Y-31481D01*
X77667Y-21127D01*
X77659Y-20832D01*
X77561Y-20596D01*
X77446Y-20545D01*
X77375Y-20616D01*
X77375Y-20475D01*
X77324Y-20359D01*
X77048Y-20254D01*
X76753Y-20262D01*
X76517Y-20359D01*
X76467Y-20475D01*
X76921Y-20929D01*
X77375Y-20475D01*
X77375Y-20616D01*
X76991Y-21000D01*
X77446Y-21454D01*
X77561Y-21403D01*
X77667Y-21127D01*
X77667Y-31481D01*
X77589Y-31558D01*
X77525Y-31715D01*
X77524Y-31884D01*
X77589Y-32040D01*
X77650Y-32101D01*
X77650Y-35600D01*
X77672Y-35714D01*
X77737Y-35812D01*
X79137Y-37212D01*
X79137Y-37212D01*
X79235Y-37277D01*
X79350Y-37300D01*
X80848Y-37300D01*
X80887Y-37338D01*
X80500Y-37725D01*
X80415Y-37724D01*
X80259Y-37789D01*
X80139Y-37908D01*
X80075Y-38065D01*
X80074Y-38234D01*
X80133Y-38375D01*
X80075Y-38515D01*
X80074Y-38684D01*
X80139Y-38840D01*
X80258Y-38960D01*
X80415Y-39024D01*
X80550Y-39025D01*
X79825Y-39750D01*
X78701Y-39750D01*
X78641Y-39689D01*
X78525Y-39641D01*
X78525Y-36865D01*
X78460Y-36709D01*
X78341Y-36589D01*
X78184Y-36525D01*
X78099Y-36524D01*
X77375Y-35801D01*
X77375Y-21524D01*
X76921Y-21070D01*
X76850Y-21141D01*
X76850Y-21000D01*
X76396Y-20545D01*
X76281Y-20596D01*
X76175Y-20872D01*
X76183Y-21167D01*
X76281Y-21403D01*
X76396Y-21454D01*
X76850Y-21000D01*
X76850Y-21141D01*
X76467Y-21524D01*
X76517Y-21640D01*
X76793Y-21745D01*
X77088Y-21737D01*
X77324Y-21640D01*
X77375Y-21524D01*
X77375Y-35801D01*
X75695Y-34120D01*
X75695Y-20853D01*
X75582Y-20580D01*
X75373Y-20371D01*
X75101Y-20258D01*
X74805Y-20257D01*
X74532Y-20370D01*
X74323Y-20579D01*
X74210Y-20851D01*
X74210Y-21146D01*
X74323Y-21419D01*
X74531Y-21628D01*
X74804Y-21741D01*
X75099Y-21742D01*
X75372Y-21629D01*
X75581Y-21420D01*
X75694Y-21148D01*
X75695Y-20853D01*
X75695Y-34120D01*
X75524Y-33950D01*
X75525Y-33865D01*
X75460Y-33709D01*
X75341Y-33589D01*
X75184Y-33525D01*
X75015Y-33524D01*
X74859Y-33589D01*
X74739Y-33708D01*
X74675Y-33865D01*
X74674Y-34034D01*
X74721Y-34147D01*
X74524Y-33950D01*
X74525Y-33865D01*
X74460Y-33709D01*
X74341Y-33589D01*
X74184Y-33525D01*
X74015Y-33524D01*
X73859Y-33589D01*
X73739Y-33708D01*
X73726Y-33741D01*
X73726Y-20853D01*
X73613Y-20580D01*
X73405Y-20371D01*
X73132Y-20258D01*
X72837Y-20257D01*
X72564Y-20370D01*
X72355Y-20579D01*
X72242Y-20851D01*
X72241Y-21146D01*
X72354Y-21419D01*
X72563Y-21628D01*
X72835Y-21741D01*
X73131Y-21742D01*
X73404Y-21629D01*
X73613Y-21420D01*
X73726Y-21148D01*
X73726Y-20853D01*
X73726Y-33741D01*
X73675Y-33865D01*
X73674Y-34034D01*
X73739Y-34190D01*
X73858Y-34310D01*
X74015Y-34374D01*
X74100Y-34375D01*
X76975Y-37249D01*
X76974Y-37334D01*
X77039Y-37490D01*
X77158Y-37610D01*
X77315Y-37674D01*
X77484Y-37675D01*
X77640Y-37610D01*
X77760Y-37491D01*
X77824Y-37334D01*
X77824Y-37276D01*
X77858Y-37310D01*
X78015Y-37374D01*
X78184Y-37375D01*
X78340Y-37310D01*
X78460Y-37191D01*
X78524Y-37034D01*
X78525Y-36865D01*
X78525Y-39641D01*
X78484Y-39625D01*
X78315Y-39624D01*
X78159Y-39689D01*
X78039Y-39808D01*
X77975Y-39965D01*
X77974Y-40134D01*
X78039Y-40290D01*
X78073Y-40324D01*
X78039Y-40358D01*
X77975Y-40515D01*
X77974Y-40684D01*
X78039Y-40840D01*
X78158Y-40960D01*
X78315Y-41024D01*
X78484Y-41025D01*
X78640Y-40960D01*
X78701Y-40900D01*
X79398Y-40900D01*
X79458Y-40960D01*
X79615Y-41024D01*
X79784Y-41025D01*
X79940Y-40960D01*
X80060Y-40841D01*
X80124Y-40684D01*
X80125Y-40515D01*
X80060Y-40359D01*
X80034Y-40333D01*
X80064Y-40327D01*
X80064Y-40327D01*
X80162Y-40262D01*
X80999Y-39424D01*
X81084Y-39425D01*
X81240Y-39360D01*
X81360Y-39241D01*
X81424Y-39084D01*
X81425Y-38915D01*
X81418Y-38900D01*
X81950Y-38900D01*
X81950Y-38899D01*
X82064Y-38877D01*
X82064Y-38877D01*
X82162Y-38812D01*
X83224Y-37750D01*
X84848Y-37750D01*
X84839Y-37758D01*
X84775Y-37915D01*
X84774Y-38084D01*
X84839Y-38240D01*
X84900Y-38301D01*
X84900Y-39250D01*
X84900Y-40825D01*
X83075Y-42650D01*
X81897Y-42650D01*
X81924Y-42584D01*
X81925Y-42499D01*
X84162Y-40262D01*
X84162Y-40262D01*
X84162Y-40262D01*
X84562Y-39862D01*
X84562Y-39862D01*
X84627Y-39764D01*
X84649Y-39650D01*
X84650Y-39650D01*
X84650Y-38851D01*
X84710Y-38791D01*
X84774Y-38634D01*
X84775Y-38465D01*
X84710Y-38309D01*
X84591Y-38189D01*
X84434Y-38125D01*
X84265Y-38124D01*
X84109Y-38189D01*
X83989Y-38308D01*
X83925Y-38465D01*
X83924Y-38634D01*
X83989Y-38790D01*
X84050Y-38851D01*
X84050Y-39525D01*
X83737Y-39837D01*
X83737Y-39837D01*
X81500Y-42075D01*
X81415Y-42074D01*
X81259Y-42139D01*
X81139Y-42258D01*
X81075Y-42415D01*
X81074Y-42584D01*
X81102Y-42650D01*
X80074Y-42650D01*
X80699Y-42024D01*
X80784Y-42025D01*
X80940Y-41960D01*
X81060Y-41841D01*
X81124Y-41684D01*
X81125Y-41515D01*
X81060Y-41359D01*
X80941Y-41239D01*
X80784Y-41175D01*
X80615Y-41174D01*
X80459Y-41239D01*
X80339Y-41358D01*
X80275Y-41515D01*
X80274Y-41600D01*
X71825Y-50050D01*
X70450Y-50050D01*
X70400Y-50050D01*
X69100Y-50050D01*
X69128Y-49980D01*
X69129Y-49811D01*
X69064Y-49655D01*
X69004Y-49594D01*
X69004Y-46470D01*
X74624Y-40849D01*
X74709Y-40850D01*
X74865Y-40785D01*
X74985Y-40666D01*
X75049Y-40509D01*
X75050Y-40340D01*
X74985Y-40184D01*
X74866Y-40064D01*
X74709Y-40000D01*
X74540Y-39999D01*
X74384Y-40064D01*
X74264Y-40183D01*
X74200Y-40340D01*
X74199Y-40425D01*
X71758Y-42867D01*
X71758Y-20853D01*
X71645Y-20580D01*
X71436Y-20371D01*
X71164Y-20258D01*
X70868Y-20257D01*
X70595Y-20370D01*
X70386Y-20579D01*
X70273Y-20851D01*
X70273Y-21146D01*
X70386Y-21419D01*
X70594Y-21628D01*
X70867Y-21741D01*
X71162Y-21742D01*
X71435Y-21629D01*
X71644Y-21420D01*
X71757Y-21148D01*
X71758Y-20853D01*
X71758Y-42867D01*
X69789Y-44836D01*
X69789Y-20853D01*
X69676Y-20580D01*
X69468Y-20371D01*
X69195Y-20258D01*
X68900Y-20257D01*
X68627Y-20370D01*
X68418Y-20579D01*
X68305Y-20851D01*
X68304Y-21146D01*
X68417Y-21419D01*
X68626Y-21628D01*
X68898Y-21741D01*
X69194Y-21742D01*
X69467Y-21629D01*
X69676Y-21420D01*
X69789Y-21148D01*
X69789Y-20853D01*
X69789Y-44836D01*
X68607Y-46018D01*
X68585Y-46022D01*
X68487Y-46087D01*
X68422Y-46185D01*
X68400Y-46300D01*
X68404Y-46320D01*
X68404Y-46346D01*
X68404Y-49594D01*
X68343Y-49654D01*
X68279Y-49811D01*
X68278Y-49980D01*
X68307Y-50050D01*
X67820Y-50050D01*
X67820Y-20853D01*
X67708Y-20580D01*
X67499Y-20371D01*
X67227Y-20258D01*
X66931Y-20257D01*
X66658Y-20370D01*
X66449Y-20579D01*
X66336Y-20851D01*
X66336Y-21146D01*
X66449Y-21419D01*
X66657Y-21628D01*
X66930Y-21741D01*
X67225Y-21742D01*
X67498Y-21629D01*
X67707Y-21420D01*
X67820Y-21148D01*
X67820Y-20853D01*
X67820Y-50050D01*
X67624Y-50050D01*
X67424Y-49850D01*
X67425Y-49765D01*
X67360Y-49609D01*
X67241Y-49489D01*
X67084Y-49425D01*
X66915Y-49424D01*
X66759Y-49489D01*
X66639Y-49608D01*
X66575Y-49765D01*
X66574Y-49934D01*
X66639Y-50090D01*
X66758Y-50210D01*
X66915Y-50274D01*
X67000Y-50275D01*
X67197Y-50471D01*
X67084Y-50425D01*
X66915Y-50424D01*
X66759Y-50489D01*
X66639Y-50608D01*
X66575Y-50765D01*
X66574Y-50934D01*
X66639Y-51090D01*
X66758Y-51210D01*
X66915Y-51274D01*
X67084Y-51275D01*
X67240Y-51210D01*
X67301Y-51150D01*
X70450Y-51150D01*
X72000Y-51150D01*
X72000Y-51149D01*
X72114Y-51127D01*
X72114Y-51127D01*
X72212Y-51062D01*
X80024Y-43250D01*
X80448Y-43250D01*
X80389Y-43308D01*
X80325Y-43465D01*
X80324Y-43634D01*
X80380Y-43769D01*
X80289Y-43787D01*
X80111Y-43906D01*
X79991Y-44085D01*
X79950Y-44295D01*
X79950Y-44508D01*
X79991Y-44718D01*
X80111Y-44897D01*
X80276Y-45007D01*
X80140Y-45083D01*
X80006Y-45253D01*
X79948Y-45461D01*
X80010Y-45548D01*
X80450Y-45548D01*
X80450Y-45540D01*
X80550Y-45540D01*
X80550Y-45548D01*
X80557Y-45548D01*
X80557Y-45648D01*
X80550Y-45648D01*
X80550Y-46176D01*
X80635Y-46224D01*
X80671Y-46218D01*
X80859Y-46112D01*
X80993Y-45942D01*
X80998Y-45924D01*
X81111Y-46093D01*
X81289Y-46212D01*
X81500Y-46254D01*
X81710Y-46212D01*
X81888Y-46093D01*
X82000Y-45926D01*
X82111Y-46093D01*
X82289Y-46212D01*
X82500Y-46254D01*
X82710Y-46212D01*
X82756Y-46181D01*
X82937Y-46362D01*
X82937Y-46362D01*
X83035Y-46427D01*
X83150Y-46450D01*
X83798Y-46450D01*
X83858Y-46510D01*
X84015Y-46574D01*
X84184Y-46575D01*
X84340Y-46510D01*
X84460Y-46391D01*
X84524Y-46234D01*
X84525Y-46065D01*
X84460Y-45909D01*
X84341Y-45789D01*
X84184Y-45725D01*
X84015Y-45724D01*
X83859Y-45789D01*
X83798Y-45850D01*
X83274Y-45850D01*
X83050Y-45625D01*
X83050Y-45491D01*
X83008Y-45281D01*
X82888Y-45102D01*
X82802Y-45045D01*
X82849Y-45045D01*
X82941Y-45007D01*
X83011Y-44937D01*
X83049Y-44845D01*
X83050Y-44745D01*
X83050Y-43958D01*
X83012Y-43867D01*
X82941Y-43796D01*
X82849Y-43758D01*
X82750Y-43758D01*
X82382Y-43758D01*
X81962Y-43337D01*
X81864Y-43272D01*
X81750Y-43250D01*
X83200Y-43250D01*
X83200Y-43249D01*
X83314Y-43227D01*
X83314Y-43227D01*
X83412Y-43162D01*
X85412Y-41162D01*
X85412Y-41162D01*
X85477Y-41064D01*
X85499Y-40950D01*
X85500Y-40950D01*
X85500Y-39250D01*
X85500Y-38301D01*
X85560Y-38241D01*
X85624Y-38084D01*
X85625Y-37915D01*
X85560Y-37759D01*
X85526Y-37725D01*
X85560Y-37691D01*
X85624Y-37534D01*
X85624Y-37474D01*
X85784Y-37475D01*
X85940Y-37410D01*
X86060Y-37291D01*
X86124Y-37134D01*
X86125Y-36965D01*
X86060Y-36809D01*
X85941Y-36689D01*
X85784Y-36625D01*
X85624Y-36624D01*
X85625Y-36515D01*
X85560Y-36359D01*
X85441Y-36239D01*
X85284Y-36175D01*
X85115Y-36174D01*
X84959Y-36239D01*
X84898Y-36300D01*
X84627Y-36300D01*
X84674Y-36184D01*
X84675Y-36099D01*
X85427Y-35347D01*
X86348Y-35347D01*
X86408Y-35407D01*
X86565Y-35472D01*
X86734Y-35472D01*
X86890Y-35407D01*
X87010Y-35288D01*
X87074Y-35132D01*
X87075Y-34963D01*
X87075Y-57730D01*
X81675Y-57730D01*
X81675Y-50465D01*
X81610Y-50309D01*
X81491Y-50189D01*
X81334Y-50125D01*
X81165Y-50124D01*
X81009Y-50189D01*
X80889Y-50308D01*
X80825Y-50465D01*
X80824Y-50550D01*
X80646Y-50729D01*
X80634Y-50725D01*
X80465Y-50724D01*
X80450Y-50731D01*
X80450Y-46176D01*
X80450Y-45648D01*
X80010Y-45648D01*
X79948Y-45734D01*
X80006Y-45942D01*
X80140Y-46112D01*
X80328Y-46218D01*
X80364Y-46224D01*
X80450Y-46176D01*
X80450Y-50731D01*
X80309Y-50789D01*
X80189Y-50908D01*
X80125Y-51065D01*
X80124Y-51234D01*
X80189Y-51390D01*
X80308Y-51510D01*
X80465Y-51574D01*
X80634Y-51575D01*
X80790Y-51510D01*
X80910Y-51391D01*
X80964Y-51259D01*
X81249Y-50974D01*
X81334Y-50975D01*
X81490Y-50910D01*
X81610Y-50791D01*
X81674Y-50634D01*
X81675Y-50465D01*
X81675Y-57730D01*
X78726Y-57730D01*
X78726Y-54853D01*
X78613Y-54580D01*
X78405Y-54371D01*
X78132Y-54258D01*
X77837Y-54257D01*
X77564Y-54370D01*
X77355Y-54579D01*
X77242Y-54851D01*
X77241Y-55146D01*
X77354Y-55419D01*
X77563Y-55628D01*
X77835Y-55741D01*
X78131Y-55742D01*
X78404Y-55629D01*
X78613Y-55420D01*
X78726Y-55148D01*
X78726Y-54853D01*
X78726Y-57730D01*
X76758Y-57730D01*
X76758Y-54853D01*
X76645Y-54580D01*
X76436Y-54371D01*
X76164Y-54258D01*
X75868Y-54257D01*
X75595Y-54370D01*
X75386Y-54579D01*
X75273Y-54851D01*
X75273Y-55146D01*
X75386Y-55419D01*
X75594Y-55628D01*
X75867Y-55741D01*
X76162Y-55742D01*
X76435Y-55629D01*
X76644Y-55420D01*
X76757Y-55148D01*
X76758Y-54853D01*
X76758Y-57730D01*
X74175Y-57730D01*
X74175Y-50415D01*
X74110Y-50259D01*
X73991Y-50139D01*
X73834Y-50075D01*
X73665Y-50074D01*
X73509Y-50139D01*
X73389Y-50258D01*
X73325Y-50415D01*
X73324Y-50584D01*
X73389Y-50740D01*
X73508Y-50860D01*
X73665Y-50924D01*
X73834Y-50925D01*
X73990Y-50860D01*
X74110Y-50741D01*
X74174Y-50584D01*
X74175Y-50415D01*
X74175Y-57730D01*
X65856Y-57730D01*
X65856Y-21127D01*
X65848Y-20832D01*
X65750Y-20596D01*
X65635Y-20545D01*
X65564Y-20616D01*
X65564Y-20475D01*
X65513Y-20359D01*
X65237Y-20254D01*
X64942Y-20262D01*
X64706Y-20359D01*
X64656Y-20475D01*
X65110Y-20929D01*
X65564Y-20475D01*
X65564Y-20616D01*
X65180Y-21000D01*
X65635Y-21454D01*
X65750Y-21403D01*
X65856Y-21127D01*
X65856Y-57730D01*
X65696Y-57730D01*
X65696Y-55000D01*
X65654Y-54789D01*
X65535Y-54611D01*
X65369Y-54500D01*
X65535Y-54388D01*
X65654Y-54210D01*
X65696Y-54000D01*
X65654Y-53789D01*
X65535Y-53611D01*
X65443Y-53550D01*
X65482Y-53550D01*
X65574Y-53512D01*
X65644Y-53441D01*
X65682Y-53349D01*
X65683Y-53250D01*
X65683Y-52650D01*
X65645Y-52558D01*
X65574Y-52488D01*
X65564Y-52483D01*
X65564Y-21524D01*
X65110Y-21070D01*
X65039Y-21141D01*
X65039Y-21000D01*
X64585Y-20545D01*
X64470Y-20596D01*
X64364Y-20872D01*
X64372Y-21167D01*
X64470Y-21403D01*
X64585Y-21454D01*
X65039Y-21000D01*
X65039Y-21141D01*
X64656Y-21524D01*
X64706Y-21640D01*
X64982Y-21745D01*
X65277Y-21737D01*
X65513Y-21640D01*
X65564Y-21524D01*
X65564Y-52483D01*
X65482Y-52450D01*
X65383Y-52449D01*
X65375Y-52449D01*
X65375Y-51300D01*
X65346Y-51156D01*
X65265Y-51034D01*
X62980Y-48750D01*
X62859Y-48669D01*
X62745Y-48646D01*
X62745Y-45017D01*
X62742Y-44884D01*
X62742Y-42774D01*
X62742Y-40805D01*
X62742Y-38837D01*
X62742Y-36868D01*
X62742Y-34900D01*
X62742Y-32931D01*
X62742Y-30963D01*
X62629Y-30690D01*
X62420Y-30481D01*
X62345Y-30450D01*
X62345Y-19733D01*
X62140Y-19239D01*
X61762Y-18860D01*
X61268Y-18655D01*
X60733Y-18654D01*
X60239Y-18859D01*
X59860Y-19237D01*
X59655Y-19731D01*
X59654Y-20266D01*
X59859Y-20760D01*
X60237Y-21139D01*
X60731Y-21344D01*
X61266Y-21345D01*
X61760Y-21140D01*
X62139Y-20762D01*
X62344Y-20268D01*
X62345Y-19733D01*
X62345Y-30450D01*
X62148Y-30368D01*
X61853Y-30367D01*
X61580Y-30480D01*
X61371Y-30689D01*
X61258Y-30961D01*
X61257Y-31257D01*
X61370Y-31530D01*
X61579Y-31739D01*
X61851Y-31852D01*
X62146Y-31852D01*
X62419Y-31739D01*
X62628Y-31531D01*
X62741Y-31258D01*
X62742Y-30963D01*
X62742Y-32931D01*
X62629Y-32658D01*
X62420Y-32449D01*
X62148Y-32336D01*
X61853Y-32336D01*
X61580Y-32449D01*
X61371Y-32657D01*
X61258Y-32930D01*
X61257Y-33225D01*
X61370Y-33498D01*
X61579Y-33707D01*
X61851Y-33820D01*
X62146Y-33820D01*
X62419Y-33708D01*
X62628Y-33499D01*
X62741Y-33227D01*
X62742Y-32931D01*
X62742Y-34900D01*
X62629Y-34627D01*
X62420Y-34418D01*
X62148Y-34305D01*
X61853Y-34304D01*
X61580Y-34417D01*
X61371Y-34626D01*
X61258Y-34898D01*
X61257Y-35194D01*
X61370Y-35467D01*
X61579Y-35676D01*
X61851Y-35789D01*
X62146Y-35789D01*
X62419Y-35676D01*
X62628Y-35468D01*
X62741Y-35195D01*
X62742Y-34900D01*
X62742Y-36868D01*
X62629Y-36595D01*
X62420Y-36386D01*
X62148Y-36273D01*
X61853Y-36273D01*
X61580Y-36386D01*
X61371Y-36594D01*
X61258Y-36867D01*
X61257Y-37162D01*
X61370Y-37435D01*
X61579Y-37644D01*
X61851Y-37757D01*
X62146Y-37758D01*
X62419Y-37645D01*
X62628Y-37436D01*
X62741Y-37164D01*
X62742Y-36868D01*
X62742Y-38837D01*
X62629Y-38564D01*
X62420Y-38355D01*
X62148Y-38242D01*
X61853Y-38241D01*
X61580Y-38354D01*
X61371Y-38563D01*
X61258Y-38835D01*
X61257Y-39131D01*
X61370Y-39404D01*
X61579Y-39613D01*
X61851Y-39726D01*
X62146Y-39726D01*
X62419Y-39613D01*
X62628Y-39405D01*
X62741Y-39132D01*
X62742Y-38837D01*
X62742Y-40805D01*
X62629Y-40532D01*
X62420Y-40323D01*
X62148Y-40210D01*
X61853Y-40210D01*
X61580Y-40323D01*
X61371Y-40531D01*
X61258Y-40804D01*
X61257Y-41099D01*
X61370Y-41372D01*
X61579Y-41581D01*
X61851Y-41694D01*
X62146Y-41695D01*
X62419Y-41582D01*
X62628Y-41373D01*
X62741Y-41101D01*
X62742Y-40805D01*
X62742Y-42774D01*
X62629Y-42501D01*
X62420Y-42292D01*
X62148Y-42179D01*
X61853Y-42179D01*
X61580Y-42291D01*
X61371Y-42500D01*
X61258Y-42772D01*
X61257Y-43068D01*
X61370Y-43341D01*
X61579Y-43550D01*
X61851Y-43663D01*
X62146Y-43663D01*
X62419Y-43550D01*
X62628Y-43342D01*
X62741Y-43069D01*
X62742Y-42774D01*
X62742Y-44884D01*
X62737Y-44722D01*
X62640Y-44486D01*
X62524Y-44435D01*
X62454Y-44506D01*
X62454Y-44364D01*
X62403Y-44249D01*
X62127Y-44143D01*
X61832Y-44151D01*
X61596Y-44249D01*
X61545Y-44364D01*
X62000Y-44819D01*
X62454Y-44364D01*
X62454Y-44506D01*
X62070Y-44889D01*
X62524Y-45343D01*
X62640Y-45293D01*
X62745Y-45017D01*
X62745Y-48646D01*
X62715Y-48640D01*
X62648Y-48640D01*
X62629Y-48595D01*
X62454Y-48420D01*
X62454Y-45414D01*
X62000Y-44960D01*
X61929Y-45031D01*
X61929Y-44889D01*
X61475Y-44435D01*
X61359Y-44486D01*
X61254Y-44762D01*
X61262Y-45057D01*
X61359Y-45293D01*
X61475Y-45343D01*
X61929Y-44889D01*
X61929Y-45031D01*
X61545Y-45414D01*
X61596Y-45529D01*
X61872Y-45635D01*
X62167Y-45627D01*
X62403Y-45529D01*
X62454Y-45414D01*
X62454Y-48420D01*
X62420Y-48386D01*
X62148Y-48273D01*
X61853Y-48273D01*
X61580Y-48386D01*
X61371Y-48594D01*
X61258Y-48867D01*
X61257Y-49162D01*
X61370Y-49435D01*
X61579Y-49644D01*
X61851Y-49757D01*
X62146Y-49758D01*
X62419Y-49645D01*
X62617Y-49447D01*
X64625Y-51455D01*
X64625Y-52449D01*
X64517Y-52449D01*
X64425Y-52487D01*
X64355Y-52558D01*
X64317Y-52650D01*
X64316Y-52749D01*
X64316Y-53349D01*
X64354Y-53441D01*
X64425Y-53511D01*
X64517Y-53549D01*
X64556Y-53549D01*
X64464Y-53611D01*
X64345Y-53789D01*
X64303Y-54000D01*
X64345Y-54210D01*
X64464Y-54388D01*
X64630Y-54500D01*
X64464Y-54611D01*
X64345Y-54789D01*
X64303Y-55000D01*
X64345Y-55210D01*
X64464Y-55388D01*
X64643Y-55508D01*
X64853Y-55550D01*
X65146Y-55550D01*
X65356Y-55508D01*
X65535Y-55388D01*
X65654Y-55210D01*
X65696Y-55000D01*
X65696Y-57730D01*
X62745Y-57730D01*
X62745Y-51111D01*
X62737Y-50816D01*
X62640Y-50580D01*
X62524Y-50530D01*
X62454Y-50600D01*
X62454Y-50459D01*
X62403Y-50344D01*
X62127Y-50238D01*
X61832Y-50246D01*
X61596Y-50344D01*
X61545Y-50459D01*
X62000Y-50913D01*
X62454Y-50459D01*
X62454Y-50600D01*
X62070Y-50984D01*
X62524Y-51438D01*
X62640Y-51387D01*
X62745Y-51111D01*
X62745Y-57730D01*
X62454Y-57730D01*
X62454Y-51509D01*
X62000Y-51054D01*
X61929Y-51125D01*
X61929Y-50984D01*
X61475Y-50530D01*
X61359Y-50580D01*
X61254Y-50856D01*
X61262Y-51151D01*
X61359Y-51387D01*
X61475Y-51438D01*
X61929Y-50984D01*
X61929Y-51125D01*
X61545Y-51509D01*
X61596Y-51624D01*
X61872Y-51730D01*
X62167Y-51722D01*
X62403Y-51624D01*
X62454Y-51509D01*
X62454Y-57730D01*
X62345Y-57730D01*
X62345Y-55733D01*
X62140Y-55239D01*
X61762Y-54860D01*
X61268Y-54655D01*
X60733Y-54654D01*
X60239Y-54859D01*
X59860Y-55237D01*
X59655Y-55731D01*
X59654Y-56266D01*
X59859Y-56760D01*
X60237Y-57139D01*
X60731Y-57344D01*
X61266Y-57345D01*
X61760Y-57140D01*
X62139Y-56762D01*
X62344Y-56268D01*
X62345Y-55733D01*
X62345Y-57730D01*
X59269Y-57730D01*
X59269Y-18269D01*
X103730Y-18269D01*
X103730Y-57730D01*
X103730Y-57730D01*
G37*
G54D20*
X103730Y-57730D02*
X103345Y-57730D01*
X103345Y-55733D01*
X103345Y-19733D01*
X103140Y-19239D01*
X102762Y-18860D01*
X102268Y-18655D01*
X101733Y-18654D01*
X101239Y-18859D01*
X100860Y-19237D01*
X100655Y-19731D01*
X100654Y-20266D01*
X100859Y-20760D01*
X101237Y-21139D01*
X101731Y-21344D01*
X102266Y-21345D01*
X102760Y-21140D01*
X103139Y-20762D01*
X103344Y-20268D01*
X103345Y-19733D01*
X103345Y-55733D01*
X103140Y-55239D01*
X102762Y-54860D01*
X102268Y-54655D01*
X101745Y-54654D01*
X101745Y-31237D01*
X101737Y-30942D01*
X101640Y-30706D01*
X101524Y-30656D01*
X101454Y-30726D01*
X101454Y-30585D01*
X101403Y-30470D01*
X101127Y-30364D01*
X100832Y-30372D01*
X100596Y-30470D01*
X100545Y-30585D01*
X101000Y-31039D01*
X101454Y-30585D01*
X101454Y-30726D01*
X101070Y-31110D01*
X101524Y-31564D01*
X101640Y-31513D01*
X101745Y-31237D01*
X101745Y-54654D01*
X101742Y-54654D01*
X101742Y-44742D01*
X101742Y-42774D01*
X101742Y-40805D01*
X101742Y-38837D01*
X101742Y-36868D01*
X101742Y-34900D01*
X101742Y-32931D01*
X101629Y-32658D01*
X101454Y-32483D01*
X101454Y-31635D01*
X101000Y-31180D01*
X100929Y-31251D01*
X100929Y-31110D01*
X100475Y-30656D01*
X100359Y-30706D01*
X100254Y-30982D01*
X100262Y-31277D01*
X100359Y-31513D01*
X100475Y-31564D01*
X100929Y-31110D01*
X100929Y-31251D01*
X100545Y-31635D01*
X100596Y-31750D01*
X100872Y-31856D01*
X101167Y-31848D01*
X101403Y-31750D01*
X101454Y-31635D01*
X101454Y-32483D01*
X101420Y-32449D01*
X101148Y-32336D01*
X100853Y-32336D01*
X100580Y-32449D01*
X100371Y-32657D01*
X100258Y-32930D01*
X100257Y-33225D01*
X100370Y-33498D01*
X100579Y-33707D01*
X100851Y-33820D01*
X101146Y-33820D01*
X101419Y-33708D01*
X101628Y-33499D01*
X101741Y-33227D01*
X101742Y-32931D01*
X101742Y-34900D01*
X101629Y-34627D01*
X101420Y-34418D01*
X101148Y-34305D01*
X100853Y-34304D01*
X100580Y-34417D01*
X100371Y-34626D01*
X100258Y-34898D01*
X100257Y-35194D01*
X100370Y-35467D01*
X100579Y-35676D01*
X100851Y-35789D01*
X101146Y-35789D01*
X101419Y-35676D01*
X101628Y-35468D01*
X101741Y-35195D01*
X101742Y-34900D01*
X101742Y-36868D01*
X101629Y-36595D01*
X101420Y-36386D01*
X101148Y-36273D01*
X100853Y-36273D01*
X100580Y-36386D01*
X100371Y-36594D01*
X100258Y-36867D01*
X100257Y-37162D01*
X100370Y-37435D01*
X100579Y-37644D01*
X100851Y-37757D01*
X101146Y-37758D01*
X101419Y-37645D01*
X101628Y-37436D01*
X101741Y-37164D01*
X101742Y-36868D01*
X101742Y-38837D01*
X101629Y-38564D01*
X101420Y-38355D01*
X101148Y-38242D01*
X100853Y-38241D01*
X100580Y-38354D01*
X100371Y-38563D01*
X100258Y-38835D01*
X100257Y-39131D01*
X100370Y-39404D01*
X100579Y-39613D01*
X100851Y-39726D01*
X101146Y-39726D01*
X101419Y-39613D01*
X101628Y-39405D01*
X101741Y-39132D01*
X101742Y-38837D01*
X101742Y-40805D01*
X101629Y-40532D01*
X101420Y-40323D01*
X101148Y-40210D01*
X100853Y-40210D01*
X100580Y-40323D01*
X100371Y-40531D01*
X100258Y-40804D01*
X100257Y-41099D01*
X100370Y-41372D01*
X100579Y-41581D01*
X100851Y-41694D01*
X101146Y-41695D01*
X101419Y-41582D01*
X101628Y-41373D01*
X101741Y-41101D01*
X101742Y-40805D01*
X101742Y-42774D01*
X101629Y-42501D01*
X101420Y-42292D01*
X101148Y-42179D01*
X100853Y-42179D01*
X100580Y-42291D01*
X100371Y-42500D01*
X100258Y-42772D01*
X100257Y-43068D01*
X100370Y-43341D01*
X100579Y-43550D01*
X100851Y-43663D01*
X101146Y-43663D01*
X101419Y-43550D01*
X101628Y-43342D01*
X101741Y-43069D01*
X101742Y-42774D01*
X101742Y-44742D01*
X101629Y-44469D01*
X101420Y-44260D01*
X101148Y-44147D01*
X100853Y-44147D01*
X100580Y-44260D01*
X100371Y-44468D01*
X100258Y-44741D01*
X100257Y-45036D01*
X100370Y-45309D01*
X100579Y-45518D01*
X100851Y-45631D01*
X101146Y-45632D01*
X101419Y-45519D01*
X101628Y-45310D01*
X101741Y-45038D01*
X101742Y-44742D01*
X101742Y-54654D01*
X101733Y-54654D01*
X101239Y-54859D01*
X100860Y-55237D01*
X100655Y-55731D01*
X100654Y-56266D01*
X100859Y-56760D01*
X101237Y-57139D01*
X101731Y-57344D01*
X102266Y-57345D01*
X102760Y-57140D01*
X103139Y-56762D01*
X103344Y-56268D01*
X103345Y-55733D01*
X103345Y-57730D01*
X100050Y-57730D01*
X100050Y-57050D01*
X100050Y-54950D01*
X97726Y-54950D01*
X97726Y-20853D01*
X97613Y-20580D01*
X97405Y-20371D01*
X97132Y-20258D01*
X96837Y-20257D01*
X96564Y-20370D01*
X96355Y-20579D01*
X96242Y-20851D01*
X96241Y-21146D01*
X96354Y-21419D01*
X96563Y-21628D01*
X96835Y-21741D01*
X97131Y-21742D01*
X97404Y-21629D01*
X97613Y-21420D01*
X97726Y-21148D01*
X97726Y-20853D01*
X97726Y-54950D01*
X95758Y-54950D01*
X95758Y-20853D01*
X95645Y-20580D01*
X95436Y-20371D01*
X95164Y-20258D01*
X94868Y-20257D01*
X94595Y-20370D01*
X94386Y-20579D01*
X94273Y-20851D01*
X94273Y-21146D01*
X94386Y-21419D01*
X94594Y-21628D01*
X94867Y-21741D01*
X95162Y-21742D01*
X95435Y-21629D01*
X95644Y-21420D01*
X95757Y-21148D01*
X95758Y-20853D01*
X95758Y-54950D01*
X94950Y-54950D01*
X94950Y-57050D01*
X100050Y-57050D01*
X100050Y-57730D01*
X91726Y-57730D01*
X91726Y-20853D01*
X91613Y-20580D01*
X91405Y-20371D01*
X91132Y-20258D01*
X90837Y-20257D01*
X90564Y-20370D01*
X90355Y-20579D01*
X90242Y-20851D01*
X90241Y-21146D01*
X90354Y-21419D01*
X90563Y-21628D01*
X90835Y-21741D01*
X91131Y-21742D01*
X91404Y-21629D01*
X91613Y-21420D01*
X91726Y-21148D01*
X91726Y-20853D01*
X91726Y-57730D01*
X89758Y-57730D01*
X89758Y-20853D01*
X89645Y-20580D01*
X89436Y-20371D01*
X89164Y-20258D01*
X88868Y-20257D01*
X88595Y-20370D01*
X88386Y-20579D01*
X88273Y-20851D01*
X88273Y-21146D01*
X88386Y-21419D01*
X88594Y-21628D01*
X88867Y-21741D01*
X89162Y-21742D01*
X89435Y-21629D01*
X89644Y-21420D01*
X89757Y-21148D01*
X89758Y-20853D01*
X89758Y-57730D01*
X87075Y-57730D01*
X87075Y-34963D01*
X87010Y-34806D01*
X86891Y-34687D01*
X86734Y-34622D01*
X86565Y-34622D01*
X86409Y-34686D01*
X86348Y-34747D01*
X85302Y-34747D01*
X85187Y-34770D01*
X85090Y-34835D01*
X84250Y-35675D01*
X84165Y-35674D01*
X84009Y-35739D01*
X83889Y-35858D01*
X83825Y-36015D01*
X83824Y-36184D01*
X83872Y-36300D01*
X83224Y-36300D01*
X85374Y-34150D01*
X86298Y-34150D01*
X86358Y-34210D01*
X86515Y-34274D01*
X86684Y-34275D01*
X86840Y-34210D01*
X86960Y-34091D01*
X87024Y-33934D01*
X87025Y-33765D01*
X86960Y-33609D01*
X86841Y-33489D01*
X86684Y-33425D01*
X86515Y-33424D01*
X86359Y-33489D01*
X86298Y-33550D01*
X86251Y-33550D01*
X86310Y-33491D01*
X86374Y-33334D01*
X86375Y-33165D01*
X86310Y-33009D01*
X86191Y-32889D01*
X86034Y-32825D01*
X85865Y-32824D01*
X85726Y-32882D01*
X85726Y-20853D01*
X85613Y-20580D01*
X85405Y-20371D01*
X85132Y-20258D01*
X84837Y-20257D01*
X84564Y-20370D01*
X84355Y-20579D01*
X84242Y-20851D01*
X84241Y-21146D01*
X84354Y-21419D01*
X84563Y-21628D01*
X84835Y-21741D01*
X85131Y-21742D01*
X85404Y-21629D01*
X85613Y-21420D01*
X85726Y-21148D01*
X85726Y-20853D01*
X85726Y-32882D01*
X85709Y-32889D01*
X85648Y-32950D01*
X85400Y-32950D01*
X85285Y-32972D01*
X85187Y-33037D01*
X84125Y-34100D01*
X84125Y-33465D01*
X84060Y-33309D01*
X83941Y-33189D01*
X83784Y-33125D01*
X83758Y-33125D01*
X83758Y-20853D01*
X83645Y-20580D01*
X83436Y-20371D01*
X83164Y-20258D01*
X82868Y-20257D01*
X82595Y-20370D01*
X82386Y-20579D01*
X82273Y-20851D01*
X82273Y-21146D01*
X82386Y-21419D01*
X82594Y-21628D01*
X82867Y-21741D01*
X83162Y-21742D01*
X83435Y-21629D01*
X83644Y-21420D01*
X83757Y-21148D01*
X83758Y-20853D01*
X83758Y-33125D01*
X83699Y-33124D01*
X82712Y-32137D01*
X82641Y-32090D01*
X82541Y-31989D01*
X82384Y-31925D01*
X82215Y-31924D01*
X82059Y-31989D01*
X81939Y-32108D01*
X81875Y-32265D01*
X81874Y-32375D01*
X81765Y-32374D01*
X81609Y-32439D01*
X81489Y-32558D01*
X81425Y-32715D01*
X81424Y-32884D01*
X81489Y-33040D01*
X81608Y-33160D01*
X81765Y-33224D01*
X81850Y-33225D01*
X82725Y-34099D01*
X82724Y-34184D01*
X82789Y-34340D01*
X82908Y-34460D01*
X83065Y-34524D01*
X83234Y-34525D01*
X83390Y-34460D01*
X83510Y-34341D01*
X83574Y-34184D01*
X83575Y-34015D01*
X83546Y-33946D01*
X83615Y-33974D01*
X83784Y-33975D01*
X83940Y-33910D01*
X84060Y-33791D01*
X84124Y-33634D01*
X84125Y-33465D01*
X84125Y-34100D01*
X83276Y-34948D01*
X83260Y-34909D01*
X83141Y-34789D01*
X82984Y-34725D01*
X82815Y-34724D01*
X82659Y-34789D01*
X82598Y-34850D01*
X79632Y-34850D01*
X79632Y-20853D01*
X79519Y-20580D01*
X79310Y-20371D01*
X79038Y-20258D01*
X78742Y-20257D01*
X78469Y-20370D01*
X78260Y-20579D01*
X78147Y-20851D01*
X78147Y-21146D01*
X78260Y-21419D01*
X78468Y-21628D01*
X78741Y-21741D01*
X79036Y-21742D01*
X79309Y-21629D01*
X79518Y-21420D01*
X79631Y-21148D01*
X79632Y-20853D01*
X79632Y-34850D01*
X79250Y-34850D01*
X79135Y-34872D01*
X79037Y-34937D01*
X78850Y-35125D01*
X78765Y-35124D01*
X78609Y-35189D01*
X78489Y-35308D01*
X78425Y-35465D01*
X78424Y-35634D01*
X78436Y-35662D01*
X78250Y-35475D01*
X78250Y-32101D01*
X78310Y-32041D01*
X78374Y-31884D01*
X78375Y-31715D01*
X78310Y-31559D01*
X78191Y-31439D01*
X78034Y-31375D01*
X77865Y-31374D01*
X77709Y-31439D01*
X77667Y-31481D01*
X77667Y-21127D01*
X77659Y-20832D01*
X77561Y-20596D01*
X77446Y-20545D01*
X77375Y-20616D01*
X77375Y-20475D01*
X77324Y-20359D01*
X77048Y-20254D01*
X76753Y-20262D01*
X76517Y-20359D01*
X76467Y-20475D01*
X76921Y-20929D01*
X77375Y-20475D01*
X77375Y-20616D01*
X76991Y-21000D01*
X77446Y-21454D01*
X77561Y-21403D01*
X77667Y-21127D01*
X77667Y-31481D01*
X77589Y-31558D01*
X77525Y-31715D01*
X77524Y-31884D01*
X77589Y-32040D01*
X77650Y-32101D01*
X77650Y-35600D01*
X77672Y-35714D01*
X77737Y-35812D01*
X79137Y-37212D01*
X79137Y-37212D01*
X79235Y-37277D01*
X79350Y-37300D01*
X80848Y-37300D01*
X80887Y-37338D01*
X80500Y-37725D01*
X80415Y-37724D01*
X80259Y-37789D01*
X80139Y-37908D01*
X80075Y-38065D01*
X80074Y-38234D01*
X80133Y-38375D01*
X80075Y-38515D01*
X80074Y-38684D01*
X80139Y-38840D01*
X80258Y-38960D01*
X80415Y-39024D01*
X80550Y-39025D01*
X79825Y-39750D01*
X78701Y-39750D01*
X78641Y-39689D01*
X78525Y-39641D01*
X78525Y-36865D01*
X78460Y-36709D01*
X78341Y-36589D01*
X78184Y-36525D01*
X78099Y-36524D01*
X77375Y-35801D01*
X77375Y-21524D01*
X76921Y-21070D01*
X76850Y-21141D01*
X76850Y-21000D01*
X76396Y-20545D01*
X76281Y-20596D01*
X76175Y-20872D01*
X76183Y-21167D01*
X76281Y-21403D01*
X76396Y-21454D01*
X76850Y-21000D01*
X76850Y-21141D01*
X76467Y-21524D01*
X76517Y-21640D01*
X76793Y-21745D01*
X77088Y-21737D01*
X77324Y-21640D01*
X77375Y-21524D01*
X77375Y-35801D01*
X75695Y-34120D01*
X75695Y-20853D01*
X75582Y-20580D01*
X75373Y-20371D01*
X75101Y-20258D01*
X74805Y-20257D01*
X74532Y-20370D01*
X74323Y-20579D01*
X74210Y-20851D01*
X74210Y-21146D01*
X74323Y-21419D01*
X74531Y-21628D01*
X74804Y-21741D01*
X75099Y-21742D01*
X75372Y-21629D01*
X75581Y-21420D01*
X75694Y-21148D01*
X75695Y-20853D01*
X75695Y-34120D01*
X75524Y-33950D01*
X75525Y-33865D01*
X75460Y-33709D01*
X75341Y-33589D01*
X75184Y-33525D01*
X75015Y-33524D01*
X74859Y-33589D01*
X74739Y-33708D01*
X74675Y-33865D01*
X74674Y-34034D01*
X74721Y-34147D01*
X74524Y-33950D01*
X74525Y-33865D01*
X74460Y-33709D01*
X74341Y-33589D01*
X74184Y-33525D01*
X74015Y-33524D01*
X73859Y-33589D01*
X73739Y-33708D01*
X73726Y-33741D01*
X73726Y-20853D01*
X73613Y-20580D01*
X73405Y-20371D01*
X73132Y-20258D01*
X72837Y-20257D01*
X72564Y-20370D01*
X72355Y-20579D01*
X72242Y-20851D01*
X72241Y-21146D01*
X72354Y-21419D01*
X72563Y-21628D01*
X72835Y-21741D01*
X73131Y-21742D01*
X73404Y-21629D01*
X73613Y-21420D01*
X73726Y-21148D01*
X73726Y-20853D01*
X73726Y-33741D01*
X73675Y-33865D01*
X73674Y-34034D01*
X73739Y-34190D01*
X73858Y-34310D01*
X74015Y-34374D01*
X74100Y-34375D01*
X76975Y-37249D01*
X76974Y-37334D01*
X77039Y-37490D01*
X77158Y-37610D01*
X77315Y-37674D01*
X77484Y-37675D01*
X77640Y-37610D01*
X77760Y-37491D01*
X77824Y-37334D01*
X77824Y-37276D01*
X77858Y-37310D01*
X78015Y-37374D01*
X78184Y-37375D01*
X78340Y-37310D01*
X78460Y-37191D01*
X78524Y-37034D01*
X78525Y-36865D01*
X78525Y-39641D01*
X78484Y-39625D01*
X78315Y-39624D01*
X78159Y-39689D01*
X78039Y-39808D01*
X77975Y-39965D01*
X77974Y-40134D01*
X78039Y-40290D01*
X78073Y-40324D01*
X78039Y-40358D01*
X77975Y-40515D01*
X77974Y-40684D01*
X78039Y-40840D01*
X78158Y-40960D01*
X78315Y-41024D01*
X78484Y-41025D01*
X78640Y-40960D01*
X78701Y-40900D01*
X79398Y-40900D01*
X79458Y-40960D01*
X79615Y-41024D01*
X79784Y-41025D01*
X79940Y-40960D01*
X80060Y-40841D01*
X80124Y-40684D01*
X80125Y-40515D01*
X80060Y-40359D01*
X80034Y-40333D01*
X80064Y-40327D01*
X80064Y-40327D01*
X80162Y-40262D01*
X80999Y-39424D01*
X81084Y-39425D01*
X81240Y-39360D01*
X81360Y-39241D01*
X81424Y-39084D01*
X81425Y-38915D01*
X81418Y-38900D01*
X81950Y-38900D01*
X81950Y-38899D01*
X82064Y-38877D01*
X82064Y-38877D01*
X82162Y-38812D01*
X83224Y-37750D01*
X84848Y-37750D01*
X84839Y-37758D01*
X84775Y-37915D01*
X84774Y-38084D01*
X84839Y-38240D01*
X84900Y-38301D01*
X84900Y-39250D01*
X84900Y-40825D01*
X83075Y-42650D01*
X81897Y-42650D01*
X81924Y-42584D01*
X81925Y-42499D01*
X84162Y-40262D01*
X84162Y-40262D01*
X84162Y-40262D01*
X84562Y-39862D01*
X84562Y-39862D01*
X84627Y-39764D01*
X84649Y-39650D01*
X84650Y-39650D01*
X84650Y-38851D01*
X84710Y-38791D01*
X84774Y-38634D01*
X84775Y-38465D01*
X84710Y-38309D01*
X84591Y-38189D01*
X84434Y-38125D01*
X84265Y-38124D01*
X84109Y-38189D01*
X83989Y-38308D01*
X83925Y-38465D01*
X83924Y-38634D01*
X83989Y-38790D01*
X84050Y-38851D01*
X84050Y-39525D01*
X83737Y-39837D01*
X83737Y-39837D01*
X81500Y-42075D01*
X81415Y-42074D01*
X81259Y-42139D01*
X81139Y-42258D01*
X81075Y-42415D01*
X81074Y-42584D01*
X81102Y-42650D01*
X80074Y-42650D01*
X80699Y-42024D01*
X80784Y-42025D01*
X80940Y-41960D01*
X81060Y-41841D01*
X81124Y-41684D01*
X81125Y-41515D01*
X81060Y-41359D01*
X80941Y-41239D01*
X80784Y-41175D01*
X80615Y-41174D01*
X80459Y-41239D01*
X80339Y-41358D01*
X80275Y-41515D01*
X80274Y-41600D01*
X71825Y-50050D01*
X70450Y-50050D01*
X70400Y-50050D01*
X69100Y-50050D01*
X69128Y-49980D01*
X69129Y-49811D01*
X69064Y-49655D01*
X69004Y-49594D01*
X69004Y-46470D01*
X74624Y-40849D01*
X74709Y-40850D01*
X74865Y-40785D01*
X74985Y-40666D01*
X75049Y-40509D01*
X75050Y-40340D01*
X74985Y-40184D01*
X74866Y-40064D01*
X74709Y-40000D01*
X74540Y-39999D01*
X74384Y-40064D01*
X74264Y-40183D01*
X74200Y-40340D01*
X74199Y-40425D01*
X71758Y-42867D01*
X71758Y-20853D01*
X71645Y-20580D01*
X71436Y-20371D01*
X71164Y-20258D01*
X70868Y-20257D01*
X70595Y-20370D01*
X70386Y-20579D01*
X70273Y-20851D01*
X70273Y-21146D01*
X70386Y-21419D01*
X70594Y-21628D01*
X70867Y-21741D01*
X71162Y-21742D01*
X71435Y-21629D01*
X71644Y-21420D01*
X71757Y-21148D01*
X71758Y-20853D01*
X71758Y-42867D01*
X69789Y-44836D01*
X69789Y-20853D01*
X69676Y-20580D01*
X69468Y-20371D01*
X69195Y-20258D01*
X68900Y-20257D01*
X68627Y-20370D01*
X68418Y-20579D01*
X68305Y-20851D01*
X68304Y-21146D01*
X68417Y-21419D01*
X68626Y-21628D01*
X68898Y-21741D01*
X69194Y-21742D01*
X69467Y-21629D01*
X69676Y-21420D01*
X69789Y-21148D01*
X69789Y-20853D01*
X69789Y-44836D01*
X68607Y-46018D01*
X68585Y-46022D01*
X68487Y-46087D01*
X68422Y-46185D01*
X68400Y-46300D01*
X68404Y-46320D01*
X68404Y-46346D01*
X68404Y-49594D01*
X68343Y-49654D01*
X68279Y-49811D01*
X68278Y-49980D01*
X68307Y-50050D01*
X67820Y-50050D01*
X67820Y-20853D01*
X67708Y-20580D01*
X67499Y-20371D01*
X67227Y-20258D01*
X66931Y-20257D01*
X66658Y-20370D01*
X66449Y-20579D01*
X66336Y-20851D01*
X66336Y-21146D01*
X66449Y-21419D01*
X66657Y-21628D01*
X66930Y-21741D01*
X67225Y-21742D01*
X67498Y-21629D01*
X67707Y-21420D01*
X67820Y-21148D01*
X67820Y-20853D01*
X67820Y-50050D01*
X67624Y-50050D01*
X67424Y-49850D01*
X67425Y-49765D01*
X67360Y-49609D01*
X67241Y-49489D01*
X67084Y-49425D01*
X66915Y-49424D01*
X66759Y-49489D01*
X66639Y-49608D01*
X66575Y-49765D01*
X66574Y-49934D01*
X66639Y-50090D01*
X66758Y-50210D01*
X66915Y-50274D01*
X67000Y-50275D01*
X67197Y-50471D01*
X67084Y-50425D01*
X66915Y-50424D01*
X66759Y-50489D01*
X66639Y-50608D01*
X66575Y-50765D01*
X66574Y-50934D01*
X66639Y-51090D01*
X66758Y-51210D01*
X66915Y-51274D01*
X67084Y-51275D01*
X67240Y-51210D01*
X67301Y-51150D01*
X70450Y-51150D01*
X72000Y-51150D01*
X72000Y-51149D01*
X72114Y-51127D01*
X72114Y-51127D01*
X72212Y-51062D01*
X80024Y-43250D01*
X80448Y-43250D01*
X80389Y-43308D01*
X80325Y-43465D01*
X80324Y-43634D01*
X80380Y-43769D01*
X80289Y-43787D01*
X80111Y-43906D01*
X79991Y-44085D01*
X79950Y-44295D01*
X79950Y-44508D01*
X79991Y-44718D01*
X80111Y-44897D01*
X80276Y-45007D01*
X80140Y-45083D01*
X80006Y-45253D01*
X79948Y-45461D01*
X80010Y-45548D01*
X80450Y-45548D01*
X80450Y-45540D01*
X80550Y-45540D01*
X80550Y-45548D01*
X80557Y-45548D01*
X80557Y-45648D01*
X80550Y-45648D01*
X80550Y-46176D01*
X80635Y-46224D01*
X80671Y-46218D01*
X80859Y-46112D01*
X80993Y-45942D01*
X80998Y-45924D01*
X81111Y-46093D01*
X81289Y-46212D01*
X81500Y-46254D01*
X81710Y-46212D01*
X81888Y-46093D01*
X82000Y-45926D01*
X82111Y-46093D01*
X82289Y-46212D01*
X82500Y-46254D01*
X82710Y-46212D01*
X82756Y-46181D01*
X82937Y-46362D01*
X82937Y-46362D01*
X83035Y-46427D01*
X83150Y-46450D01*
X83798Y-46450D01*
X83858Y-46510D01*
X84015Y-46574D01*
X84184Y-46575D01*
X84340Y-46510D01*
X84460Y-46391D01*
X84524Y-46234D01*
X84525Y-46065D01*
X84460Y-45909D01*
X84341Y-45789D01*
X84184Y-45725D01*
X84015Y-45724D01*
X83859Y-45789D01*
X83798Y-45850D01*
X83274Y-45850D01*
X83050Y-45625D01*
X83050Y-45491D01*
X83008Y-45281D01*
X82888Y-45102D01*
X82802Y-45045D01*
X82849Y-45045D01*
X82941Y-45007D01*
X83011Y-44937D01*
X83049Y-44845D01*
X83050Y-44745D01*
X83050Y-43958D01*
X83012Y-43867D01*
X82941Y-43796D01*
X82849Y-43758D01*
X82750Y-43758D01*
X82382Y-43758D01*
X81962Y-43337D01*
X81864Y-43272D01*
X81750Y-43250D01*
X83200Y-43250D01*
X83200Y-43249D01*
X83314Y-43227D01*
X83314Y-43227D01*
X83412Y-43162D01*
X85412Y-41162D01*
X85412Y-41162D01*
X85477Y-41064D01*
X85499Y-40950D01*
X85500Y-40950D01*
X85500Y-39250D01*
X85500Y-38301D01*
X85560Y-38241D01*
X85624Y-38084D01*
X85625Y-37915D01*
X85560Y-37759D01*
X85526Y-37725D01*
X85560Y-37691D01*
X85624Y-37534D01*
X85624Y-37474D01*
X85784Y-37475D01*
X85940Y-37410D01*
X86060Y-37291D01*
X86124Y-37134D01*
X86125Y-36965D01*
X86060Y-36809D01*
X85941Y-36689D01*
X85784Y-36625D01*
X85624Y-36624D01*
X85625Y-36515D01*
X85560Y-36359D01*
X85441Y-36239D01*
X85284Y-36175D01*
X85115Y-36174D01*
X84959Y-36239D01*
X84898Y-36300D01*
X84627Y-36300D01*
X84674Y-36184D01*
X84675Y-36099D01*
X85427Y-35347D01*
X86348Y-35347D01*
X86408Y-35407D01*
X86565Y-35472D01*
X86734Y-35472D01*
X86890Y-35407D01*
X87010Y-35288D01*
X87074Y-35132D01*
X87075Y-34963D01*
X87075Y-57730D01*
X81675Y-57730D01*
X81675Y-50465D01*
X81610Y-50309D01*
X81491Y-50189D01*
X81334Y-50125D01*
X81165Y-50124D01*
X81009Y-50189D01*
X80889Y-50308D01*
X80825Y-50465D01*
X80824Y-50550D01*
X80646Y-50729D01*
X80634Y-50725D01*
X80465Y-50724D01*
X80450Y-50731D01*
X80450Y-46176D01*
X80450Y-45648D01*
X80010Y-45648D01*
X79948Y-45734D01*
X80006Y-45942D01*
X80140Y-46112D01*
X80328Y-46218D01*
X80364Y-46224D01*
X80450Y-46176D01*
X80450Y-50731D01*
X80309Y-50789D01*
X80189Y-50908D01*
X80125Y-51065D01*
X80124Y-51234D01*
X80189Y-51390D01*
X80308Y-51510D01*
X80465Y-51574D01*
X80634Y-51575D01*
X80790Y-51510D01*
X80910Y-51391D01*
X80964Y-51259D01*
X81249Y-50974D01*
X81334Y-50975D01*
X81490Y-50910D01*
X81610Y-50791D01*
X81674Y-50634D01*
X81675Y-50465D01*
X81675Y-57730D01*
X78726Y-57730D01*
X78726Y-54853D01*
X78613Y-54580D01*
X78405Y-54371D01*
X78132Y-54258D01*
X77837Y-54257D01*
X77564Y-54370D01*
X77355Y-54579D01*
X77242Y-54851D01*
X77241Y-55146D01*
X77354Y-55419D01*
X77563Y-55628D01*
X77835Y-55741D01*
X78131Y-55742D01*
X78404Y-55629D01*
X78613Y-55420D01*
X78726Y-55148D01*
X78726Y-54853D01*
X78726Y-57730D01*
X76758Y-57730D01*
X76758Y-54853D01*
X76645Y-54580D01*
X76436Y-54371D01*
X76164Y-54258D01*
X75868Y-54257D01*
X75595Y-54370D01*
X75386Y-54579D01*
X75273Y-54851D01*
X75273Y-55146D01*
X75386Y-55419D01*
X75594Y-55628D01*
X75867Y-55741D01*
X76162Y-55742D01*
X76435Y-55629D01*
X76644Y-55420D01*
X76757Y-55148D01*
X76758Y-54853D01*
X76758Y-57730D01*
X74175Y-57730D01*
X74175Y-50415D01*
X74110Y-50259D01*
X73991Y-50139D01*
X73834Y-50075D01*
X73665Y-50074D01*
X73509Y-50139D01*
X73389Y-50258D01*
X73325Y-50415D01*
X73324Y-50584D01*
X73389Y-50740D01*
X73508Y-50860D01*
X73665Y-50924D01*
X73834Y-50925D01*
X73990Y-50860D01*
X74110Y-50741D01*
X74174Y-50584D01*
X74175Y-50415D01*
X74175Y-57730D01*
X65856Y-57730D01*
X65856Y-21127D01*
X65848Y-20832D01*
X65750Y-20596D01*
X65635Y-20545D01*
X65564Y-20616D01*
X65564Y-20475D01*
X65513Y-20359D01*
X65237Y-20254D01*
X64942Y-20262D01*
X64706Y-20359D01*
X64656Y-20475D01*
X65110Y-20929D01*
X65564Y-20475D01*
X65564Y-20616D01*
X65180Y-21000D01*
X65635Y-21454D01*
X65750Y-21403D01*
X65856Y-21127D01*
X65856Y-57730D01*
X65696Y-57730D01*
X65696Y-55000D01*
X65654Y-54789D01*
X65535Y-54611D01*
X65369Y-54500D01*
X65535Y-54388D01*
X65654Y-54210D01*
X65696Y-54000D01*
X65654Y-53789D01*
X65535Y-53611D01*
X65443Y-53550D01*
X65482Y-53550D01*
X65574Y-53512D01*
X65644Y-53441D01*
X65682Y-53349D01*
X65683Y-53250D01*
X65683Y-52650D01*
X65645Y-52558D01*
X65574Y-52488D01*
X65564Y-52483D01*
X65564Y-21524D01*
X65110Y-21070D01*
X65039Y-21141D01*
X65039Y-21000D01*
X64585Y-20545D01*
X64470Y-20596D01*
X64364Y-20872D01*
X64372Y-21167D01*
X64470Y-21403D01*
X64585Y-21454D01*
X65039Y-21000D01*
X65039Y-21141D01*
X64656Y-21524D01*
X64706Y-21640D01*
X64982Y-21745D01*
X65277Y-21737D01*
X65513Y-21640D01*
X65564Y-21524D01*
X65564Y-52483D01*
X65482Y-52450D01*
X65383Y-52449D01*
X65375Y-52449D01*
X65375Y-51300D01*
X65346Y-51156D01*
X65265Y-51034D01*
X62980Y-48750D01*
X62859Y-48669D01*
X62745Y-48646D01*
X62745Y-45017D01*
X62742Y-44884D01*
X62742Y-42774D01*
X62742Y-40805D01*
X62742Y-38837D01*
X62742Y-36868D01*
X62742Y-34900D01*
X62742Y-32931D01*
X62742Y-30963D01*
X62629Y-30690D01*
X62420Y-30481D01*
X62345Y-30450D01*
X62345Y-19733D01*
X62140Y-19239D01*
X61762Y-18860D01*
X61268Y-18655D01*
X60733Y-18654D01*
X60239Y-18859D01*
X59860Y-19237D01*
X59655Y-19731D01*
X59654Y-20266D01*
X59859Y-20760D01*
X60237Y-21139D01*
X60731Y-21344D01*
X61266Y-21345D01*
X61760Y-21140D01*
X62139Y-20762D01*
X62344Y-20268D01*
X62345Y-19733D01*
X62345Y-30450D01*
X62148Y-30368D01*
X61853Y-30367D01*
X61580Y-30480D01*
X61371Y-30689D01*
X61258Y-30961D01*
X61257Y-31257D01*
X61370Y-31530D01*
X61579Y-31739D01*
X61851Y-31852D01*
X62146Y-31852D01*
X62419Y-31739D01*
X62628Y-31531D01*
X62741Y-31258D01*
X62742Y-30963D01*
X62742Y-32931D01*
X62629Y-32658D01*
X62420Y-32449D01*
X62148Y-32336D01*
X61853Y-32336D01*
X61580Y-32449D01*
X61371Y-32657D01*
X61258Y-32930D01*
X61257Y-33225D01*
X61370Y-33498D01*
X61579Y-33707D01*
X61851Y-33820D01*
X62146Y-33820D01*
X62419Y-33708D01*
X62628Y-33499D01*
X62741Y-33227D01*
X62742Y-32931D01*
X62742Y-34900D01*
X62629Y-34627D01*
X62420Y-34418D01*
X62148Y-34305D01*
X61853Y-34304D01*
X61580Y-34417D01*
X61371Y-34626D01*
X61258Y-34898D01*
X61257Y-35194D01*
X61370Y-35467D01*
X61579Y-35676D01*
X61851Y-35789D01*
X62146Y-35789D01*
X62419Y-35676D01*
X62628Y-35468D01*
X62741Y-35195D01*
X62742Y-34900D01*
X62742Y-36868D01*
X62629Y-36595D01*
X62420Y-36386D01*
X62148Y-36273D01*
X61853Y-36273D01*
X61580Y-36386D01*
X61371Y-36594D01*
X61258Y-36867D01*
X61257Y-37162D01*
X61370Y-37435D01*
X61579Y-37644D01*
X61851Y-37757D01*
X62146Y-37758D01*
X62419Y-37645D01*
X62628Y-37436D01*
X62741Y-37164D01*
X62742Y-36868D01*
X62742Y-38837D01*
X62629Y-38564D01*
X62420Y-38355D01*
X62148Y-38242D01*
X61853Y-38241D01*
X61580Y-38354D01*
X61371Y-38563D01*
X61258Y-38835D01*
X61257Y-39131D01*
X61370Y-39404D01*
X61579Y-39613D01*
X61851Y-39726D01*
X62146Y-39726D01*
X62419Y-39613D01*
X62628Y-39405D01*
X62741Y-39132D01*
X62742Y-38837D01*
X62742Y-40805D01*
X62629Y-40532D01*
X62420Y-40323D01*
X62148Y-40210D01*
X61853Y-40210D01*
X61580Y-40323D01*
X61371Y-40531D01*
X61258Y-40804D01*
X61257Y-41099D01*
X61370Y-41372D01*
X61579Y-41581D01*
X61851Y-41694D01*
X62146Y-41695D01*
X62419Y-41582D01*
X62628Y-41373D01*
X62741Y-41101D01*
X62742Y-40805D01*
X62742Y-42774D01*
X62629Y-42501D01*
X62420Y-42292D01*
X62148Y-42179D01*
X61853Y-42179D01*
X61580Y-42291D01*
X61371Y-42500D01*
X61258Y-42772D01*
X61257Y-43068D01*
X61370Y-43341D01*
X61579Y-43550D01*
X61851Y-43663D01*
X62146Y-43663D01*
X62419Y-43550D01*
X62628Y-43342D01*
X62741Y-43069D01*
X62742Y-42774D01*
X62742Y-44884D01*
X62737Y-44722D01*
X62640Y-44486D01*
X62524Y-44435D01*
X62454Y-44506D01*
X62454Y-44364D01*
X62403Y-44249D01*
X62127Y-44143D01*
X61832Y-44151D01*
X61596Y-44249D01*
X61545Y-44364D01*
X62000Y-44819D01*
X62454Y-44364D01*
X62454Y-44506D01*
X62070Y-44889D01*
X62524Y-45343D01*
X62640Y-45293D01*
X62745Y-45017D01*
X62745Y-48646D01*
X62715Y-48640D01*
X62648Y-48640D01*
X62629Y-48595D01*
X62454Y-48420D01*
X62454Y-45414D01*
X62000Y-44960D01*
X61929Y-45031D01*
X61929Y-44889D01*
X61475Y-44435D01*
X61359Y-44486D01*
X61254Y-44762D01*
X61262Y-45057D01*
X61359Y-45293D01*
X61475Y-45343D01*
X61929Y-44889D01*
X61929Y-45031D01*
X61545Y-45414D01*
X61596Y-45529D01*
X61872Y-45635D01*
X62167Y-45627D01*
X62403Y-45529D01*
X62454Y-45414D01*
X62454Y-48420D01*
X62420Y-48386D01*
X62148Y-48273D01*
X61853Y-48273D01*
X61580Y-48386D01*
X61371Y-48594D01*
X61258Y-48867D01*
X61257Y-49162D01*
X61370Y-49435D01*
X61579Y-49644D01*
X61851Y-49757D01*
X62146Y-49758D01*
X62419Y-49645D01*
X62617Y-49447D01*
X64625Y-51455D01*
X64625Y-52449D01*
X64517Y-52449D01*
X64425Y-52487D01*
X64355Y-52558D01*
X64317Y-52650D01*
X64316Y-52749D01*
X64316Y-53349D01*
X64354Y-53441D01*
X64425Y-53511D01*
X64517Y-53549D01*
X64556Y-53549D01*
X64464Y-53611D01*
X64345Y-53789D01*
X64303Y-54000D01*
X64345Y-54210D01*
X64464Y-54388D01*
X64630Y-54500D01*
X64464Y-54611D01*
X64345Y-54789D01*
X64303Y-55000D01*
X64345Y-55210D01*
X64464Y-55388D01*
X64643Y-55508D01*
X64853Y-55550D01*
X65146Y-55550D01*
X65356Y-55508D01*
X65535Y-55388D01*
X65654Y-55210D01*
X65696Y-55000D01*
X65696Y-57730D01*
X62745Y-57730D01*
X62745Y-51111D01*
X62737Y-50816D01*
X62640Y-50580D01*
X62524Y-50530D01*
X62454Y-50600D01*
X62454Y-50459D01*
X62403Y-50344D01*
X62127Y-50238D01*
X61832Y-50246D01*
X61596Y-50344D01*
X61545Y-50459D01*
X62000Y-50913D01*
X62454Y-50459D01*
X62454Y-50600D01*
X62070Y-50984D01*
X62524Y-51438D01*
X62640Y-51387D01*
X62745Y-51111D01*
X62745Y-57730D01*
X62454Y-57730D01*
X62454Y-51509D01*
X62000Y-51054D01*
X61929Y-51125D01*
X61929Y-50984D01*
X61475Y-50530D01*
X61359Y-50580D01*
X61254Y-50856D01*
X61262Y-51151D01*
X61359Y-51387D01*
X61475Y-51438D01*
X61929Y-50984D01*
X61929Y-51125D01*
X61545Y-51509D01*
X61596Y-51624D01*
X61872Y-51730D01*
X62167Y-51722D01*
X62403Y-51624D01*
X62454Y-51509D01*
X62454Y-57730D01*
X62345Y-57730D01*
X62345Y-55733D01*
X62140Y-55239D01*
X61762Y-54860D01*
X61268Y-54655D01*
X60733Y-54654D01*
X60239Y-54859D01*
X59860Y-55237D01*
X59655Y-55731D01*
X59654Y-56266D01*
X59859Y-56760D01*
X60237Y-57139D01*
X60731Y-57344D01*
X61266Y-57345D01*
X61760Y-57140D01*
X62139Y-56762D01*
X62344Y-56268D01*
X62345Y-55733D01*
X62345Y-57730D01*
X59269Y-57730D01*
X59269Y-18269D01*
X103730Y-18269D01*
X103730Y-57730D01*
G54D10*
G36*
X150730Y-57730D02*
X150345Y-57730D01*
X150345Y-55733D01*
X150345Y-19733D01*
X150140Y-19239D01*
X149762Y-18860D01*
X149268Y-18655D01*
X148733Y-18654D01*
X148239Y-18859D01*
X147860Y-19237D01*
X147655Y-19731D01*
X147654Y-20266D01*
X147859Y-20760D01*
X148237Y-21139D01*
X148731Y-21344D01*
X149266Y-21345D01*
X149760Y-21140D01*
X150139Y-20762D01*
X150344Y-20268D01*
X150345Y-19733D01*
X150345Y-55733D01*
X150140Y-55239D01*
X149762Y-54860D01*
X149268Y-54655D01*
X148745Y-54654D01*
X148745Y-31237D01*
X148737Y-30942D01*
X148640Y-30706D01*
X148524Y-30656D01*
X148454Y-30726D01*
X148454Y-30585D01*
X148403Y-30470D01*
X148127Y-30364D01*
X147832Y-30372D01*
X147596Y-30470D01*
X147545Y-30585D01*
X148000Y-31039D01*
X148454Y-30585D01*
X148454Y-30726D01*
X148070Y-31110D01*
X148524Y-31564D01*
X148640Y-31513D01*
X148745Y-31237D01*
X148745Y-54654D01*
X148742Y-54654D01*
X148742Y-44742D01*
X148742Y-42774D01*
X148742Y-40805D01*
X148742Y-38837D01*
X148742Y-36868D01*
X148742Y-34900D01*
X148742Y-32931D01*
X148629Y-32658D01*
X148454Y-32483D01*
X148454Y-31635D01*
X148000Y-31180D01*
X147929Y-31251D01*
X147929Y-31110D01*
X147475Y-30656D01*
X147359Y-30706D01*
X147254Y-30982D01*
X147262Y-31277D01*
X147359Y-31513D01*
X147475Y-31564D01*
X147929Y-31110D01*
X147929Y-31251D01*
X147545Y-31635D01*
X147596Y-31750D01*
X147872Y-31856D01*
X148167Y-31848D01*
X148403Y-31750D01*
X148454Y-31635D01*
X148454Y-32483D01*
X148420Y-32449D01*
X148148Y-32336D01*
X147853Y-32336D01*
X147580Y-32449D01*
X147371Y-32657D01*
X147258Y-32930D01*
X147257Y-33225D01*
X147370Y-33498D01*
X147579Y-33707D01*
X147851Y-33820D01*
X148146Y-33820D01*
X148419Y-33708D01*
X148628Y-33499D01*
X148741Y-33227D01*
X148742Y-32931D01*
X148742Y-34900D01*
X148629Y-34627D01*
X148420Y-34418D01*
X148148Y-34305D01*
X147853Y-34304D01*
X147580Y-34417D01*
X147371Y-34626D01*
X147258Y-34898D01*
X147257Y-35194D01*
X147370Y-35467D01*
X147579Y-35676D01*
X147851Y-35789D01*
X148146Y-35789D01*
X148419Y-35676D01*
X148628Y-35468D01*
X148741Y-35195D01*
X148742Y-34900D01*
X148742Y-36868D01*
X148629Y-36595D01*
X148420Y-36386D01*
X148148Y-36273D01*
X147853Y-36273D01*
X147580Y-36386D01*
X147371Y-36594D01*
X147258Y-36867D01*
X147257Y-37162D01*
X147370Y-37435D01*
X147579Y-37644D01*
X147851Y-37757D01*
X148146Y-37758D01*
X148419Y-37645D01*
X148628Y-37436D01*
X148741Y-37164D01*
X148742Y-36868D01*
X148742Y-38837D01*
X148629Y-38564D01*
X148420Y-38355D01*
X148148Y-38242D01*
X147853Y-38241D01*
X147580Y-38354D01*
X147371Y-38563D01*
X147258Y-38835D01*
X147257Y-39131D01*
X147370Y-39404D01*
X147579Y-39613D01*
X147851Y-39726D01*
X148146Y-39726D01*
X148419Y-39613D01*
X148628Y-39405D01*
X148741Y-39132D01*
X148742Y-38837D01*
X148742Y-40805D01*
X148629Y-40532D01*
X148420Y-40323D01*
X148148Y-40210D01*
X147853Y-40210D01*
X147580Y-40323D01*
X147371Y-40531D01*
X147258Y-40804D01*
X147257Y-41099D01*
X147370Y-41372D01*
X147579Y-41581D01*
X147851Y-41694D01*
X148146Y-41695D01*
X148419Y-41582D01*
X148628Y-41373D01*
X148741Y-41101D01*
X148742Y-40805D01*
X148742Y-42774D01*
X148629Y-42501D01*
X148420Y-42292D01*
X148148Y-42179D01*
X147853Y-42179D01*
X147580Y-42291D01*
X147371Y-42500D01*
X147258Y-42772D01*
X147257Y-43068D01*
X147370Y-43341D01*
X147579Y-43550D01*
X147851Y-43663D01*
X148146Y-43663D01*
X148419Y-43550D01*
X148628Y-43342D01*
X148741Y-43069D01*
X148742Y-42774D01*
X148742Y-44742D01*
X148629Y-44469D01*
X148420Y-44260D01*
X148148Y-44147D01*
X147853Y-44147D01*
X147580Y-44260D01*
X147371Y-44468D01*
X147258Y-44741D01*
X147257Y-45036D01*
X147370Y-45309D01*
X147579Y-45518D01*
X147851Y-45631D01*
X148146Y-45632D01*
X148419Y-45519D01*
X148628Y-45310D01*
X148741Y-45038D01*
X148742Y-44742D01*
X148742Y-54654D01*
X148733Y-54654D01*
X148239Y-54859D01*
X147860Y-55237D01*
X147655Y-55731D01*
X147654Y-56266D01*
X147859Y-56760D01*
X148237Y-57139D01*
X148731Y-57344D01*
X149266Y-57345D01*
X149760Y-57140D01*
X150139Y-56762D01*
X150344Y-56268D01*
X150345Y-55733D01*
X150345Y-57730D01*
X147050Y-57730D01*
X147050Y-57050D01*
X147050Y-54950D01*
X144726Y-54950D01*
X144726Y-20853D01*
X144613Y-20580D01*
X144405Y-20371D01*
X144132Y-20258D01*
X143837Y-20257D01*
X143564Y-20370D01*
X143355Y-20579D01*
X143242Y-20851D01*
X143241Y-21146D01*
X143354Y-21419D01*
X143563Y-21628D01*
X143835Y-21741D01*
X144131Y-21742D01*
X144404Y-21629D01*
X144613Y-21420D01*
X144726Y-21148D01*
X144726Y-20853D01*
X144726Y-54950D01*
X142758Y-54950D01*
X142758Y-20853D01*
X142645Y-20580D01*
X142436Y-20371D01*
X142164Y-20258D01*
X141868Y-20257D01*
X141595Y-20370D01*
X141386Y-20579D01*
X141273Y-20851D01*
X141273Y-21146D01*
X141386Y-21419D01*
X141594Y-21628D01*
X141867Y-21741D01*
X142162Y-21742D01*
X142435Y-21629D01*
X142644Y-21420D01*
X142757Y-21148D01*
X142758Y-20853D01*
X142758Y-54950D01*
X141950Y-54950D01*
X141950Y-57050D01*
X147050Y-57050D01*
X147050Y-57730D01*
X138726Y-57730D01*
X138726Y-20853D01*
X138613Y-20580D01*
X138405Y-20371D01*
X138132Y-20258D01*
X137837Y-20257D01*
X137564Y-20370D01*
X137355Y-20579D01*
X137242Y-20851D01*
X137241Y-21146D01*
X137354Y-21419D01*
X137563Y-21628D01*
X137835Y-21741D01*
X138131Y-21742D01*
X138404Y-21629D01*
X138613Y-21420D01*
X138726Y-21148D01*
X138726Y-20853D01*
X138726Y-57730D01*
X136758Y-57730D01*
X136758Y-20853D01*
X136645Y-20580D01*
X136436Y-20371D01*
X136164Y-20258D01*
X135868Y-20257D01*
X135595Y-20370D01*
X135386Y-20579D01*
X135273Y-20851D01*
X135273Y-21146D01*
X135386Y-21419D01*
X135594Y-21628D01*
X135867Y-21741D01*
X136162Y-21742D01*
X136435Y-21629D01*
X136644Y-21420D01*
X136757Y-21148D01*
X136758Y-20853D01*
X136758Y-57730D01*
X134075Y-57730D01*
X134075Y-34963D01*
X134010Y-34806D01*
X133891Y-34687D01*
X133734Y-34622D01*
X133565Y-34622D01*
X133409Y-34686D01*
X133348Y-34747D01*
X132302Y-34747D01*
X132187Y-34770D01*
X132090Y-34835D01*
X131250Y-35675D01*
X131165Y-35674D01*
X131009Y-35739D01*
X130889Y-35858D01*
X130825Y-36015D01*
X130824Y-36184D01*
X130872Y-36300D01*
X130224Y-36300D01*
X132374Y-34150D01*
X133298Y-34150D01*
X133358Y-34210D01*
X133515Y-34274D01*
X133684Y-34275D01*
X133840Y-34210D01*
X133960Y-34091D01*
X134024Y-33934D01*
X134025Y-33765D01*
X133960Y-33609D01*
X133841Y-33489D01*
X133684Y-33425D01*
X133515Y-33424D01*
X133359Y-33489D01*
X133298Y-33550D01*
X133251Y-33550D01*
X133310Y-33491D01*
X133374Y-33334D01*
X133375Y-33165D01*
X133310Y-33009D01*
X133191Y-32889D01*
X133034Y-32825D01*
X132865Y-32824D01*
X132726Y-32882D01*
X132726Y-20853D01*
X132613Y-20580D01*
X132405Y-20371D01*
X132132Y-20258D01*
X131837Y-20257D01*
X131564Y-20370D01*
X131355Y-20579D01*
X131242Y-20851D01*
X131241Y-21146D01*
X131354Y-21419D01*
X131563Y-21628D01*
X131835Y-21741D01*
X132131Y-21742D01*
X132404Y-21629D01*
X132613Y-21420D01*
X132726Y-21148D01*
X132726Y-20853D01*
X132726Y-32882D01*
X132709Y-32889D01*
X132648Y-32950D01*
X132400Y-32950D01*
X132285Y-32972D01*
X132187Y-33037D01*
X131125Y-34100D01*
X131125Y-33465D01*
X131060Y-33309D01*
X130941Y-33189D01*
X130784Y-33125D01*
X130758Y-33125D01*
X130758Y-20853D01*
X130645Y-20580D01*
X130436Y-20371D01*
X130164Y-20258D01*
X129868Y-20257D01*
X129595Y-20370D01*
X129386Y-20579D01*
X129273Y-20851D01*
X129273Y-21146D01*
X129386Y-21419D01*
X129594Y-21628D01*
X129867Y-21741D01*
X130162Y-21742D01*
X130435Y-21629D01*
X130644Y-21420D01*
X130757Y-21148D01*
X130758Y-20853D01*
X130758Y-33125D01*
X130699Y-33124D01*
X129712Y-32137D01*
X129641Y-32090D01*
X129541Y-31989D01*
X129384Y-31925D01*
X129215Y-31924D01*
X129059Y-31989D01*
X128939Y-32108D01*
X128875Y-32265D01*
X128874Y-32375D01*
X128765Y-32374D01*
X128609Y-32439D01*
X128489Y-32558D01*
X128425Y-32715D01*
X128424Y-32884D01*
X128489Y-33040D01*
X128608Y-33160D01*
X128765Y-33224D01*
X128850Y-33225D01*
X129725Y-34099D01*
X129724Y-34184D01*
X129789Y-34340D01*
X129908Y-34460D01*
X130065Y-34524D01*
X130234Y-34525D01*
X130390Y-34460D01*
X130510Y-34341D01*
X130574Y-34184D01*
X130575Y-34015D01*
X130546Y-33946D01*
X130615Y-33974D01*
X130784Y-33975D01*
X130940Y-33910D01*
X131060Y-33791D01*
X131124Y-33634D01*
X131125Y-33465D01*
X131125Y-34100D01*
X130276Y-34948D01*
X130260Y-34909D01*
X130141Y-34789D01*
X129984Y-34725D01*
X129815Y-34724D01*
X129659Y-34789D01*
X129598Y-34850D01*
X126632Y-34850D01*
X126632Y-20853D01*
X126519Y-20580D01*
X126310Y-20371D01*
X126038Y-20258D01*
X125742Y-20257D01*
X125469Y-20370D01*
X125260Y-20579D01*
X125147Y-20851D01*
X125147Y-21146D01*
X125260Y-21419D01*
X125468Y-21628D01*
X125741Y-21741D01*
X126036Y-21742D01*
X126309Y-21629D01*
X126518Y-21420D01*
X126631Y-21148D01*
X126632Y-20853D01*
X126632Y-34850D01*
X126250Y-34850D01*
X126135Y-34872D01*
X126037Y-34937D01*
X125850Y-35125D01*
X125765Y-35124D01*
X125609Y-35189D01*
X125489Y-35308D01*
X125425Y-35465D01*
X125424Y-35634D01*
X125436Y-35662D01*
X125250Y-35475D01*
X125250Y-32101D01*
X125310Y-32041D01*
X125374Y-31884D01*
X125375Y-31715D01*
X125310Y-31559D01*
X125191Y-31439D01*
X125034Y-31375D01*
X124865Y-31374D01*
X124709Y-31439D01*
X124667Y-31481D01*
X124667Y-21127D01*
X124659Y-20832D01*
X124561Y-20596D01*
X124446Y-20545D01*
X124375Y-20616D01*
X124375Y-20475D01*
X124324Y-20359D01*
X124048Y-20254D01*
X123753Y-20262D01*
X123517Y-20359D01*
X123467Y-20475D01*
X123921Y-20929D01*
X124375Y-20475D01*
X124375Y-20616D01*
X123991Y-21000D01*
X124446Y-21454D01*
X124561Y-21403D01*
X124667Y-21127D01*
X124667Y-31481D01*
X124589Y-31558D01*
X124525Y-31715D01*
X124524Y-31884D01*
X124589Y-32040D01*
X124650Y-32101D01*
X124650Y-35600D01*
X124672Y-35714D01*
X124737Y-35812D01*
X126137Y-37212D01*
X126137Y-37212D01*
X126235Y-37277D01*
X126350Y-37300D01*
X127848Y-37300D01*
X127887Y-37338D01*
X127500Y-37725D01*
X127415Y-37724D01*
X127259Y-37789D01*
X127139Y-37908D01*
X127075Y-38065D01*
X127074Y-38234D01*
X127133Y-38375D01*
X127075Y-38515D01*
X127074Y-38684D01*
X127139Y-38840D01*
X127258Y-38960D01*
X127415Y-39024D01*
X127550Y-39025D01*
X126825Y-39750D01*
X125701Y-39750D01*
X125641Y-39689D01*
X125525Y-39641D01*
X125525Y-36865D01*
X125460Y-36709D01*
X125341Y-36589D01*
X125184Y-36525D01*
X125099Y-36524D01*
X124375Y-35801D01*
X124375Y-21524D01*
X123921Y-21070D01*
X123850Y-21141D01*
X123850Y-21000D01*
X123396Y-20545D01*
X123281Y-20596D01*
X123175Y-20872D01*
X123183Y-21167D01*
X123281Y-21403D01*
X123396Y-21454D01*
X123850Y-21000D01*
X123850Y-21141D01*
X123467Y-21524D01*
X123517Y-21640D01*
X123793Y-21745D01*
X124088Y-21737D01*
X124324Y-21640D01*
X124375Y-21524D01*
X124375Y-35801D01*
X122695Y-34120D01*
X122695Y-20853D01*
X122582Y-20580D01*
X122373Y-20371D01*
X122101Y-20258D01*
X121805Y-20257D01*
X121532Y-20370D01*
X121323Y-20579D01*
X121210Y-20851D01*
X121210Y-21146D01*
X121323Y-21419D01*
X121531Y-21628D01*
X121804Y-21741D01*
X122099Y-21742D01*
X122372Y-21629D01*
X122581Y-21420D01*
X122694Y-21148D01*
X122695Y-20853D01*
X122695Y-34120D01*
X122524Y-33950D01*
X122525Y-33865D01*
X122460Y-33709D01*
X122341Y-33589D01*
X122184Y-33525D01*
X122015Y-33524D01*
X121859Y-33589D01*
X121739Y-33708D01*
X121675Y-33865D01*
X121674Y-34034D01*
X121721Y-34147D01*
X121524Y-33950D01*
X121525Y-33865D01*
X121460Y-33709D01*
X121341Y-33589D01*
X121184Y-33525D01*
X121015Y-33524D01*
X120859Y-33589D01*
X120739Y-33708D01*
X120726Y-33741D01*
X120726Y-20853D01*
X120613Y-20580D01*
X120405Y-20371D01*
X120132Y-20258D01*
X119837Y-20257D01*
X119564Y-20370D01*
X119355Y-20579D01*
X119242Y-20851D01*
X119241Y-21146D01*
X119354Y-21419D01*
X119563Y-21628D01*
X119835Y-21741D01*
X120131Y-21742D01*
X120404Y-21629D01*
X120613Y-21420D01*
X120726Y-21148D01*
X120726Y-20853D01*
X120726Y-33741D01*
X120675Y-33865D01*
X120674Y-34034D01*
X120739Y-34190D01*
X120858Y-34310D01*
X121015Y-34374D01*
X121100Y-34375D01*
X123975Y-37249D01*
X123974Y-37334D01*
X124039Y-37490D01*
X124158Y-37610D01*
X124315Y-37674D01*
X124484Y-37675D01*
X124640Y-37610D01*
X124760Y-37491D01*
X124824Y-37334D01*
X124824Y-37276D01*
X124858Y-37310D01*
X125015Y-37374D01*
X125184Y-37375D01*
X125340Y-37310D01*
X125460Y-37191D01*
X125524Y-37034D01*
X125525Y-36865D01*
X125525Y-39641D01*
X125484Y-39625D01*
X125315Y-39624D01*
X125159Y-39689D01*
X125039Y-39808D01*
X124975Y-39965D01*
X124974Y-40134D01*
X125039Y-40290D01*
X125073Y-40324D01*
X125039Y-40358D01*
X124975Y-40515D01*
X124974Y-40684D01*
X125039Y-40840D01*
X125158Y-40960D01*
X125315Y-41024D01*
X125484Y-41025D01*
X125640Y-40960D01*
X125701Y-40900D01*
X126398Y-40900D01*
X126458Y-40960D01*
X126615Y-41024D01*
X126784Y-41025D01*
X126940Y-40960D01*
X127060Y-40841D01*
X127124Y-40684D01*
X127125Y-40515D01*
X127060Y-40359D01*
X127034Y-40333D01*
X127064Y-40327D01*
X127064Y-40327D01*
X127162Y-40262D01*
X127999Y-39424D01*
X128084Y-39425D01*
X128240Y-39360D01*
X128360Y-39241D01*
X128424Y-39084D01*
X128425Y-38915D01*
X128418Y-38900D01*
X128950Y-38900D01*
X128950Y-38899D01*
X129064Y-38877D01*
X129064Y-38877D01*
X129162Y-38812D01*
X130224Y-37750D01*
X131848Y-37750D01*
X131839Y-37758D01*
X131775Y-37915D01*
X131774Y-38084D01*
X131839Y-38240D01*
X131900Y-38301D01*
X131900Y-39250D01*
X131900Y-40825D01*
X130075Y-42650D01*
X128897Y-42650D01*
X128924Y-42584D01*
X128925Y-42499D01*
X131162Y-40262D01*
X131162Y-40262D01*
X131162Y-40262D01*
X131562Y-39862D01*
X131562Y-39862D01*
X131627Y-39764D01*
X131649Y-39650D01*
X131650Y-39650D01*
X131650Y-38851D01*
X131710Y-38791D01*
X131774Y-38634D01*
X131775Y-38465D01*
X131710Y-38309D01*
X131591Y-38189D01*
X131434Y-38125D01*
X131265Y-38124D01*
X131109Y-38189D01*
X130989Y-38308D01*
X130925Y-38465D01*
X130924Y-38634D01*
X130989Y-38790D01*
X131050Y-38851D01*
X131050Y-39525D01*
X130737Y-39837D01*
X130737Y-39837D01*
X128500Y-42075D01*
X128415Y-42074D01*
X128259Y-42139D01*
X128139Y-42258D01*
X128075Y-42415D01*
X128074Y-42584D01*
X128102Y-42650D01*
X127074Y-42650D01*
X127699Y-42024D01*
X127784Y-42025D01*
X127940Y-41960D01*
X128060Y-41841D01*
X128124Y-41684D01*
X128125Y-41515D01*
X128060Y-41359D01*
X127941Y-41239D01*
X127784Y-41175D01*
X127615Y-41174D01*
X127459Y-41239D01*
X127339Y-41358D01*
X127275Y-41515D01*
X127274Y-41600D01*
X118825Y-50050D01*
X117450Y-50050D01*
X117400Y-50050D01*
X116100Y-50050D01*
X116128Y-49980D01*
X116129Y-49811D01*
X116064Y-49655D01*
X116004Y-49594D01*
X116004Y-46470D01*
X121624Y-40849D01*
X121709Y-40850D01*
X121865Y-40785D01*
X121985Y-40666D01*
X122049Y-40509D01*
X122050Y-40340D01*
X121985Y-40184D01*
X121866Y-40064D01*
X121709Y-40000D01*
X121540Y-39999D01*
X121384Y-40064D01*
X121264Y-40183D01*
X121200Y-40340D01*
X121199Y-40425D01*
X118758Y-42867D01*
X118758Y-20853D01*
X118645Y-20580D01*
X118436Y-20371D01*
X118164Y-20258D01*
X117868Y-20257D01*
X117595Y-20370D01*
X117386Y-20579D01*
X117273Y-20851D01*
X117273Y-21146D01*
X117386Y-21419D01*
X117594Y-21628D01*
X117867Y-21741D01*
X118162Y-21742D01*
X118435Y-21629D01*
X118644Y-21420D01*
X118757Y-21148D01*
X118758Y-20853D01*
X118758Y-42867D01*
X116789Y-44836D01*
X116789Y-20853D01*
X116676Y-20580D01*
X116468Y-20371D01*
X116195Y-20258D01*
X115900Y-20257D01*
X115627Y-20370D01*
X115418Y-20579D01*
X115305Y-20851D01*
X115304Y-21146D01*
X115417Y-21419D01*
X115626Y-21628D01*
X115898Y-21741D01*
X116194Y-21742D01*
X116467Y-21629D01*
X116676Y-21420D01*
X116789Y-21148D01*
X116789Y-20853D01*
X116789Y-44836D01*
X115607Y-46018D01*
X115585Y-46022D01*
X115487Y-46087D01*
X115422Y-46185D01*
X115400Y-46300D01*
X115404Y-46320D01*
X115404Y-46346D01*
X115404Y-49594D01*
X115343Y-49654D01*
X115279Y-49811D01*
X115278Y-49980D01*
X115307Y-50050D01*
X114820Y-50050D01*
X114820Y-20853D01*
X114708Y-20580D01*
X114499Y-20371D01*
X114227Y-20258D01*
X113931Y-20257D01*
X113658Y-20370D01*
X113449Y-20579D01*
X113336Y-20851D01*
X113336Y-21146D01*
X113449Y-21419D01*
X113657Y-21628D01*
X113930Y-21741D01*
X114225Y-21742D01*
X114498Y-21629D01*
X114707Y-21420D01*
X114820Y-21148D01*
X114820Y-20853D01*
X114820Y-50050D01*
X114624Y-50050D01*
X114424Y-49850D01*
X114425Y-49765D01*
X114360Y-49609D01*
X114241Y-49489D01*
X114084Y-49425D01*
X113915Y-49424D01*
X113759Y-49489D01*
X113639Y-49608D01*
X113575Y-49765D01*
X113574Y-49934D01*
X113639Y-50090D01*
X113758Y-50210D01*
X113915Y-50274D01*
X114000Y-50275D01*
X114197Y-50471D01*
X114084Y-50425D01*
X113915Y-50424D01*
X113759Y-50489D01*
X113639Y-50608D01*
X113575Y-50765D01*
X113574Y-50934D01*
X113639Y-51090D01*
X113758Y-51210D01*
X113915Y-51274D01*
X114084Y-51275D01*
X114240Y-51210D01*
X114301Y-51150D01*
X117450Y-51150D01*
X119000Y-51150D01*
X119000Y-51149D01*
X119114Y-51127D01*
X119114Y-51127D01*
X119212Y-51062D01*
X127024Y-43250D01*
X127448Y-43250D01*
X127389Y-43308D01*
X127325Y-43465D01*
X127324Y-43634D01*
X127380Y-43769D01*
X127289Y-43787D01*
X127111Y-43906D01*
X126991Y-44085D01*
X126950Y-44295D01*
X126950Y-44508D01*
X126991Y-44718D01*
X127111Y-44897D01*
X127276Y-45007D01*
X127140Y-45083D01*
X127006Y-45253D01*
X126948Y-45461D01*
X127010Y-45548D01*
X127450Y-45548D01*
X127450Y-45540D01*
X127550Y-45540D01*
X127550Y-45548D01*
X127557Y-45548D01*
X127557Y-45648D01*
X127550Y-45648D01*
X127550Y-46176D01*
X127635Y-46224D01*
X127671Y-46218D01*
X127859Y-46112D01*
X127993Y-45942D01*
X127998Y-45924D01*
X128111Y-46093D01*
X128289Y-46212D01*
X128500Y-46254D01*
X128710Y-46212D01*
X128888Y-46093D01*
X129000Y-45926D01*
X129111Y-46093D01*
X129289Y-46212D01*
X129500Y-46254D01*
X129710Y-46212D01*
X129756Y-46181D01*
X129937Y-46362D01*
X129937Y-46362D01*
X130035Y-46427D01*
X130150Y-46450D01*
X130798Y-46450D01*
X130858Y-46510D01*
X131015Y-46574D01*
X131184Y-46575D01*
X131340Y-46510D01*
X131460Y-46391D01*
X131524Y-46234D01*
X131525Y-46065D01*
X131460Y-45909D01*
X131341Y-45789D01*
X131184Y-45725D01*
X131015Y-45724D01*
X130859Y-45789D01*
X130798Y-45850D01*
X130274Y-45850D01*
X130050Y-45625D01*
X130050Y-45491D01*
X130008Y-45281D01*
X129888Y-45102D01*
X129802Y-45045D01*
X129849Y-45045D01*
X129941Y-45007D01*
X130011Y-44937D01*
X130049Y-44845D01*
X130050Y-44745D01*
X130050Y-43958D01*
X130012Y-43867D01*
X129941Y-43796D01*
X129849Y-43758D01*
X129750Y-43758D01*
X129382Y-43758D01*
X128962Y-43337D01*
X128864Y-43272D01*
X128750Y-43250D01*
X130200Y-43250D01*
X130200Y-43249D01*
X130314Y-43227D01*
X130314Y-43227D01*
X130412Y-43162D01*
X132412Y-41162D01*
X132412Y-41162D01*
X132477Y-41064D01*
X132499Y-40950D01*
X132500Y-40950D01*
X132500Y-39250D01*
X132500Y-38301D01*
X132560Y-38241D01*
X132624Y-38084D01*
X132625Y-37915D01*
X132560Y-37759D01*
X132526Y-37725D01*
X132560Y-37691D01*
X132624Y-37534D01*
X132624Y-37474D01*
X132784Y-37475D01*
X132940Y-37410D01*
X133060Y-37291D01*
X133124Y-37134D01*
X133125Y-36965D01*
X133060Y-36809D01*
X132941Y-36689D01*
X132784Y-36625D01*
X132624Y-36624D01*
X132625Y-36515D01*
X132560Y-36359D01*
X132441Y-36239D01*
X132284Y-36175D01*
X132115Y-36174D01*
X131959Y-36239D01*
X131898Y-36300D01*
X131627Y-36300D01*
X131674Y-36184D01*
X131675Y-36099D01*
X132427Y-35347D01*
X133348Y-35347D01*
X133408Y-35407D01*
X133565Y-35472D01*
X133734Y-35472D01*
X133890Y-35407D01*
X134010Y-35288D01*
X134074Y-35132D01*
X134075Y-34963D01*
X134075Y-57730D01*
X128675Y-57730D01*
X128675Y-50465D01*
X128610Y-50309D01*
X128491Y-50189D01*
X128334Y-50125D01*
X128165Y-50124D01*
X128009Y-50189D01*
X127889Y-50308D01*
X127825Y-50465D01*
X127824Y-50550D01*
X127646Y-50729D01*
X127634Y-50725D01*
X127465Y-50724D01*
X127450Y-50731D01*
X127450Y-46176D01*
X127450Y-45648D01*
X127010Y-45648D01*
X126948Y-45734D01*
X127006Y-45942D01*
X127140Y-46112D01*
X127328Y-46218D01*
X127364Y-46224D01*
X127450Y-46176D01*
X127450Y-50731D01*
X127309Y-50789D01*
X127189Y-50908D01*
X127125Y-51065D01*
X127124Y-51234D01*
X127189Y-51390D01*
X127308Y-51510D01*
X127465Y-51574D01*
X127634Y-51575D01*
X127790Y-51510D01*
X127910Y-51391D01*
X127964Y-51259D01*
X128249Y-50974D01*
X128334Y-50975D01*
X128490Y-50910D01*
X128610Y-50791D01*
X128674Y-50634D01*
X128675Y-50465D01*
X128675Y-57730D01*
X125726Y-57730D01*
X125726Y-54853D01*
X125613Y-54580D01*
X125405Y-54371D01*
X125132Y-54258D01*
X124837Y-54257D01*
X124564Y-54370D01*
X124355Y-54579D01*
X124242Y-54851D01*
X124241Y-55146D01*
X124354Y-55419D01*
X124563Y-55628D01*
X124835Y-55741D01*
X125131Y-55742D01*
X125404Y-55629D01*
X125613Y-55420D01*
X125726Y-55148D01*
X125726Y-54853D01*
X125726Y-57730D01*
X123758Y-57730D01*
X123758Y-54853D01*
X123645Y-54580D01*
X123436Y-54371D01*
X123164Y-54258D01*
X122868Y-54257D01*
X122595Y-54370D01*
X122386Y-54579D01*
X122273Y-54851D01*
X122273Y-55146D01*
X122386Y-55419D01*
X122594Y-55628D01*
X122867Y-55741D01*
X123162Y-55742D01*
X123435Y-55629D01*
X123644Y-55420D01*
X123757Y-55148D01*
X123758Y-54853D01*
X123758Y-57730D01*
X121175Y-57730D01*
X121175Y-50415D01*
X121110Y-50259D01*
X120991Y-50139D01*
X120834Y-50075D01*
X120665Y-50074D01*
X120509Y-50139D01*
X120389Y-50258D01*
X120325Y-50415D01*
X120324Y-50584D01*
X120389Y-50740D01*
X120508Y-50860D01*
X120665Y-50924D01*
X120834Y-50925D01*
X120990Y-50860D01*
X121110Y-50741D01*
X121174Y-50584D01*
X121175Y-50415D01*
X121175Y-57730D01*
X112856Y-57730D01*
X112856Y-21127D01*
X112848Y-20832D01*
X112750Y-20596D01*
X112635Y-20545D01*
X112564Y-20616D01*
X112564Y-20475D01*
X112513Y-20359D01*
X112237Y-20254D01*
X111942Y-20262D01*
X111706Y-20359D01*
X111656Y-20475D01*
X112110Y-20929D01*
X112564Y-20475D01*
X112564Y-20616D01*
X112180Y-21000D01*
X112635Y-21454D01*
X112750Y-21403D01*
X112856Y-21127D01*
X112856Y-57730D01*
X112696Y-57730D01*
X112696Y-55000D01*
X112654Y-54789D01*
X112535Y-54611D01*
X112369Y-54500D01*
X112535Y-54388D01*
X112654Y-54210D01*
X112696Y-54000D01*
X112654Y-53789D01*
X112535Y-53611D01*
X112443Y-53550D01*
X112482Y-53550D01*
X112574Y-53512D01*
X112644Y-53441D01*
X112682Y-53349D01*
X112683Y-53250D01*
X112683Y-52650D01*
X112645Y-52558D01*
X112574Y-52488D01*
X112564Y-52483D01*
X112564Y-21524D01*
X112110Y-21070D01*
X112039Y-21141D01*
X112039Y-21000D01*
X111585Y-20545D01*
X111470Y-20596D01*
X111364Y-20872D01*
X111372Y-21167D01*
X111470Y-21403D01*
X111585Y-21454D01*
X112039Y-21000D01*
X112039Y-21141D01*
X111656Y-21524D01*
X111706Y-21640D01*
X111982Y-21745D01*
X112277Y-21737D01*
X112513Y-21640D01*
X112564Y-21524D01*
X112564Y-52483D01*
X112482Y-52450D01*
X112383Y-52449D01*
X112375Y-52449D01*
X112375Y-51300D01*
X112346Y-51156D01*
X112265Y-51034D01*
X109980Y-48750D01*
X109859Y-48669D01*
X109745Y-48646D01*
X109745Y-45017D01*
X109742Y-44884D01*
X109742Y-42774D01*
X109742Y-40805D01*
X109742Y-38837D01*
X109742Y-36868D01*
X109742Y-34900D01*
X109742Y-32931D01*
X109742Y-30963D01*
X109629Y-30690D01*
X109420Y-30481D01*
X109345Y-30450D01*
X109345Y-19733D01*
X109140Y-19239D01*
X108762Y-18860D01*
X108268Y-18655D01*
X107733Y-18654D01*
X107239Y-18859D01*
X106860Y-19237D01*
X106655Y-19731D01*
X106654Y-20266D01*
X106859Y-20760D01*
X107237Y-21139D01*
X107731Y-21344D01*
X108266Y-21345D01*
X108760Y-21140D01*
X109139Y-20762D01*
X109344Y-20268D01*
X109345Y-19733D01*
X109345Y-30450D01*
X109148Y-30368D01*
X108853Y-30367D01*
X108580Y-30480D01*
X108371Y-30689D01*
X108258Y-30961D01*
X108257Y-31257D01*
X108370Y-31530D01*
X108579Y-31739D01*
X108851Y-31852D01*
X109146Y-31852D01*
X109419Y-31739D01*
X109628Y-31531D01*
X109741Y-31258D01*
X109742Y-30963D01*
X109742Y-32931D01*
X109629Y-32658D01*
X109420Y-32449D01*
X109148Y-32336D01*
X108853Y-32336D01*
X108580Y-32449D01*
X108371Y-32657D01*
X108258Y-32930D01*
X108257Y-33225D01*
X108370Y-33498D01*
X108579Y-33707D01*
X108851Y-33820D01*
X109146Y-33820D01*
X109419Y-33708D01*
X109628Y-33499D01*
X109741Y-33227D01*
X109742Y-32931D01*
X109742Y-34900D01*
X109629Y-34627D01*
X109420Y-34418D01*
X109148Y-34305D01*
X108853Y-34304D01*
X108580Y-34417D01*
X108371Y-34626D01*
X108258Y-34898D01*
X108257Y-35194D01*
X108370Y-35467D01*
X108579Y-35676D01*
X108851Y-35789D01*
X109146Y-35789D01*
X109419Y-35676D01*
X109628Y-35468D01*
X109741Y-35195D01*
X109742Y-34900D01*
X109742Y-36868D01*
X109629Y-36595D01*
X109420Y-36386D01*
X109148Y-36273D01*
X108853Y-36273D01*
X108580Y-36386D01*
X108371Y-36594D01*
X108258Y-36867D01*
X108257Y-37162D01*
X108370Y-37435D01*
X108579Y-37644D01*
X108851Y-37757D01*
X109146Y-37758D01*
X109419Y-37645D01*
X109628Y-37436D01*
X109741Y-37164D01*
X109742Y-36868D01*
X109742Y-38837D01*
X109629Y-38564D01*
X109420Y-38355D01*
X109148Y-38242D01*
X108853Y-38241D01*
X108580Y-38354D01*
X108371Y-38563D01*
X108258Y-38835D01*
X108257Y-39131D01*
X108370Y-39404D01*
X108579Y-39613D01*
X108851Y-39726D01*
X109146Y-39726D01*
X109419Y-39613D01*
X109628Y-39405D01*
X109741Y-39132D01*
X109742Y-38837D01*
X109742Y-40805D01*
X109629Y-40532D01*
X109420Y-40323D01*
X109148Y-40210D01*
X108853Y-40210D01*
X108580Y-40323D01*
X108371Y-40531D01*
X108258Y-40804D01*
X108257Y-41099D01*
X108370Y-41372D01*
X108579Y-41581D01*
X108851Y-41694D01*
X109146Y-41695D01*
X109419Y-41582D01*
X109628Y-41373D01*
X109741Y-41101D01*
X109742Y-40805D01*
X109742Y-42774D01*
X109629Y-42501D01*
X109420Y-42292D01*
X109148Y-42179D01*
X108853Y-42179D01*
X108580Y-42291D01*
X108371Y-42500D01*
X108258Y-42772D01*
X108257Y-43068D01*
X108370Y-43341D01*
X108579Y-43550D01*
X108851Y-43663D01*
X109146Y-43663D01*
X109419Y-43550D01*
X109628Y-43342D01*
X109741Y-43069D01*
X109742Y-42774D01*
X109742Y-44884D01*
X109737Y-44722D01*
X109640Y-44486D01*
X109524Y-44435D01*
X109454Y-44506D01*
X109454Y-44364D01*
X109403Y-44249D01*
X109127Y-44143D01*
X108832Y-44151D01*
X108596Y-44249D01*
X108545Y-44364D01*
X109000Y-44819D01*
X109454Y-44364D01*
X109454Y-44506D01*
X109070Y-44889D01*
X109524Y-45343D01*
X109640Y-45293D01*
X109745Y-45017D01*
X109745Y-48646D01*
X109715Y-48640D01*
X109648Y-48640D01*
X109629Y-48595D01*
X109454Y-48420D01*
X109454Y-45414D01*
X109000Y-44960D01*
X108929Y-45031D01*
X108929Y-44889D01*
X108475Y-44435D01*
X108359Y-44486D01*
X108254Y-44762D01*
X108262Y-45057D01*
X108359Y-45293D01*
X108475Y-45343D01*
X108929Y-44889D01*
X108929Y-45031D01*
X108545Y-45414D01*
X108596Y-45529D01*
X108872Y-45635D01*
X109167Y-45627D01*
X109403Y-45529D01*
X109454Y-45414D01*
X109454Y-48420D01*
X109420Y-48386D01*
X109148Y-48273D01*
X108853Y-48273D01*
X108580Y-48386D01*
X108371Y-48594D01*
X108258Y-48867D01*
X108257Y-49162D01*
X108370Y-49435D01*
X108579Y-49644D01*
X108851Y-49757D01*
X109146Y-49758D01*
X109419Y-49645D01*
X109617Y-49447D01*
X111625Y-51455D01*
X111625Y-52449D01*
X111517Y-52449D01*
X111425Y-52487D01*
X111355Y-52558D01*
X111317Y-52650D01*
X111316Y-52749D01*
X111316Y-53349D01*
X111354Y-53441D01*
X111425Y-53511D01*
X111517Y-53549D01*
X111556Y-53549D01*
X111464Y-53611D01*
X111345Y-53789D01*
X111303Y-54000D01*
X111345Y-54210D01*
X111464Y-54388D01*
X111630Y-54500D01*
X111464Y-54611D01*
X111345Y-54789D01*
X111303Y-55000D01*
X111345Y-55210D01*
X111464Y-55388D01*
X111643Y-55508D01*
X111853Y-55550D01*
X112146Y-55550D01*
X112356Y-55508D01*
X112535Y-55388D01*
X112654Y-55210D01*
X112696Y-55000D01*
X112696Y-57730D01*
X109745Y-57730D01*
X109745Y-51111D01*
X109737Y-50816D01*
X109640Y-50580D01*
X109524Y-50530D01*
X109454Y-50600D01*
X109454Y-50459D01*
X109403Y-50344D01*
X109127Y-50238D01*
X108832Y-50246D01*
X108596Y-50344D01*
X108545Y-50459D01*
X109000Y-50913D01*
X109454Y-50459D01*
X109454Y-50600D01*
X109070Y-50984D01*
X109524Y-51438D01*
X109640Y-51387D01*
X109745Y-51111D01*
X109745Y-57730D01*
X109454Y-57730D01*
X109454Y-51509D01*
X109000Y-51054D01*
X108929Y-51125D01*
X108929Y-50984D01*
X108475Y-50530D01*
X108359Y-50580D01*
X108254Y-50856D01*
X108262Y-51151D01*
X108359Y-51387D01*
X108475Y-51438D01*
X108929Y-50984D01*
X108929Y-51125D01*
X108545Y-51509D01*
X108596Y-51624D01*
X108872Y-51730D01*
X109167Y-51722D01*
X109403Y-51624D01*
X109454Y-51509D01*
X109454Y-57730D01*
X109345Y-57730D01*
X109345Y-55733D01*
X109140Y-55239D01*
X108762Y-54860D01*
X108268Y-54655D01*
X107733Y-54654D01*
X107239Y-54859D01*
X106860Y-55237D01*
X106655Y-55731D01*
X106654Y-56266D01*
X106859Y-56760D01*
X107237Y-57139D01*
X107731Y-57344D01*
X108266Y-57345D01*
X108760Y-57140D01*
X109139Y-56762D01*
X109344Y-56268D01*
X109345Y-55733D01*
X109345Y-57730D01*
X106269Y-57730D01*
X106269Y-18269D01*
X150730Y-18269D01*
X150730Y-57730D01*
X150730Y-57730D01*
G37*
G54D20*
X150730Y-57730D02*
X150345Y-57730D01*
X150345Y-55733D01*
X150345Y-19733D01*
X150140Y-19239D01*
X149762Y-18860D01*
X149268Y-18655D01*
X148733Y-18654D01*
X148239Y-18859D01*
X147860Y-19237D01*
X147655Y-19731D01*
X147654Y-20266D01*
X147859Y-20760D01*
X148237Y-21139D01*
X148731Y-21344D01*
X149266Y-21345D01*
X149760Y-21140D01*
X150139Y-20762D01*
X150344Y-20268D01*
X150345Y-19733D01*
X150345Y-55733D01*
X150140Y-55239D01*
X149762Y-54860D01*
X149268Y-54655D01*
X148745Y-54654D01*
X148745Y-31237D01*
X148737Y-30942D01*
X148640Y-30706D01*
X148524Y-30656D01*
X148454Y-30726D01*
X148454Y-30585D01*
X148403Y-30470D01*
X148127Y-30364D01*
X147832Y-30372D01*
X147596Y-30470D01*
X147545Y-30585D01*
X148000Y-31039D01*
X148454Y-30585D01*
X148454Y-30726D01*
X148070Y-31110D01*
X148524Y-31564D01*
X148640Y-31513D01*
X148745Y-31237D01*
X148745Y-54654D01*
X148742Y-54654D01*
X148742Y-44742D01*
X148742Y-42774D01*
X148742Y-40805D01*
X148742Y-38837D01*
X148742Y-36868D01*
X148742Y-34900D01*
X148742Y-32931D01*
X148629Y-32658D01*
X148454Y-32483D01*
X148454Y-31635D01*
X148000Y-31180D01*
X147929Y-31251D01*
X147929Y-31110D01*
X147475Y-30656D01*
X147359Y-30706D01*
X147254Y-30982D01*
X147262Y-31277D01*
X147359Y-31513D01*
X147475Y-31564D01*
X147929Y-31110D01*
X147929Y-31251D01*
X147545Y-31635D01*
X147596Y-31750D01*
X147872Y-31856D01*
X148167Y-31848D01*
X148403Y-31750D01*
X148454Y-31635D01*
X148454Y-32483D01*
X148420Y-32449D01*
X148148Y-32336D01*
X147853Y-32336D01*
X147580Y-32449D01*
X147371Y-32657D01*
X147258Y-32930D01*
X147257Y-33225D01*
X147370Y-33498D01*
X147579Y-33707D01*
X147851Y-33820D01*
X148146Y-33820D01*
X148419Y-33708D01*
X148628Y-33499D01*
X148741Y-33227D01*
X148742Y-32931D01*
X148742Y-34900D01*
X148629Y-34627D01*
X148420Y-34418D01*
X148148Y-34305D01*
X147853Y-34304D01*
X147580Y-34417D01*
X147371Y-34626D01*
X147258Y-34898D01*
X147257Y-35194D01*
X147370Y-35467D01*
X147579Y-35676D01*
X147851Y-35789D01*
X148146Y-35789D01*
X148419Y-35676D01*
X148628Y-35468D01*
X148741Y-35195D01*
X148742Y-34900D01*
X148742Y-36868D01*
X148629Y-36595D01*
X148420Y-36386D01*
X148148Y-36273D01*
X147853Y-36273D01*
X147580Y-36386D01*
X147371Y-36594D01*
X147258Y-36867D01*
X147257Y-37162D01*
X147370Y-37435D01*
X147579Y-37644D01*
X147851Y-37757D01*
X148146Y-37758D01*
X148419Y-37645D01*
X148628Y-37436D01*
X148741Y-37164D01*
X148742Y-36868D01*
X148742Y-38837D01*
X148629Y-38564D01*
X148420Y-38355D01*
X148148Y-38242D01*
X147853Y-38241D01*
X147580Y-38354D01*
X147371Y-38563D01*
X147258Y-38835D01*
X147257Y-39131D01*
X147370Y-39404D01*
X147579Y-39613D01*
X147851Y-39726D01*
X148146Y-39726D01*
X148419Y-39613D01*
X148628Y-39405D01*
X148741Y-39132D01*
X148742Y-38837D01*
X148742Y-40805D01*
X148629Y-40532D01*
X148420Y-40323D01*
X148148Y-40210D01*
X147853Y-40210D01*
X147580Y-40323D01*
X147371Y-40531D01*
X147258Y-40804D01*
X147257Y-41099D01*
X147370Y-41372D01*
X147579Y-41581D01*
X147851Y-41694D01*
X148146Y-41695D01*
X148419Y-41582D01*
X148628Y-41373D01*
X148741Y-41101D01*
X148742Y-40805D01*
X148742Y-42774D01*
X148629Y-42501D01*
X148420Y-42292D01*
X148148Y-42179D01*
X147853Y-42179D01*
X147580Y-42291D01*
X147371Y-42500D01*
X147258Y-42772D01*
X147257Y-43068D01*
X147370Y-43341D01*
X147579Y-43550D01*
X147851Y-43663D01*
X148146Y-43663D01*
X148419Y-43550D01*
X148628Y-43342D01*
X148741Y-43069D01*
X148742Y-42774D01*
X148742Y-44742D01*
X148629Y-44469D01*
X148420Y-44260D01*
X148148Y-44147D01*
X147853Y-44147D01*
X147580Y-44260D01*
X147371Y-44468D01*
X147258Y-44741D01*
X147257Y-45036D01*
X147370Y-45309D01*
X147579Y-45518D01*
X147851Y-45631D01*
X148146Y-45632D01*
X148419Y-45519D01*
X148628Y-45310D01*
X148741Y-45038D01*
X148742Y-44742D01*
X148742Y-54654D01*
X148733Y-54654D01*
X148239Y-54859D01*
X147860Y-55237D01*
X147655Y-55731D01*
X147654Y-56266D01*
X147859Y-56760D01*
X148237Y-57139D01*
X148731Y-57344D01*
X149266Y-57345D01*
X149760Y-57140D01*
X150139Y-56762D01*
X150344Y-56268D01*
X150345Y-55733D01*
X150345Y-57730D01*
X147050Y-57730D01*
X147050Y-57050D01*
X147050Y-54950D01*
X144726Y-54950D01*
X144726Y-20853D01*
X144613Y-20580D01*
X144405Y-20371D01*
X144132Y-20258D01*
X143837Y-20257D01*
X143564Y-20370D01*
X143355Y-20579D01*
X143242Y-20851D01*
X143241Y-21146D01*
X143354Y-21419D01*
X143563Y-21628D01*
X143835Y-21741D01*
X144131Y-21742D01*
X144404Y-21629D01*
X144613Y-21420D01*
X144726Y-21148D01*
X144726Y-20853D01*
X144726Y-54950D01*
X142758Y-54950D01*
X142758Y-20853D01*
X142645Y-20580D01*
X142436Y-20371D01*
X142164Y-20258D01*
X141868Y-20257D01*
X141595Y-20370D01*
X141386Y-20579D01*
X141273Y-20851D01*
X141273Y-21146D01*
X141386Y-21419D01*
X141594Y-21628D01*
X141867Y-21741D01*
X142162Y-21742D01*
X142435Y-21629D01*
X142644Y-21420D01*
X142757Y-21148D01*
X142758Y-20853D01*
X142758Y-54950D01*
X141950Y-54950D01*
X141950Y-57050D01*
X147050Y-57050D01*
X147050Y-57730D01*
X138726Y-57730D01*
X138726Y-20853D01*
X138613Y-20580D01*
X138405Y-20371D01*
X138132Y-20258D01*
X137837Y-20257D01*
X137564Y-20370D01*
X137355Y-20579D01*
X137242Y-20851D01*
X137241Y-21146D01*
X137354Y-21419D01*
X137563Y-21628D01*
X137835Y-21741D01*
X138131Y-21742D01*
X138404Y-21629D01*
X138613Y-21420D01*
X138726Y-21148D01*
X138726Y-20853D01*
X138726Y-57730D01*
X136758Y-57730D01*
X136758Y-20853D01*
X136645Y-20580D01*
X136436Y-20371D01*
X136164Y-20258D01*
X135868Y-20257D01*
X135595Y-20370D01*
X135386Y-20579D01*
X135273Y-20851D01*
X135273Y-21146D01*
X135386Y-21419D01*
X135594Y-21628D01*
X135867Y-21741D01*
X136162Y-21742D01*
X136435Y-21629D01*
X136644Y-21420D01*
X136757Y-21148D01*
X136758Y-20853D01*
X136758Y-57730D01*
X134075Y-57730D01*
X134075Y-34963D01*
X134010Y-34806D01*
X133891Y-34687D01*
X133734Y-34622D01*
X133565Y-34622D01*
X133409Y-34686D01*
X133348Y-34747D01*
X132302Y-34747D01*
X132187Y-34770D01*
X132090Y-34835D01*
X131250Y-35675D01*
X131165Y-35674D01*
X131009Y-35739D01*
X130889Y-35858D01*
X130825Y-36015D01*
X130824Y-36184D01*
X130872Y-36300D01*
X130224Y-36300D01*
X132374Y-34150D01*
X133298Y-34150D01*
X133358Y-34210D01*
X133515Y-34274D01*
X133684Y-34275D01*
X133840Y-34210D01*
X133960Y-34091D01*
X134024Y-33934D01*
X134025Y-33765D01*
X133960Y-33609D01*
X133841Y-33489D01*
X133684Y-33425D01*
X133515Y-33424D01*
X133359Y-33489D01*
X133298Y-33550D01*
X133251Y-33550D01*
X133310Y-33491D01*
X133374Y-33334D01*
X133375Y-33165D01*
X133310Y-33009D01*
X133191Y-32889D01*
X133034Y-32825D01*
X132865Y-32824D01*
X132726Y-32882D01*
X132726Y-20853D01*
X132613Y-20580D01*
X132405Y-20371D01*
X132132Y-20258D01*
X131837Y-20257D01*
X131564Y-20370D01*
X131355Y-20579D01*
X131242Y-20851D01*
X131241Y-21146D01*
X131354Y-21419D01*
X131563Y-21628D01*
X131835Y-21741D01*
X132131Y-21742D01*
X132404Y-21629D01*
X132613Y-21420D01*
X132726Y-21148D01*
X132726Y-20853D01*
X132726Y-32882D01*
X132709Y-32889D01*
X132648Y-32950D01*
X132400Y-32950D01*
X132285Y-32972D01*
X132187Y-33037D01*
X131125Y-34100D01*
X131125Y-33465D01*
X131060Y-33309D01*
X130941Y-33189D01*
X130784Y-33125D01*
X130758Y-33125D01*
X130758Y-20853D01*
X130645Y-20580D01*
X130436Y-20371D01*
X130164Y-20258D01*
X129868Y-20257D01*
X129595Y-20370D01*
X129386Y-20579D01*
X129273Y-20851D01*
X129273Y-21146D01*
X129386Y-21419D01*
X129594Y-21628D01*
X129867Y-21741D01*
X130162Y-21742D01*
X130435Y-21629D01*
X130644Y-21420D01*
X130757Y-21148D01*
X130758Y-20853D01*
X130758Y-33125D01*
X130699Y-33124D01*
X129712Y-32137D01*
X129641Y-32090D01*
X129541Y-31989D01*
X129384Y-31925D01*
X129215Y-31924D01*
X129059Y-31989D01*
X128939Y-32108D01*
X128875Y-32265D01*
X128874Y-32375D01*
X128765Y-32374D01*
X128609Y-32439D01*
X128489Y-32558D01*
X128425Y-32715D01*
X128424Y-32884D01*
X128489Y-33040D01*
X128608Y-33160D01*
X128765Y-33224D01*
X128850Y-33225D01*
X129725Y-34099D01*
X129724Y-34184D01*
X129789Y-34340D01*
X129908Y-34460D01*
X130065Y-34524D01*
X130234Y-34525D01*
X130390Y-34460D01*
X130510Y-34341D01*
X130574Y-34184D01*
X130575Y-34015D01*
X130546Y-33946D01*
X130615Y-33974D01*
X130784Y-33975D01*
X130940Y-33910D01*
X131060Y-33791D01*
X131124Y-33634D01*
X131125Y-33465D01*
X131125Y-34100D01*
X130276Y-34948D01*
X130260Y-34909D01*
X130141Y-34789D01*
X129984Y-34725D01*
X129815Y-34724D01*
X129659Y-34789D01*
X129598Y-34850D01*
X126632Y-34850D01*
X126632Y-20853D01*
X126519Y-20580D01*
X126310Y-20371D01*
X126038Y-20258D01*
X125742Y-20257D01*
X125469Y-20370D01*
X125260Y-20579D01*
X125147Y-20851D01*
X125147Y-21146D01*
X125260Y-21419D01*
X125468Y-21628D01*
X125741Y-21741D01*
X126036Y-21742D01*
X126309Y-21629D01*
X126518Y-21420D01*
X126631Y-21148D01*
X126632Y-20853D01*
X126632Y-34850D01*
X126250Y-34850D01*
X126135Y-34872D01*
X126037Y-34937D01*
X125850Y-35125D01*
X125765Y-35124D01*
X125609Y-35189D01*
X125489Y-35308D01*
X125425Y-35465D01*
X125424Y-35634D01*
X125436Y-35662D01*
X125250Y-35475D01*
X125250Y-32101D01*
X125310Y-32041D01*
X125374Y-31884D01*
X125375Y-31715D01*
X125310Y-31559D01*
X125191Y-31439D01*
X125034Y-31375D01*
X124865Y-31374D01*
X124709Y-31439D01*
X124667Y-31481D01*
X124667Y-21127D01*
X124659Y-20832D01*
X124561Y-20596D01*
X124446Y-20545D01*
X124375Y-20616D01*
X124375Y-20475D01*
X124324Y-20359D01*
X124048Y-20254D01*
X123753Y-20262D01*
X123517Y-20359D01*
X123467Y-20475D01*
X123921Y-20929D01*
X124375Y-20475D01*
X124375Y-20616D01*
X123991Y-21000D01*
X124446Y-21454D01*
X124561Y-21403D01*
X124667Y-21127D01*
X124667Y-31481D01*
X124589Y-31558D01*
X124525Y-31715D01*
X124524Y-31884D01*
X124589Y-32040D01*
X124650Y-32101D01*
X124650Y-35600D01*
X124672Y-35714D01*
X124737Y-35812D01*
X126137Y-37212D01*
X126137Y-37212D01*
X126235Y-37277D01*
X126350Y-37300D01*
X127848Y-37300D01*
X127887Y-37338D01*
X127500Y-37725D01*
X127415Y-37724D01*
X127259Y-37789D01*
X127139Y-37908D01*
X127075Y-38065D01*
X127074Y-38234D01*
X127133Y-38375D01*
X127075Y-38515D01*
X127074Y-38684D01*
X127139Y-38840D01*
X127258Y-38960D01*
X127415Y-39024D01*
X127550Y-39025D01*
X126825Y-39750D01*
X125701Y-39750D01*
X125641Y-39689D01*
X125525Y-39641D01*
X125525Y-36865D01*
X125460Y-36709D01*
X125341Y-36589D01*
X125184Y-36525D01*
X125099Y-36524D01*
X124375Y-35801D01*
X124375Y-21524D01*
X123921Y-21070D01*
X123850Y-21141D01*
X123850Y-21000D01*
X123396Y-20545D01*
X123281Y-20596D01*
X123175Y-20872D01*
X123183Y-21167D01*
X123281Y-21403D01*
X123396Y-21454D01*
X123850Y-21000D01*
X123850Y-21141D01*
X123467Y-21524D01*
X123517Y-21640D01*
X123793Y-21745D01*
X124088Y-21737D01*
X124324Y-21640D01*
X124375Y-21524D01*
X124375Y-35801D01*
X122695Y-34120D01*
X122695Y-20853D01*
X122582Y-20580D01*
X122373Y-20371D01*
X122101Y-20258D01*
X121805Y-20257D01*
X121532Y-20370D01*
X121323Y-20579D01*
X121210Y-20851D01*
X121210Y-21146D01*
X121323Y-21419D01*
X121531Y-21628D01*
X121804Y-21741D01*
X122099Y-21742D01*
X122372Y-21629D01*
X122581Y-21420D01*
X122694Y-21148D01*
X122695Y-20853D01*
X122695Y-34120D01*
X122524Y-33950D01*
X122525Y-33865D01*
X122460Y-33709D01*
X122341Y-33589D01*
X122184Y-33525D01*
X122015Y-33524D01*
X121859Y-33589D01*
X121739Y-33708D01*
X121675Y-33865D01*
X121674Y-34034D01*
X121721Y-34147D01*
X121524Y-33950D01*
X121525Y-33865D01*
X121460Y-33709D01*
X121341Y-33589D01*
X121184Y-33525D01*
X121015Y-33524D01*
X120859Y-33589D01*
X120739Y-33708D01*
X120726Y-33741D01*
X120726Y-20853D01*
X120613Y-20580D01*
X120405Y-20371D01*
X120132Y-20258D01*
X119837Y-20257D01*
X119564Y-20370D01*
X119355Y-20579D01*
X119242Y-20851D01*
X119241Y-21146D01*
X119354Y-21419D01*
X119563Y-21628D01*
X119835Y-21741D01*
X120131Y-21742D01*
X120404Y-21629D01*
X120613Y-21420D01*
X120726Y-21148D01*
X120726Y-20853D01*
X120726Y-33741D01*
X120675Y-33865D01*
X120674Y-34034D01*
X120739Y-34190D01*
X120858Y-34310D01*
X121015Y-34374D01*
X121100Y-34375D01*
X123975Y-37249D01*
X123974Y-37334D01*
X124039Y-37490D01*
X124158Y-37610D01*
X124315Y-37674D01*
X124484Y-37675D01*
X124640Y-37610D01*
X124760Y-37491D01*
X124824Y-37334D01*
X124824Y-37276D01*
X124858Y-37310D01*
X125015Y-37374D01*
X125184Y-37375D01*
X125340Y-37310D01*
X125460Y-37191D01*
X125524Y-37034D01*
X125525Y-36865D01*
X125525Y-39641D01*
X125484Y-39625D01*
X125315Y-39624D01*
X125159Y-39689D01*
X125039Y-39808D01*
X124975Y-39965D01*
X124974Y-40134D01*
X125039Y-40290D01*
X125073Y-40324D01*
X125039Y-40358D01*
X124975Y-40515D01*
X124974Y-40684D01*
X125039Y-40840D01*
X125158Y-40960D01*
X125315Y-41024D01*
X125484Y-41025D01*
X125640Y-40960D01*
X125701Y-40900D01*
X126398Y-40900D01*
X126458Y-40960D01*
X126615Y-41024D01*
X126784Y-41025D01*
X126940Y-40960D01*
X127060Y-40841D01*
X127124Y-40684D01*
X127125Y-40515D01*
X127060Y-40359D01*
X127034Y-40333D01*
X127064Y-40327D01*
X127064Y-40327D01*
X127162Y-40262D01*
X127999Y-39424D01*
X128084Y-39425D01*
X128240Y-39360D01*
X128360Y-39241D01*
X128424Y-39084D01*
X128425Y-38915D01*
X128418Y-38900D01*
X128950Y-38900D01*
X128950Y-38899D01*
X129064Y-38877D01*
X129064Y-38877D01*
X129162Y-38812D01*
X130224Y-37750D01*
X131848Y-37750D01*
X131839Y-37758D01*
X131775Y-37915D01*
X131774Y-38084D01*
X131839Y-38240D01*
X131900Y-38301D01*
X131900Y-39250D01*
X131900Y-40825D01*
X130075Y-42650D01*
X128897Y-42650D01*
X128924Y-42584D01*
X128925Y-42499D01*
X131162Y-40262D01*
X131162Y-40262D01*
X131162Y-40262D01*
X131562Y-39862D01*
X131562Y-39862D01*
X131627Y-39764D01*
X131649Y-39650D01*
X131650Y-39650D01*
X131650Y-38851D01*
X131710Y-38791D01*
X131774Y-38634D01*
X131775Y-38465D01*
X131710Y-38309D01*
X131591Y-38189D01*
X131434Y-38125D01*
X131265Y-38124D01*
X131109Y-38189D01*
X130989Y-38308D01*
X130925Y-38465D01*
X130924Y-38634D01*
X130989Y-38790D01*
X131050Y-38851D01*
X131050Y-39525D01*
X130737Y-39837D01*
X130737Y-39837D01*
X128500Y-42075D01*
X128415Y-42074D01*
X128259Y-42139D01*
X128139Y-42258D01*
X128075Y-42415D01*
X128074Y-42584D01*
X128102Y-42650D01*
X127074Y-42650D01*
X127699Y-42024D01*
X127784Y-42025D01*
X127940Y-41960D01*
X128060Y-41841D01*
X128124Y-41684D01*
X128125Y-41515D01*
X128060Y-41359D01*
X127941Y-41239D01*
X127784Y-41175D01*
X127615Y-41174D01*
X127459Y-41239D01*
X127339Y-41358D01*
X127275Y-41515D01*
X127274Y-41600D01*
X118825Y-50050D01*
X117450Y-50050D01*
X117400Y-50050D01*
X116100Y-50050D01*
X116128Y-49980D01*
X116129Y-49811D01*
X116064Y-49655D01*
X116004Y-49594D01*
X116004Y-46470D01*
X121624Y-40849D01*
X121709Y-40850D01*
X121865Y-40785D01*
X121985Y-40666D01*
X122049Y-40509D01*
X122050Y-40340D01*
X121985Y-40184D01*
X121866Y-40064D01*
X121709Y-40000D01*
X121540Y-39999D01*
X121384Y-40064D01*
X121264Y-40183D01*
X121200Y-40340D01*
X121199Y-40425D01*
X118758Y-42867D01*
X118758Y-20853D01*
X118645Y-20580D01*
X118436Y-20371D01*
X118164Y-20258D01*
X117868Y-20257D01*
X117595Y-20370D01*
X117386Y-20579D01*
X117273Y-20851D01*
X117273Y-21146D01*
X117386Y-21419D01*
X117594Y-21628D01*
X117867Y-21741D01*
X118162Y-21742D01*
X118435Y-21629D01*
X118644Y-21420D01*
X118757Y-21148D01*
X118758Y-20853D01*
X118758Y-42867D01*
X116789Y-44836D01*
X116789Y-20853D01*
X116676Y-20580D01*
X116468Y-20371D01*
X116195Y-20258D01*
X115900Y-20257D01*
X115627Y-20370D01*
X115418Y-20579D01*
X115305Y-20851D01*
X115304Y-21146D01*
X115417Y-21419D01*
X115626Y-21628D01*
X115898Y-21741D01*
X116194Y-21742D01*
X116467Y-21629D01*
X116676Y-21420D01*
X116789Y-21148D01*
X116789Y-20853D01*
X116789Y-44836D01*
X115607Y-46018D01*
X115585Y-46022D01*
X115487Y-46087D01*
X115422Y-46185D01*
X115400Y-46300D01*
X115404Y-46320D01*
X115404Y-46346D01*
X115404Y-49594D01*
X115343Y-49654D01*
X115279Y-49811D01*
X115278Y-49980D01*
X115307Y-50050D01*
X114820Y-50050D01*
X114820Y-20853D01*
X114708Y-20580D01*
X114499Y-20371D01*
X114227Y-20258D01*
X113931Y-20257D01*
X113658Y-20370D01*
X113449Y-20579D01*
X113336Y-20851D01*
X113336Y-21146D01*
X113449Y-21419D01*
X113657Y-21628D01*
X113930Y-21741D01*
X114225Y-21742D01*
X114498Y-21629D01*
X114707Y-21420D01*
X114820Y-21148D01*
X114820Y-20853D01*
X114820Y-50050D01*
X114624Y-50050D01*
X114424Y-49850D01*
X114425Y-49765D01*
X114360Y-49609D01*
X114241Y-49489D01*
X114084Y-49425D01*
X113915Y-49424D01*
X113759Y-49489D01*
X113639Y-49608D01*
X113575Y-49765D01*
X113574Y-49934D01*
X113639Y-50090D01*
X113758Y-50210D01*
X113915Y-50274D01*
X114000Y-50275D01*
X114197Y-50471D01*
X114084Y-50425D01*
X113915Y-50424D01*
X113759Y-50489D01*
X113639Y-50608D01*
X113575Y-50765D01*
X113574Y-50934D01*
X113639Y-51090D01*
X113758Y-51210D01*
X113915Y-51274D01*
X114084Y-51275D01*
X114240Y-51210D01*
X114301Y-51150D01*
X117450Y-51150D01*
X119000Y-51150D01*
X119000Y-51149D01*
X119114Y-51127D01*
X119114Y-51127D01*
X119212Y-51062D01*
X127024Y-43250D01*
X127448Y-43250D01*
X127389Y-43308D01*
X127325Y-43465D01*
X127324Y-43634D01*
X127380Y-43769D01*
X127289Y-43787D01*
X127111Y-43906D01*
X126991Y-44085D01*
X126950Y-44295D01*
X126950Y-44508D01*
X126991Y-44718D01*
X127111Y-44897D01*
X127276Y-45007D01*
X127140Y-45083D01*
X127006Y-45253D01*
X126948Y-45461D01*
X127010Y-45548D01*
X127450Y-45548D01*
X127450Y-45540D01*
X127550Y-45540D01*
X127550Y-45548D01*
X127557Y-45548D01*
X127557Y-45648D01*
X127550Y-45648D01*
X127550Y-46176D01*
X127635Y-46224D01*
X127671Y-46218D01*
X127859Y-46112D01*
X127993Y-45942D01*
X127998Y-45924D01*
X128111Y-46093D01*
X128289Y-46212D01*
X128500Y-46254D01*
X128710Y-46212D01*
X128888Y-46093D01*
X129000Y-45926D01*
X129111Y-46093D01*
X129289Y-46212D01*
X129500Y-46254D01*
X129710Y-46212D01*
X129756Y-46181D01*
X129937Y-46362D01*
X129937Y-46362D01*
X130035Y-46427D01*
X130150Y-46450D01*
X130798Y-46450D01*
X130858Y-46510D01*
X131015Y-46574D01*
X131184Y-46575D01*
X131340Y-46510D01*
X131460Y-46391D01*
X131524Y-46234D01*
X131525Y-46065D01*
X131460Y-45909D01*
X131341Y-45789D01*
X131184Y-45725D01*
X131015Y-45724D01*
X130859Y-45789D01*
X130798Y-45850D01*
X130274Y-45850D01*
X130050Y-45625D01*
X130050Y-45491D01*
X130008Y-45281D01*
X129888Y-45102D01*
X129802Y-45045D01*
X129849Y-45045D01*
X129941Y-45007D01*
X130011Y-44937D01*
X130049Y-44845D01*
X130050Y-44745D01*
X130050Y-43958D01*
X130012Y-43867D01*
X129941Y-43796D01*
X129849Y-43758D01*
X129750Y-43758D01*
X129382Y-43758D01*
X128962Y-43337D01*
X128864Y-43272D01*
X128750Y-43250D01*
X130200Y-43250D01*
X130200Y-43249D01*
X130314Y-43227D01*
X130314Y-43227D01*
X130412Y-43162D01*
X132412Y-41162D01*
X132412Y-41162D01*
X132477Y-41064D01*
X132499Y-40950D01*
X132500Y-40950D01*
X132500Y-39250D01*
X132500Y-38301D01*
X132560Y-38241D01*
X132624Y-38084D01*
X132625Y-37915D01*
X132560Y-37759D01*
X132526Y-37725D01*
X132560Y-37691D01*
X132624Y-37534D01*
X132624Y-37474D01*
X132784Y-37475D01*
X132940Y-37410D01*
X133060Y-37291D01*
X133124Y-37134D01*
X133125Y-36965D01*
X133060Y-36809D01*
X132941Y-36689D01*
X132784Y-36625D01*
X132624Y-36624D01*
X132625Y-36515D01*
X132560Y-36359D01*
X132441Y-36239D01*
X132284Y-36175D01*
X132115Y-36174D01*
X131959Y-36239D01*
X131898Y-36300D01*
X131627Y-36300D01*
X131674Y-36184D01*
X131675Y-36099D01*
X132427Y-35347D01*
X133348Y-35347D01*
X133408Y-35407D01*
X133565Y-35472D01*
X133734Y-35472D01*
X133890Y-35407D01*
X134010Y-35288D01*
X134074Y-35132D01*
X134075Y-34963D01*
X134075Y-57730D01*
X128675Y-57730D01*
X128675Y-50465D01*
X128610Y-50309D01*
X128491Y-50189D01*
X128334Y-50125D01*
X128165Y-50124D01*
X128009Y-50189D01*
X127889Y-50308D01*
X127825Y-50465D01*
X127824Y-50550D01*
X127646Y-50729D01*
X127634Y-50725D01*
X127465Y-50724D01*
X127450Y-50731D01*
X127450Y-46176D01*
X127450Y-45648D01*
X127010Y-45648D01*
X126948Y-45734D01*
X127006Y-45942D01*
X127140Y-46112D01*
X127328Y-46218D01*
X127364Y-46224D01*
X127450Y-46176D01*
X127450Y-50731D01*
X127309Y-50789D01*
X127189Y-50908D01*
X127125Y-51065D01*
X127124Y-51234D01*
X127189Y-51390D01*
X127308Y-51510D01*
X127465Y-51574D01*
X127634Y-51575D01*
X127790Y-51510D01*
X127910Y-51391D01*
X127964Y-51259D01*
X128249Y-50974D01*
X128334Y-50975D01*
X128490Y-50910D01*
X128610Y-50791D01*
X128674Y-50634D01*
X128675Y-50465D01*
X128675Y-57730D01*
X125726Y-57730D01*
X125726Y-54853D01*
X125613Y-54580D01*
X125405Y-54371D01*
X125132Y-54258D01*
X124837Y-54257D01*
X124564Y-54370D01*
X124355Y-54579D01*
X124242Y-54851D01*
X124241Y-55146D01*
X124354Y-55419D01*
X124563Y-55628D01*
X124835Y-55741D01*
X125131Y-55742D01*
X125404Y-55629D01*
X125613Y-55420D01*
X125726Y-55148D01*
X125726Y-54853D01*
X125726Y-57730D01*
X123758Y-57730D01*
X123758Y-54853D01*
X123645Y-54580D01*
X123436Y-54371D01*
X123164Y-54258D01*
X122868Y-54257D01*
X122595Y-54370D01*
X122386Y-54579D01*
X122273Y-54851D01*
X122273Y-55146D01*
X122386Y-55419D01*
X122594Y-55628D01*
X122867Y-55741D01*
X123162Y-55742D01*
X123435Y-55629D01*
X123644Y-55420D01*
X123757Y-55148D01*
X123758Y-54853D01*
X123758Y-57730D01*
X121175Y-57730D01*
X121175Y-50415D01*
X121110Y-50259D01*
X120991Y-50139D01*
X120834Y-50075D01*
X120665Y-50074D01*
X120509Y-50139D01*
X120389Y-50258D01*
X120325Y-50415D01*
X120324Y-50584D01*
X120389Y-50740D01*
X120508Y-50860D01*
X120665Y-50924D01*
X120834Y-50925D01*
X120990Y-50860D01*
X121110Y-50741D01*
X121174Y-50584D01*
X121175Y-50415D01*
X121175Y-57730D01*
X112856Y-57730D01*
X112856Y-21127D01*
X112848Y-20832D01*
X112750Y-20596D01*
X112635Y-20545D01*
X112564Y-20616D01*
X112564Y-20475D01*
X112513Y-20359D01*
X112237Y-20254D01*
X111942Y-20262D01*
X111706Y-20359D01*
X111656Y-20475D01*
X112110Y-20929D01*
X112564Y-20475D01*
X112564Y-20616D01*
X112180Y-21000D01*
X112635Y-21454D01*
X112750Y-21403D01*
X112856Y-21127D01*
X112856Y-57730D01*
X112696Y-57730D01*
X112696Y-55000D01*
X112654Y-54789D01*
X112535Y-54611D01*
X112369Y-54500D01*
X112535Y-54388D01*
X112654Y-54210D01*
X112696Y-54000D01*
X112654Y-53789D01*
X112535Y-53611D01*
X112443Y-53550D01*
X112482Y-53550D01*
X112574Y-53512D01*
X112644Y-53441D01*
X112682Y-53349D01*
X112683Y-53250D01*
X112683Y-52650D01*
X112645Y-52558D01*
X112574Y-52488D01*
X112564Y-52483D01*
X112564Y-21524D01*
X112110Y-21070D01*
X112039Y-21141D01*
X112039Y-21000D01*
X111585Y-20545D01*
X111470Y-20596D01*
X111364Y-20872D01*
X111372Y-21167D01*
X111470Y-21403D01*
X111585Y-21454D01*
X112039Y-21000D01*
X112039Y-21141D01*
X111656Y-21524D01*
X111706Y-21640D01*
X111982Y-21745D01*
X112277Y-21737D01*
X112513Y-21640D01*
X112564Y-21524D01*
X112564Y-52483D01*
X112482Y-52450D01*
X112383Y-52449D01*
X112375Y-52449D01*
X112375Y-51300D01*
X112346Y-51156D01*
X112265Y-51034D01*
X109980Y-48750D01*
X109859Y-48669D01*
X109745Y-48646D01*
X109745Y-45017D01*
X109742Y-44884D01*
X109742Y-42774D01*
X109742Y-40805D01*
X109742Y-38837D01*
X109742Y-36868D01*
X109742Y-34900D01*
X109742Y-32931D01*
X109742Y-30963D01*
X109629Y-30690D01*
X109420Y-30481D01*
X109345Y-30450D01*
X109345Y-19733D01*
X109140Y-19239D01*
X108762Y-18860D01*
X108268Y-18655D01*
X107733Y-18654D01*
X107239Y-18859D01*
X106860Y-19237D01*
X106655Y-19731D01*
X106654Y-20266D01*
X106859Y-20760D01*
X107237Y-21139D01*
X107731Y-21344D01*
X108266Y-21345D01*
X108760Y-21140D01*
X109139Y-20762D01*
X109344Y-20268D01*
X109345Y-19733D01*
X109345Y-30450D01*
X109148Y-30368D01*
X108853Y-30367D01*
X108580Y-30480D01*
X108371Y-30689D01*
X108258Y-30961D01*
X108257Y-31257D01*
X108370Y-31530D01*
X108579Y-31739D01*
X108851Y-31852D01*
X109146Y-31852D01*
X109419Y-31739D01*
X109628Y-31531D01*
X109741Y-31258D01*
X109742Y-30963D01*
X109742Y-32931D01*
X109629Y-32658D01*
X109420Y-32449D01*
X109148Y-32336D01*
X108853Y-32336D01*
X108580Y-32449D01*
X108371Y-32657D01*
X108258Y-32930D01*
X108257Y-33225D01*
X108370Y-33498D01*
X108579Y-33707D01*
X108851Y-33820D01*
X109146Y-33820D01*
X109419Y-33708D01*
X109628Y-33499D01*
X109741Y-33227D01*
X109742Y-32931D01*
X109742Y-34900D01*
X109629Y-34627D01*
X109420Y-34418D01*
X109148Y-34305D01*
X108853Y-34304D01*
X108580Y-34417D01*
X108371Y-34626D01*
X108258Y-34898D01*
X108257Y-35194D01*
X108370Y-35467D01*
X108579Y-35676D01*
X108851Y-35789D01*
X109146Y-35789D01*
X109419Y-35676D01*
X109628Y-35468D01*
X109741Y-35195D01*
X109742Y-34900D01*
X109742Y-36868D01*
X109629Y-36595D01*
X109420Y-36386D01*
X109148Y-36273D01*
X108853Y-36273D01*
X108580Y-36386D01*
X108371Y-36594D01*
X108258Y-36867D01*
X108257Y-37162D01*
X108370Y-37435D01*
X108579Y-37644D01*
X108851Y-37757D01*
X109146Y-37758D01*
X109419Y-37645D01*
X109628Y-37436D01*
X109741Y-37164D01*
X109742Y-36868D01*
X109742Y-38837D01*
X109629Y-38564D01*
X109420Y-38355D01*
X109148Y-38242D01*
X108853Y-38241D01*
X108580Y-38354D01*
X108371Y-38563D01*
X108258Y-38835D01*
X108257Y-39131D01*
X108370Y-39404D01*
X108579Y-39613D01*
X108851Y-39726D01*
X109146Y-39726D01*
X109419Y-39613D01*
X109628Y-39405D01*
X109741Y-39132D01*
X109742Y-38837D01*
X109742Y-40805D01*
X109629Y-40532D01*
X109420Y-40323D01*
X109148Y-40210D01*
X108853Y-40210D01*
X108580Y-40323D01*
X108371Y-40531D01*
X108258Y-40804D01*
X108257Y-41099D01*
X108370Y-41372D01*
X108579Y-41581D01*
X108851Y-41694D01*
X109146Y-41695D01*
X109419Y-41582D01*
X109628Y-41373D01*
X109741Y-41101D01*
X109742Y-40805D01*
X109742Y-42774D01*
X109629Y-42501D01*
X109420Y-42292D01*
X109148Y-42179D01*
X108853Y-42179D01*
X108580Y-42291D01*
X108371Y-42500D01*
X108258Y-42772D01*
X108257Y-43068D01*
X108370Y-43341D01*
X108579Y-43550D01*
X108851Y-43663D01*
X109146Y-43663D01*
X109419Y-43550D01*
X109628Y-43342D01*
X109741Y-43069D01*
X109742Y-42774D01*
X109742Y-44884D01*
X109737Y-44722D01*
X109640Y-44486D01*
X109524Y-44435D01*
X109454Y-44506D01*
X109454Y-44364D01*
X109403Y-44249D01*
X109127Y-44143D01*
X108832Y-44151D01*
X108596Y-44249D01*
X108545Y-44364D01*
X109000Y-44819D01*
X109454Y-44364D01*
X109454Y-44506D01*
X109070Y-44889D01*
X109524Y-45343D01*
X109640Y-45293D01*
X109745Y-45017D01*
X109745Y-48646D01*
X109715Y-48640D01*
X109648Y-48640D01*
X109629Y-48595D01*
X109454Y-48420D01*
X109454Y-45414D01*
X109000Y-44960D01*
X108929Y-45031D01*
X108929Y-44889D01*
X108475Y-44435D01*
X108359Y-44486D01*
X108254Y-44762D01*
X108262Y-45057D01*
X108359Y-45293D01*
X108475Y-45343D01*
X108929Y-44889D01*
X108929Y-45031D01*
X108545Y-45414D01*
X108596Y-45529D01*
X108872Y-45635D01*
X109167Y-45627D01*
X109403Y-45529D01*
X109454Y-45414D01*
X109454Y-48420D01*
X109420Y-48386D01*
X109148Y-48273D01*
X108853Y-48273D01*
X108580Y-48386D01*
X108371Y-48594D01*
X108258Y-48867D01*
X108257Y-49162D01*
X108370Y-49435D01*
X108579Y-49644D01*
X108851Y-49757D01*
X109146Y-49758D01*
X109419Y-49645D01*
X109617Y-49447D01*
X111625Y-51455D01*
X111625Y-52449D01*
X111517Y-52449D01*
X111425Y-52487D01*
X111355Y-52558D01*
X111317Y-52650D01*
X111316Y-52749D01*
X111316Y-53349D01*
X111354Y-53441D01*
X111425Y-53511D01*
X111517Y-53549D01*
X111556Y-53549D01*
X111464Y-53611D01*
X111345Y-53789D01*
X111303Y-54000D01*
X111345Y-54210D01*
X111464Y-54388D01*
X111630Y-54500D01*
X111464Y-54611D01*
X111345Y-54789D01*
X111303Y-55000D01*
X111345Y-55210D01*
X111464Y-55388D01*
X111643Y-55508D01*
X111853Y-55550D01*
X112146Y-55550D01*
X112356Y-55508D01*
X112535Y-55388D01*
X112654Y-55210D01*
X112696Y-55000D01*
X112696Y-57730D01*
X109745Y-57730D01*
X109745Y-51111D01*
X109737Y-50816D01*
X109640Y-50580D01*
X109524Y-50530D01*
X109454Y-50600D01*
X109454Y-50459D01*
X109403Y-50344D01*
X109127Y-50238D01*
X108832Y-50246D01*
X108596Y-50344D01*
X108545Y-50459D01*
X109000Y-50913D01*
X109454Y-50459D01*
X109454Y-50600D01*
X109070Y-50984D01*
X109524Y-51438D01*
X109640Y-51387D01*
X109745Y-51111D01*
X109745Y-57730D01*
X109454Y-57730D01*
X109454Y-51509D01*
X109000Y-51054D01*
X108929Y-51125D01*
X108929Y-50984D01*
X108475Y-50530D01*
X108359Y-50580D01*
X108254Y-50856D01*
X108262Y-51151D01*
X108359Y-51387D01*
X108475Y-51438D01*
X108929Y-50984D01*
X108929Y-51125D01*
X108545Y-51509D01*
X108596Y-51624D01*
X108872Y-51730D01*
X109167Y-51722D01*
X109403Y-51624D01*
X109454Y-51509D01*
X109454Y-57730D01*
X109345Y-57730D01*
X109345Y-55733D01*
X109140Y-55239D01*
X108762Y-54860D01*
X108268Y-54655D01*
X107733Y-54654D01*
X107239Y-54859D01*
X106860Y-55237D01*
X106655Y-55731D01*
X106654Y-56266D01*
X106859Y-56760D01*
X107237Y-57139D01*
X107731Y-57344D01*
X108266Y-57345D01*
X108760Y-57140D01*
X109139Y-56762D01*
X109344Y-56268D01*
X109345Y-55733D01*
X109345Y-57730D01*
X106269Y-57730D01*
X106269Y-18269D01*
X150730Y-18269D01*
X150730Y-57730D01*
M02*
