M48
;DRILL file {Pcbnew (2013-may-18)-stable} date Wed 01 Apr 2015 06:05:39 PM EDT
;FORMAT={-:-/ absolute / inch / decimal}
FMAT,2
INCH,TZ
T1C0.020
T2C0.039
T3C0.051
T4C0.125
%
G90
G05
M72
T1
X1.97Y-5.175
X2.Y-4.985
X2.Y-5.085
X2.09Y-4.775
X2.1704Y-4.9896
X2.25Y-5.24
X2.27Y-5.15
X2.29Y-4.9
X2.5Y-4.39
X2.675Y-5.05
X2.71Y-3.395
X2.7625Y-4.0425
X2.77Y-4.325
X2.81Y-3.395
X3.04Y-3.725
X3.0604Y-5.0204
X3.095Y-3.18
X3.11Y-3.695
X3.14Y-4.005
X3.14Y-4.06
X3.185Y-3.555
X3.25Y-3.6
X3.27Y-4.06
X3.35Y-3.815
X3.35Y-3.86
X3.355Y-5.115
X3.37Y-4.16
X3.375Y-4.355
X3.4Y-3.9
X3.41Y-3.82
X3.415Y-3.7
X3.425Y-5.055
X3.45Y-4.16
X3.45Y-4.25
X3.465Y-3.795
X3.475Y-3.9
X3.485Y-3.28
X3.485Y-3.43
X3.525Y-3.55
X3.53Y-3.235
X3.55Y-3.705
X3.59Y-3.515
X3.615Y-3.41
X3.67Y-3.355
X3.7Y-3.
X3.71Y-4.615
X3.725Y-3.61
X3.735Y-3.855
X3.8Y-4.1796
X3.82Y-3.66
X3.82Y-3.745
X3.82Y-3.8
X3.87Y-3.705
X3.895Y-3.325
X3.96Y-3.385
X3.965Y-3.5047
X4.3Y-3.
X4.9Y-3.
X6.67Y-5.175
X6.7Y-4.985
X6.7Y-5.085
X6.79Y-4.775
X6.8704Y-4.9896
X6.95Y-5.24
X6.97Y-5.15
X6.99Y-4.9
X7.2Y-4.39
X7.375Y-5.05
X7.41Y-3.395
X7.4625Y-4.0425
X7.47Y-4.325
X7.51Y-3.395
X7.74Y-3.725
X7.7604Y-5.0204
X7.795Y-3.18
X7.81Y-3.695
X7.84Y-4.005
X7.84Y-4.06
X7.885Y-3.555
X7.95Y-3.6
X7.97Y-4.06
X8.05Y-3.815
X8.05Y-3.86
X8.055Y-5.115
X8.07Y-4.16
X8.075Y-4.355
X8.1Y-3.9
X8.11Y-3.82
X8.115Y-3.7
X8.125Y-5.055
X8.15Y-4.16
X8.15Y-4.25
X8.165Y-3.795
X8.175Y-3.9
X8.185Y-3.28
X8.185Y-3.43
X8.225Y-3.55
X8.23Y-3.235
X8.25Y-3.705
X8.29Y-3.515
X8.315Y-3.41
X8.37Y-3.355
X8.4Y-3.
X8.41Y-4.615
X8.425Y-3.61
X8.435Y-3.855
X8.5Y-4.1796
X8.52Y-3.66
X8.52Y-3.745
X8.52Y-3.8
X8.57Y-3.705
X8.595Y-3.325
X8.66Y-3.385
X8.665Y-3.5047
X9.Y-3.
X9.6Y-3.
X11.37Y-5.175
X11.4Y-4.985
X11.4Y-5.085
X11.49Y-4.775
X11.5704Y-4.9896
X11.65Y-5.24
X11.67Y-5.15
X11.69Y-4.9
X11.9Y-4.39
X12.075Y-5.05
X12.11Y-3.395
X12.1625Y-4.0425
X12.17Y-4.325
X12.21Y-3.395
X12.44Y-3.725
X12.4604Y-5.0204
X12.495Y-3.18
X12.51Y-3.695
X12.54Y-4.005
X12.54Y-4.06
X12.585Y-3.555
X12.65Y-3.6
X12.67Y-4.06
X12.75Y-3.815
X12.75Y-3.86
X12.755Y-5.115
X12.77Y-4.16
X12.775Y-4.355
X12.8Y-3.9
X12.81Y-3.82
X12.815Y-3.7
X12.825Y-5.055
X12.85Y-4.16
X12.85Y-4.25
X12.865Y-3.795
X12.875Y-3.9
X12.885Y-3.28
X12.885Y-3.43
X12.925Y-3.55
X12.93Y-3.235
X12.95Y-3.705
X12.99Y-3.515
X13.015Y-3.41
X13.07Y-3.355
X13.1Y-3.
X13.11Y-4.615
X13.125Y-3.61
X13.135Y-3.855
X13.2Y-4.1796
X13.22Y-3.66
X13.22Y-3.745
X13.22Y-3.8
X13.27Y-3.705
X13.295Y-3.325
X13.36Y-3.385
X13.365Y-3.5047
X13.7Y-3.
X14.3Y-3.
T2
X1.8Y-5.3
X1.8Y-5.4
X1.8Y-5.5
X3.35Y-4.45
X3.35Y-4.55
X3.45Y-4.45
X3.45Y-4.55
X3.55Y-4.45
X3.55Y-4.55
X6.5Y-5.3
X6.5Y-5.4
X6.5Y-5.5
X8.05Y-4.45
X8.05Y-4.55
X8.15Y-4.45
X8.15Y-4.55
X8.25Y-4.45
X8.25Y-4.55
X11.2Y-5.3
X11.2Y-5.4
X11.2Y-5.5
X12.75Y-4.45
X12.75Y-4.55
X12.85Y-4.45
X12.85Y-4.55
X12.95Y-4.45
X12.95Y-4.55
T3
X1.5Y-3.111
X1.5Y-3.3079
X1.5Y-3.5047
X1.5Y-3.7016
X1.5Y-3.8984
X1.5Y-4.0953
X1.5Y-4.2921
X1.5Y-4.489
X1.5Y-4.9016
X1.5Y-5.0984
X1.811Y-2.1
X2.0079Y-2.1
X2.2047Y-2.1
X2.4016Y-2.1
X2.5984Y-2.1
X2.7953Y-2.1
X2.9016Y-5.5
X2.9921Y-2.1
X3.0984Y-5.5
X3.189Y-2.1
X3.6016Y-2.1
X3.7984Y-2.1
X4.2016Y-2.1
X4.3984Y-2.1
X4.8016Y-2.1
X4.9984Y-2.1
X5.4Y-3.111
X5.4Y-3.3079
X5.4Y-3.5047
X5.4Y-3.7016
X5.4Y-3.8984
X5.4Y-4.0953
X5.4Y-4.2921
X5.4Y-4.489
X6.2Y-3.111
X6.2Y-3.3079
X6.2Y-3.5047
X6.2Y-3.7016
X6.2Y-3.8984
X6.2Y-4.0953
X6.2Y-4.2921
X6.2Y-4.489
X6.2Y-4.9016
X6.2Y-5.0984
X6.511Y-2.1
X6.7079Y-2.1
X6.9047Y-2.1
X7.1016Y-2.1
X7.2984Y-2.1
X7.4953Y-2.1
X7.6016Y-5.5
X7.6921Y-2.1
X7.7984Y-5.5
X7.889Y-2.1
X8.3016Y-2.1
X8.4984Y-2.1
X8.9016Y-2.1
X9.0984Y-2.1
X9.5016Y-2.1
X9.6984Y-2.1
X10.1Y-3.111
X10.1Y-3.3079
X10.1Y-3.5047
X10.1Y-3.7016
X10.1Y-3.8984
X10.1Y-4.0953
X10.1Y-4.2921
X10.1Y-4.489
X10.9Y-3.111
X10.9Y-3.3079
X10.9Y-3.5047
X10.9Y-3.7016
X10.9Y-3.8984
X10.9Y-4.0953
X10.9Y-4.2921
X10.9Y-4.489
X10.9Y-4.9016
X10.9Y-5.0984
X11.211Y-2.1
X11.4079Y-2.1
X11.6047Y-2.1
X11.8016Y-2.1
X11.9984Y-2.1
X12.1953Y-2.1
X12.3016Y-5.5
X12.3921Y-2.1
X12.4984Y-5.5
X12.589Y-2.1
X13.0016Y-2.1
X13.1984Y-2.1
X13.6016Y-2.1
X13.7984Y-2.1
X14.2016Y-2.1
X14.3984Y-2.1
X14.8Y-3.111
X14.8Y-3.3079
X14.8Y-3.5047
X14.8Y-3.7016
X14.8Y-3.8984
X14.8Y-4.0953
X14.8Y-4.2921
X14.8Y-4.489
T4
X1.4Y-2.
X1.4Y-5.6
X5.5Y-2.
X5.5Y-5.6
X6.1Y-2.
X6.1Y-5.6
X10.2Y-2.
X10.2Y-5.6
X10.8Y-2.
X10.8Y-5.6
X14.9Y-2.
X14.9Y-5.6
T0
M30
